<svg width="22" height="23" viewBox="0 0 22 23" fill="none" xmlns="http://www.w3.org/2000/svg">
<path fill-rule="evenodd" clip-rule="evenodd" d="M18.5891 12.1262C18.3441 11.1869 17.5732 10.4366 16.5774 10.2364C16.991 9.61376 17.1089 8.86721 16.9452 8.17883C17.2434 7.81066 17.4221 7.34194 17.4221 6.83193C17.4221 5.64954 16.4616 4.68902 15.2792 4.68902C14.7667 4.68902 14.2958 4.86949 13.9269 5.17026C13.734 5.12533 13.5349 5.10214 13.3328 5.10214C12.7999 5.10214 12.2843 5.26322 11.8476 5.56624C11.6567 4.56385 10.9085 3.78502 9.95713 3.52956C9.7627 3.20464 9.8127 2.78594 10.0834 2.51522L10.9232 1.67828C11.0776 1.521 11.2883 1.43393 11.5101 1.43393C11.6843 1.43393 11.8528 1.4873 11.9932 1.5884L12.7656 2.14449C13.0576 1.98721 13.3638 1.85802 13.6783 1.75972L13.8412 0.804822C13.9086 0.403202 14.2541 0.111115 14.6613 0.111115H15.8437C16.2509 0.111115 16.5964 0.403202 16.6638 0.804822L16.821 1.73725C17.1496 1.83555 17.467 1.96755 17.7703 2.12764L18.5511 1.57155C18.6915 1.47044 18.8572 1.41708 19.0314 1.41708C19.2532 1.41708 19.4611 1.50415 19.6183 1.66142L20.4553 2.49837C20.7445 2.78484 20.7811 3.23701 20.5451 3.56842L19.9891 4.34638C20.1435 4.63847 20.2699 4.9446 20.3682 5.26196L21.3119 5.42205C21.7135 5.48945 22.0056 5.8349 22 6.24214V7.42453C22 7.83177 21.7079 8.17722 21.3062 8.24462L20.3626 8.4019C20.2671 8.71646 20.1379 9.02259 19.9834 9.31748L20.5395 10.0983C20.7754 10.4297 20.7361 10.8818 20.4496 11.1683L19.6127 12.0052C19.4554 12.1625 19.2476 12.2496 19.0257 12.2496C18.8704 12.2496 18.7195 12.2071 18.5891 12.1262Z" fill="currentColor"/>
<path fill-rule="evenodd" clip-rule="evenodd" d="M16.2353 11.7594L15.0342 11.5556C14.9091 11.1517 14.7483 10.7621 14.5517 10.3903L15.2594 9.4002C15.5597 8.97841 15.5132 8.40292 15.145 8.03832L14.0799 6.97312C13.8797 6.77295 13.6152 6.66214 13.3328 6.66214C13.1112 6.66214 12.9003 6.73006 12.7216 6.85874L11.7279 7.56649C11.3418 7.36274 10.9379 7.19474 10.5197 7.06963L10.3195 5.8829C10.2337 5.37175 9.79406 5 9.27576 5H7.77091C7.25261 5 6.81295 5.37175 6.72716 5.8829L6.51984 7.09823C6.1195 7.22334 5.72988 7.38776 5.35814 7.58793L4.37516 6.88018C4.19643 6.7515 3.98196 6.68359 3.76035 6.68359C3.47796 6.68359 3.20988 6.7944 3.01328 6.99457L1.94451 8.05977C1.57992 8.42437 1.52988 8.99986 1.83013 9.42165L2.54503 10.4261C2.34843 10.8014 2.19115 11.191 2.06962 11.5949L0.882895 11.7951C0.371745 11.8809 0 12.3206 0 12.8389V14.3437C0 14.862 0.371745 15.3017 0.882895 15.3875L2.09822 15.5948C2.22332 15.9951 2.38775 16.3848 2.58792 16.7565L1.88375 17.7359C1.58349 18.1577 1.62996 18.7332 1.99813 19.0978L3.06332 20.163C3.2635 20.3632 3.52801 20.474 3.81039 20.474C4.03201 20.474 4.2429 20.4061 4.42163 20.2774L5.42605 19.5625C5.78707 19.7519 6.16597 19.9056 6.55559 20.0272L6.75576 21.2282C6.84154 21.7394 7.2812 22.1111 7.7995 22.1111H9.30793C9.82623 22.1111 10.2659 21.7394 10.3517 21.2282L10.5554 20.0272C10.9593 19.9021 11.349 19.7412 11.7207 19.5446L12.7108 20.2524C12.8896 20.3811 13.104 20.449 13.3256 20.449C13.608 20.449 13.8725 20.3382 14.0727 20.138L15.1379 19.0728C15.5025 18.7082 15.5525 18.1327 15.2523 17.7109L14.5445 16.7172C14.7411 16.3419 14.9056 15.9523 15.0271 15.5519L16.2281 15.3517C16.7393 15.266 17.111 14.8263 17.111 14.308V12.8031C17.1182 12.2848 16.7464 11.8452 16.2353 11.7594ZM8.55729 17.8411C6.19087 17.8411 4.26997 15.9202 4.26997 13.5538C4.26997 11.1873 6.19087 9.26643 8.55729 9.26643C10.9237 9.26643 12.8446 11.1873 12.8446 13.5538C12.8446 15.9202 10.9237 17.8411 8.55729 17.8411Z" fill="currentColor"/>
</svg>
