<svg width="21" height="16" viewBox="0 0 21 16" fill="none" xmlns="http://www.w3.org/2000/svg">
<path fill-rule="evenodd" clip-rule="evenodd" d="M20.3532 1.96124C19.6048 2.27677 18.8138 2.48037 18.0057 2.56537C18.8435 2.04697 19.4626 1.24161 19.7469 0.300563C18.9558 0.781773 18.0828 1.11431 17.1713 1.28169C16.3941 0.484553 15.3336 0.0238529 14.2185 -0.00100708C13.1562 0.00630292 12.1394 0.430063 11.3882 1.17861C10.637 1.92715 10.2117 2.94027 10.2044 3.99887C10.1919 4.30277 10.2173 4.60697 10.2801 4.90457C8.69073 4.85507 7.13063 4.46507 5.70603 3.76117C4.28133 3.05717 3.02553 2.05587 2.02383 0.825203C1.68725 1.4545 1.50438 2.15407 1.49007 2.86697C1.4733 3.53127 1.63298 4.18827 1.95294 4.77137C2.2729 5.35437 2.74179 5.84287 3.31213 6.18727C2.64784 6.16367 1.99876 5.98277 1.41855 5.65957V5.73497C1.41354 6.66577 1.7369 7.56867 2.33214 8.28607C2.92738 9.00337 3.75663 9.48947 4.67503 9.65947C4.32893 9.75187 3.97293 9.80247 3.61473 9.81027C3.35983 9.82267 3.10453 9.79727 2.85713 9.73487C3.11153 10.5389 3.61513 11.2419 4.29553 11.7429C4.97593 12.2439 5.79823 12.5172 6.64423 12.5233C5.21843 13.6408 3.45953 14.2531 1.64553 14.2635C1.31548 14.2757 0.985109 14.25 0.660919 14.1871C2.51866 15.3614 4.67133 15.9893 6.87123 15.9986C8.38033 16.0117 9.87703 15.7265 11.2747 15.1594C12.6725 14.5923 13.9434 13.7546 15.0141 12.6948C16.0848 11.6351 16.9339 10.3742 17.5124 8.98527C18.0908 7.59627 18.387 6.10687 18.384 4.60307V4.07427C19.1535 3.48367 19.819 2.76957 20.3532 1.96124Z" fill="currentColor"/>
</svg>
