<?xml version="1.0" encoding="utf-8"?>
<!-- Generator: Adobe Illustrator 23.1.0, SVG Export Plug-In . SVG Version: 6.00 Build 0)  -->
<svg version="1.1" id="Capa_1" xmlns="http://www.w3.org/2000/svg" xmlns:xlink="http://www.w3.org/1999/xlink" x="0px" y="0px"
	 viewBox="0 0 480 407.3" style="enable-background:new 0 0 480 407.3;" xml:space="preserve">
<g>
	<path fill="currentColor" d="M0,38.8C0,17.4,17.4,0,38.8,0h402.4C462.6,0,480,17.4,480,38.8s-17.4,38.8-38.8,38.8H38.8C17.4,77.6,0,60.2,0,38.8z
		 M441.2,164.8H38.8C17.4,164.8,0,182.2,0,203.6s17.4,38.8,38.8,38.8h402.4c21.4,0,38.8-17.4,38.8-38.8S462.6,164.8,441.2,164.8z
		 M441.2,329.7H38.8C17.4,329.7,0,347.1,0,368.5s17.4,38.8,38.8,38.8h402.4c21.4,0,38.8-17.4,38.8-38.8S462.6,329.7,441.2,329.7z"/>
</g>
</svg>
