<svg width="13" height="11" viewBox="0 0 13 11" fill="none" xmlns="http://www.w3.org/2000/svg">
<path d="M5.73199 7.99213H4.22989V3.00489H5.73199V0C2.70284 0.261024 0.384766 2.64533 0.384766 5.5C0.384766 8.35467 2.70284 10.739 5.73199 11V7.99213Z" fill="#7B32E8"/>
<path d="M6.87842 0V3.04002C7.09435 3.06904 7.30616 3.1206 7.50993 3.19374C7.84163 3.31133 8.14543 3.48916 8.404 3.71708C8.65399 3.93888 8.85226 4.20703 8.98628 4.50457C9.12422 4.81454 9.19373 5.14761 9.19061 5.48358V5.49801C9.19352 5.83525 9.12402 6.16958 8.98628 6.48101C8.85311 6.77985 8.65475 7.04913 8.404 7.27148C8.1451 7.49997 7.84146 7.67906 7.50993 7.7988C7.3064 7.87349 7.09456 7.92639 6.87842 7.95649V11C9.90638 10.743 12.2256 8.35767 12.2256 5.5005C12.2256 2.64332 9.90638 0.258009 6.87842 0.000994935V0Z" fill="#1CB7ED"/>
</svg>
