<svg width="20" height="16" viewBox="0 0 20 16" fill="none" xmlns="http://www.w3.org/2000/svg">
<path fill-rule="evenodd" clip-rule="evenodd" d="M18.4471 0.102283L1.55139 6.62147C0.397324 7.08397 0.405914 7.72827 1.3409 8.01467L5.55622 9.33047L7.16852 14.2747C7.36462 14.8159 7.26732 15.0307 7.83572 15.0307C8.00562 15.029 8.17302 14.9886 8.32502 14.9127C8.47712 14.8368 8.60992 14.7273 8.71342 14.5925L10.8211 12.5422L15.2054 15.781C16.0115 16.2263 16.5943 15.9958 16.7962 15.0321L19.6742 1.46969C19.9634 0.292723 19.2188 -0.242787 18.4471 0.102283ZM6.21202 9.02697L15.7137 3.03327C16.1876 2.74687 16.6229 2.90007 16.2664 3.21657L8.13072 10.5562L7.81422 13.9353L6.21342 9.02697H6.21202Z" fill="currentColor"/>
</svg>
