<svg width="9" height="18" viewBox="0 0 9 18" fill="none" xmlns="http://www.w3.org/2000/svg">
<path fill-rule="evenodd" clip-rule="evenodd" d="M8.70446 6.07661H6.03569V4.319C6.02291 4.21901 6.03209 4.1174 6.06251 4.02128C6.09302 3.92516 6.14414 3.83687 6.21236 3.76253C6.28049 3.68828 6.36401 3.62969 6.45716 3.591C6.55022 3.55231 6.65066 3.53439 6.75146 3.53852H8.63966V0.609594H6.10157C5.62754 0.571983 5.15099 0.63654 4.70405 0.798909C4.25711 0.961278 3.85022 1.21768 3.51083 1.55079C3.17144 1.88389 2.90756 2.28595 2.73692 2.7298C2.56628 3.17366 2.49284 3.64895 2.52164 4.12361V6.01073H0.894714V9.0044H2.52164V17.3991H6.03569V9.0044H8.37947L8.70446 6.07661Z" fill="currentColor"/>
</svg>
