<svg width="18" height="19" viewBox="0 0 18 19" fill="none" xmlns="http://www.w3.org/2000/svg">
<path d="M9.49994 2.53212C11.7694 2.53212 12.0386 2.54062 12.9354 2.58171C15.2389 2.68654 16.3148 3.7795 16.4196 6.066C16.4607 6.96204 16.4685 7.23121 16.4685 9.50071C16.4685 11.7709 16.46 12.0394 16.4196 12.9354C16.3141 15.2198 15.241 16.3149 12.9354 16.4197C12.0386 16.4608 11.7709 16.4693 9.49994 16.4693C7.23044 16.4693 6.96127 16.4608 6.06523 16.4197C3.75606 16.3142 2.68577 15.2163 2.58094 12.9347C2.53986 12.0387 2.53136 11.7702 2.53136 9.5C2.53136 7.2305 2.54056 6.96204 2.58094 6.06529C2.68648 3.7795 3.75961 2.68583 6.06523 2.581C6.96198 2.54063 7.23044 2.53212 9.49994 2.53212ZM9.49994 1C7.19148 1 6.90248 1.00992 5.99581 1.051C2.9089 1.19267 1.19331 2.90542 1.05165 5.99517C1.00986 6.90254 0.999939 7.19154 0.999939 9.5C0.999939 11.8085 1.00986 12.0982 1.05094 13.0048C1.19261 16.0917 2.90536 17.8073 5.99511 17.949C6.90248 17.9901 7.19148 18 9.49994 18C11.8084 18 12.0981 17.9901 13.0048 17.949C16.0889 17.8073 17.8087 16.0946 17.9482 13.0048C17.99 12.0982 17.9999 11.8085 17.9999 9.5C17.9999 7.19154 17.99 6.90254 17.9489 5.99587C17.8101 2.91179 16.0952 1.19337 13.0055 1.05171C12.0981 1.00992 11.8084 1 9.49994 1ZM9.49994 5.13525C7.08948 5.13525 5.13519 7.08954 5.13519 9.5C5.13519 11.9105 7.08948 13.8655 9.49994 13.8655C11.9104 13.8655 13.8647 11.9112 13.8647 9.5C13.8647 7.08954 11.9104 5.13525 9.49994 5.13525ZM9.49994 12.3333C7.93523 12.3333 6.66661 11.0654 6.66661 9.5C6.66661 7.93529 7.93523 6.66667 9.49994 6.66667C11.0646 6.66667 12.3333 7.93529 12.3333 9.5C12.3333 11.0654 11.0646 12.3333 9.49994 12.3333ZM14.0375 3.94313C13.4737 3.94313 13.0168 4.4 13.0168 4.96312C13.0168 5.52625 13.4737 5.98312 14.0375 5.98312C14.6006 5.98312 15.0568 5.52625 15.0568 4.96312C15.0568 4.4 14.6006 3.94313 14.0375 3.94313Z" fill="currentColor" stroke="currentColor" stroke-width="0.18"/>
</svg>
