<svg width="23" height="23" viewBox="0 0 23 23" fill="none" xmlns="http://www.w3.org/2000/svg">
<path d="M4.79165 21.0833C4.53748 21.0833 4.29372 20.9824 4.114 20.8026C3.93428 20.6229 3.83331 20.3792 3.83331 20.125V2.87499C3.83331 2.62082 3.93428 2.37707 4.114 2.19735C4.29372 2.01762 4.53748 1.91666 4.79165 1.91666H18.2083C18.4625 1.91666 18.7062 2.01762 18.886 2.19735C19.0657 2.37707 19.1666 2.62082 19.1666 2.87499V5.74999H17.25V3.83332H5.74998V19.1667H17.25V17.25H19.1666V20.125C19.1666 20.3792 19.0657 20.6229 18.886 20.8026C18.7062 20.9824 18.4625 21.0833 18.2083 21.0833H4.79165ZM17.25 15.3333V12.4583H10.5416V10.5417H17.25V7.66666L22.0416 11.5L17.25 15.3333Z" fill="currentColor"/>
</svg>
