<svg width="90" height="25" viewBox="0 0 90 25" fill="none" xmlns="http://www.w3.org/2000/svg">
<path d="M11.436 18.0969H8.24709V6.80977H11.436V0.00909424C5.0052 0.599845 0.0839844 5.99603 0.0839844 12.4567C0.0839844 18.9174 5.0052 24.3136 11.436 24.9044V18.0969Z" fill="#7B32E8"/>
<path d="M13.7323 0.00683594V6.88859C14.1915 6.95429 14.6419 7.071 15.0752 7.23657C15.7805 7.50275 16.4265 7.9053 16.9764 8.42125C17.5079 8.92335 17.9296 9.53037 18.2146 10.2039C18.5079 10.9056 18.6557 11.6596 18.649 12.4201V12.4528C18.6552 13.2162 18.5074 13.973 18.2146 14.678C17.9314 15.3545 17.5096 15.9641 16.9764 16.4674C16.4258 16.9847 15.7801 17.3901 15.0752 17.6611C14.6424 17.8302 14.1919 17.9499 13.7323 18.0181V24.9077C20.1711 24.3259 25.1028 18.9263 25.1028 12.4584C25.1028 5.99057 20.1711 0.590895 13.7323 0.00908819V0.00683594Z" fill="#1CB7ED"/>
<path fill-rule="evenodd" clip-rule="evenodd" d="M36.6343 16.7118C37.1776 16.1963 37.6074 15.573 37.8961 14.8818C38.1957 14.1608 38.3469 13.3867 38.3408 12.6059V12.5721C38.3476 11.7942 38.1963 11.023 37.8961 10.3053C37.6061 9.61705 37.1765 8.9966 36.6343 8.48318C36.0722 7.95462 35.4111 7.54244 34.6892 7.27034C33.8979 6.97278 33.0582 6.82463 32.2128 6.83341H27.7103V18.3773H32.2128C33.0589 18.3863 33.8991 18.2354 34.6892 17.9325C35.4105 17.6554 36.0711 17.2409 36.6343 16.7118ZM35.4265 11.2039C35.6005 11.6506 35.6872 12.1265 35.682 12.6059V12.6386C35.6908 13.1179 35.6055 13.5942 35.431 14.0406C35.2688 14.4463 35.0282 14.8159 34.723 15.1285C34.4128 15.4411 34.0389 15.6831 33.6266 15.8379C33.1731 16.0069 32.6923 16.0909 32.2083 16.0857H30.2475V9.1262H32.2038C32.6885 9.12054 33.1699 9.2073 33.6221 9.38183C34.0338 9.54148 34.4073 9.78588 34.7185 10.0992C35.0264 10.416 35.2672 10.7918 35.4265 11.2039Z" fill="white"/>
<path d="M39.2142 18.3773V6.8334H41.7537V18.3773H39.2142Z" fill="white"/>
<path d="M51.2157 11.7309H53.6921V16.7444C53.0538 17.2785 52.3399 17.7149 51.5736 18.0395C50.6827 18.4109 49.7245 18.5934 48.7596 18.5755C47.9166 18.5863 47.0794 18.4353 46.2933 18.1307C45.5785 17.8511 44.9276 17.4297 44.3797 16.892C43.8439 16.3559 43.4227 15.7164 43.1415 15.0125C42.8374 14.2579 42.6844 13.451 42.6913 12.6375V12.6048C42.669 10.204 44.1031 8.02905 46.3181 7.1048C47.085 6.78578 47.9088 6.62602 48.7393 6.6352C49.2114 6.63325 49.6828 6.67092 50.1486 6.74781C50.5502 6.8115 50.9451 6.91216 51.3282 7.04849C51.6851 7.17752 52.0276 7.3432 52.3503 7.54286C52.6742 7.74508 52.9827 7.97092 53.2733 8.21853L51.6738 10.1487C51.4651 9.96969 51.2451 9.80418 51.0153 9.65322C50.7982 9.51261 50.5692 9.39128 50.3309 9.29061C50.0835 9.19034 49.8267 9.11489 49.5644 9.06538C49.2654 9.00815 48.9615 8.98061 48.6571 8.98317C48.2096 8.98023 47.7674 9.0792 47.3638 9.27259C46.9661 9.46225 46.6081 9.72596 46.3091 10.0496C46.0022 10.3812 45.7615 10.7684 45.5999 11.1904C45.4272 11.6355 45.3405 12.1093 45.3444 12.5868V12.6127C45.3387 13.1122 45.4253 13.6086 45.5999 14.0766C45.7619 14.5094 46.0083 14.9056 46.3248 15.2422C46.6362 15.5714 47.0121 15.8329 47.4291 16.0102C47.8752 16.1968 48.3549 16.2896 48.8384 16.2827C49.7839 16.2827 50.5808 16.0504 51.2292 15.5857L51.2157 11.7309Z" fill="white"/>
<path d="M54.9426 18.3773V6.8334H57.4809V18.3773H54.9426Z" fill="white"/>
<path d="M64.6017 9.17575V18.3773H62.0634V9.17575H58.5526V6.8334H68.1125V9.17575H64.6017Z" fill="white"/>
<path d="M69.1323 18.3773V6.8334H77.8199V9.09354H71.638V11.4348H77.0781V13.6938H71.638V16.1183H77.9021V18.3773H69.1323Z" fill="white"/>
<path d="M86.763 18.3773L84.1741 14.4201L81.5694 18.3773H78.6866L82.7085 12.5068L78.851 6.8334H81.8181L84.2416 10.5766L86.6809 6.8334H89.5658L85.7083 12.4742L89.7302 18.3773H86.763Z" fill="white"/>
</svg>
