<svg xmlns="http://www.w3.org/2000/svg" xmlns:xlink="http://www.w3.org/1999/xlink" preserveAspectRatio="xMidYMid" width="30" height="30" viewBox="0 0 30 30">
  <defs>
  </defs>
  <path d="M28.978,25.198 C29.483,25.707 29.796,26.410 29.796,27.187 C29.796,28.740 28.545,29.999 27.003,29.999 C26.231,29.999 25.533,29.685 25.027,29.175 C25.027,29.175 25.027,29.175 25.027,29.175 C25.027,29.175 16.841,20.933 16.841,20.933 C15.178,21.921 13.245,22.499 11.173,22.499 C5.003,22.499 0.000,17.462 0.000,11.249 C0.000,5.036 5.003,-0.001 11.173,-0.001 C17.344,-0.001 22.347,5.036 22.347,11.249 C22.347,13.335 21.773,15.281 20.791,16.956 C20.791,16.956 28.978,25.198 28.978,25.198 C28.978,25.198 28.978,25.198 28.978,25.198 ZM11.173,2.812 C6.545,2.812 2.793,6.589 2.793,11.249 C2.793,15.909 6.545,19.686 11.173,19.686 C15.802,19.686 19.554,15.909 19.554,11.249 C19.554,6.589 15.802,2.812 11.173,2.812 Z" id="search" fill-rule="evenodd"/>
</svg>
