<svg xmlns="http://www.w3.org/2000/svg" preserveAspectRatio="xMidYMid" width="30" height="30" viewBox="0 0 30 30"><path d="M28.978 25.198c.505.509.818 1.212.818 1.989a2.803 2.803 0 0 1-2.793 2.812c-.772 0-1.47-.314-1.976-.824l-8.186-8.242a11.057 11.057 0 0 1-5.668 1.566C5.003 22.499 0 17.462 0 11.249S5.003-.001 11.173-.001c6.171 0 11.174 5.037 11.174 11.25 0 2.086-.574 4.032-1.556 5.707l8.187 8.242zM11.173 2.812c-4.628 0-8.38 3.777-8.38 8.437 0 4.66 3.752 8.437 8.38 8.437 4.629 0 8.381-3.777 8.381-8.437 0-4.66-3.752-8.437-8.381-8.437z" fill-rule="evenodd"/></svg>