<svg xmlns="http://www.w3.org/2000/svg"/>mlns:xlink="http://www.w3.org/1999/xlink"><defs>
  
  
  
  </defs><symbol id="icon-menu-burger" viewBox="0 0 49.945 24.007">
<g id="miu">
	<g id="editor_list_view_hambuger_menu_glyph">
		<g>
			<path id="path-1" fill="currentColor" d="M1.137,0C0.51,0,0,0.428,0,1.01v1.981c0,0.558,0.494,1.01,1.139,1.01h47.671
				c0.628,0,1.138-0.428,1.138-1.01V1.01c0-0.558-0.494-1.01-1.138-1.01H1.137z M1.137,10.003C0.51,10.003,0,10.431,0,11.013v1.98
				c0,0.557,0.494,1.01,1.139,1.01h47.671c0.628,0,1.138-0.428,1.138-1.01v-1.98c0-0.558-0.494-1.01-1.138-1.01H1.137z
				 M1.137,20.005C0.51,20.005,0,20.434,0,21.016v1.981c0,0.557,0.494,1.01,1.139,1.01h47.671c0.628,0,1.138-0.428,1.138-1.01
				v-1.981c0-0.558-0.494-1.011-1.138-1.011H1.137z"/>
		</g>
		<g>
			<path id="path-1_1_" fill="currentColor" d="M1.137,0C0.51,0,0,0.428,0,1.01v1.981c0,0.558,0.494,1.01,1.139,1.01h47.671
				c0.628,0,1.138-0.428,1.138-1.01V1.01c0-0.558-0.494-1.01-1.138-1.01H1.137z M1.137,10.003C0.51,10.003,0,10.431,0,11.013v1.98
				c0,0.557,0.494,1.01,1.139,1.01h47.671c0.628,0,1.138-0.428,1.138-1.01v-1.98c0-0.558-0.494-1.01-1.138-1.01H1.137z
				 M1.137,20.005C0.51,20.005,0,20.434,0,21.016v1.981c0,0.557,0.494,1.01,1.139,1.01h47.671c0.628,0,1.138-0.428,1.138-1.01
				v-1.981c0-0.558-0.494-1.011-1.138-1.011H1.137z"/>
		</g>
	</g>
</g>
</symbol><symbol id="icon-menu-cross" viewBox="0 0 23.867 23.867"><path fill="currentColor" d="M15.087 11.933l8.56-8.559a.75.75 0 0 0 0-1.061L21.554.22a.747.747 0 0 0-1.06 0l-8.561 8.56L3.373.22a.771.771 0 0 0-1.061 0L.22 2.313a.75.75 0 0 0 0 1.061l8.56 8.559-8.56 8.559a.751.751 0 0 0 0 1.062l2.093 2.094a.744.744 0 0 0 1.06 0l8.561-8.56 8.56 8.56a.746.746 0 0 0 1.06 0l2.093-2.094a.751.751 0 0 0 0-1.062l-8.56-8.559z"/></symbol><symbol id="search-icon" viewBox="0 0 30 30">
  
  <path d="M28.978,25.198 C29.483,25.707 29.796,26.410 29.796,27.187 C29.796,28.740 28.545,29.999 27.003,29.999 C26.231,29.999 25.533,29.685 25.027,29.175 C25.027,29.175 25.027,29.175 25.027,29.175 C25.027,29.175 16.841,20.933 16.841,20.933 C15.178,21.921 13.245,22.499 11.173,22.499 C5.003,22.499 0.000,17.462 0.000,11.249 C0.000,5.036 5.003,-0.001 11.173,-0.001 C17.344,-0.001 22.347,5.036 22.347,11.249 C22.347,13.335 21.773,15.281 20.791,16.956 C20.791,16.956 28.978,25.198 28.978,25.198 C28.978,25.198 28.978,25.198 28.978,25.198 ZM11.173,2.812 C6.545,2.812 2.793,6.589 2.793,11.249 C2.793,15.909 6.545,19.686 11.173,19.686 C15.802,19.686 19.554,15.909 19.554,11.249 C19.554,6.589 15.802,2.812 11.173,2.812 Z" id="search" fill-rule="evenodd"/>
</symbol><symbol id="symbols"><symbol id="icon-menu-burger" viewBox="0 0 49.945 24.007">
<g id="miu">
	<g id="editor_list_view_hambuger_menu_glyph">
		<g>
			<path id="path-1" fill="currentColor" d="M1.137,0C0.51,0,0,0.428,0,1.01v1.981c0,0.558,0.494,1.01,1.139,1.01h47.671
				c0.628,0,1.138-0.428,1.138-1.01V1.01c0-0.558-0.494-1.01-1.138-1.01H1.137z M1.137,10.003C0.51,10.003,0,10.431,0,11.013v1.98
				c0,0.557,0.494,1.01,1.139,1.01h47.671c0.628,0,1.138-0.428,1.138-1.01v-1.98c0-0.558-0.494-1.01-1.138-1.01H1.137z
				 M1.137,20.005C0.51,20.005,0,20.434,0,21.016v1.981c0,0.557,0.494,1.01,1.139,1.01h47.671c0.628,0,1.138-0.428,1.138-1.01
				v-1.981c0-0.558-0.494-1.011-1.138-1.011H1.137z"/>
		</g>
		<g>
			<path id="path-1_1_" fill="currentColor" d="M1.137,0C0.51,0,0,0.428,0,1.01v1.981c0,0.558,0.494,1.01,1.139,1.01h47.671
				c0.628,0,1.138-0.428,1.138-1.01V1.01c0-0.558-0.494-1.01-1.138-1.01H1.137z M1.137,10.003C0.51,10.003,0,10.431,0,11.013v1.98
				c0,0.557,0.494,1.01,1.139,1.01h47.671c0.628,0,1.138-0.428,1.138-1.01v-1.98c0-0.558-0.494-1.01-1.138-1.01H1.137z
				 M1.137,20.005C0.51,20.005,0,20.434,0,21.016v1.981c0,0.557,0.494,1.01,1.139,1.01h47.671c0.628,0,1.138-0.428,1.138-1.01
				v-1.981c0-0.558-0.494-1.011-1.138-1.011H1.137z"/>
		</g>
	</g>
</g>
</symbol><symbol id="icon-menu-cross" viewBox="0 0 23.867 23.867"><path fill="currentColor" d="M15.087 11.933l8.56-8.559a.75.75 0 0 0 0-1.061L21.554.22a.747.747 0 0 0-1.06 0l-8.561 8.56L3.373.22a.771.771 0 0 0-1.061 0L.22 2.313a.75.75 0 0 0 0 1.061l8.56 8.559-8.56 8.559a.751.751 0 0 0 0 1.062l2.093 2.094a.744.744 0 0 0 1.06 0l8.561-8.56 8.56 8.56a.746.746 0 0 0 1.06 0l2.093-2.094a.751.751 0 0 0 0-1.062l-8.56-8.559z"/></symbol><symbol id="search-icon" viewBox="0 0 30 30">
  
  <path d="M28.978,25.198 C29.483,25.707 29.796,26.410 29.796,27.187 C29.796,28.740 28.545,29.999 27.003,29.999 C26.231,29.999 25.533,29.685 25.027,29.175 C25.027,29.175 25.027,29.175 25.027,29.175 C25.027,29.175 16.841,20.933 16.841,20.933 C15.178,21.921 13.245,22.499 11.173,22.499 C5.003,22.499 0.000,17.462 0.000,11.249 C0.000,5.036 5.003,-0.001 11.173,-0.001 C17.344,-0.001 22.347,5.036 22.347,11.249 C22.347,13.335 21.773,15.281 20.791,16.956 C20.791,16.956 28.978,25.198 28.978,25.198 C28.978,25.198 28.978,25.198 28.978,25.198 ZM11.173,2.812 C6.545,2.812 2.793,6.589 2.793,11.249 C2.793,15.909 6.545,19.686 11.173,19.686 C15.802,19.686 19.554,15.909 19.554,11.249 C19.554,6.589 15.802,2.812 11.173,2.812 Z" id="search" fill-rule="evenodd"/>
</symbol><symbol id="symbols"><symbol id="icon-menu-burger" viewBox="0 0 49.945 24.007">
<g id="miu">
	<g id="editor_list_view_hambuger_menu_glyph">
		<g>
			<path id="path-1" fill="currentColor" d="M1.137,0C0.51,0,0,0.428,0,1.01v1.981c0,0.558,0.494,1.01,1.139,1.01h47.671
				c0.628,0,1.138-0.428,1.138-1.01V1.01c0-0.558-0.494-1.01-1.138-1.01H1.137z M1.137,10.003C0.51,10.003,0,10.431,0,11.013v1.98
				c0,0.557,0.494,1.01,1.139,1.01h47.671c0.628,0,1.138-0.428,1.138-1.01v-1.98c0-0.558-0.494-1.01-1.138-1.01H1.137z
				 M1.137,20.005C0.51,20.005,0,20.434,0,21.016v1.981c0,0.557,0.494,1.01,1.139,1.01h47.671c0.628,0,1.138-0.428,1.138-1.01
				v-1.981c0-0.558-0.494-1.011-1.138-1.011H1.137z"/>
		</g>
		<g>
			<path id="path-1_1_" fill="currentColor" d="M1.137,0C0.51,0,0,0.428,0,1.01v1.981c0,0.558,0.494,1.01,1.139,1.01h47.671
				c0.628,0,1.138-0.428,1.138-1.01V1.01c0-0.558-0.494-1.01-1.138-1.01H1.137z M1.137,10.003C0.51,10.003,0,10.431,0,11.013v1.98
				c0,0.557,0.494,1.01,1.139,1.01h47.671c0.628,0,1.138-0.428,1.138-1.01v-1.98c0-0.558-0.494-1.01-1.138-1.01H1.137z
				 M1.137,20.005C0.51,20.005,0,20.434,0,21.016v1.981c0,0.557,0.494,1.01,1.139,1.01h47.671c0.628,0,1.138-0.428,1.138-1.01
				v-1.981c0-0.558-0.494-1.011-1.138-1.011H1.137z"/>
		</g>
	</g>
</g>
</symbol><symbol id="icon-menu-cross" viewBox="0 0 23.867 23.867"><path fill="currentColor" d="M15.087 11.933l8.56-8.559a.75.75 0 0 0 0-1.061L21.554.22a.747.747 0 0 0-1.06 0l-8.561 8.56L3.373.22a.771.771 0 0 0-1.061 0L.22 2.313a.75.75 0 0 0 0 1.061l8.56 8.559-8.56 8.559a.751.751 0 0 0 0 1.062l2.093 2.094a.744.744 0 0 0 1.06 0l8.561-8.56 8.56 8.56a.746.746 0 0 0 1.06 0l2.093-2.094a.751.751 0 0 0 0-1.062l-8.56-8.559z"/></symbol><symbol id="search-icon" viewBox="0 0 30 30">
  
  <path d="M28.978,25.198 C29.483,25.707 29.796,26.410 29.796,27.187 C29.796,28.740 28.545,29.999 27.003,29.999 C26.231,29.999 25.533,29.685 25.027,29.175 C25.027,29.175 25.027,29.175 25.027,29.175 C25.027,29.175 16.841,20.933 16.841,20.933 C15.178,21.921 13.245,22.499 11.173,22.499 C5.003,22.499 0.000,17.462 0.000,11.249 C0.000,5.036 5.003,-0.001 11.173,-0.001 C17.344,-0.001 22.347,5.036 22.347,11.249 C22.347,13.335 21.773,15.281 20.791,16.956 C20.791,16.956 28.978,25.198 28.978,25.198 C28.978,25.198 28.978,25.198 28.978,25.198 ZM11.173,2.812 C6.545,2.812 2.793,6.589 2.793,11.249 C2.793,15.909 6.545,19.686 11.173,19.686 C15.802,19.686 19.554,15.909 19.554,11.249 C19.554,6.589 15.802,2.812 11.173,2.812 Z" id="search" fill-rule="evenodd"/>
</symbol><symbol id="symbols"><symbol id="icon-menu-burger" viewBox="0 0 49.945 24.007">
<g id="miu">
	<g id="editor_list_view_hambuger_menu_glyph">
		<g>
			<path id="path-1" fill="currentColor" d="M1.137,0C0.51,0,0,0.428,0,1.01v1.981c0,0.558,0.494,1.01,1.139,1.01h47.671
				c0.628,0,1.138-0.428,1.138-1.01V1.01c0-0.558-0.494-1.01-1.138-1.01H1.137z M1.137,10.003C0.51,10.003,0,10.431,0,11.013v1.98
				c0,0.557,0.494,1.01,1.139,1.01h47.671c0.628,0,1.138-0.428,1.138-1.01v-1.98c0-0.558-0.494-1.01-1.138-1.01H1.137z
				 M1.137,20.005C0.51,20.005,0,20.434,0,21.016v1.981c0,0.557,0.494,1.01,1.139,1.01h47.671c0.628,0,1.138-0.428,1.138-1.01
				v-1.981c0-0.558-0.494-1.011-1.138-1.011H1.137z"/>
		</g>
		<g>
			<path id="path-1_1_" fill="currentColor" d="M1.137,0C0.51,0,0,0.428,0,1.01v1.981c0,0.558,0.494,1.01,1.139,1.01h47.671
				c0.628,0,1.138-0.428,1.138-1.01V1.01c0-0.558-0.494-1.01-1.138-1.01H1.137z M1.137,10.003C0.51,10.003,0,10.431,0,11.013v1.98
				c0,0.557,0.494,1.01,1.139,1.01h47.671c0.628,0,1.138-0.428,1.138-1.01v-1.98c0-0.558-0.494-1.01-1.138-1.01H1.137z
				 M1.137,20.005C0.51,20.005,0,20.434,0,21.016v1.981c0,0.557,0.494,1.01,1.139,1.01h47.671c0.628,0,1.138-0.428,1.138-1.01
				v-1.981c0-0.558-0.494-1.011-1.138-1.011H1.137z"/>
		</g>
	</g>
</g>
</symbol><symbol id="icon-menu-cross" viewBox="0 0 23.867 23.867"><path fill="currentColor" d="M15.087 11.933l8.56-8.559a.75.75 0 0 0 0-1.061L21.554.22a.747.747 0 0 0-1.06 0l-8.561 8.56L3.373.22a.771.771 0 0 0-1.061 0L.22 2.313a.75.75 0 0 0 0 1.061l8.56 8.559-8.56 8.559a.751.751 0 0 0 0 1.062l2.093 2.094a.744.744 0 0 0 1.06 0l8.561-8.56 8.56 8.56a.746.746 0 0 0 1.06 0l2.093-2.094a.751.751 0 0 0 0-1.062l-8.56-8.559z"/></symbol><symbol id="search-icon" viewBox="0 0 30 30">
  
  <path d="M28.978,25.198 C29.483,25.707 29.796,26.410 29.796,27.187 C29.796,28.740 28.545,29.999 27.003,29.999 C26.231,29.999 25.533,29.685 25.027,29.175 C25.027,29.175 25.027,29.175 25.027,29.175 C25.027,29.175 16.841,20.933 16.841,20.933 C15.178,21.921 13.245,22.499 11.173,22.499 C5.003,22.499 0.000,17.462 0.000,11.249 C0.000,5.036 5.003,-0.001 11.173,-0.001 C17.344,-0.001 22.347,5.036 22.347,11.249 C22.347,13.335 21.773,15.281 20.791,16.956 C20.791,16.956 28.978,25.198 28.978,25.198 C28.978,25.198 28.978,25.198 28.978,25.198 ZM11.173,2.812 C6.545,2.812 2.793,6.589 2.793,11.249 C2.793,15.909 6.545,19.686 11.173,19.686 C15.802,19.686 19.554,15.909 19.554,11.249 C19.554,6.589 15.802,2.812 11.173,2.812 Z" id="search" fill-rule="evenodd"/>
</symbol></symbol></symbol></symbol></svg>