<svg xmlns="http://www.w3.org/2000/svg" xmlns:xlink="http://www.w3.org/1999/xlink"><symbol id="icon-menu-burger" viewBox="0 0 49.945 24.007">
<g id="miu">
	<g id="editor_list_view_hambuger_menu_glyph">
		<g>
			<path id="path-1" fill="currentColor" d="M1.137,0C0.51,0,0,0.428,0,1.01v1.981c0,0.558,0.494,1.01,1.139,1.01h47.671
				c0.628,0,1.138-0.428,1.138-1.01V1.01c0-0.558-0.494-1.01-1.138-1.01H1.137z M1.137,10.003C0.51,10.003,0,10.431,0,11.013v1.98
				c0,0.557,0.494,1.01,1.139,1.01h47.671c0.628,0,1.138-0.428,1.138-1.01v-1.98c0-0.558-0.494-1.01-1.138-1.01H1.137z
				 M1.137,20.005C0.51,20.005,0,20.434,0,21.016v1.981c0,0.557,0.494,1.01,1.139,1.01h47.671c0.628,0,1.138-0.428,1.138-1.01
				v-1.981c0-0.558-0.494-1.011-1.138-1.011H1.137z"/>
		</g>
		<g>
			<path id="path-1_1_" fill="currentColor" d="M1.137,0C0.51,0,0,0.428,0,1.01v1.981c0,0.558,0.494,1.01,1.139,1.01h47.671
				c0.628,0,1.138-0.428,1.138-1.01V1.01c0-0.558-0.494-1.01-1.138-1.01H1.137z M1.137,10.003C0.51,10.003,0,10.431,0,11.013v1.98
				c0,0.557,0.494,1.01,1.139,1.01h47.671c0.628,0,1.138-0.428,1.138-1.01v-1.98c0-0.558-0.494-1.01-1.138-1.01H1.137z
				 M1.137,20.005C0.51,20.005,0,20.434,0,21.016v1.981c0,0.557,0.494,1.01,1.139,1.01h47.671c0.628,0,1.138-0.428,1.138-1.01
				v-1.981c0-0.558-0.494-1.011-1.138-1.011H1.137z"/>
		</g>
	</g>
</g>
</symbol><symbol id="icon-menu-cross" viewBox="0 0 23.867 23.867"><path fill="currentColor" d="M15.087 11.933l8.56-8.559a.75.75 0 0 0 0-1.061L21.554.22a.747.747 0 0 0-1.06 0l-8.561 8.56L3.373.22a.771.771 0 0 0-1.061 0L.22 2.313a.75.75 0 0 0 0 1.061l8.56 8.559-8.56 8.559a.751.751 0 0 0 0 1.062l2.093 2.094a.744.744 0 0 0 1.06 0l8.561-8.56 8.56 8.56a.746.746 0 0 0 1.06 0l2.093-2.094a.751.751 0 0 0 0-1.062l-8.56-8.559z"/></symbol><symbol id="search-icon" viewBox="0 0 30.000000 30.000000">
<metadata>
Created by potrace 1.13, written by Peter Selinger 2001-2015
</metadata>
<g transform="translate(0.000000,30.000000) scale(0.100000,-0.100000)" id="loop">
<path d="M34 266 c-28 -28 -34 -42 -34 -76 0 -35 6 -48 35 -77 34 -34 38 -35
88 -30 51 5 53 4 100 -41 44 -44 48 -45 64 -29 16 16 15 19 -27 62 -43 44 -45
48 -45 106 0 56 -3 63 -33 90 -47 43 -102 41 -148 -5z m133 -18 c25 -23 31
-74 13 -108 -12 -22 -64 -42 -88 -33 -61 22 -82 95 -40 140 28 30 83 31 115 1z"/>
</g>
</symbol><symbol id="symbols"><symbol id="icon-menu-burger" viewBox="0 0 49.945 24.007">
<g id="miu">
	<g id="editor_list_view_hambuger_menu_glyph">
		<g>
			<path id="path-1" fill="currentColor" d="M1.137,0C0.51,0,0,0.428,0,1.01v1.981c0,0.558,0.494,1.01,1.139,1.01h47.671
				c0.628,0,1.138-0.428,1.138-1.01V1.01c0-0.558-0.494-1.01-1.138-1.01H1.137z M1.137,10.003C0.51,10.003,0,10.431,0,11.013v1.98
				c0,0.557,0.494,1.01,1.139,1.01h47.671c0.628,0,1.138-0.428,1.138-1.01v-1.98c0-0.558-0.494-1.01-1.138-1.01H1.137z
				 M1.137,20.005C0.51,20.005,0,20.434,0,21.016v1.981c0,0.557,0.494,1.01,1.139,1.01h47.671c0.628,0,1.138-0.428,1.138-1.01
				v-1.981c0-0.558-0.494-1.011-1.138-1.011H1.137z"/>
		</g>
		<g>
			<path id="path-1_1_" fill="currentColor" d="M1.137,0C0.51,0,0,0.428,0,1.01v1.981c0,0.558,0.494,1.01,1.139,1.01h47.671
				c0.628,0,1.138-0.428,1.138-1.01V1.01c0-0.558-0.494-1.01-1.138-1.01H1.137z M1.137,10.003C0.51,10.003,0,10.431,0,11.013v1.98
				c0,0.557,0.494,1.01,1.139,1.01h47.671c0.628,0,1.138-0.428,1.138-1.01v-1.98c0-0.558-0.494-1.01-1.138-1.01H1.137z
				 M1.137,20.005C0.51,20.005,0,20.434,0,21.016v1.981c0,0.557,0.494,1.01,1.139,1.01h47.671c0.628,0,1.138-0.428,1.138-1.01
				v-1.981c0-0.558-0.494-1.011-1.138-1.011H1.137z"/>
		</g>
	</g>
</g>
</symbol><symbol id="icon-menu-cross" viewBox="0 0 23.867 23.867"><path fill="currentColor" d="M15.087 11.933l8.56-8.559a.75.75 0 0 0 0-1.061L21.554.22a.747.747 0 0 0-1.06 0l-8.561 8.56L3.373.22a.771.771 0 0 0-1.061 0L.22 2.313a.75.75 0 0 0 0 1.061l8.56 8.559-8.56 8.559a.751.751 0 0 0 0 1.062l2.093 2.094a.744.744 0 0 0 1.06 0l8.561-8.56 8.56 8.56a.746.746 0 0 0 1.06 0l2.093-2.094a.751.751 0 0 0 0-1.062l-8.56-8.559z"/></symbol><symbol id="search-icon" viewBox="0 0 30.000000 30.000000">
<metadata>
Created by potrace 1.13, written by Peter Selinger 2001-2015
</metadata>
<g transform="translate(0.000000,30.000000) scale(0.100000,-0.100000)" id="loop">
<path d="M34 266 c-28 -28 -34 -42 -34 -76 0 -35 6 -48 35 -77 34 -34 38 -35
88 -30 51 5 53 4 100 -41 44 -44 48 -45 64 -29 16 16 15 19 -27 62 -43 44 -45
48 -45 106 0 56 -3 63 -33 90 -47 43 -102 41 -148 -5z m133 -18 c25 -23 31
-74 13 -108 -12 -22 -64 -42 -88 -33 -61 22 -82 95 -40 140 28 30 83 31 115 1z"/>
</g>
</symbol><symbol id="symbols"><symbol id="icon-menu-burger" viewBox="0 0 49.945 24.007">
<g id="miu">
	<g id="editor_list_view_hambuger_menu_glyph">
		<g>
			<path id="path-1" fill="currentColor" d="M1.137,0C0.51,0,0,0.428,0,1.01v1.981c0,0.558,0.494,1.01,1.139,1.01h47.671
				c0.628,0,1.138-0.428,1.138-1.01V1.01c0-0.558-0.494-1.01-1.138-1.01H1.137z M1.137,10.003C0.51,10.003,0,10.431,0,11.013v1.98
				c0,0.557,0.494,1.01,1.139,1.01h47.671c0.628,0,1.138-0.428,1.138-1.01v-1.98c0-0.558-0.494-1.01-1.138-1.01H1.137z
				 M1.137,20.005C0.51,20.005,0,20.434,0,21.016v1.981c0,0.557,0.494,1.01,1.139,1.01h47.671c0.628,0,1.138-0.428,1.138-1.01
				v-1.981c0-0.558-0.494-1.011-1.138-1.011H1.137z"/>
		</g>
		<g>
			<path id="path-1_1_" fill="currentColor" d="M1.137,0C0.51,0,0,0.428,0,1.01v1.981c0,0.558,0.494,1.01,1.139,1.01h47.671
				c0.628,0,1.138-0.428,1.138-1.01V1.01c0-0.558-0.494-1.01-1.138-1.01H1.137z M1.137,10.003C0.51,10.003,0,10.431,0,11.013v1.98
				c0,0.557,0.494,1.01,1.139,1.01h47.671c0.628,0,1.138-0.428,1.138-1.01v-1.98c0-0.558-0.494-1.01-1.138-1.01H1.137z
				 M1.137,20.005C0.51,20.005,0,20.434,0,21.016v1.981c0,0.557,0.494,1.01,1.139,1.01h47.671c0.628,0,1.138-0.428,1.138-1.01
				v-1.981c0-0.558-0.494-1.011-1.138-1.011H1.137z"/>
		</g>
	</g>
</g>
</symbol><symbol id="icon-menu-cross" viewBox="0 0 23.867 23.867"><path fill="currentColor" d="M15.087 11.933l8.56-8.559a.75.75 0 0 0 0-1.061L21.554.22a.747.747 0 0 0-1.06 0l-8.561 8.56L3.373.22a.771.771 0 0 0-1.061 0L.22 2.313a.75.75 0 0 0 0 1.061l8.56 8.559-8.56 8.559a.751.751 0 0 0 0 1.062l2.093 2.094a.744.744 0 0 0 1.06 0l8.561-8.56 8.56 8.56a.746.746 0 0 0 1.06 0l2.093-2.094a.751.751 0 0 0 0-1.062l-8.56-8.559z"/></symbol><symbol id="search-icon" viewBox="0 0 30.000000 30.000000">
<metadata>
Created by potrace 1.13, written by Peter Selinger 2001-2015
</metadata>
<g transform="translate(0.000000,30.000000) scale(0.100000,-0.100000)" id="loop">
<path d="M34 266 c-28 -28 -34 -42 -34 -76 0 -35 6 -48 35 -77 34 -34 38 -35
88 -30 51 5 53 4 100 -41 44 -44 48 -45 64 -29 16 16 15 19 -27 62 -43 44 -45
48 -45 106 0 56 -3 63 -33 90 -47 43 -102 41 -148 -5z m133 -18 c25 -23 31
-74 13 -108 -12 -22 -64 -42 -88 -33 -61 22 -82 95 -40 140 28 30 83 31 115 1z"/>
</g>
</symbol><symbol id="symbols"><symbol id="icon-menu-burger" viewBox="0 0 49.945 24.007">
<g id="miu">
	<g id="editor_list_view_hambuger_menu_glyph">
		<g>
			<path id="path-1" fill="currentColor" d="M1.137,0C0.51,0,0,0.428,0,1.01v1.981c0,0.558,0.494,1.01,1.139,1.01h47.671
				c0.628,0,1.138-0.428,1.138-1.01V1.01c0-0.558-0.494-1.01-1.138-1.01H1.137z M1.137,10.003C0.51,10.003,0,10.431,0,11.013v1.98
				c0,0.557,0.494,1.01,1.139,1.01h47.671c0.628,0,1.138-0.428,1.138-1.01v-1.98c0-0.558-0.494-1.01-1.138-1.01H1.137z
				 M1.137,20.005C0.51,20.005,0,20.434,0,21.016v1.981c0,0.557,0.494,1.01,1.139,1.01h47.671c0.628,0,1.138-0.428,1.138-1.01
				v-1.981c0-0.558-0.494-1.011-1.138-1.011H1.137z"/>
		</g>
		<g>
			<path id="path-1_1_" fill="currentColor" d="M1.137,0C0.51,0,0,0.428,0,1.01v1.981c0,0.558,0.494,1.01,1.139,1.01h47.671
				c0.628,0,1.138-0.428,1.138-1.01V1.01c0-0.558-0.494-1.01-1.138-1.01H1.137z M1.137,10.003C0.51,10.003,0,10.431,0,11.013v1.98
				c0,0.557,0.494,1.01,1.139,1.01h47.671c0.628,0,1.138-0.428,1.138-1.01v-1.98c0-0.558-0.494-1.01-1.138-1.01H1.137z
				 M1.137,20.005C0.51,20.005,0,20.434,0,21.016v1.981c0,0.557,0.494,1.01,1.139,1.01h47.671c0.628,0,1.138-0.428,1.138-1.01
				v-1.981c0-0.558-0.494-1.011-1.138-1.011H1.137z"/>
		</g>
	</g>
</g>
</symbol><symbol id="icon-menu-cross" viewBox="0 0 23.867 23.867"><path fill="currentColor" d="M15.087 11.933l8.56-8.559a.75.75 0 0 0 0-1.061L21.554.22a.747.747 0 0 0-1.06 0l-8.561 8.56L3.373.22a.771.771 0 0 0-1.061 0L.22 2.313a.75.75 0 0 0 0 1.061l8.56 8.559-8.56 8.559a.751.751 0 0 0 0 1.062l2.093 2.094a.744.744 0 0 0 1.06 0l8.561-8.56 8.56 8.56a.746.746 0 0 0 1.06 0l2.093-2.094a.751.751 0 0 0 0-1.062l-8.56-8.559z"/></symbol><symbol id="search-icon" viewBox="0 0 30.000000 30.000000">
<metadata>
Created by potrace 1.13, written by Peter Selinger 2001-2015
</metadata>
<g transform="translate(0.000000,30.000000) scale(0.100000,-0.100000)" id="loop">
<path d="M34 266 c-28 -28 -34 -42 -34 -76 0 -35 6 -48 35 -77 34 -34 38 -35
88 -30 51 5 53 4 100 -41 44 -44 48 -45 64 -29 16 16 15 19 -27 62 -43 44 -45
48 -45 106 0 56 -3 63 -33 90 -47 43 -102 41 -148 -5z m133 -18 c25 -23 31
-74 13 -108 -12 -22 -64 -42 -88 -33 -61 22 -82 95 -40 140 28 30 83 31 115 1z"/>
</g>
</symbol><symbol id="symbols"><symbol id="icon-menu-burger" viewBox="0 0 49.945 24.007">
<g id="miu">
	<g id="editor_list_view_hambuger_menu_glyph">
		<g>
			<path id="path-1" fill="currentColor" d="M1.137,0C0.51,0,0,0.428,0,1.01v1.981c0,0.558,0.494,1.01,1.139,1.01h47.671
				c0.628,0,1.138-0.428,1.138-1.01V1.01c0-0.558-0.494-1.01-1.138-1.01H1.137z M1.137,10.003C0.51,10.003,0,10.431,0,11.013v1.98
				c0,0.557,0.494,1.01,1.139,1.01h47.671c0.628,0,1.138-0.428,1.138-1.01v-1.98c0-0.558-0.494-1.01-1.138-1.01H1.137z
				 M1.137,20.005C0.51,20.005,0,20.434,0,21.016v1.981c0,0.557,0.494,1.01,1.139,1.01h47.671c0.628,0,1.138-0.428,1.138-1.01
				v-1.981c0-0.558-0.494-1.011-1.138-1.011H1.137z"/>
		</g>
		<g>
			<path id="path-1_1_" fill="currentColor" d="M1.137,0C0.51,0,0,0.428,0,1.01v1.981c0,0.558,0.494,1.01,1.139,1.01h47.671
				c0.628,0,1.138-0.428,1.138-1.01V1.01c0-0.558-0.494-1.01-1.138-1.01H1.137z M1.137,10.003C0.51,10.003,0,10.431,0,11.013v1.98
				c0,0.557,0.494,1.01,1.139,1.01h47.671c0.628,0,1.138-0.428,1.138-1.01v-1.98c0-0.558-0.494-1.01-1.138-1.01H1.137z
				 M1.137,20.005C0.51,20.005,0,20.434,0,21.016v1.981c0,0.557,0.494,1.01,1.139,1.01h47.671c0.628,0,1.138-0.428,1.138-1.01
				v-1.981c0-0.558-0.494-1.011-1.138-1.011H1.137z"/>
		</g>
	</g>
</g>
</symbol><symbol id="icon-menu-cross" viewBox="0 0 23.867 23.867"><path fill="currentColor" d="M15.087 11.933l8.56-8.559a.75.75 0 0 0 0-1.061L21.554.22a.747.747 0 0 0-1.06 0l-8.561 8.56L3.373.22a.771.771 0 0 0-1.061 0L.22 2.313a.75.75 0 0 0 0 1.061l8.56 8.559-8.56 8.559a.751.751 0 0 0 0 1.062l2.093 2.094a.744.744 0 0 0 1.06 0l8.561-8.56 8.56 8.56a.746.746 0 0 0 1.06 0l2.093-2.094a.751.751 0 0 0 0-1.062l-8.56-8.559z"/></symbol><symbol id="search-icon" viewBox="0 0 30.000000 30.000000">
<metadata>
Created by potrace 1.13, written by Peter Selinger 2001-2015
</metadata>
<g transform="translate(0.000000,30.000000) scale(0.100000,-0.100000)" id="loop">
<path d="M34 266 c-28 -28 -34 -42 -34 -76 0 -35 6 -48 35 -77 34 -34 38 -35
88 -30 51 5 53 4 100 -41 44 -44 48 -45 64 -29 16 16 15 19 -27 62 -43 44 -45
48 -45 106 0 56 -3 63 -33 90 -47 43 -102 41 -148 -5z m133 -18 c25 -23 31
-74 13 -108 -12 -22 -64 -42 -88 -33 -61 22 -82 95 -40 140 28 30 83 31 115 1z"/>
</g>
</symbol><symbol id="symbols"><symbol id="icon-menu-burger" viewBox="0 0 49.945 24.007">
<g id="miu">
	<g id="editor_list_view_hambuger_menu_glyph">
		<g>
			<path id="path-1" fill="currentColor" d="M1.137,0C0.51,0,0,0.428,0,1.01v1.981c0,0.558,0.494,1.01,1.139,1.01h47.671
				c0.628,0,1.138-0.428,1.138-1.01V1.01c0-0.558-0.494-1.01-1.138-1.01H1.137z M1.137,10.003C0.51,10.003,0,10.431,0,11.013v1.98
				c0,0.557,0.494,1.01,1.139,1.01h47.671c0.628,0,1.138-0.428,1.138-1.01v-1.98c0-0.558-0.494-1.01-1.138-1.01H1.137z
				 M1.137,20.005C0.51,20.005,0,20.434,0,21.016v1.981c0,0.557,0.494,1.01,1.139,1.01h47.671c0.628,0,1.138-0.428,1.138-1.01
				v-1.981c0-0.558-0.494-1.011-1.138-1.011H1.137z"/>
		</g>
		<g>
			<path id="path-1_1_" fill="currentColor" d="M1.137,0C0.51,0,0,0.428,0,1.01v1.981c0,0.558,0.494,1.01,1.139,1.01h47.671
				c0.628,0,1.138-0.428,1.138-1.01V1.01c0-0.558-0.494-1.01-1.138-1.01H1.137z M1.137,10.003C0.51,10.003,0,10.431,0,11.013v1.98
				c0,0.557,0.494,1.01,1.139,1.01h47.671c0.628,0,1.138-0.428,1.138-1.01v-1.98c0-0.558-0.494-1.01-1.138-1.01H1.137z
				 M1.137,20.005C0.51,20.005,0,20.434,0,21.016v1.981c0,0.557,0.494,1.01,1.139,1.01h47.671c0.628,0,1.138-0.428,1.138-1.01
				v-1.981c0-0.558-0.494-1.011-1.138-1.011H1.137z"/>
		</g>
	</g>
</g>
</symbol><symbol id="icon-menu-cross" viewBox="0 0 23.867 23.867"><path fill="currentColor" d="M15.087 11.933l8.56-8.559a.75.75 0 0 0 0-1.061L21.554.22a.747.747 0 0 0-1.06 0l-8.561 8.56L3.373.22a.771.771 0 0 0-1.061 0L.22 2.313a.75.75 0 0 0 0 1.061l8.56 8.559-8.56 8.559a.751.751 0 0 0 0 1.062l2.093 2.094a.744.744 0 0 0 1.06 0l8.561-8.56 8.56 8.56a.746.746 0 0 0 1.06 0l2.093-2.094a.751.751 0 0 0 0-1.062l-8.56-8.559z"/></symbol><symbol id="search-icon" viewBox="0 0 30.000000 30.000000">
<metadata>
Created by potrace 1.13, written by Peter Selinger 2001-2015
</metadata>
<g transform="translate(0.000000,30.000000) scale(0.100000,-0.100000)" id="loop">
<path d="M34 266 c-28 -28 -34 -42 -34 -76 0 -35 6 -48 35 -77 34 -34 38 -35
88 -30 51 5 53 4 100 -41 44 -44 48 -45 64 -29 16 16 15 19 -27 62 -43 44 -45
48 -45 106 0 56 -3 63 -33 90 -47 43 -102 41 -148 -5z m133 -18 c25 -23 31
-74 13 -108 -12 -22 -64 -42 -88 -33 -61 22 -82 95 -40 140 28 30 83 31 115 1z"/>
</g>
</symbol><symbol id="symbols"><symbol id="search-icon" viewBox="0 0 30.000000 30.000000">
<metadata>
Created by potrace 1.13, written by Peter Selinger 2001-2015
</metadata>
<g transform="translate(0.000000,30.000000) scale(0.100000,-0.100000)" id="loop">
<path d="M34 266 c-28 -28 -34 -42 -34 -76 0 -35 6 -48 35 -77 34 -34 38 -35
88 -30 51 5 53 4 100 -41 44 -44 48 -45 64 -29 16 16 15 19 -27 62 -43 44 -45
48 -45 106 0 56 -3 63 -33 90 -47 43 -102 41 -148 -5z m133 -18 c25 -23 31
-74 13 -108 -12 -22 -64 -42 -88 -33 -61 22 -82 95 -40 140 28 30 83 31 115 1z"/>
</g>
</symbol></symbol></symbol></symbol></symbol></symbol></symbol></svg>