<svg id="Layer_1" xmlns="http://www.w3.org/2000/svg" viewBox="0 0 2521 2094"><style>.st0{fill:none}.st1{fill:#f04}</style><path class="st0" d="M996.5 1909.9c-3 40.3-22.4 77.5-53.7 102.9l-26.4 21.4c-13.9 11.3-5.9 33.7 12 33.7h664.2c17.9 0 25.9-22.5 12-33.8l-26.4-21.4c-31.4-25.5-50.8-62.7-53.8-103l-11.7-158.9h-504.5l-11.7 159.1z"/><path class="st1" d="M2421.3 0H99.7C44.6 0 0 44.8 0 99.8V1651c0 55.1 44.6 100 99.7 100H982l-11.6 157c-2.4 32.9-18.5 63.7-44.1 84.5l-26.4 21.4c-15 12.2-20.6 31.8-14.1 50.1 6.5 18.3 23.2 30 42.6 30h664.2c19.4 0 36.1-11.7 42.6-30s.9-37.9-14.1-50.2l-26.4-21.4c-25.7-20.8-41.8-51.6-44.2-84.6l-11.6-156.9h882.3c55.1 0 99.7-45 99.7-100V99.8c.1-55-44.6-99.8-99.6-99.8zm0 1725H99.7c-40.7 0-73.7-33.3-73.7-74v-141h2469v141c0 40.7-33.1 74-73.7 74zm0-1699c40.7 0 73.7 33.1 73.7 73.8V1484H26V99.8C26 59.1 59 26 99.7 26h2321.6zm-896.9 1883.9c3 40.3 22.4 77.5 53.8 103l26.4 21.4c13.9 11.3 5.9 33.8-12 33.8H928.3c-17.9 0-25.9-22.5-12-33.8l26.4-21.4c31.3-25.5 50.8-62.6 53.7-102.9l11.7-158.9h504.5l11.8 158.8z"/><path class="st1" d="M2403 131H118v1282h2285V131zm-13 1269H131V144h2259v1256zM1260.5 93.1c7.7 0 13.9-6.2 13.9-13.9s-6.2-13.9-13.9-13.9-13.9 6.2-13.9 13.9 6.2 13.9 13.9 13.9z"/><ellipse transform="rotate(-67.387 1224.076 79.262)" class="st1" cx="1224" cy="79.3" rx="7.6" ry="7.6"/></svg>