<svg xmlns="http://www.w3.org/2000/svg" xmlns:xlink="http://www.w3.org/1999/xlink" width="66" height="65" viewBox="0 0 66 65"><defs><path id="a" d="M899 232.05c0-6.36-4.8-11.54-10.69-11.54-5.9 0-10.69 5.18-10.69 11.54 0 5.1 3.08 9.43 7.34 10.95v9.16c0 8.64-6.51 15.67-14.52 15.67-8 0-14.52-7.03-14.52-15.67v-1.05c9.2-1.72 16.23-10.39 16.23-20.8v-16.7c0-2-1.5-3.61-3.35-3.61h-4.13c-1.85 0-3.35 1.62-3.35 3.61 0 2 1.5 3.62 3.35 3.62h.78v13.08c0 7.66-5.78 13.89-12.88 13.89-7.1 0-12.87-6.23-12.87-13.9v-13.07h1.02c1.85 0 3.35-1.62 3.35-3.62s-1.5-3.61-3.35-3.61h-4.37c-1.85 0-3.35 1.62-3.35 3.61v16.7c0 10.41 7.02 19.08 16.22 20.8v1.05c0 12.63 9.52 22.9 21.22 22.9s21.22-10.27 21.22-22.9V243c4.26-1.52 7.34-5.86 7.34-10.95m-10.42 3.25a3.55 3.55 0 0 1-3.47-3.61c0-2 1.55-3.62 3.47-3.62a3.55 3.55 0 0 1 3.47 3.62c0 1.99-1.56 3.61-3.47 3.61"/></defs><use fill="#ff0043" xlink:href="#a" transform="translate(-833 -210)"/></svg>