<svg id="Layer_1" xmlns="http://www.w3.org/2000/svg" viewBox="0 0 2238 1306"><style>.st0{fill:none}.st1{fill:#f04}</style><path class="st0" d="M959.6 1187H2002V79.4c0-29.2-24-52.4-53.2-52.4H285.2C256 27 232 50.2 232 79.4V1187h727.6zM1119.3 46c6.7 0 12.2 5.5 12.2 12.2s-5.5 12.2-12.2 12.2c-6.7 0-12.2-5.5-12.2-12.2s5.4-12.2 12.2-12.2zM276 90h1683v1054H276V90z"/><path class="st0" d="M289 104h1657v1027H289z"/><path class="st1" d="M2212.1 1187H2028V79.4c0-43.5-35.6-79.4-79.2-79.4H285.2C241.6 0 206 35.8 206 79.4V1187H26.4C12 1187 0 1199 0 1213.5v23.3c0 23.1 15.9 42.9 38.4 48l55.6 12.6c25.4 5.8 51.5 8.6 77.5 8.6H2067c26 0 52.1-2.8 77.4-8.6l55.4-12.6c22.6-5.2 38.2-24.9 38.2-48v-23.3c0-14.5-11.4-26.5-25.9-26.5zM100 1271.9l-55.8-12.7c-10.5-2.4-18.2-11.7-18.2-22.5V1213h907.5c0 6 1.6 10.7 4.7 15.2l8.2 11.9c9.9 14.2 26.2 22.9 43.5 22.9h250.5c17.3 0 33.6-8.5 43.5-22.7l8.2-12c3.1-4.5 4.7-9.2 4.7-15.2H2212v23.7c0 10.8-7.4 20.1-17.9 22.5l-55.6 12.7c-23.5 5.4-47.5 8.1-71.5 8.1H171.6c-24.1-.1-48.1-2.8-71.6-8.2zm1140.4-34.9H989.9c-8.8 0-17-4.7-22.1-11.9l-8.2-12.1h311.1l-8.2 12.1c-5 7.2-13.3 11.9-22.1 11.9zM232 79.4c0-29.2 24-52.4 53.2-52.4h1663.7c29.2 0 53.2 23.2 53.2 52.4V1187H232V79.4z"/><path class="st1" d="M1959 90H276v1054h1683V90zm-13 1041H289V104h1657v1027z"/><ellipse transform="rotate(-67.5 1119.25 58.185)" class="st1" cx="1119.3" cy="58.2" rx="12.2" ry="12.2"/></svg>