<svg xmlns="http://www.w3.org/2000/svg" xmlns:xlink="http://www.w3.org/1999/xlink" width="18" height="18" viewBox="0 0 18 18"><defs><path id="a" d="M1275.2 65.04a4.67 4.67 0 0 1-1.43-3.42c0-1.34.47-2.48 1.42-3.43a4.67 4.67 0 0 1 3.43-1.42c1.33 0 2.47.47 3.42 1.42a4.67 4.67 0 0 1 1.42 3.43c0 1.33-.47 2.47-1.42 3.42a4.67 4.67 0 0 1-3.42 1.42 4.67 4.67 0 0 1-3.43-1.42zm9.69.9a7.41 7.41 0 0 0 1.34-4.32 7.6 7.6 0 0 0-7.62-7.62 7.63 7.63 0 0 0-7.02 4.66 7.5 7.5 0 0 0 .01 5.91c.4.95.94 1.76 1.62 2.44a7.63 7.63 0 0 0 5.4 2.22 7.4 7.4 0 0 0 4.31-1.34l3.71 3.7c.26.27.59.41.98.41.37 0 .7-.14.97-.41.27-.28.41-.6.41-.97 0-.39-.13-.71-.4-.98z"/></defs><g clip-path="url(#clip-C98DAAE5-8B7F-469D-B9FB-AE6EAAF05A59)" transform="translate(-1271 -54)"><use fill="#fff" xlink:href="#a"/></g></svg>