<svg xmlns="http://www.w3.org/2000/svg" xmlns:xlink="http://www.w3.org/1999/xlink"><defs><path id="a" d="M858.5 1060l7.5-4.5v-4.31l-7.5 4.53-7.5-4.72v4.5z"/><path id="a" d="M858.5 1111l-7.5 4.5v4.31l7.5-4.53 7.5 4.72v-4.5z"/><path id="a" d="M899 232.05c0-6.36-4.8-11.54-10.69-11.54-5.9 0-10.69 5.18-10.69 11.54 0 5.1 3.08 9.43 7.34 10.95v9.16c0 8.64-6.51 15.67-14.52 15.67-8 0-14.52-7.03-14.52-15.67v-1.05c9.2-1.72 16.23-10.39 16.23-20.8v-16.7c0-2-1.5-3.61-3.35-3.61h-4.13c-1.85 0-3.35 1.62-3.35 3.61 0 2 1.5 3.62 3.35 3.62h.78v13.08c0 7.66-5.78 13.89-12.88 13.89-7.1 0-12.87-6.23-12.87-13.9v-13.07h1.02c1.85 0 3.35-1.62 3.35-3.62s-1.5-3.61-3.35-3.61h-4.37c-1.85 0-3.35 1.62-3.35 3.61v16.7c0 10.41 7.02 19.08 16.22 20.8v1.05c0 12.63 9.52 22.9 21.22 22.9s21.22-10.27 21.22-22.9V243c4.26-1.52 7.34-5.86 7.34-10.95m-10.42 3.25a3.55 3.55 0 0 1-3.47-3.61c0-2 1.55-3.62 3.47-3.62a3.55 3.55 0 0 1 3.47 3.62c0 1.99-1.56 3.61-3.47 3.61"/><path id="a" d="M1275.2 65.04a4.67 4.67 0 0 1-1.43-3.42c0-1.34.47-2.48 1.42-3.43a4.67 4.67 0 0 1 3.43-1.42c1.33 0 2.47.47 3.42 1.42a4.67 4.67 0 0 1 1.42 3.43c0 1.33-.47 2.47-1.42 3.42a4.67 4.67 0 0 1-3.42 1.42 4.67 4.67 0 0 1-3.43-1.42zm9.69.9a7.41 7.41 0 0 0 1.34-4.32 7.6 7.6 0 0 0-7.62-7.62 7.63 7.63 0 0 0-7.02 4.66 7.5 7.5 0 0 0 .01 5.91c.4.95.94 1.76 1.62 2.44a7.63 7.63 0 0 0 5.4 2.22 7.4 7.4 0 0 0 4.31-1.34l3.71 3.7c.26.27.59.41.98.41.37 0 .7-.14.97-.41.27-.28.41-.6.41-.97 0-.39-.13-.71-.4-.98z"/><path id="a" d="M858.5 1060l7.5-4.5v-4.31l-7.5 4.53-7.5-4.72v4.5z"/><path id="rov5a" d="M899 232.05c0-6.36-4.8-11.54-10.69-11.54-5.9 0-10.69 5.18-10.69 11.54 0 5.1 3.08 9.43 7.34 10.95v9.16c0 8.64-6.51 15.67-14.52 15.67-8 0-14.52-7.03-14.52-15.67v-1.05c9.2-1.72 16.23-10.39 16.23-20.8v-16.7c0-2-1.5-3.61-3.35-3.61h-4.13c-1.85 0-3.35 1.62-3.35 3.61 0 2 1.5 3.62 3.35 3.62h.78v13.08c0 7.66-5.78 13.89-12.88 13.89-7.1 0-12.87-6.23-12.87-13.9v-13.07h1.02c1.85 0 3.35-1.62 3.35-3.62s-1.5-3.61-3.35-3.61h-4.37c-1.85 0-3.35 1.62-3.35 3.61v16.7c0 10.41 7.02 19.08 16.22 20.8v1.05c0 12.63 9.52 22.9 21.22 22.9s21.22-10.27 21.22-22.9V243c4.26-1.52 7.34-5.86 7.34-10.95m-10.42 3.25a3.55 3.55 0 0 1-3.47-3.61c0-2 1.55-3.62 3.47-3.62a3.55 3.55 0 0 1 3.47 3.62c0 1.99-1.56 3.61-3.47 3.61"/><path id="vmwua" d="M1275.2 65.04a4.67 4.67 0 0 1-1.43-3.42c0-1.34.47-2.48 1.42-3.43a4.67 4.67 0 0 1 3.43-1.42c1.33 0 2.47.47 3.42 1.42a4.67 4.67 0 0 1 1.42 3.43c0 1.33-.47 2.47-1.42 3.42a4.67 4.67 0 0 1-3.42 1.42 4.67 4.67 0 0 1-3.43-1.42zm9.69.9a7.41 7.41 0 0 0 1.34-4.32 7.6 7.6 0 0 0-7.62-7.62 7.63 7.63 0 0 0-7.02 4.66 7.5 7.5 0 0 0 .01 5.91c.4.95.94 1.76 1.62 2.44a7.63 7.63 0 0 0 5.4 2.22 7.4 7.4 0 0 0 4.31-1.34l3.71 3.7c.26.27.59.41.98.41.37 0 .7-.14.97-.41.27-.28.41-.6.41-.97 0-.39-.13-.71-.4-.98z"/></defs><symbol id="arrow-down-icon" viewBox="0 0 15 9"><use fill="#ff0043" xlink:href="#a" transform="translate(-851 -1051)"/></symbol><symbol id="arrow-up-icon" viewBox="0 0 15 9"><use fill="#8f96a0" xlink:href="#a" transform="translate(-851 -1111)"/></symbol><symbol id="desktop" viewBox="0 0 2521 2094"><style>.st0{fill:none}.st1{fill:#f04}</style><path class="st0" d="M996.5 1909.9c-3 40.3-22.4 77.5-53.7 102.9l-26.4 21.4c-13.9 11.3-5.9 33.7 12 33.7h664.2c17.9 0 25.9-22.5 12-33.8l-26.4-21.4c-31.4-25.5-50.8-62.7-53.8-103l-11.7-158.9h-504.5l-11.7 159.1z"/><path class="st1" d="M2421.3 0H99.7C44.6 0 0 44.8 0 99.8V1651c0 55.1 44.6 100 99.7 100H982l-11.6 157c-2.4 32.9-18.5 63.7-44.1 84.5l-26.4 21.4c-15 12.2-20.6 31.8-14.1 50.1 6.5 18.3 23.2 30 42.6 30h664.2c19.4 0 36.1-11.7 42.6-30s.9-37.9-14.1-50.2l-26.4-21.4c-25.7-20.8-41.8-51.6-44.2-84.6l-11.6-156.9h882.3c55.1 0 99.7-45 99.7-100V99.8c.1-55-44.6-99.8-99.6-99.8zm0 1725H99.7c-40.7 0-73.7-33.3-73.7-74v-141h2469v141c0 40.7-33.1 74-73.7 74zm0-1699c40.7 0 73.7 33.1 73.7 73.8V1484H26V99.8C26 59.1 59 26 99.7 26h2321.6zm-896.9 1883.9c3 40.3 22.4 77.5 53.8 103l26.4 21.4c13.9 11.3 5.9 33.8-12 33.8H928.3c-17.9 0-25.9-22.5-12-33.8l26.4-21.4c31.3-25.5 50.8-62.6 53.7-102.9l11.7-158.9h504.5l11.8 158.8z"/><path class="st1" d="M2403 131H118v1282h2285V131zm-13 1269H131V144h2259v1256zM1260.5 93.1c7.7 0 13.9-6.2 13.9-13.9s-6.2-13.9-13.9-13.9-13.9 6.2-13.9 13.9 6.2 13.9 13.9 13.9z"/><ellipse transform="rotate(-67.387 1224.076 79.262)" class="st1" cx="1224" cy="79.3" rx="7.6" ry="7.6"/></symbol><symbol id="doc-log" viewBox="0 0 66 65"><use fill="#ff0043" xlink:href="#a" transform="translate(-833 -210)"/></symbol><symbol id="notebook" viewBox="0 0 2238 1306"><style>.st0{fill:none}.st1{fill:#f04}</style><path class="st0" d="M959.6 1187H2002V79.4c0-29.2-24-52.4-53.2-52.4H285.2C256 27 232 50.2 232 79.4V1187h727.6zM1119.3 46c6.7 0 12.2 5.5 12.2 12.2s-5.5 12.2-12.2 12.2c-6.7 0-12.2-5.5-12.2-12.2s5.4-12.2 12.2-12.2zM276 90h1683v1054H276V90z"/><path class="st0" d="M289 104h1657v1027H289z"/><path class="st1" d="M2212.1 1187H2028V79.4c0-43.5-35.6-79.4-79.2-79.4H285.2C241.6 0 206 35.8 206 79.4V1187H26.4C12 1187 0 1199 0 1213.5v23.3c0 23.1 15.9 42.9 38.4 48l55.6 12.6c25.4 5.8 51.5 8.6 77.5 8.6H2067c26 0 52.1-2.8 77.4-8.6l55.4-12.6c22.6-5.2 38.2-24.9 38.2-48v-23.3c0-14.5-11.4-26.5-25.9-26.5zM100 1271.9l-55.8-12.7c-10.5-2.4-18.2-11.7-18.2-22.5V1213h907.5c0 6 1.6 10.7 4.7 15.2l8.2 11.9c9.9 14.2 26.2 22.9 43.5 22.9h250.5c17.3 0 33.6-8.5 43.5-22.7l8.2-12c3.1-4.5 4.7-9.2 4.7-15.2H2212v23.7c0 10.8-7.4 20.1-17.9 22.5l-55.6 12.7c-23.5 5.4-47.5 8.1-71.5 8.1H171.6c-24.1-.1-48.1-2.8-71.6-8.2zm1140.4-34.9H989.9c-8.8 0-17-4.7-22.1-11.9l-8.2-12.1h311.1l-8.2 12.1c-5 7.2-13.3 11.9-22.1 11.9zM232 79.4c0-29.2 24-52.4 53.2-52.4h1663.7c29.2 0 53.2 23.2 53.2 52.4V1187H232V79.4z"/><path class="st1" d="M1959 90H276v1054h1683V90zm-13 1041H289V104h1657v1027z"/><ellipse transform="rotate(-67.5 1119.25 58.185)" class="st1" cx="1119.3" cy="58.2" rx="12.2" ry="12.2"/></symbol><symbol id="search" viewBox="0 0 18 18"><g clip-path="url(#clip-C98DAAE5-8B7F-469D-B9FB-AE6EAAF05A59)" transform="translate(-1271 -54)"><use fill="#fff" xlink:href="#a"/></g></symbol><symbol id="sprite-svg"><symbol id="arrow-down-icon" viewBox="0 0 15 9"><use fill="#ff0043" xlink:href="#a" transform="translate(-851 -1051)"/></symbol><symbol id="arrow-up-icon" viewBox="0 0 15 9"><use fill="#8f96a0" xlink:href="#a" transform="translate(-851 -1111)"/></symbol><symbol id="desktop" viewBox="0 0 2521 2094"><style>.st0{fill:none}.st1{fill:#f04}</style><path class="st0" d="M996.5 1909.9c-3 40.3-22.4 77.5-53.7 102.9l-26.4 21.4c-13.9 11.3-5.9 33.7 12 33.7h664.2c17.9 0 25.9-22.5 12-33.8l-26.4-21.4c-31.4-25.5-50.8-62.7-53.8-103l-11.7-158.9h-504.5l-11.7 159.1z"/><path class="st1" d="M2421.3 0H99.7C44.6 0 0 44.8 0 99.8V1651c0 55.1 44.6 100 99.7 100H982l-11.6 157c-2.4 32.9-18.5 63.7-44.1 84.5l-26.4 21.4c-15 12.2-20.6 31.8-14.1 50.1 6.5 18.3 23.2 30 42.6 30h664.2c19.4 0 36.1-11.7 42.6-30s.9-37.9-14.1-50.2l-26.4-21.4c-25.7-20.8-41.8-51.6-44.2-84.6l-11.6-156.9h882.3c55.1 0 99.7-45 99.7-100V99.8c.1-55-44.6-99.8-99.6-99.8zm0 1725H99.7c-40.7 0-73.7-33.3-73.7-74v-141h2469v141c0 40.7-33.1 74-73.7 74zm0-1699c40.7 0 73.7 33.1 73.7 73.8V1484H26V99.8C26 59.1 59 26 99.7 26h2321.6zm-896.9 1883.9c3 40.3 22.4 77.5 53.8 103l26.4 21.4c13.9 11.3 5.9 33.8-12 33.8H928.3c-17.9 0-25.9-22.5-12-33.8l26.4-21.4c31.3-25.5 50.8-62.6 53.7-102.9l11.7-158.9h504.5l11.8 158.8z"/><path class="st1" d="M2403 131H118v1282h2285V131zm-13 1269H131V144h2259v1256zM1260.5 93.1c7.7 0 13.9-6.2 13.9-13.9s-6.2-13.9-13.9-13.9-13.9 6.2-13.9 13.9 6.2 13.9 13.9 13.9z"/><ellipse transform="rotate(-67.387 1224.076 79.262)" class="st1" cx="1224" cy="79.3" rx="7.6" ry="7.6"/></symbol><symbol id="doc-log" viewBox="0 0 66 65"><use fill="#ff0043" xlink:href="#rov5a" transform="translate(-833 -210)"/></symbol><symbol id="notebook" viewBox="0 0 2238 1306"><style>.st0{fill:none}.st1{fill:#f04}</style><path class="st0" d="M959.6 1187H2002V79.4c0-29.2-24-52.4-53.2-52.4H285.2C256 27 232 50.2 232 79.4V1187h727.6zM1119.3 46c6.7 0 12.2 5.5 12.2 12.2s-5.5 12.2-12.2 12.2c-6.7 0-12.2-5.5-12.2-12.2s5.4-12.2 12.2-12.2zM276 90h1683v1054H276V90z"/><path class="st0" d="M289 104h1657v1027H289z"/><path class="st1" d="M2212.1 1187H2028V79.4c0-43.5-35.6-79.4-79.2-79.4H285.2C241.6 0 206 35.8 206 79.4V1187H26.4C12 1187 0 1199 0 1213.5v23.3c0 23.1 15.9 42.9 38.4 48l55.6 12.6c25.4 5.8 51.5 8.6 77.5 8.6H2067c26 0 52.1-2.8 77.4-8.6l55.4-12.6c22.6-5.2 38.2-24.9 38.2-48v-23.3c0-14.5-11.4-26.5-25.9-26.5zM100 1271.9l-55.8-12.7c-10.5-2.4-18.2-11.7-18.2-22.5V1213h907.5c0 6 1.6 10.7 4.7 15.2l8.2 11.9c9.9 14.2 26.2 22.9 43.5 22.9h250.5c17.3 0 33.6-8.5 43.5-22.7l8.2-12c3.1-4.5 4.7-9.2 4.7-15.2H2212v23.7c0 10.8-7.4 20.1-17.9 22.5l-55.6 12.7c-23.5 5.4-47.5 8.1-71.5 8.1H171.6c-24.1-.1-48.1-2.8-71.6-8.2zm1140.4-34.9H989.9c-8.8 0-17-4.7-22.1-11.9l-8.2-12.1h311.1l-8.2 12.1c-5 7.2-13.3 11.9-22.1 11.9zM232 79.4c0-29.2 24-52.4 53.2-52.4h1663.7c29.2 0 53.2 23.2 53.2 52.4V1187H232V79.4z"/><path class="st1" d="M1959 90H276v1054h1683V90zm-13 1041H289V104h1657v1027z"/><ellipse transform="rotate(-67.5 1119.25 58.185)" class="st1" cx="1119.3" cy="58.2" rx="12.2" ry="12.2"/></symbol><symbol id="search" viewBox="0 0 18 18"><g clip-path="url(#clip-C98DAAE5-8B7F-469D-B9FB-AE6EAAF05A59)" transform="translate(-1271 -54)"><use fill="#fff" xlink:href="#vmwua"/></g></symbol><symbol id="tablet" viewBox="0 0 904 1258"><style>.st0{fill:none}.st1{fill:#f04}</style><path class="st0" d="M878 62.8c0-20.3-16.5-36.8-36.8-36.8H62.8C42.5 26 26 42.5 26 62.8v1131.5c0 20.3 16.5 36.8 36.8 36.8h778.5c20.3 0 36.8-16.5 36.8-36.8V62.8zM452.2 1206.5c-14.4 0-26-11.7-26-26 0-14.4 11.7-26 26-26 14.4 0 26 11.7 26 26 .1 14.4-11.6 26-26 26zm0-1141.5c5.3 0 9.6 4.3 9.6 9.6s-4.3 9.6-9.6 9.6-9.6-4.3-9.6-9.6c.1-5.4 4.4-9.6 9.6-9.6zM72 121h761v1012H72V121z"/><path class="st0" d="M85 134h735v986H85z"/><path class="st1" d="M904 62.9C904 28.2 875.8 0 841.1 0H62.9C28.2 0 0 28.2 0 62.9V1195c0 34.8 28.2 62.9 62.9 62.9H841c34.8 0 62.9-28.2 62.9-62.9V62.9zm-26 1131.3c0 20.3-16.5 36.8-36.8 36.8H62.8c-20.3 0-36.8-16.5-36.8-36.8V62.8C26 42.5 42.5 26 62.8 26h778.5c20.3 0 36.8 16.5 36.8 36.8v1131.4z"/><path class="st1" d="M833 121H72v1012h761V121zm-13 999H85V134h735v986z"/><ellipse transform="rotate(-45.001 452.228 1180.51)" class="st1" cx="452.2" cy="1180.5" rx="26" ry="26"/><circle class="st1" cx="452.2" cy="74.5" r="9.6"/></symbol><symbol id="tel" viewBox="0 0 420 818"><style>.st0{fill:none}.st1{fill:#f04}</style><path class="st0" d="M51 118h318v578H51z"/><path class="st0" d="M394 63.1c0-20.5-16.6-37.1-37.1-37.1H63.1C42.6 26 26 42.6 26 63.1V754c0 20.5 16.6 37.1 37.1 37.1H357c20.5 0 37.1-16.6 37.1-37.1V63.1zm-184 710c-14.5 0-26.3-12.1-26.3-27s11.8-27 26.3-27 26.3 12.1 26.3 27c.1 14.9-11.7 27-26.3 27zm0-729.8c3.2 0 5.9 2.6 5.9 5.9 0 3.2-2.6 5.9-5.9 5.9-3.2 0-5.9-2.6-5.9-5.9.1-3.3 2.7-5.9 5.9-5.9zM181.9 65h56.2c3.7 0 6.8 3.3 6.8 7s-3 7-6.8 7h-56.2c-3.7 0-6.8-3.3-6.8-7 .1-3.7 3.1-7 6.8-7zm-26.4.5a6.7 6.7 0 1 1-6.7 6.7c.1-3.7 3.1-6.7 6.7-6.7zM38 105h344v604H38V105z"/><path class="st1" d="M420 63.2C420 28.3 391.7 0 356.8 0H63.2C28.3 0 0 28.3 0 63.2v691.5c0 35 28.3 63.3 63.2 63.3h293.5c34.9 0 63.2-28.3 63.2-63.2V63.2zm-26 690.7c0 20.5-16.6 37.1-37.1 37.1H63.1C42.6 791 26 774.4 26 753.9V63.1C26 42.6 42.6 26 63.1 26H357c20.5 0 37.1 16.6 37.1 37.1v690.8z"/><path class="st1" d="M382 105H38v604h344V105zm-13 591H51V118h318v578z"/><ellipse class="st1" cx="210" cy="746.1" rx="26.3" ry="27"/><path class="st1" d="M181.9 79h56.2c3.7 0 6.8-3.3 6.8-7s-3-7-6.8-7h-56.2c-3.7 0-6.8 3.3-6.8 7 .1 3.7 3.1 7 6.8 7zM155.5 78.9a6.7 6.7 0 1 0-6.7-6.7c.1 3.7 3.1 6.7 6.7 6.7zM210 55c3.2 0 5.9-2.6 5.9-5.9 0-3.2-2.6-5.9-5.9-5.9-3.2 0-5.9 2.6-5.9 5.9.1 3.3 2.7 5.9 5.9 5.9z"/></symbol></symbol><symbol id="tablet" viewBox="0 0 904 1258"><style>.st0{fill:none}.st1{fill:#f04}</style><path class="st0" d="M878 62.8c0-20.3-16.5-36.8-36.8-36.8H62.8C42.5 26 26 42.5 26 62.8v1131.5c0 20.3 16.5 36.8 36.8 36.8h778.5c20.3 0 36.8-16.5 36.8-36.8V62.8zM452.2 1206.5c-14.4 0-26-11.7-26-26 0-14.4 11.7-26 26-26 14.4 0 26 11.7 26 26 .1 14.4-11.6 26-26 26zm0-1141.5c5.3 0 9.6 4.3 9.6 9.6s-4.3 9.6-9.6 9.6-9.6-4.3-9.6-9.6c.1-5.4 4.4-9.6 9.6-9.6zM72 121h761v1012H72V121z"/><path class="st0" d="M85 134h735v986H85z"/><path class="st1" d="M904 62.9C904 28.2 875.8 0 841.1 0H62.9C28.2 0 0 28.2 0 62.9V1195c0 34.8 28.2 62.9 62.9 62.9H841c34.8 0 62.9-28.2 62.9-62.9V62.9zm-26 1131.3c0 20.3-16.5 36.8-36.8 36.8H62.8c-20.3 0-36.8-16.5-36.8-36.8V62.8C26 42.5 42.5 26 62.8 26h778.5c20.3 0 36.8 16.5 36.8 36.8v1131.4z"/><path class="st1" d="M833 121H72v1012h761V121zm-13 999H85V134h735v986z"/><ellipse transform="rotate(-45.001 452.228 1180.51)" class="st1" cx="452.2" cy="1180.5" rx="26" ry="26"/><circle class="st1" cx="452.2" cy="74.5" r="9.6"/></symbol><symbol id="tel" viewBox="0 0 420 818"><style>.st0{fill:none}.st1{fill:#f04}</style><path class="st0" d="M51 118h318v578H51z"/><path class="st0" d="M394 63.1c0-20.5-16.6-37.1-37.1-37.1H63.1C42.6 26 26 42.6 26 63.1V754c0 20.5 16.6 37.1 37.1 37.1H357c20.5 0 37.1-16.6 37.1-37.1V63.1zm-184 710c-14.5 0-26.3-12.1-26.3-27s11.8-27 26.3-27 26.3 12.1 26.3 27c.1 14.9-11.7 27-26.3 27zm0-729.8c3.2 0 5.9 2.6 5.9 5.9 0 3.2-2.6 5.9-5.9 5.9-3.2 0-5.9-2.6-5.9-5.9.1-3.3 2.7-5.9 5.9-5.9zM181.9 65h56.2c3.7 0 6.8 3.3 6.8 7s-3 7-6.8 7h-56.2c-3.7 0-6.8-3.3-6.8-7 .1-3.7 3.1-7 6.8-7zm-26.4.5a6.7 6.7 0 1 1-6.7 6.7c.1-3.7 3.1-6.7 6.7-6.7zM38 105h344v604H38V105z"/><path class="st1" d="M420 63.2C420 28.3 391.7 0 356.8 0H63.2C28.3 0 0 28.3 0 63.2v691.5c0 35 28.3 63.3 63.2 63.3h293.5c34.9 0 63.2-28.3 63.2-63.2V63.2zm-26 690.7c0 20.5-16.6 37.1-37.1 37.1H63.1C42.6 791 26 774.4 26 753.9V63.1C26 42.6 42.6 26 63.1 26H357c20.5 0 37.1 16.6 37.1 37.1v690.8z"/><path class="st1" d="M382 105H38v604h344V105zm-13 591H51V118h318v578z"/><ellipse class="st1" cx="210" cy="746.1" rx="26.3" ry="27"/><path class="st1" d="M181.9 79h56.2c3.7 0 6.8-3.3 6.8-7s-3-7-6.8-7h-56.2c-3.7 0-6.8 3.3-6.8 7 .1 3.7 3.1 7 6.8 7zM155.5 78.9a6.7 6.7 0 1 0-6.7-6.7c.1 3.7 3.1 6.7 6.7 6.7zM210 55c3.2 0 5.9-2.6 5.9-5.9 0-3.2-2.6-5.9-5.9-5.9-3.2 0-5.9 2.6-5.9 5.9.1 3.3 2.7 5.9 5.9 5.9z"/></symbol></svg>