<svg id="Layer_1" xmlns="http://www.w3.org/2000/svg" viewBox="0 0 904 1258"><style>.st0{fill:none}.st1{fill:#f04}</style><path class="st0" d="M878 62.8c0-20.3-16.5-36.8-36.8-36.8H62.8C42.5 26 26 42.5 26 62.8v1131.5c0 20.3 16.5 36.8 36.8 36.8h778.5c20.3 0 36.8-16.5 36.8-36.8V62.8zM452.2 1206.5c-14.4 0-26-11.7-26-26 0-14.4 11.7-26 26-26 14.4 0 26 11.7 26 26 .1 14.4-11.6 26-26 26zm0-1141.5c5.3 0 9.6 4.3 9.6 9.6s-4.3 9.6-9.6 9.6-9.6-4.3-9.6-9.6c.1-5.4 4.4-9.6 9.6-9.6zM72 121h761v1012H72V121z"/><path class="st0" d="M85 134h735v986H85z"/><path class="st1" d="M904 62.9C904 28.2 875.8 0 841.1 0H62.9C28.2 0 0 28.2 0 62.9V1195c0 34.8 28.2 62.9 62.9 62.9H841c34.8 0 62.9-28.2 62.9-62.9V62.9zm-26 1131.3c0 20.3-16.5 36.8-36.8 36.8H62.8c-20.3 0-36.8-16.5-36.8-36.8V62.8C26 42.5 42.5 26 62.8 26h778.5c20.3 0 36.8 16.5 36.8 36.8v1131.4z"/><path class="st1" d="M833 121H72v1012h761V121zm-13 999H85V134h735v986z"/><ellipse transform="rotate(-45.001 452.228 1180.51)" class="st1" cx="452.2" cy="1180.5" rx="26" ry="26"/><circle class="st1" cx="452.2" cy="74.5" r="9.6"/></svg>