<svg id="Layer_1" xmlns="http://www.w3.org/2000/svg" viewBox="0 0 420 818"><style>.st0{fill:none}.st1{fill:#f04}</style><path class="st0" d="M51 118h318v578H51z"/><path class="st0" d="M394 63.1c0-20.5-16.6-37.1-37.1-37.1H63.1C42.6 26 26 42.6 26 63.1V754c0 20.5 16.6 37.1 37.1 37.1H357c20.5 0 37.1-16.6 37.1-37.1V63.1zm-184 710c-14.5 0-26.3-12.1-26.3-27s11.8-27 26.3-27 26.3 12.1 26.3 27c.1 14.9-11.7 27-26.3 27zm0-729.8c3.2 0 5.9 2.6 5.9 5.9 0 3.2-2.6 5.9-5.9 5.9-3.2 0-5.9-2.6-5.9-5.9.1-3.3 2.7-5.9 5.9-5.9zM181.9 65h56.2c3.7 0 6.8 3.3 6.8 7s-3 7-6.8 7h-56.2c-3.7 0-6.8-3.3-6.8-7 .1-3.7 3.1-7 6.8-7zm-26.4.5a6.7 6.7 0 1 1-6.7 6.7c.1-3.7 3.1-6.7 6.7-6.7zM38 105h344v604H38V105z"/><path class="st1" d="M420 63.2C420 28.3 391.7 0 356.8 0H63.2C28.3 0 0 28.3 0 63.2v691.5c0 35 28.3 63.3 63.2 63.3h293.5c34.9 0 63.2-28.3 63.2-63.2V63.2zm-26 690.7c0 20.5-16.6 37.1-37.1 37.1H63.1C42.6 791 26 774.4 26 753.9V63.1C26 42.6 42.6 26 63.1 26H357c20.5 0 37.1 16.6 37.1 37.1v690.8z"/><path class="st1" d="M382 105H38v604h344V105zm-13 591H51V118h318v578z"/><ellipse class="st1" cx="210" cy="746.1" rx="26.3" ry="27"/><path class="st1" d="M181.9 79h56.2c3.7 0 6.8-3.3 6.8-7s-3-7-6.8-7h-56.2c-3.7 0-6.8 3.3-6.8 7 .1 3.7 3.1 7 6.8 7zM155.5 78.9a6.7 6.7 0 1 0-6.7-6.7c.1 3.7 3.1 6.7 6.7 6.7zM210 55c3.2 0 5.9-2.6 5.9-5.9 0-3.2-2.6-5.9-5.9-5.9-3.2 0-5.9 2.6-5.9 5.9.1 3.3 2.7 5.9 5.9 5.9z"/></svg>