<svg xmlns="http://www.w3.org/2000/svg" xmlns:xlink="http://www.w3.org/1999/xlink"><symbol id="chevron-down" viewBox="0 0 16 10">
<path d="M1 1L8 8L15 1" stroke="black" stroke-width="2"/>
</symbol><symbol id="close" viewBox="0 0 32 32">
<path d="M9.07035 6.92965L24.9095 22.7688L22.9296 24.7487L7.09046 8.90955L9.07035 6.92965Z" fill="white"/>
<path d="M24.9095 8.90955L9.07035 24.7487L7.09045 22.7688L22.9296 6.92965L24.9095 8.90955Z" fill="white"/>
</symbol><symbol id="crown" viewBox="0 0 32 32">
<circle cx="16" cy="16" r="16" fill="#EE4713"/>
<path fill-rule="evenodd" clip-rule="evenodd" d="M9.17006 10.3404C8.90549 10.0784 8.4624 10.3227 8.54281 10.6863L11.2709 23.0218C11.3087 23.1928 11.4603 23.3145 11.6354 23.3145H20.9025C21.0776 23.3145 21.2292 23.1928 21.267 23.0218L23.9951 10.6863C24.0755 10.3227 23.6324 10.0784 23.3678 10.3404L20.4566 13.2239C20.3527 13.3268 20.1852 13.3268 20.0813 13.2239L16.5317 9.70809C16.3862 9.56397 16.1517 9.56397 16.0062 9.70809L12.4566 13.2239C12.3527 13.3268 12.1852 13.3268 12.0813 13.2239L9.17006 10.3404ZM13.8156 20.1145C13.6978 20.1145 13.6023 20.21 13.6023 20.3279V20.9679C13.6023 21.0857 13.6978 21.1812 13.8156 21.1812H18.7223C18.8401 21.1812 18.9356 21.0857 18.9356 20.9679V20.3279C18.9356 20.21 18.8401 20.1145 18.7223 20.1145H13.8156Z" fill="white"/>
</symbol><symbol id="logo" viewBox="0 0 64 64">
<path d="M53.0601 18.8244H46.6196V23.7441L53.0601 28.6638V18.8244Z" fill="white"/>
<path d="M55.2821 44.9108C54.6237 44.3677 52.8367 42.7766 49.7348 40.0118C45.0184 35.8093 35.2709 27.1206 33.5146 25.9394C33.0489 25.7352 32.5302 25.7795 32.3207 25.8981C29.5805 27.4488 12.2669 42.755 10.4943 44.5802L5 40.0186C6.17465 38.6593 24.7357 22.0823 28.6491 19.8675C31.0831 18.489 34.3499 18.458 36.9702 19.7898C38.3505 20.4898 42.1523 23.7329 54.6564 34.877C57.2093 37.1524 59.4144 39.1173 60 39.6019L55.2821 44.9108Z" fill="#F0C630"/>
</symbol><symbol id="minus" viewBox="0 0 12 2">
<rect y="2" width="2" height="12" transform="rotate(-90 0 2)" fill="black"/>
</symbol><symbol id="mobile-menu" viewBox="0 0 32 32">
<path fill-rule="evenodd" clip-rule="evenodd" d="M27 9L5 9L5 7L27 7L27 9Z" fill="white"/>
<path fill-rule="evenodd" clip-rule="evenodd" d="M27 17L11 17L11 15L27 15L27 17Z" fill="white"/>
<path fill-rule="evenodd" clip-rule="evenodd" d="M27 25L5 25L5 23L27 23L27 25Z" fill="white"/>
</symbol><symbol id="plus" viewBox="0 0 12 12">
<path d="M7 12H5L5 0L7 1.74846e-07L7 12Z" fill="black"/>
<path d="M8.74228e-08 7L0 5L12 5V7L8.74228e-08 7Z" fill="black"/>
</symbol><symbol id="procent" viewBox="0 0 32 32">
<circle cx="16" cy="16" r="16" fill="#FC822A"/>
<line x1="18.168" y1="10.2685" x2="13.5434" y2="22.4758" stroke="white" stroke-width="2.1" stroke-linecap="round"/>
<path fill-rule="evenodd" clip-rule="evenodd" d="M10.4025 16.7611C12.2911 16.7611 13.8221 15.2301 13.8221 13.3415C13.8221 11.4529 12.2911 9.92188 10.4025 9.92188C8.51393 9.92188 6.98291 11.4529 6.98291 13.3415C6.98291 15.2301 8.51393 16.7611 10.4025 16.7611ZM10.3353 14.73C11.0741 14.73 11.673 14.1311 11.673 13.3924C11.673 12.6536 11.0741 12.0547 10.3353 12.0547C9.59656 12.0547 8.99766 12.6536 8.99766 13.3924C8.99766 14.1311 9.59656 14.73 10.3353 14.73Z" fill="white"/>
<path fill-rule="evenodd" clip-rule="evenodd" d="M21.5974 22.3148C23.486 22.3148 25.017 20.7837 25.017 18.8951C25.017 17.0065 23.486 15.4755 21.5974 15.4755C19.7088 15.4755 18.1777 17.0065 18.1777 18.8951C18.1777 20.7837 19.7088 22.3148 21.5974 22.3148ZM21.5301 20.2837C22.2689 20.2837 22.8678 19.6848 22.8678 18.9461C22.8678 18.2073 22.2689 17.6084 21.5301 17.6084C20.7913 17.6084 20.1924 18.2073 20.1924 18.9461C20.1924 19.6848 20.7913 20.2837 21.5301 20.2837Z" fill="white"/>
</symbol><symbol id="rocket" viewBox="0 0 32 32">
<circle cx="16" cy="16" r="16" fill="#774AA3"/>
<path fill-rule="evenodd" clip-rule="evenodd" d="M20.7564 7.70199C18.2243 8.2378 16.034 9.82419 14.7364 12.0718L12.8754 15.2952L10.107 16.037C10.0165 16.0612 9.9454 16.1311 9.91964 16.2212L9.43558 17.9134C9.39285 18.0627 9.48631 18.2168 9.6385 18.248L11.0087 18.5284L16.5512 21.7284L17.4792 22.7748C17.5822 22.891 17.7624 22.8949 17.8704 22.7832L19.0938 21.5179C19.1589 21.4506 19.1839 21.354 19.1597 21.2635L18.4179 18.4952L20.2789 15.2718C21.5766 13.0242 21.8553 10.3342 21.0533 7.87342C21.0126 7.74864 20.8848 7.67482 20.7564 7.70199ZM17.2466 14.1239C17.7568 14.4185 18.4092 14.2437 18.7037 13.7335C18.9983 13.2233 18.8235 12.5709 18.3133 12.2764C17.8031 11.9818 17.1508 12.1566 16.8562 12.6668C16.5617 13.177 16.7365 13.8294 17.2466 14.1239Z" fill="white"/>
<path d="M11.1859 24.9605C12.4048 24.6706 13.4549 23.8913 14.0847 22.8005L14.4648 22.1421C14.5385 22.0146 14.4948 21.8515 14.3672 21.7779L12.0578 20.4445C11.9303 20.3709 11.7672 20.4146 11.6935 20.5421L11.3134 21.2005C10.6837 22.2913 10.5339 23.5905 10.8923 24.7909C10.9298 24.9167 11.0582 24.9908 11.1859 24.9605Z" fill="white"/>
</symbol></svg>