<?xml version="1.0" encoding="utf-8"?>
<!-- Generator: Adobe Illustrator 21.0.0, SVG Export Plug-In . SVG Version: 6.00 Build 0)  -->
<svg version="1.1" id="Layer_1" xmlns="http://www.w3.org/2000/svg" xmlns:xlink="http://www.w3.org/1999/xlink" x="0px" y="0px"
	 viewBox="0 0 39.9 33.9" style="enable-background:new 0 0 39.9 33.9;" xml:space="preserve">
<style type="text/css">
	.st0{fill:none;}
	.st1{clip-path:url(#SVGID_9_);}
	.st2{fill-rule:evenodd;clip-rule:evenodd;fill:#FFFFFF;}
	.st3{fill-rule:evenodd;clip-rule:evenodd;fill:#EDF5F8;}
	.st4{fill-rule:evenodd;clip-rule:evenodd;fill:#3FB4F1;}
	.st5{fill-rule:evenodd;clip-rule:evenodd;fill:none;}
</style>
<rect x="-79" y="-315" class="st0" width="1280" height="5100"/>
<rect x="-79" y="-315" class="st0" width="1280" height="5100"/>
<rect x="-79" y="-315" class="st0" width="1280" height="5100"/>
<rect x="-79" y="-315" class="st0" width="1280" height="5100"/>
<g>
	<defs>
		<polyline id="SVGID_1_" points="-79,4785 1201,4785 1201,-315 -79,-315 		"/>
	</defs>
	<clipPath id="SVGID_2_">
		<use xlink:href="#SVGID_1_"  style="overflow:visible;"/>
	</clipPath>
</g>
<g>
	<defs>
		<polyline id="SVGID_3_" points="-79,4785 1201,4785 1201,-315 -79,-315 		"/>
	</defs>
	<clipPath id="SVGID_4_">
		<use xlink:href="#SVGID_3_"  style="overflow:visible;"/>
	</clipPath>
</g>
<g>
	<defs>
		<polyline id="SVGID_5_" points="-79,4785 1201,4785 1201,-315 -79,-315 		"/>
	</defs>
	<clipPath id="SVGID_6_">
		<use xlink:href="#SVGID_5_"  style="overflow:visible;"/>
	</clipPath>
</g>
<g>
	<defs>
		<path id="SVGID_7_" d="M-22-263"/>
	</defs>
	<defs>
		<polyline id="SVGID_8_" points="-79,4785 1201,4785 1258,-263 		"/>
	</defs>
	<clipPath id="SVGID_9_">
		<use xlink:href="#SVGID_7_"  style="overflow:visible;"/>
	</clipPath>
	<clipPath id="SVGID_10_" class="st1">
		<use xlink:href="#SVGID_8_"  style="overflow:visible;"/>
	</clipPath>
</g>
<g>
	<path class="st2" d="M24.4,12.3L24.4,12.3c3.1,0,5.6-2.8,5.6-6.1c0-3.4-2.5-6.1-5.6-6.1c-3.1,0-5.6,2.7-5.6,6.1h2.8
		c0-1.7,1.3-3.1,2.8-3.1c1.6,0,2.8,1.4,2.8,3.1c0,1.7-1.3,3.1-2.8,3.1H0.1v3.1H24.4z"/>
	<path class="st2" d="M14.4,21.6H0.1v3.1h14.3c1.6,0,2.8,1.4,2.8,3.1c0,1.7-1.3,3.1-2.8,3.1s-2.8-1.4-2.8-3.1H8.8
		c0,3.4,2.5,6.1,5.6,6.1s5.6-2.7,5.6-6.1C20,24.4,17.5,21.6,14.4,21.6"/>
	<path class="st2" d="M34.2,15.3L34.2,15.3L0,15.3l0,3.1l34.2,0h0c1.6,0,2.8,1.4,2.8,3.1c0,1.7-1.3,3.1-2.8,3.1
		c-1.6,0-2.8-1.4-2.8-3.1h-2.8c0,3.4,2.5,6.1,5.6,6.1s5.6-2.7,5.6-6.1C39.9,18,37.4,15.3,34.2,15.3"/>
</g>
</svg>
