<?xml version="1.0" encoding="utf-8"?>
<!-- Generator: Adobe Illustrator 21.0.0, SVG Export Plug-In . SVG Version: 6.00 Build 0)  -->
<svg version="1.1" id="Layer_1" xmlns="http://www.w3.org/2000/svg" xmlns:xlink="http://www.w3.org/1999/xlink" x="0px" y="0px"
	 viewBox="0 0 40 34" style="enable-background:new 0 0 40 34;" xml:space="preserve">
<style type="text/css">
	.st0{fill:none;}
	.st1{clip-path:url(#SVGID_9_);}
	.st2{fill-rule:evenodd;clip-rule:evenodd;fill:#FFFFFF;}
	.st3{fill-rule:evenodd;clip-rule:evenodd;fill:#EDF5F8;}
	.st4{fill-rule:evenodd;clip-rule:evenodd;fill:#3FB4F1;}
	.st5{fill-rule:evenodd;clip-rule:evenodd;fill:none;}
</style>
<rect x="-74" y="-237" class="st0" width="1280" height="5100"/>
<rect x="-74" y="-237" class="st0" width="1280" height="5100"/>
<rect x="-74" y="-237" class="st0" width="1280" height="5100"/>
<rect x="-74" y="-237" class="st0" width="1280" height="5100"/>
<g>
	<defs>
		<polyline id="SVGID_1_" points="-74,4863 1206,4863 1206,-237 -74,-237 		"/>
	</defs>
	<clipPath id="SVGID_2_">
		<use xlink:href="#SVGID_1_"  style="overflow:visible;"/>
	</clipPath>
</g>
<g>
	<defs>
		<polyline id="SVGID_3_" points="-74,4863 1206,4863 1206,-237 -74,-237 		"/>
	</defs>
	<clipPath id="SVGID_4_">
		<use xlink:href="#SVGID_3_"  style="overflow:visible;"/>
	</clipPath>
</g>
<g>
	<defs>
		<polyline id="SVGID_5_" points="-74,4863 1206,4863 1206,-237 -74,-237 		"/>
	</defs>
	<clipPath id="SVGID_6_">
		<use xlink:href="#SVGID_5_"  style="overflow:visible;"/>
	</clipPath>
</g>
<g>
	<defs>
		<path id="SVGID_7_" d="M-17-185"/>
	</defs>
	<defs>
		<polyline id="SVGID_8_" points="-74,4863 1206,4863 1263,-185 		"/>
	</defs>
	<clipPath id="SVGID_9_">
		<use xlink:href="#SVGID_7_"  style="overflow:visible;"/>
	</clipPath>
	<clipPath id="SVGID_10_" class="st1">
		<use xlink:href="#SVGID_8_"  style="overflow:visible;"/>
	</clipPath>
</g>
<g>
	<path class="st2" d="M40,6.7c-2.5,0-3.8-1.2-4.9-2.2c-0.9-0.9-1.6-1.5-3.1-1.5c-1.5,0-2.2,0.6-3.1,1.5c-1.1,1-2.4,2.2-4.9,2.2
		c-2.5,0-3.8-1.2-4.9-2.2c-0.9-0.9-1.6-1.5-3.1-1.5c-1.5,0-2.2,0.6-3.1,1.5c-1.1,1-2.4,2.2-4.9,2.2c-2.5,0-3.8-1.2-4.9-2.2
		C2.2,3.7,1.5,3.1,0,3.1V0c2.5,0,3.8,1.2,4.9,2.2C5.8,3,6.5,3.7,8,3.7s2.2-0.6,3.1-1.5C12.2,1.2,13.5,0,16,0c2.5,0,3.8,1.2,4.9,2.2
		C21.8,3,22.5,3.7,24,3.7c1.5,0,2.2-0.6,3.1-1.5C28.2,1.2,29.5,0,32,0c2.5,0,3.8,1.2,4.9,2.2C37.8,3,38.5,3.7,40,3.7V6.7z"/>
	<path class="st2" d="M40,15.7c-2.5,0-3.8-1.2-4.9-2.2c-0.9-0.9-1.6-1.5-3.1-1.5c-1.5,0-2.2,0.6-3.1,1.5c-1.1,1-2.4,2.2-4.9,2.2
		c-2.5,0-3.8-1.2-4.9-2.2c-0.9-0.9-1.6-1.5-3.1-1.5c-1.5,0-2.2,0.6-3.1,1.5c-1.1,1-2.4,2.2-4.9,2.2c-2.5,0-3.8-1.2-4.9-2.2
		c-0.9-0.9-1.6-1.5-3.1-1.5V9c2.5,0,3.8,1.2,4.9,2.2c0.9,0.9,1.6,1.5,3.1,1.5s2.2-0.6,3.1-1.5c1.1-1,2.4-2.2,4.9-2.2
		c2.5,0,3.8,1.2,4.9,2.2c0.9,0.9,1.6,1.5,3.1,1.5c1.5,0,2.2-0.6,3.1-1.5c1.1-1,2.4-2.2,4.9-2.2c2.5,0,3.8,1.2,4.9,2.2
		c0.9,0.9,1.6,1.5,3.1,1.5V15.7z"/>
	<path class="st2" d="M40,24.7c-2.5,0-3.8-1.2-4.9-2.2c-0.9-0.9-1.6-1.5-3.1-1.5c-1.5,0-2.2,0.6-3.1,1.5c-1.1,1-2.4,2.2-4.9,2.2
		c-2.5,0-3.8-1.2-4.9-2.2c-0.9-0.9-1.6-1.5-3.1-1.5c-1.5,0-2.2,0.6-3.1,1.5c-1.1,1-2.4,2.2-4.9,2.2c-2.5,0-3.8-1.2-4.9-2.2
		c-0.9-0.9-1.6-1.5-3.1-1.5V18c2.5,0,3.8,1.2,4.9,2.2c0.9,0.9,1.6,1.5,3.1,1.5s2.2-0.6,3.1-1.5c1.1-1,2.4-2.2,4.9-2.2
		c2.5,0,3.8,1.2,4.9,2.2c0.9,0.9,1.6,1.5,3.1,1.5c1.5,0,2.2-0.6,3.1-1.5c1.1-1,2.4-2.2,4.9-2.2c2.5,0,3.8,1.2,4.9,2.2
		c0.9,0.9,1.6,1.5,3.1,1.5V24.7z"/>
	<path class="st2" d="M40,34c-2.5,0-3.8-1.2-4.9-2.2c-0.9-0.9-1.6-1.5-3.1-1.5c-1.5,0-2.2,0.6-3.1,1.5c-1.1,1-2.4,2.2-4.9,2.2
		c-2.5,0-3.8-1.2-4.9-2.2c-0.9-0.9-1.6-1.5-3.1-1.5c-1.5,0-2.2,0.6-3.1,1.5c-1.1,1-2.4,2.2-4.9,2.2c-2.5,0-3.8-1.2-4.9-2.2
		c-0.9-0.9-1.6-1.5-3.1-1.5v-3.1c2.5,0,3.8,1.2,4.9,2.2c0.9,0.9,1.6,1.5,3.1,1.5s2.2-0.6,3.1-1.5c1.1-1,2.4-2.2,4.9-2.2
		c2.5,0,3.8,1.2,4.9,2.2c0.9,0.9,1.6,1.5,3.1,1.5c1.5,0,2.2-0.6,3.1-1.5c1.1-1,2.4-2.2,4.9-2.2c2.5,0,3.8,1.2,4.9,2.2
		c0.9,0.9,1.6,1.5,3.1,1.5V34z"/>
</g>
</svg>
