<?xml version="1.0" encoding="utf-8"?>
<!-- Generator: Adobe Illustrator 21.0.0, SVG Export Plug-In . SVG Version: 6.00 Build 0)  -->
<svg version="1.1" id="Layer_1" xmlns="http://www.w3.org/2000/svg" xmlns:xlink="http://www.w3.org/1999/xlink" x="0px" y="0px"
	 viewBox="0 0 39.8 34.6" style="enable-background:new 0 0 39.8 34.6;" xml:space="preserve">
<style type="text/css">
	.st0{fill:none;}
	.st1{clip-path:url(#SVGID_9_);}
	.st2{fill-rule:evenodd;clip-rule:evenodd;fill:#FFFFFF;}
	.st3{fill-rule:evenodd;clip-rule:evenodd;fill:#EDF5F8;}
	.st4{fill-rule:evenodd;clip-rule:evenodd;fill:#3FB4F1;}
	.st5{fill-rule:evenodd;clip-rule:evenodd;fill:none;}
</style>
<rect x="-78" y="-383.3" class="st0" width="1280" height="5100"/>
<rect x="-78" y="-383.3" class="st0" width="1280" height="5100"/>
<rect x="-78" y="-383.3" class="st0" width="1280" height="5100"/>
<rect x="-78" y="-383.3" class="st0" width="1280" height="5100"/>
<g>
	<defs>
		<polyline id="SVGID_1_" points="-78,4716.7 1202,4716.7 1202,-383.3 -78,-383.3 		"/>
	</defs>
	<clipPath id="SVGID_2_">
		<use xlink:href="#SVGID_1_"  style="overflow:visible;"/>
	</clipPath>
</g>
<g>
	<defs>
		<polyline id="SVGID_3_" points="-78,4716.7 1202,4716.7 1202,-383.3 -78,-383.3 		"/>
	</defs>
	<clipPath id="SVGID_4_">
		<use xlink:href="#SVGID_3_"  style="overflow:visible;"/>
	</clipPath>
</g>
<g>
	<defs>
		<polyline id="SVGID_5_" points="-78,4716.7 1202,4716.7 1202,-383.3 -78,-383.3 		"/>
	</defs>
	<clipPath id="SVGID_6_">
		<use xlink:href="#SVGID_5_"  style="overflow:visible;"/>
	</clipPath>
</g>
<g>
	<defs>
		<path id="SVGID_7_" d="M-21-331.3"/>
	</defs>
	<defs>
		<polyline id="SVGID_8_" points="-78,4716.7 1202,4716.7 1259,-331.3 		"/>
	</defs>
	<clipPath id="SVGID_9_">
		<use xlink:href="#SVGID_7_"  style="overflow:visible;"/>
	</clipPath>
	<clipPath id="SVGID_10_" class="st1">
		<use xlink:href="#SVGID_8_"  style="overflow:visible;"/>
	</clipPath>
</g>
<g>
	<g>
		<g>
			<g>
				<defs>
					<path id="SVGID_25_" d="M5.5,6.9V0.2H2.7v6.7C1.1,7.5,0,9.1,0,11.1c0,1.9,1.1,3.6,2.7,4.2v19.3h2.8V15.3
						C7,14.7,8.1,13,8.1,11.1C8.1,9.1,7,7.5,5.5,6.9 M4.1,12.5c-0.7,0-1.3-0.6-1.3-1.4c0-0.8,0.6-1.4,1.3-1.4s1.3,0.6,1.3,1.4
						C5.3,11.8,4.7,12.5,4.1,12.5"/>
				</defs>
				<use xlink:href="#SVGID_25_"  style="overflow:visible;fill-rule:evenodd;clip-rule:evenodd;fill:#FFFFFF;"/>
				<clipPath id="SVGID_12_">
					<use xlink:href="#SVGID_25_"  style="overflow:visible;"/>
				</clipPath>
			</g>
		</g>
	</g>
	<path class="st2" d="M16,18.8V0.1h-2.8v18.6c-1.5,0.6-2.7,2.3-2.7,4.2c0,1.9,1.1,3.6,2.7,4.2v7.3H16v-7.3c1.5-0.6,2.7-2.3,2.7-4.2
		C18.7,21.1,17.6,19.4,16,18.8 M14.6,24.4c-0.7,0-1.3-0.6-1.3-1.4c0-0.8,0.6-1.4,1.3-1.4c0.7,0,1.3,0.6,1.3,1.4
		C15.9,23.8,15.3,24.4,14.6,24.4"/>
	<path class="st2" d="M29.2,11.4c-0.2-1.7-1.2-3.1-2.6-3.7V0.1h-2.8v7.5c-1.7,0.7-2.9,2.6-2.6,4.7c0.1,1.2,0.7,2.3,1.5,3
		c0.3,0.3,0.7,0.5,1.1,0.7v18.4h2.8V16.1c0.7-0.3,1.3-0.8,1.8-1.4C29.1,13.7,29.4,12.6,29.2,11.4z M25.4,13.3
		c-0.3,0-0.7-0.1-0.9-0.3c-0.3-0.2-0.4-0.6-0.5-0.9c-0.1-0.8,0.4-1.5,1.1-1.5c0,0,0.1,0,0.1,0c0.6,0,1.2,0.5,1.2,1.2
		C26.5,12.5,26,13.2,25.4,13.3z"/>
	<g>
		<g>
			<g>
				<defs>
					<path id="SVGID_27_" d="M39.8,27.1c-0.1-1.2-0.7-2.3-1.5-3c-0.3-0.3-0.7-0.5-1.1-0.7V0h-2.8v23.4c-1.7,0.7-2.9,2.6-2.6,4.7
						c0.2,1.7,1.2,3.1,2.6,3.7v2.8h2.8v-2.8C38.9,31.1,40,29.2,39.8,27.1 M35.9,29c-0.7,0.1-1.3-0.5-1.4-1.2
						c-0.1-0.8,0.4-1.5,1.1-1.5c0,0,0.1,0,0.1,0c0.6,0,1.2,0.5,1.2,1.2C37.1,28.2,36.6,28.9,35.9,29"/>
				</defs>
				<use xlink:href="#SVGID_27_"  style="overflow:visible;fill-rule:evenodd;clip-rule:evenodd;fill:#FFFFFF;"/>
				<clipPath id="SVGID_14_">
					<use xlink:href="#SVGID_27_"  style="overflow:visible;"/>
				</clipPath>
			</g>
		</g>
	</g>
</g>
</svg>
