<svg xmlns="http://www.w3.org/2000/svg" xmlns:xlink="http://www.w3.org/1999/xlink" width="207" height="59" viewBox="0 0 207 59"><defs><path id="awyna" d="M31.42 51c0-3.59 1.1-6.53 3.28-8.82a10.95 10.95 0 0 1 8.27-3.45c3.3 0 6.05 1.15 8.28 3.45 2.22 2.29 3.33 5.23 3.33 8.82 0 3.52-1.05 6.45-3.14 8.78-2.09 2.32-4.9 3.49-8.47 3.49-3.25 0-6-1.18-8.22-3.52A12.22 12.22 0 0 1 31.42 51zM25 51c0 5.35 1.7 9.69 5.09 13.01C33.48 67.34 37.77 69 42.97 69c5.17 0 9.47-1.7 12.9-5.08C59.28 60.52 61 56.22 61 51c0-5.35-1.7-9.69-5.11-13.01-3.4-3.33-7.71-4.99-12.92-4.99-5.23 0-9.53 1.72-12.9 5.16C26.68 41.6 25 45.88 25 51z"/><path id="awynb" d="M76.88 69c-2.8 0-5.22-.57-7.25-1.72A12.95 12.95 0 0 1 65 63.12l3.32-4.14a13.21 13.21 0 0 0 3.9 3.09c1.52.8 2.97 1.2 4.36 1.2 1.81 0 3.33-.44 4.55-1.33a4.46 4.46 0 0 0 1.83-3.86c0-1.4-.53-2.5-1.58-3.34-1.06-.83-2.57-1.25-4.55-1.25h-3.57v-5.73h3.37c1.35 0 2.52-.42 3.51-1.25a4.14 4.14 0 0 0 1.49-3.34c0-1.43-.47-2.52-1.39-3.29a5.55 5.55 0 0 0-3.66-1.15c-2.8 0-5.15 1.27-7.03 3.8l-3.51-4.1a12.46 12.46 0 0 1 4.75-3.93c2.01-1 4.17-1.5 6.48-1.5 3.14 0 5.65.84 7.55 2.52 1.9 1.68 2.84 4.03 2.84 7.05 0 1.43-.4 2.84-1.18 4.24A9.36 9.36 0 0 1 83 50.25v.15a7.31 7.31 0 0 1 4.5 2.94A9.3 9.3 0 0 1 89 58.68c0 3.09-1.2 5.58-3.59 7.48A13.33 13.33 0 0 1 76.88 69"/><path id="awync" d="M100.42 51c0-3.59 1.1-6.53 3.28-8.82a10.95 10.95 0 0 1 8.27-3.45c3.3 0 6.05 1.15 8.28 3.45 2.22 2.29 3.33 5.23 3.33 8.82 0 3.52-1.05 6.45-3.14 8.78-2.09 2.32-4.9 3.49-8.47 3.49-3.25 0-6-1.18-8.22-3.52a12.22 12.22 0 0 1-3.33-8.75zM94 51c0 5.35 1.7 9.69 5.09 13.01 3.39 3.33 7.68 4.99 12.88 4.99 5.17 0 9.47-1.7 12.9-5.08 3.42-3.4 5.13-7.7 5.13-12.92 0-5.35-1.7-9.69-5.11-13.01-3.4-3.33-7.71-4.99-12.92-4.99-5.23 0-9.53 1.72-12.9 5.16C95.68 41.6 94 45.88 94 51z"/><path id="awynd" d="M157.95 68V53.48H142.1V68H136V34h6.1v13.9h15.85V34H164v34z"/><path id="awyne" d="M181 68v-4.55c4.04-4.12 6.7-6.94 7.97-8.45 3.95-4.68 5.92-8.62 5.92-11.82a4.7 4.7 0 0 0-1.1-3.3c-.73-.8-1.78-1.2-3.15-1.2-1.18 0-2.19.4-3.03 1.22a6.76 6.76 0 0 0-1.79 3.43l-4.58-2.12a9.58 9.58 0 0 1 3.36-6c1.8-1.48 4.02-2.21 6.66-2.21 3 0 5.32.89 6.97 2.67a9.04 9.04 0 0 1 2.48 6.38c0 1.81-.36 3.7-1.1 5.66a25.64 25.64 0 0 1-2.52 5.11 38.94 38.94 0 0 1-3.47 4.45 60.32 60.32 0 0 1-3.15 3.34c-.74.7-1.53 1.4-2.36 2.1H202V68z"/><path id="awynf" d="M220.85 68v-7.87H205V56l13.37-22h6.54l-12.53 20.55h8.47v-8.4h5.7v8.4H231v5.58h-4.46V68z"/></defs><g><g transform="translate(-24 -33)"><g><g fill="#fff" font-family="'Circe','Circe-Regular'" font-size="15" font-style="none" font-weight="400"><text dominant-baseline="text-before-edge" font-family="Helvetica, Arial, sans-serif" transform="translate(24 77)"><tspan letter-spacing="2.4">системы озонирования</tspan></text></g></g><g><g><use fill="#fff" xlink:href="#awyna"/></g><g><use fill="#fff" xlink:href="#awynb"/></g><g><use fill="#fff" xlink:href="#awync"/></g><g><use fill="#fff" xlink:href="#awynd"/></g><g><use fill="#fff" xlink:href="#awyne"/></g><g><use fill="#fff" xlink:href="#awynf"/></g></g></g></g></svg>
