<svg xmlns="http://www.w3.org/2000/svg" width="17" height="12"><path d="M11.349 1.06h4.301v1.08h-4.301V1.06zm5.932 6.393h-5.599c.06 1.335.72 1.827 1.906 1.827.856 0 1.547-.268 1.682-.744h1.707c-.599 1.81-1.707 2.33-3.464 2.33-2.447 0-3.963-1.66-3.963-4.032 0-2.299 1.607-4.049 3.963-4.049 2.642 0 3.918 2.311 3.768 4.668zm-5.599-1.567h3.468c-.196-1.067-.662-1.513-1.698-1.513-1.35 0-1.74.921-1.77 1.513zM8.99 7.588c0 2.151-1.847 3.071-3.783 3.071H.013V.005h5.045c2.041 0 3.422.719 3.422 2.691 0 1.039-.525 1.765-1.457 2.21C8.33 5.277 8.99 6.27 8.99 7.588zM4.374 1.797H2.168v2.476h2.386c.826 0 1.441-.37 1.441-1.259 0-1.009-.78-1.217-1.621-1.217zm.36 4.062H2.168v2.907h2.521c.931 0 1.741-.296 1.741-1.394 0-1.082-.69-1.513-1.696-1.513z" fill-rule="evenodd"/></svg>