<svg xmlns="http://www.w3.org/2000/svg" width="88" height="88"><path d="M75.823 52.47a32.97 32.97 0 0 1-3.164 7.544c.198.247 7.275 9.14 2.926 13.487l-2.168 2.168c-3.258 3.257-11.42-1.849-13.368-3.146a33.079 33.079 0 0 1-7.992 3.201l.572.018s-1.547 11.633-7.784 11.633h-2.14c-4.755 0-7.404-9.965-7.862-11.846a33.084 33.084 0 0 1-7.886-3.373l.429.456s-9.215 7.242-13.625 2.834l-1.95-1.622c-3.351-3.351 2.05-12.227 3.131-13.92a32.95 32.95 0 0 1-3.08-7.363C10.03 52.096-.009 49.447-.009 44.677v-2.138c0-5.505 9.573-7.352 11.815-7.709a32.957 32.957 0 0 1 3.061-7.423c-1.028-1.561-6.647-10.476-3.266-13.856l2.06-1.732c3.88-3.878 11.831 1.616 13.687 2.993a32.992 32.992 0 0 1 7.542-3.168C35.479 9.308 38.114-.01 42.705-.01h2.14c5.347 0 7.242 9.012 7.675 11.589a33.015 33.015 0 0 1 7.65 3.155c2.016-1.313 10.316-6.386 13.566-3.138l1.95 2.058c3.801 3.801-1.472 11.497-3.004 13.554a32.94 32.94 0 0 1 3.155 7.56c.681.096 11.573 1.731 11.573 7.771v2.138c0 4.551-9.155 7.176-11.587 7.793zm-32.11-33.353c-13.58 0-24.589 11.004-24.589 24.578s11.009 24.579 24.589 24.579c13.58 0 24.588-11.005 24.588-24.579S57.293 19.117 43.713 19.117zm0 40.964c-9.053 0-16.392-7.337-16.392-16.386s7.339-16.386 16.392-16.386c9.053 0 16.392 7.337 16.392 16.386s-7.339 16.386-16.392 16.386zm0-24.579a8.193 8.193 0 0 0 0 16.385 8.194 8.194 0 0 0 8.196-8.192 8.195 8.195 0 0 0-8.196-8.193z" fill-rule="evenodd"/></svg>