<svg xmlns="http://www.w3.org/2000/svg" width="18" height="17"><path d="M17.085 6.783a8.369 8.369 0 0 0-1.3-3.036 8.573 8.573 0 0 0-2.33-2.29A8.639 8.639 0 0 0 10.366.18a8.779 8.779 0 0 0-3.476 0 8.705 8.705 0 0 0-3.089 1.277 8.588 8.588 0 0 0-2.33 2.29 8.369 8.369 0 0 0-1.3 6.452 8.341 8.341 0 0 0 1.3 3.036 8.658 8.658 0 0 0 7.157 3.739c.585 0 1.17-.057 1.738-.173a8.705 8.705 0 0 0 3.089-1.276 8.658 8.658 0 0 0 2.33-2.29 8.378 8.378 0 0 0 1.3-6.452zm-1.087 1.636c-.107-.024-2.602-.551-5.135-.238a20.905 20.905 0 0 0-.649-1.425c2.911-1.168 4.093-2.848 4.107-2.868a7.143 7.143 0 0 1 1.677 4.531zm-2.501-5.366c-.018.029-1.068 1.599-3.851 2.623A36.882 36.882 0 0 0 6.891 1.45a7.522 7.522 0 0 1 1.737-.204c1.867 0 3.57.683 4.869 1.807zM6.863 1.456l-.002.001-.022.005.024-.006zm-1.38.482A43.522 43.522 0 0 1 8.22 6.113c-3.54.923-6.612.888-6.806.885.479-2.245 2.013-4.105 4.069-5.06zM1.256 8.49c0-.077.004-.153.006-.229.13.003 3.773.084 7.569-1.032.211.406.413.82.598 1.231a7.466 7.466 0 0 0-.291.087c-3.978 1.264-5.996 4.782-5.996 4.782l.003.003A7.15 7.15 0 0 1 1.256 8.49zm7.372 7.245a7.422 7.422 0 0 1-4.531-1.533s1.413-3.029 5.786-4.526a.442.442 0 0 1 .048-.015c1.038 2.649 1.466 4.867 1.575 5.501a7.457 7.457 0 0 1-2.878.573zm4.12-1.235c-.075-.438-.468-2.564-1.435-5.175 2.38-.374 4.442.267 4.594.316a7.24 7.24 0 0 1-3.159 4.859z" fill-rule="evenodd"/></svg>