<svg xmlns="http://www.w3.org/2000/svg" xmlns:xlink="http://www.w3.org/1999/xlink" preserveaspectratio="xMidYMid" width="47" height="41" viewbox="0 0 47 41">
  <defs>
  </defs>
  <path d="M33.781,-0.001 C30.250,-0.001 27.420,1.264 24.924,3.752 C24.923,3.754 24.921,3.755 24.920,3.756 C24.920,3.756 24.919,3.757 24.919,3.757 C24.919,3.757 23.500,5.538 23.500,5.538 C23.500,5.538 22.081,3.864 22.081,3.864 C22.080,3.863 22.078,3.861 22.077,3.859 C22.077,3.859 22.076,3.859 22.076,3.859 C22.076,3.859 22.076,3.859 22.076,3.859 C19.579,1.370 16.749,-0.001 13.219,-0.001 C9.688,-0.001 6.368,1.370 3.871,3.859 C1.375,6.348 0.000,9.657 0.000,13.177 C-0.000,16.696 1.373,20.004 3.867,22.492 C3.867,22.492 21.414,40.133 21.414,40.133 C21.966,40.687 22.717,40.999 23.500,40.999 C24.283,40.999 25.034,40.687 25.586,40.133 C25.586,40.133 43.131,22.493 43.131,22.493 C45.626,20.005 47.000,16.696 47.000,13.177 C47.000,9.658 45.625,6.348 43.128,3.859 C40.631,1.370 37.312,-0.001 33.781,-0.001 C33.781,-0.001 33.781,-0.001 33.781,-0.001 Z" id="heart" fill-rule="evenodd"/>
</svg>
