<svg xmlns="http://www.w3.org/2000/svg" xmlns:xlink="http://www.w3.org/1999/xlink" preserveaspectratio="xMidYMid" width="46" height="39" viewbox="0 0 46 39">
  <defs>
  </defs>
  <path d="M36.980,24.810 C31.775,24.810 27.555,20.562 27.555,15.322 C27.555,10.083 31.775,5.835 36.980,5.835 C42.186,5.835 46.406,10.083 46.406,15.322 C46.406,20.562 42.186,24.810 36.980,24.810 ZM41.331,13.133 C41.331,13.133 39.156,13.133 39.156,13.133 C39.156,13.133 39.156,10.943 39.156,10.943 C39.156,9.734 38.182,8.754 36.980,8.754 C35.779,8.754 34.805,9.734 34.805,10.943 C34.805,10.943 34.805,13.133 34.805,13.133 C34.805,13.133 32.630,13.133 32.630,13.133 C31.429,13.133 30.455,14.113 30.455,15.322 C30.455,16.531 31.429,17.512 32.630,17.512 C32.630,17.512 34.805,17.512 34.805,17.512 C34.805,17.512 34.805,19.701 34.805,19.701 C34.805,20.910 35.779,21.891 36.980,21.891 C38.182,21.891 39.156,20.910 39.156,19.701 C39.156,19.701 39.156,17.512 39.156,17.512 C39.156,17.512 41.331,17.512 41.331,17.512 C42.532,17.512 43.506,16.531 43.506,15.322 C43.506,14.113 42.532,13.133 41.331,13.133 ZM28.071,7.847 C28.071,7.847 25.657,3.258 25.657,3.258 C25.657,3.258 25.666,3.253 25.666,3.253 C25.489,2.936 25.380,2.576 25.380,2.186 C25.380,0.977 26.354,-0.003 27.555,-0.003 C28.407,-0.003 29.137,0.495 29.494,1.214 C29.494,1.214 29.502,1.209 29.502,1.209 C29.502,1.209 31.510,5.027 31.510,5.027 C30.190,5.738 29.023,6.699 28.071,7.847 ZM20.756,3.258 C20.756,3.258 15.946,12.403 15.946,12.403 C15.946,12.403 11.024,12.403 11.024,12.403 C11.024,12.403 16.911,1.209 16.911,1.209 C16.911,1.209 16.916,1.212 16.916,1.212 C17.273,0.494 18.002,-0.003 18.854,-0.003 C20.055,-0.003 21.029,0.977 21.029,2.186 C21.029,2.574 20.920,2.935 20.743,3.252 C20.743,3.252 20.756,3.258 20.756,3.258 ZM17.767,14.592 C17.767,14.592 25.416,14.592 25.416,14.592 C25.401,14.835 25.380,15.076 25.380,15.322 C25.380,19.008 27.080,22.289 29.730,24.429 C29.730,24.429 29.730,32.838 29.730,32.838 C29.730,34.046 30.704,35.027 31.905,35.027 C33.106,35.027 34.080,34.046 34.080,32.838 C34.080,32.838 34.080,26.616 34.080,26.616 C35.009,26.858 35.977,26.999 36.980,26.999 C38.186,26.999 39.348,26.814 40.442,26.470 C40.442,26.470 37.641,37.747 37.641,37.747 C37.641,37.747 37.634,37.745 37.634,37.745 C37.398,38.697 36.549,39.405 35.531,39.406 C35.531,39.406 35.530,39.406 35.530,39.406 C35.530,39.406 35.240,39.406 35.240,39.406 C35.240,39.406 34.588,39.406 34.588,39.406 C34.588,39.406 10.890,39.406 10.890,39.406 C10.890,39.406 10.890,39.405 10.890,39.405 C10.886,39.405 10.883,39.406 10.879,39.406 C10.879,39.406 10.878,39.406 10.878,39.406 C9.860,39.405 9.011,38.697 8.775,37.745 C8.775,37.745 8.768,37.747 8.768,37.747 C8.768,37.747 4.105,18.971 4.105,18.971 C4.105,18.971 2.178,18.971 2.178,18.971 C0.977,18.971 0.003,17.991 0.003,16.782 C0.003,15.573 0.977,14.592 2.178,14.592 C2.178,14.592 10.443,14.592 10.443,14.592 C10.443,14.592 17.694,14.592 17.694,14.592 C17.694,14.592 17.767,14.592 17.767,14.592 ZM21.029,32.838 C21.029,34.046 22.003,35.027 23.204,35.027 C24.406,35.027 25.380,34.046 25.380,32.838 C25.380,32.838 25.380,21.160 25.380,21.160 C25.380,19.951 24.406,18.971 23.204,18.971 C22.003,18.971 21.029,19.951 21.029,21.160 C21.029,21.160 21.029,32.838 21.029,32.838 ZM16.679,21.160 C16.679,19.951 15.705,18.971 14.504,18.971 C13.302,18.971 12.329,19.951 12.329,21.160 C12.329,21.160 12.329,32.838 12.329,32.838 C12.329,34.046 13.302,35.027 14.504,35.027 C15.705,35.027 16.679,34.046 16.679,32.838 C16.679,32.838 16.679,21.160 16.679,21.160 Z" id="basket" fill-rule="evenodd"/>
</svg>
