<svg xmlns="http://www.w3.org/2000/svg" xmlns:xlink="http://www.w3.org/1999/xlink" preserveaspectratio="xMidYMid" width="40" height="39" viewbox="0 0 40 39">
  <defs>
  </defs>
  <path d="M37.487,39.406 C37.487,39.406 1.848,39.406 1.848,39.406 C0.830,39.406 0.005,38.579 0.005,37.558 C0.005,37.558 0.005,1.844 0.005,1.844 C0.005,0.824 0.830,-0.003 1.848,-0.003 C1.848,-0.003 37.487,-0.003 37.487,-0.003 C38.505,-0.003 39.330,0.824 39.330,1.844 C39.330,1.844 39.330,37.558 39.330,37.558 C39.330,38.579 38.505,39.406 37.487,39.406 ZM35.643,3.691 C35.643,3.691 3.692,3.691 3.692,3.691 C3.692,3.691 3.692,35.711 3.692,35.711 C3.692,35.711 35.643,35.711 35.643,35.711 C35.643,35.711 35.643,3.691 35.643,3.691 ZM6.414,19.995 C6.414,19.995 6.414,19.994 6.414,19.994 C6.414,19.994 11.329,16.915 11.329,16.915 C11.329,16.915 11.330,16.916 11.330,16.916 C11.611,16.743 11.941,16.644 12.294,16.644 C12.677,16.644 13.032,16.761 13.327,16.961 C13.327,16.961 13.334,16.950 13.334,16.950 C13.334,16.950 21.482,22.393 21.482,22.393 C21.482,22.393 30.869,15.754 30.869,15.754 C31.174,15.530 31.550,15.397 31.957,15.397 C32.975,15.397 33.800,16.225 33.800,17.245 C33.800,17.861 33.499,18.406 33.036,18.741 C33.036,18.741 33.037,18.742 33.037,18.742 C33.037,18.742 22.591,26.131 22.591,26.131 C22.591,26.131 22.591,26.131 22.591,26.131 C22.287,26.351 21.914,26.481 21.511,26.481 C21.117,26.481 20.752,26.357 20.452,26.146 C20.452,26.146 12.273,20.681 12.273,20.681 C12.273,20.681 8.419,23.094 8.419,23.094 C8.123,23.298 7.765,23.417 7.379,23.417 C6.361,23.417 5.535,22.590 5.535,21.569 C5.535,20.904 5.887,20.320 6.414,19.995 Z" id="graph" fill-rule="evenodd"/>
</svg>
