<svg xmlns="http://www.w3.org/2000/svg" xmlns:xlink="http://www.w3.org/1999/xlink" preserveaspectratio="xMidYMid" width="64" height="62" viewbox="0 0 64 62">
  <defs>
  </defs>
  <path d="M63.999,58.992 C63.999,58.994 64.000,58.996 64.000,58.999 C64.000,60.656 62.657,61.999 61.000,61.999 C61.000,61.999 59.168,61.999 59.168,61.999 C59.683,61.113 60.000,60.098 60.000,58.999 C61.499,58.999 62.852,58.430 63.904,57.521 C63.997,58.425 64.001,58.992 64.001,58.992 C64.001,58.992 63.999,58.992 63.999,58.992 ZM60.000,55.999 C60.000,55.999 57.000,55.999 57.000,55.999 C57.000,55.999 57.000,58.999 57.000,58.999 C57.000,60.656 55.657,61.999 54.000,61.999 C52.343,61.999 51.000,60.656 51.000,58.999 C51.000,58.999 51.000,55.999 51.000,55.999 C51.000,55.999 48.000,55.999 48.000,55.999 C46.343,55.999 45.000,54.656 45.000,52.999 C45.000,51.342 46.343,49.999 48.000,49.999 C48.000,49.999 51.000,49.999 51.000,49.999 C51.000,49.999 51.000,46.999 51.000,46.999 C51.000,45.342 52.343,43.999 54.000,43.999 C55.657,43.999 57.000,45.342 57.000,46.999 C57.000,46.999 57.000,49.999 57.000,49.999 C57.000,49.999 60.000,49.999 60.000,49.999 C61.657,49.999 63.000,51.342 63.000,52.999 C63.000,54.656 61.657,55.999 60.000,55.999 ZM48.000,46.999 C44.686,46.999 42.000,49.685 42.000,52.999 C42.000,56.312 44.686,58.999 48.000,58.999 C48.000,60.098 48.317,61.113 48.832,61.999 C48.832,61.999 3.000,61.999 3.000,61.999 C1.343,61.999 0.000,60.656 0.000,58.999 C0.000,58.996 0.001,58.994 0.001,58.992 C0.001,58.992 -0.001,58.992 -0.001,58.992 C-0.001,58.992 -0.001,48.060 7.987,44.085 C13.041,41.570 11.095,43.611 17.301,41.037 C23.506,38.468 24.976,37.571 24.976,37.571 C24.976,37.571 25.034,31.648 25.034,31.648 C25.034,31.648 22.710,29.870 21.988,24.296 C20.533,24.716 20.053,22.588 19.968,21.234 C19.890,19.926 19.126,15.839 20.900,16.208 C20.537,13.478 20.277,11.018 20.404,9.714 C20.849,5.137 25.257,0.356 32.047,0.007 C40.034,0.355 43.198,5.134 43.642,9.710 C43.771,11.014 43.486,13.477 43.123,16.201 C44.898,15.837 44.126,19.917 44.040,21.227 C43.961,22.581 43.470,24.702 42.020,24.282 C41.295,29.855 38.971,31.619 38.971,31.619 C38.971,31.619 39.025,37.512 39.025,37.512 C39.025,37.512 40.495,38.351 46.700,40.922 C48.491,41.664 49.592,42.027 50.389,42.235 C48.946,43.330 48.000,45.047 48.000,46.999 Z" id="user" fill-rule="evenodd"/>
</svg>
