<svg xmlns="http://www.w3.org/2000/svg" xmlns:xlink="http://www.w3.org/1999/xlink" preserveaspectratio="xMidYMid" width="44" height="40" viewbox="0 0 44 40">
  <defs>
  </defs>
  <path d="M43.271,16.306 C43.271,19.309 40.850,21.742 37.863,21.742 C34.877,21.742 32.456,19.309 32.456,16.306 C32.456,16.306 32.456,16.306 32.456,16.306 C32.456,16.306 32.456,16.306 32.456,16.306 C32.456,16.306 32.456,16.306 32.456,16.306 C32.456,19.309 30.035,21.742 27.049,21.742 C24.063,21.742 21.642,19.309 21.642,16.306 C21.642,16.306 21.642,16.306 21.642,16.306 C21.642,16.306 21.642,16.306 21.642,16.306 C21.642,16.306 21.642,16.306 21.642,16.306 C21.642,16.306 21.642,16.306 21.642,16.306 C21.642,19.309 19.221,21.742 16.235,21.742 C13.248,21.742 10.828,19.309 10.828,16.306 C10.828,16.306 10.828,16.306 10.828,16.306 C10.828,16.306 10.828,16.306 10.828,16.306 C10.828,16.306 10.828,16.306 10.828,16.306 C10.828,16.306 10.828,16.306 10.828,16.306 C10.828,19.309 8.407,21.742 5.420,21.742 C2.434,21.742 0.013,19.309 0.013,16.306 C0.013,16.306 0.013,16.306 0.013,16.306 C0.013,16.306 0.013,16.306 0.013,16.306 C0.013,16.306 0.013,16.306 0.013,16.306 C0.013,16.306 3.815,6.114 3.815,6.114 C3.815,6.114 39.469,6.114 39.469,6.114 C39.469,6.114 43.271,16.306 43.271,16.306 C43.271,16.306 43.271,16.306 43.271,16.306 C43.271,16.306 43.271,16.306 43.271,16.306 ZM36.512,4.076 C36.512,4.076 6.772,4.076 6.772,4.076 C5.652,4.076 4.744,3.163 4.744,2.037 C4.744,0.912 5.652,-0.001 6.772,-0.001 C6.772,-0.001 36.512,-0.001 36.512,-0.001 C37.632,-0.001 38.539,0.912 38.539,2.037 C38.539,3.163 37.632,4.076 36.512,4.076 ZM6.096,23.747 C6.096,23.747 6.096,23.746 6.096,23.746 C6.290,23.728 6.481,23.699 6.671,23.667 C6.711,23.659 6.754,23.656 6.794,23.648 C6.882,23.632 6.966,23.607 7.052,23.588 C7.419,23.504 7.779,23.399 8.124,23.263 C8.124,23.263 8.124,23.264 8.124,23.264 C8.124,23.264 8.124,23.264 8.124,23.264 C8.124,23.264 8.124,33.293 8.124,33.293 C8.124,33.293 35.160,33.293 35.160,33.293 C35.160,33.293 35.160,23.264 35.160,23.264 C35.160,23.264 35.160,23.264 35.160,23.264 C35.160,23.264 35.160,23.263 35.160,23.263 C35.504,23.398 35.863,23.504 36.230,23.587 C36.317,23.607 36.402,23.632 36.490,23.648 C36.530,23.656 36.572,23.659 36.613,23.667 C36.803,23.699 36.993,23.728 37.188,23.746 C37.188,23.746 37.188,23.747 37.188,23.747 C37.410,23.768 37.635,23.781 37.863,23.781 C38.326,23.781 38.776,23.732 39.215,23.651 C39.215,23.651 39.215,37.370 39.215,37.370 C39.215,38.495 38.308,39.408 37.188,39.408 C37.188,39.408 6.096,39.408 6.096,39.408 C4.976,39.408 4.069,38.495 4.069,37.370 C4.069,37.370 4.069,23.651 4.069,23.651 C4.508,23.732 4.958,23.781 5.420,23.781 C5.648,23.781 5.874,23.768 6.096,23.747 Z" id="shop" fill-rule="evenodd"/>
</svg>
