<svg xmlns="http://www.w3.org/2000/svg" xmlns:xlink="http://www.w3.org/1999/xlink" preserveaspectratio="xMidYMid" width="42" height="36" viewbox="0 0 42 36">
  <defs>
  </defs>
  <path d="M31.915,28.387 C30.835,28.387 29.961,27.521 29.961,26.453 C29.961,25.384 30.835,24.518 31.915,24.518 C35.152,24.518 37.777,21.920 37.777,18.715 C37.777,16.986 37.009,15.439 35.799,14.376 C35.674,14.266 35.544,14.162 35.410,14.063 C35.401,14.056 35.392,14.050 35.383,14.044 C35.257,13.951 35.126,13.864 34.992,13.782 C34.972,13.769 34.951,13.757 34.930,13.744 C34.805,13.669 34.677,13.599 34.546,13.534 C34.511,13.516 34.474,13.499 34.438,13.482 C34.318,13.424 34.196,13.371 34.072,13.322 C34.018,13.300 33.963,13.282 33.908,13.262 C33.797,13.222 33.685,13.182 33.570,13.149 C33.494,13.128 33.417,13.109 33.340,13.090 C33.241,13.066 33.142,13.040 33.042,13.020 C32.936,13.000 32.828,12.986 32.721,12.972 C32.643,12.961 32.567,12.947 32.489,12.940 C32.300,12.921 32.108,12.911 31.915,12.911 C31.853,12.911 31.794,12.918 31.733,12.920 C31.674,12.589 31.599,12.264 31.511,11.945 C31.489,11.867 31.460,11.792 31.436,11.715 C31.363,11.473 31.288,11.232 31.199,10.998 C31.173,10.926 31.140,10.859 31.111,10.789 C31.015,10.550 30.916,10.313 30.803,10.083 C30.776,10.028 30.745,9.976 30.717,9.921 C30.594,9.681 30.467,9.443 30.327,9.213 C28.394,6.022 24.875,3.882 20.842,3.882 C16.809,3.882 13.290,6.022 11.357,9.213 C11.218,9.443 11.090,9.681 10.968,9.921 C10.940,9.976 10.908,10.028 10.881,10.083 C10.769,10.313 10.669,10.550 10.573,10.789 C10.545,10.859 10.512,10.926 10.485,10.998 C10.396,11.232 10.321,11.473 10.248,11.715 C10.225,11.792 10.195,11.867 10.174,11.945 C10.085,12.264 10.010,12.589 9.951,12.920 C9.890,12.918 9.831,12.911 9.770,12.911 C9.576,12.911 9.384,12.921 9.195,12.940 C9.117,12.947 9.041,12.961 8.963,12.972 C8.856,12.986 8.748,13.000 8.642,13.020 C8.542,13.040 8.443,13.066 8.345,13.090 C8.268,13.109 8.190,13.128 8.114,13.149 C8.000,13.182 7.888,13.222 7.776,13.262 C7.721,13.282 7.666,13.300 7.612,13.322 C7.488,13.371 7.366,13.424 7.246,13.482 C7.210,13.499 7.174,13.516 7.138,13.534 C7.007,13.599 6.879,13.669 6.755,13.744 C6.734,13.757 6.713,13.769 6.692,13.782 C6.558,13.864 6.427,13.951 6.301,14.044 C6.292,14.050 6.283,14.056 6.275,14.063 C6.141,14.162 6.011,14.266 5.886,14.376 C4.675,15.439 3.908,16.986 3.908,18.715 C3.908,21.920 6.532,24.518 9.770,24.518 C10.849,24.518 11.724,25.384 11.724,26.453 C11.724,27.521 10.849,28.387 9.770,28.387 C4.374,28.387 -0.000,24.057 -0.000,18.715 C-0.000,14.357 2.911,10.674 6.913,9.464 C9.087,3.938 14.490,0.013 20.842,0.013 C27.194,0.013 32.597,3.938 34.772,9.464 C38.773,10.674 41.684,14.357 41.684,18.715 C41.684,24.057 37.310,28.387 31.915,28.387 ZM14.980,25.163 C15.557,25.163 16.070,25.415 16.427,25.808 C16.427,25.808 16.433,25.804 16.433,25.804 C16.433,25.804 18.888,28.505 18.888,28.505 C18.888,28.505 18.888,18.715 18.888,18.715 C18.888,17.646 19.763,16.780 20.842,16.780 C21.921,16.780 22.796,17.646 22.796,18.715 C22.796,18.715 22.796,28.505 22.796,28.505 C22.796,28.505 25.252,25.804 25.252,25.804 C25.252,25.804 25.257,25.808 25.257,25.808 C25.615,25.415 26.127,25.163 26.704,25.163 C27.783,25.163 28.658,26.029 28.658,27.098 C28.658,27.595 28.463,28.044 28.151,28.387 C28.151,28.387 28.156,28.392 28.156,28.392 C28.156,28.392 22.294,34.841 22.294,34.841 C22.294,34.841 22.289,34.836 22.289,34.836 C21.932,35.229 21.419,35.481 20.842,35.481 C20.266,35.481 19.753,35.229 19.395,34.836 C19.395,34.836 19.390,34.841 19.390,34.841 C19.390,34.841 13.528,28.392 13.528,28.392 C13.528,28.392 13.533,28.387 13.533,28.387 C13.221,28.044 13.026,27.595 13.026,27.098 C13.026,26.029 13.901,25.163 14.980,25.163 Z" id="download" fill-rule="evenodd"/>
</svg>
