<svg xmlns="http://www.w3.org/2000/svg" width="11" height="12"><path d="M11.086 7.407L3.902.295S4.967-.242 5.297.086l5.987 5.926c.33.328-.198 1.395-.198 1.395zM5.303 5.259a.846.846 0 0 1-1.196.008L.915 2.107A.847.847 0 1 1 2.109.905l3.193 3.16c.33.327.331.862.001 1.194zm.804 5.964L.121 5.296c-.331-.328.198-1.395.198-1.395l7.183 7.113s-1.064.536-1.395.209zm-.006-5.174a.846.846 0 0 1 1.196-.008l3.193 3.16a.844.844 0 0 1 .001 1.195.845.845 0 0 1-1.195.008L6.103 7.243a.844.844 0 0 1-.002-1.194z" fill-rule="evenodd"/></svg>