<svg xmlns="http://www.w3.org/2000/svg" width="14" height="17"><path d="M5.502 11.044c-.141.553-.283 1.132-.43 1.697-.145.558-.273 1.125-.484 1.637-.35.85-.795 1.67-1.378 2.334-.388.442-.305.265-.422.242-.089-.018-.097-.104-.114-.228-.095-.676-.031-1.455.005-2.214.04-.864.225-1.582.396-2.3.327-1.368.639-2.709.968-4.085.022-.091.081-.243.061-.295a4.138 4.138 0 0 1-.289-1.127 3.518 3.518 0 0 1 .094-1.288c.186-.701.615-1.323 1.277-1.549.421-.144.887-.079 1.17.087.291.171.491.442.585.825.099.409.026.896-.054 1.254-.18.808-.417 1.414-.632 2.194-.107.386-.227.783-.128 1.2.092.384.295.648.572.845.286.206.626.318 1.095.302.828-.028 1.404-.548 1.788-1.039.615-.785.988-1.845 1.13-3.106a7.54 7.54 0 0 0 .047-1.334c-.059-.852-.33-1.536-.76-2.066a3.571 3.571 0 0 0-1.694-1.134c-.699-.224-1.667-.298-2.527-.154-1.563.263-2.665 1.136-3.314 2.341a4.63 4.63 0 0 0-.565 2.26c0 .696.175 1.237.457 1.656.09.134.221.244.309.396.125.216-.019.538-.08.772-.075.282-.082.671-.417.677-.139.003-.313-.097-.43-.161C.858 9.205.323 8.336.104 7.208a5.815 5.815 0 0 1 0-2.145A6.09 6.09 0 0 1 3.069.991C3.821.554 4.671.247 5.704.099 6.046.05 6.401.03 6.786.012a6.584 6.584 0 0 1 2.917.536 5.971 5.971 0 0 1 2.01 1.422 5.356 5.356 0 0 1 1.237 2.193c.136.459.268.95.268 1.516 0 .568-.122 1.069-.208 1.569-.319 1.875-1.226 3.408-2.588 4.279-.33.212-.729.407-1.183.537-.449.129-.962.226-1.512.188a3.158 3.158 0 0 1-1.338-.382c-.364-.202-.67-.45-.887-.826z" fill-rule="evenodd"/></svg>