<svg xmlns="http://www.w3.org/2000/svg" width="52" height="52"><path d="M49.562 18.687h-2.437-1.343H39a2.438 2.438 0 1 1 0-4.875h4.198C39.381 8.413 33.118 4.874 26 4.874c-11.667 0-21.125 9.459-21.125 21.125a2.437 2.437 0 0 1-4.875 0c0-14.36 11.64-26 26-26 8.72 0 16.416 4.305 21.125 10.897V6.499a2.438 2.438 0 0 1 4.875 0v9.75a2.437 2.437 0 0 1-2.438 2.438zM2.437 33.312H13a2.437 2.437 0 0 1 0 4.875H8.769c3.82 5.405 10.107 8.937 17.231 8.937 11.667 0 21.125-9.458 21.125-21.125a2.437 2.437 0 1 1 4.875 0c0 14.359-11.641 26-26 26-8.731 0-16.422-4.324-21.125-10.932v4.432a2.437 2.437 0 1 1-4.875 0V35.75a2.437 2.437 0 0 1 2.437-2.438z" fill-rule="evenodd"/></svg>