<svg xmlns="http://www.w3.org/2000/svg" width="18" height="15"><path d="M11.735.003c1.372-.023 2.102.467 2.8 1.093.592-.05 1.361-.375 1.814-.602l.441-.236c-.259.687-.61 1.225-1.149 1.633-.12.091-.239.214-.389.271v.008c.768-.007 1.402-.348 2.004-.533v.009A5.634 5.634 0 0 1 16.055 3l-.553.432c.01.8-.012 1.563-.164 2.235-.884 3.907-3.228 6.559-6.938 7.696-1.332.407-3.485.575-5.012.202-.757-.184-1.44-.392-2.082-.668a8.24 8.24 0 0 1-1.002-.508l-.311-.187c.344.011.747.104 1.131.043.349-.056.69-.041 1.011-.11.802-.173 1.513-.402 2.126-.753.297-.171.748-.372.959-.619a3.039 3.039 0 0 1-1.054-.186c-1.146-.398-1.813-1.128-2.247-2.226.348.037 1.348.126 1.582-.068-.438-.024-.858-.272-1.158-.458C1.421 7.259.669 6.308.675 4.846l.363.169c.232.096.467.147.743.203.117.024.35.091.484.042h-.017c-.179-.203-.469-.339-.648-.558C1.008 3.98.454 2.868.805 1.544c.089-.336.23-.632.38-.906l.017.008c.069.143.223.246.32.364.302.368.674.7 1.054.991 1.293.995 2.458 1.605 4.329 2.057a6.827 6.827 0 0 0 1.59.203c-.159-.455-.108-1.193.017-1.633.315-1.109 1-1.909 2.005-2.337.24-.102.506-.177.786-.237l.432-.051z" fill-rule="evenodd"/></svg>