<svg xmlns="http://www.w3.org/2000/svg" width="12" height="11"><path d="M11.127 10.748l-.277.266a.8.8 0 0 1-1.104 0L7.535 8.882a.724.724 0 0 1-.11-.906L6.217 6.81a3.98 3.98 0 0 1-2.323.744c-2.157 0-3.906-1.688-3.906-3.771 0-2.082 1.749-3.769 3.906-3.769 2.158 0 3.907 1.687 3.907 3.769 0 .97-.382 1.85-1.005 2.518l1.182 1.141a.792.792 0 0 1 .939.107l2.21 2.133a.735.735 0 0 1 0 1.066zm-4.311-6.98C6.816 2.206 5.504.94 3.886.94c-.451 0-.873.107-1.254.282.204.202.512.503.528.503-.318 0-1.357 1.004-1.357 1.334 0-.016-.331-.319-.547-.515a2.72 2.72 0 0 0-.3 1.224c0 1.562 1.312 2.828 2.93 2.828s2.93-1.266 2.93-2.828z" fill-rule="evenodd"/></svg>