<svg xmlns="http://www.w3.org/2000/svg" xmlns:xlink="http://www.w3.org/1999/xlink" width="189" height="35" viewBox="0 0 189 35"><defs><path id="49lka" d="M234.77 52h11.04v-5.64h-11.04zm-2.92-11l-3.32 3.14v20.2h6.24v-6.98h6.92l.1.14 4.95 6.83h6.87l-2.48-3.42-2.48-3.42v-.01l-.1-.12h.24l3.22-3.05V44.18L248.65 41z"/><path id="49lkb" d="M297.5 41l-3.58 3.18v20.15h6.65V46.36h11.78v17.97H319V44.18L315.42 41z"/><path id="49lkc" d="M269.22 58.97h11.79v-12.6h-11.79zM266.16 41l-3.59 3.18v16.97l3.59 3.18h17.9l3.6-3.18V44.18l-3.6-3.18z"/><path id="49lkd" d="M136.65 58.97h11.79v-12.6h-11.8zM133.58 41L130 44.18v16.97l3.58 3.18h17.92l3.58-3.18V44.18L151.5 41z"/><path id="49lke" d="M197.18 41v5.36h8.87v17.97h6.45V46.36h8.86V41z"/><path id="49lkf" d="M167.62 41l-3.58 3.18v7.6l.54.48 3.03 2.69h14.86v4.02h-16.92v5.36h19.99l3.58-3.18v-8.42l-3.55-3.15H170.7v-3.22h16.62V41z"/><path id="49lkg" d="M130 76h188.1v-6.28H130z"/></defs><g><g transform="translate(-130 -41)"><use fill="#044ff3" xlink:href="#49lka"/></g><g transform="translate(-130 -41)"><use fill="#044ff3" xlink:href="#49lkb"/></g><g transform="translate(-130 -41)"><use fill="#044ff3" xlink:href="#49lkc"/></g><g transform="translate(-130 -41)"><use fill="#044ff3" xlink:href="#49lkd"/></g><g transform="translate(-130 -41)"><use fill="#044ff3" xlink:href="#49lke"/></g><g transform="translate(-130 -41)"><use fill="#044ff3" xlink:href="#49lkf"/></g><g transform="translate(-130 -41)"><use fill="#044ff3" xlink:href="#49lkg"/></g></g></svg>