<svg xmlns="http://www.w3.org/2000/svg" xmlns:xlink="http://www.w3.org/1999/xlink"><defs><path id="a" d="M966.66 56.05a3.61 3.61 0 1 1-7.23 0 3.61 3.61 0 0 1 7.23 0zM963.04 51a5.05 5.05 0 1 0 0 10.1 5.05 5.05 0 0 0 0-10.1z"/><path id="b" d="M968.97 62.9l-3.6-3.59 1.01-1.01 3.6 3.59z"/><path id="bn2ka" d="M966.66 56.05a3.61 3.61 0 1 1-7.23 0 3.61 3.61 0 0 1 7.23 0zM963.04 51a5.05 5.05 0 1 0 0 10.1 5.05 5.05 0 0 0 0-10.1z"/><path id="bn2kb" d="M968.97 62.9l-3.6-3.59 1.01-1.01 3.6 3.59z"/></defs><symbol id="arrow-down" viewBox="0 0 31.999 32"><path d="M31.92 5.021l-14.584 22.5a.502.502 0 0 1-.406.229h-.014a.498.498 0 0 1-.404-.205L.096 5.044A.5.5 0 0 1 .5 4.25h31a.501.501 0 0 1 .42.771z"/></symbol><symbol id="arrow-up" viewBox="0 0 32.02 32.02"><path d="M32.02 27.26c0 .274-.225.5-.5.5H.499a.499.499 0 0 1-.418-.773L14.665 4.488a.499.499 0 0 1 .824-.024L31.838 26.87c.11.095.182.234.182.39z"/></symbol><symbol id="icon-bookmark" viewBox="0 0 34.3 40.5"><style>.st0{fill:#3a8244}.st1{fill:#5599db}.st2{fill:#044ff3}</style><path class="st2" d="M32.3.2c1.2.5 1.9 1.6 1.9 2.8v34.5c0 1.2-.7 2.3-1.9 2.8-.4.2-.8.2-1.2.2-.8 0-1.6-.3-2.2-.9L17.1 28.3 5.3 39.6c-.6.6-1.4.9-2.2.9-.4 0-.8-.1-1.2-.2C.7 39.8 0 38.7 0 37.5V3C0 1.8.7.7 1.9.2c.4-.1.8-.2 1.2-.2h28.1c.4 0 .8.1 1.1.2z"/></symbol><symbol id="icon-menu" viewBox="0 0 512 512"><path d="M491.318 235.318H20.682C9.26 235.318 0 244.577 0 256s9.26 20.682 20.682 20.682h470.636c11.423 0 20.682-9.259 20.682-20.682 0-11.422-9.259-20.682-20.682-20.682zM491.318 78.439H20.682C9.26 78.439 0 87.699 0 99.121c0 11.422 9.26 20.682 20.682 20.682h470.636c11.423 0 20.682-9.26 20.682-20.682 0-11.422-9.259-20.682-20.682-20.682zM491.318 392.197H20.682C9.26 392.197 0 401.456 0 412.879s9.26 20.682 20.682 20.682h470.636c11.423 0 20.682-9.259 20.682-20.682s-9.259-20.682-20.682-20.682z"/></symbol><symbol id="icon-search" viewBox="0 0 12 12"><use xlink:href="#a" transform="translate(-958 -51)"/><use xlink:href="#b" transform="translate(-958 -51)"/></symbol><symbol id="icon-suitcase" viewBox="0 0 50 42.9"><style>.st0{fill:#3a8244}.st1{fill:#5599db}.st2{fill:#044ff3}</style><path class="st2" d="M50 22.3H0V11.6c0-2.5 2-4.5 4.5-4.5h9.8V2.7C14.3 1.2 15.5 0 17 0h16c1.5 0 2.7 1.2 2.7 2.7v4.5h9.8c2.5 0 4.5 2 4.5 4.5v10.6zm0 16.1c0 2.5-2 4.5-4.5 4.5h-41c-2.5 0-4.5-2-4.5-4.5V25h18.8v4.5c0 1 .8 1.8 1.8 1.8h8.9c1 0 1.8-.8 1.8-1.8V25H50v13.4zM32.2 7.1V3.6H17.9v3.6h14.3zm-3.6 21.5h-7.1V25h7.1v3.6z"/></symbol><symbol id="icon-tel" viewBox="0 0 27.4 45.7"><style>.st0{fill:#3a8244}.st1{fill:#5599db}.st2{fill:#044ff3}</style><path class="st2" d="M27.4 41.2c0 2.5-2.1 4.6-4.6 4.6H4.6c-2.5 0-4.6-2.1-4.6-4.6V4.6C0 2.1 2.1 0 4.6 0h18.3c2.5 0 4.6 2.1 4.6 4.6v36.6zM24 10.3c0-.6-.5-1.1-1.1-1.1H4.6c-.6 0-1.1.5-1.1 1.1v25.1c0 .6.5 1.1 1.1 1.1h18.3c.6 0 1.1-.5 1.1-1.1V10.3zm-7.4-5.7h-5.7c-.3 0-.6.3-.6.6s.3.6.6.6h5.7c.3 0 .6-.3.6-.6s-.3-.6-.6-.6zm-2.9 33.7c-1.6 0-2.9 1.3-2.9 2.9s1.3 2.9 2.9 2.9 2.9-1.3 2.9-2.9-1.3-2.9-2.9-2.9z"/></symbol><symbol id="sprite-svg"><symbol id="arrow-down" viewBox="0 0 31.999 32"><path d="M31.92 5.021l-14.584 22.5a.502.502 0 0 1-.406.229h-.014a.498.498 0 0 1-.404-.205L.096 5.044A.5.5 0 0 1 .5 4.25h31a.501.501 0 0 1 .42.771z"/></symbol><symbol id="arrow-up" viewBox="0 0 32.02 32.02"><path d="M32.02 27.26c0 .274-.225.5-.5.5H.499a.499.499 0 0 1-.418-.773L14.665 4.488a.499.499 0 0 1 .824-.024L31.838 26.87c.11.095.182.234.182.39z"/></symbol><symbol id="icon-bookmark" viewBox="0 0 34.3 40.5"><style>.st0{fill:#3a8244}.st1{fill:#5599db}.st2{fill:#044ff3}</style><path class="st2" d="M32.3.2c1.2.5 1.9 1.6 1.9 2.8v34.5c0 1.2-.7 2.3-1.9 2.8-.4.2-.8.2-1.2.2-.8 0-1.6-.3-2.2-.9L17.1 28.3 5.3 39.6c-.6.6-1.4.9-2.2.9-.4 0-.8-.1-1.2-.2C.7 39.8 0 38.7 0 37.5V3C0 1.8.7.7 1.9.2c.4-.1.8-.2 1.2-.2h28.1c.4 0 .8.1 1.1.2z"/></symbol><symbol id="icon-menu" viewBox="0 0 512 512"><path d="M491.318 235.318H20.682C9.26 235.318 0 244.577 0 256s9.26 20.682 20.682 20.682h470.636c11.423 0 20.682-9.259 20.682-20.682 0-11.422-9.259-20.682-20.682-20.682zM491.318 78.439H20.682C9.26 78.439 0 87.699 0 99.121c0 11.422 9.26 20.682 20.682 20.682h470.636c11.423 0 20.682-9.26 20.682-20.682 0-11.422-9.259-20.682-20.682-20.682zM491.318 392.197H20.682C9.26 392.197 0 401.456 0 412.879s9.26 20.682 20.682 20.682h470.636c11.423 0 20.682-9.259 20.682-20.682s-9.259-20.682-20.682-20.682z"/></symbol><symbol id="icon-search" viewBox="0 0 12 12"><use xlink:href="#bn2ka" transform="translate(-958 -51)"/><use xlink:href="#bn2kb" transform="translate(-958 -51)"/></symbol><symbol id="icon-suitcase" viewBox="0 0 50 42.9"><style>.st0{fill:#3a8244}.st1{fill:#5599db}.st2{fill:#044ff3}</style><path class="st2" d="M50 22.3H0V11.6c0-2.5 2-4.5 4.5-4.5h9.8V2.7C14.3 1.2 15.5 0 17 0h16c1.5 0 2.7 1.2 2.7 2.7v4.5h9.8c2.5 0 4.5 2 4.5 4.5v10.6zm0 16.1c0 2.5-2 4.5-4.5 4.5h-41c-2.5 0-4.5-2-4.5-4.5V25h18.8v4.5c0 1 .8 1.8 1.8 1.8h8.9c1 0 1.8-.8 1.8-1.8V25H50v13.4zM32.2 7.1V3.6H17.9v3.6h14.3zm-3.6 21.5h-7.1V25h7.1v3.6z"/></symbol><symbol id="icon-tel" viewBox="0 0 27.4 45.7"><style>.st0{fill:#3a8244}.st1{fill:#5599db}.st2{fill:#044ff3}</style><path class="st2" d="M27.4 41.2c0 2.5-2.1 4.6-4.6 4.6H4.6c-2.5 0-4.6-2.1-4.6-4.6V4.6C0 2.1 2.1 0 4.6 0h18.3c2.5 0 4.6 2.1 4.6 4.6v36.6zM24 10.3c0-.6-.5-1.1-1.1-1.1H4.6c-.6 0-1.1.5-1.1 1.1v25.1c0 .6.5 1.1 1.1 1.1h18.3c.6 0 1.1-.5 1.1-1.1V10.3zm-7.4-5.7h-5.7c-.3 0-.6.3-.6.6s.3.6.6.6h5.7c.3 0 .6-.3.6-.6s-.3-.6-.6-.6zm-2.9 33.7c-1.6 0-2.9 1.3-2.9 2.9s1.3 2.9 2.9 2.9 2.9-1.3 2.9-2.9-1.3-2.9-2.9-2.9z"/></symbol><symbol id="sprite-svg"><symbol id="arrow-down" viewBox="0 0 31.999 32"><path d="M31.92 5.021l-14.584 22.5a.502.502 0 0 1-.406.229h-.014a.498.498 0 0 1-.404-.205L.096 5.044A.5.5 0 0 1 .5 4.25h31a.501.501 0 0 1 .42.771z"/></symbol><symbol id="arrow-up" viewBox="0 0 32.02 32.02"><path d="M32.02 27.26c0 .274-.225.5-.5.5H.499a.499.499 0 0 1-.418-.773L14.665 4.488a.499.499 0 0 1 .824-.024L31.838 26.87c.11.095.182.234.182.39z"/></symbol><symbol id="icon-bookmark" viewBox="0 0 34.3 40.5"><style>.st0{fill:#3a8244}.st1{fill:#5599db}.st2{fill:#044ff3}</style><path class="st2" d="M32.3.2c1.2.5 1.9 1.6 1.9 2.8v34.5c0 1.2-.7 2.3-1.9 2.8-.4.2-.8.2-1.2.2-.8 0-1.6-.3-2.2-.9L17.1 28.3 5.3 39.6c-.6.6-1.4.9-2.2.9-.4 0-.8-.1-1.2-.2C.7 39.8 0 38.7 0 37.5V3C0 1.8.7.7 1.9.2c.4-.1.8-.2 1.2-.2h28.1c.4 0 .8.1 1.1.2z"/></symbol><symbol id="icon-menu" viewBox="0 0 512 512"><path d="M491.318 235.318H20.682C9.26 235.318 0 244.577 0 256s9.26 20.682 20.682 20.682h470.636c11.423 0 20.682-9.259 20.682-20.682 0-11.422-9.259-20.682-20.682-20.682zM491.318 78.439H20.682C9.26 78.439 0 87.699 0 99.121c0 11.422 9.26 20.682 20.682 20.682h470.636c11.423 0 20.682-9.26 20.682-20.682 0-11.422-9.259-20.682-20.682-20.682zM491.318 392.197H20.682C9.26 392.197 0 401.456 0 412.879s9.26 20.682 20.682 20.682h470.636c11.423 0 20.682-9.259 20.682-20.682s-9.259-20.682-20.682-20.682z"/></symbol><symbol id="icon-search" viewBox="0 0 12 12"><use xlink:href="#bn2ka" transform="translate(-958 -51)"/><use xlink:href="#bn2kb" transform="translate(-958 -51)"/></symbol><symbol id="icon-suitcase" viewBox="0 0 50 42.9"><style>.st0{fill:#3a8244}.st1{fill:#5599db}.st2{fill:#044ff3}</style><path class="st2" d="M50 22.3H0V11.6c0-2.5 2-4.5 4.5-4.5h9.8V2.7C14.3 1.2 15.5 0 17 0h16c1.5 0 2.7 1.2 2.7 2.7v4.5h9.8c2.5 0 4.5 2 4.5 4.5v10.6zm0 16.1c0 2.5-2 4.5-4.5 4.5h-41c-2.5 0-4.5-2-4.5-4.5V25h18.8v4.5c0 1 .8 1.8 1.8 1.8h8.9c1 0 1.8-.8 1.8-1.8V25H50v13.4zM32.2 7.1V3.6H17.9v3.6h14.3zm-3.6 21.5h-7.1V25h7.1v3.6z"/></symbol><symbol id="icon-tel" viewBox="0 0 27.4 45.7"><style>.st0{fill:#3a8244}.st1{fill:#5599db}.st2{fill:#044ff3}</style><path class="st2" d="M27.4 41.2c0 2.5-2.1 4.6-4.6 4.6H4.6c-2.5 0-4.6-2.1-4.6-4.6V4.6C0 2.1 2.1 0 4.6 0h18.3c2.5 0 4.6 2.1 4.6 4.6v36.6zM24 10.3c0-.6-.5-1.1-1.1-1.1H4.6c-.6 0-1.1.5-1.1 1.1v25.1c0 .6.5 1.1 1.1 1.1h18.3c.6 0 1.1-.5 1.1-1.1V10.3zm-7.4-5.7h-5.7c-.3 0-.6.3-.6.6s.3.6.6.6h5.7c.3 0 .6-.3.6-.6s-.3-.6-.6-.6zm-2.9 33.7c-1.6 0-2.9 1.3-2.9 2.9s1.3 2.9 2.9 2.9 2.9-1.3 2.9-2.9-1.3-2.9-2.9-2.9z"/></symbol></symbol></symbol></svg>