<svg id="Layer_1" xmlns="http://www.w3.org/2000/svg" xmlns:xlink="http://www.w3.org/1999/xlink" viewBox="0 0 20 20"><style>.st0{fill:none}.st1{clip-path:url(#SVGID_9_)}.st2,.st3,.st4,.st5{fill-rule:evenodd;clip-rule:evenodd;fill:#fff}.st3,.st4,.st5{fill:#edf5f8}.st4,.st5{fill:#3fb4f1}.st5{fill:none}</style><path class="st0" d="M-77-469h1280v5100H-77z"/><path class="st0" d="M-77-469h1280v5100H-77z"/><path class="st0" d="M-77-469h1280v5100H-77z"/><path class="st0" d="M-77-469h1280v5100H-77z"/><defs><path id="SVGID_1_" d="M-77 4631h1280V-469H-77"/></defs><clipPath id="SVGID_2_"><use xlink:href="#SVGID_1_" overflow="visible"/></clipPath><defs><path id="SVGID_3_" d="M-77 4631h1280V-469H-77"/></defs><clipPath id="SVGID_4_"><use xlink:href="#SVGID_3_" overflow="visible"/></clipPath><defs><path id="SVGID_5_" d="M-77 4631h1280V-469H-77"/></defs><clipPath id="SVGID_6_"><use xlink:href="#SVGID_5_" overflow="visible"/></clipPath><g><defs><path id="SVGID_8_" d="M-77 4631h1280l57-5048"/></defs><clipPath id="SVGID_9_"><use xlink:href="#SVGID_7_" overflow="visible"/></clipPath><clipPath id="SVGID_10_" class="st1"><use xlink:href="#SVGID_8_" overflow="visible"/></clipPath></g><path class="st2" d="M.5 8c-1-2.3-.4-5 1.4-6.7l.7-.7c.8-.8 2.1-.8 2.9 0l1.3 1.3c.8.8.8 2.1 0 2.9l-.4.4c-1 1-1.4 2.5-1 3.8 1 3.2 3.5 4.7 5.5 5.4 1.3.5 2.8.2 3.9-.8l.4-.4c.8-.8 2.1-.8 2.9 0l1.3 1.3c.8.8.8 2.1 0 2.9l-.7.7a6.15 6.15 0 0 1-6.8 1.3c-2.2-1-4.7-2.8-6.9-5-2-2-3.6-4.3-4.5-6.4"/></svg>