<?xml version="1.0" encoding="utf-8"?>
<!-- Generator: Adobe Illustrator 21.0.0, SVG Export Plug-In . SVG Version: 6.00 Build 0)  -->
<svg version="1.1" id="Layer_1" xmlns="http://www.w3.org/2000/svg" xmlns:xlink="http://www.w3.org/1999/xlink" x="0px" y="0px"
	 viewBox="0 0 20 20" style="enable-background:new 0 0 20 20;" xml:space="preserve">
<style type="text/css">
	.st0{fill:none;}
	.st1{clip-path:url(#SVGID_9_);}
	.st2{fill-rule:evenodd;clip-rule:evenodd;fill:#FFFFFF;}
	.st3{fill-rule:evenodd;clip-rule:evenodd;fill:#EDF5F8;}
	.st4{fill-rule:evenodd;clip-rule:evenodd;fill:#3FB4F1;}
	.st5{fill-rule:evenodd;clip-rule:evenodd;fill:none;}
</style>
<rect x="-77" y="-469" class="st0" width="1280" height="5100"/>
<rect x="-77" y="-469" class="st0" width="1280" height="5100"/>
<rect x="-77" y="-469" class="st0" width="1280" height="5100"/>
<rect x="-77" y="-469" class="st0" width="1280" height="5100"/>
<g>
	<defs>
		<polyline id="SVGID_1_" points="-77,4631 1203,4631 1203,-469 -77,-469 		"/>
	</defs>
	<clipPath id="SVGID_2_">
		<use xlink:href="#SVGID_1_"  style="overflow:visible;"/>
	</clipPath>
</g>
<g>
	<defs>
		<polyline id="SVGID_3_" points="-77,4631 1203,4631 1203,-469 -77,-469 		"/>
	</defs>
	<clipPath id="SVGID_4_">
		<use xlink:href="#SVGID_3_"  style="overflow:visible;"/>
	</clipPath>
</g>
<g>
	<defs>
		<polyline id="SVGID_5_" points="-77,4631 1203,4631 1203,-469 -77,-469 		"/>
	</defs>
	<clipPath id="SVGID_6_">
		<use xlink:href="#SVGID_5_"  style="overflow:visible;"/>
	</clipPath>
</g>
<g>
	<defs>
		<path id="SVGID_7_" d="M-20-417"/>
	</defs>
	<defs>
		<polyline id="SVGID_8_" points="-77,4631 1203,4631 1260,-417 		"/>
	</defs>
	<clipPath id="SVGID_9_">
		<use xlink:href="#SVGID_7_"  style="overflow:visible;"/>
	</clipPath>
	<clipPath id="SVGID_10_" class="st1">
		<use xlink:href="#SVGID_8_"  style="overflow:visible;"/>
	</clipPath>
</g>
<path class="st2" d="M0.5,8c-1-2.3-0.4-5,1.4-6.7c0.4-0.4,0.7-0.7,0.7-0.7c0.8-0.8,2.1-0.8,2.9,0l1.3,1.3c0.8,0.8,0.8,2.1,0,2.9
	L6.4,5.2c-1,1-1.4,2.5-1,3.8c1,3.2,3.5,4.7,5.5,5.4c1.3,0.5,2.8,0.2,3.9-0.8l0.4-0.4c0.8-0.8,2.1-0.8,2.9,0l1.3,1.3
	c0.8,0.8,0.8,2.1,0,2.9l-0.7,0.7c-1.8,1.8-4.5,2.3-6.8,1.3c-2.2-1-4.7-2.8-6.9-5C3,12.4,1.4,10.1,0.5,8"/>
</svg>
