<svg id="Layer_1" xmlns="http://www.w3.org/2000/svg" xmlns:xlink="http://www.w3.org/1999/xlink" viewBox="0 0 81 90"><style>.st0{clip-path:url(#SVGID_2_)}.st1{clip-path:url(#SVGID_4_);fill:#00dee7}.st2{clip-path:url(#SVGID_6_)}.st3{clip-path:url(#SVGID_8_);fill:#00dee7}.st4{clip-path:url(#SVGID_10_)}.st5{clip-path:url(#SVGID_12_);fill:#00dee7}.st6{clip-path:url(#SVGID_14_)}.st7{clip-path:url(#SVGID_16_);fill:#00dee7}.st8{clip-path:url(#SVGID_18_)}.st9{clip-path:url(#SVGID_20_);fill:#fff}.st10{clip-path:url(#SVGID_22_)}.st11{clip-path:url(#SVGID_24_);fill:#fff}.st12{clip-path:url(#SVGID_26_)}.st13{clip-path:url(#SVGID_28_);enable-background:new}.st14{clip-path:url(#SVGID_30_)}.st15{clip-path:url(#SVGID_32_)}.st16{clip-path:url(#SVGID_34_);fill:#fff}.st17{clip-path:url(#SVGID_36_)}.st18{clip-path:url(#SVGID_38_);enable-background:new}.st19{clip-path:url(#SVGID_40_)}.st20{clip-path:url(#SVGID_42_)}.st21{clip-path:url(#SVGID_44_);fill:#fff}.st22{clip-path:url(#SVGID_46_)}.st23{clip-path:url(#SVGID_48_);fill:#fff}.st24{clip-path:url(#SVGID_50_)}.st25{clip-path:url(#SVGID_52_);fill:#fff}.st26{clip-path:url(#SVGID_54_)}.st27{clip-path:url(#SVGID_56_);enable-background:new}.st28{clip-path:url(#SVGID_58_)}.st29{clip-path:url(#SVGID_60_)}.st30{clip-path:url(#SVGID_62_);fill:#fff}.st31{clip-path:url(#SVGID_64_)}.st32{clip-path:url(#SVGID_66_);fill:#00dee7}.st33,.st34{fill-rule:evenodd;clip-rule:evenodd;fill:#edf5f8}.st34{fill:#3fb4f1}.st35,.st36{fill:none}.st36{fill-rule:evenodd;clip-rule:evenodd}</style><defs><path id="SVGID_63_" d="M800.5-105c-1-2.3-.4-5 1.4-6.7l.7-.7c.8-.8 2.1-.8 2.9 0l1.3 1.3c.8.8.8 2.1 0 2.9l-.4.4c-1 1-1.4 2.5-1 3.8 1 3.2 3.5 4.7 5.5 5.4 1.3.5 2.8.2 3.9-.8l.4-.4c.8-.8 2.1-.8 2.9 0l1.3 1.3c.8.8.8 2.1 0 2.9l-.7.7a6.15 6.15 0 0 1-6.8 1.3c-2.2-1-4.7-2.8-6.9-5-2-2-3.6-4.3-4.5-6.4"/></defs><clipPath id="SVGID_2_"><use xlink:href="#SVGID_63_" overflow="visible"/></clipPath><g class="st0"><defs><path id="SVGID_65_" d="M-208-160h1280v5100H-208z"/></defs><clipPath id="SVGID_4_"><use xlink:href="#SVGID_65_" overflow="visible"/></clipPath></g><path class="st35" d="M-747-3883H533v5100H-747z"/><path class="st35" d="M-747-3883H533v5100H-747z"/><path class="st35" d="M-747-3883H533v5100H-747z"/><path class="st35" d="M-747-3883H533v5100H-747z"/><path class="st35" d="M-747-3883H533v5100H-747z"/><path class="st35" d="M-747-3883H533v5100H-747z"/><path class="st35" d="M-747-3883H533v5100H-747z"/><path class="st35" d="M-747-3883H533v5100H-747z"/><path class="st35" d="M-747-3883H533v5100H-747z"/><path class="st35" d="M-747-3883H533v5100H-747z"/><path class="st35" d="M-747-3883H533v5100H-747z"/><path class="st35" d="M-747-3883H533v5100H-747z"/><path class="st35" d="M-747-3883H533v5100H-747z"/><path class="st35" d="M-747-3883H533v5100H-747z"/><path class="st35" d="M-747-3883H533v5100H-747z"/><path class="st35" d="M-747-3883H533v5100H-747z"/><path class="st35" d="M-747-3883H533v5100H-747z"/><path class="st35" d="M-747-3883H533v5100H-747z"/><path class="st33" d="M59 60c0 16.6-13.2 30-29.5 30S0 76.6 0 60s13.2-30 29.5-30S59 43.4 59 60"/><path class="st34" d="M40 17h3v6h-3zM7 60h25v-2.8H9.8V8.8H32V6H7zM66.2 10.2V23H69V10.2C69 7.9 67.1 6 64.8 6H52v2.8h12.8c.7 0 1.4.7 1.4 1.4zM16.8 80.8V68H14v12.8c0 2.3 1.9 4.2 4.2 4.2H31v-2.8H18.2c-.7 0-1.4-.7-1.4-1.4zM43 34h20v3H43zM43 39h20v3H43zM43 45h31v3H43zM43 51h31v3H43zM43 56h31v3H43zM43 62h31v3H43zM43 68h31v3H43zM43 73h31v3H43zM43 79h31v3H43z"/><path class="st34" d="M34 14h10.2v8.6H47V11.1h-1l-9.1-9.3V1h-.8l-1-1H0v65h30.4v-2.8H2.8V2.8H34V14zm2.9-8.2l5.2 5.3h-5.2V5.8z"/><path class="st34" d="M80 36.1l-9.1-9.3V26h-.8l-1-1H34v65h47V36.1h-1zm-9.1-5.3l5.2 5.3h-5.2v-5.3zm7.3 56.4H36.8V27.8H68V39h10.2v48.2z"/><g><defs><path id="SVGID_67_" d="M-1055-3747H225v5100h-1280z"/></defs><clipPath id="SVGID_6_"><use xlink:href="#SVGID_67_" overflow="visible"/></clipPath></g><g><defs><path id="SVGID_69_" d="M-1055-3747H225v5100h-1280z"/></defs><clipPath id="SVGID_8_"><use xlink:href="#SVGID_69_" overflow="visible"/></clipPath></g><g><defs><path id="SVGID_71_" d="M-1055-3747H225v5100h-1280z"/></defs><clipPath id="SVGID_10_"><use xlink:href="#SVGID_71_" overflow="visible"/></clipPath></g><g><defs><path id="SVGID_73_" d="M-1055-3747H225v5100h-1280z"/></defs><clipPath id="SVGID_12_"><use xlink:href="#SVGID_73_" overflow="visible"/></clipPath></g><g><defs><path id="SVGID_75_" d="M-1055-3747H225v5100h-1280z"/></defs><clipPath id="SVGID_14_"><use xlink:href="#SVGID_75_" overflow="visible"/></clipPath></g><g><defs><path id="SVGID_77_" d="M-1055-3747H225v5100h-1280z"/></defs><clipPath id="SVGID_16_"><use xlink:href="#SVGID_77_" overflow="visible"/></clipPath></g><g><defs><path id="SVGID_79_" d="M-1055-3747H225v5100h-1280z"/></defs><clipPath id="SVGID_18_"><use xlink:href="#SVGID_79_" overflow="visible"/></clipPath></g></svg>