<?xml version="1.0" encoding="utf-8"?>
<!-- Generator: Adobe Illustrator 21.0.0, SVG Export Plug-In . SVG Version: 6.00 Build 0)  -->
<svg version="1.1" id="Layer_1" xmlns="http://www.w3.org/2000/svg" xmlns:xlink="http://www.w3.org/1999/xlink" x="0px" y="0px"
	 viewBox="0 0 90 90" style="enable-background:new 0 0 90 90;" xml:space="preserve">
<style type="text/css">
	.st0{clip-path:url(#SVGID_2_);}
	.st1{clip-path:url(#SVGID_4_);fill:#00DEE7;}
	.st2{clip-path:url(#SVGID_6_);}
	.st3{clip-path:url(#SVGID_8_);fill:#00DEE7;}
	.st4{clip-path:url(#SVGID_10_);}
	.st5{clip-path:url(#SVGID_12_);fill:#00DEE7;}
	.st6{clip-path:url(#SVGID_14_);}
	.st7{clip-path:url(#SVGID_16_);fill:#00DEE7;}
	.st8{clip-path:url(#SVGID_18_);}
	.st9{clip-path:url(#SVGID_20_);fill:#FFFFFF;}
	.st10{clip-path:url(#SVGID_22_);}
	.st11{clip-path:url(#SVGID_24_);fill:#FFFFFF;}
	.st12{clip-path:url(#SVGID_26_);}
	.st13{clip-path:url(#SVGID_28_);enable-background:new    ;}
	.st14{clip-path:url(#SVGID_30_);}
	.st15{clip-path:url(#SVGID_32_);}
	.st16{clip-path:url(#SVGID_34_);fill:#FFFFFF;}
	.st17{clip-path:url(#SVGID_36_);}
	.st18{clip-path:url(#SVGID_38_);enable-background:new    ;}
	.st19{clip-path:url(#SVGID_40_);}
	.st20{clip-path:url(#SVGID_42_);}
	.st21{clip-path:url(#SVGID_44_);fill:#FFFFFF;}
	.st22{clip-path:url(#SVGID_46_);}
	.st23{clip-path:url(#SVGID_48_);fill:#FFFFFF;}
	.st24{clip-path:url(#SVGID_50_);}
	.st25{clip-path:url(#SVGID_52_);fill:#FFFFFF;}
	.st26{clip-path:url(#SVGID_54_);}
	.st27{clip-path:url(#SVGID_56_);enable-background:new    ;}
	.st28{clip-path:url(#SVGID_58_);}
	.st29{clip-path:url(#SVGID_60_);}
	.st30{clip-path:url(#SVGID_62_);fill:#FFFFFF;}
	.st31{clip-path:url(#SVGID_64_);}
	.st32{clip-path:url(#SVGID_66_);fill:#00DEE7;}
	.st33{fill-rule:evenodd;clip-rule:evenodd;fill:#EDF5F8;}
	.st34{fill-rule:evenodd;clip-rule:evenodd;fill:#3FB4F1;}
	.st35{fill:none;}
	.st36{fill-rule:evenodd;clip-rule:evenodd;fill:none;}
</style>
<g>
	<defs>
		<path id="SVGID_63_" d="M986.5-250c-1-2.3-0.4-5,1.4-6.7c0.4-0.4,0.7-0.7,0.7-0.7c0.8-0.8,2.1-0.8,2.9,0l1.3,1.3
			c0.8,0.8,0.8,2.1,0,2.9l-0.4,0.4c-1,1-1.4,2.5-1,3.8c1,3.2,3.5,4.7,5.5,5.4c1.3,0.5,2.8,0.2,3.9-0.8l0.4-0.4
			c0.8-0.8,2.1-0.8,2.9,0l1.3,1.3c0.8,0.8,0.8,2.1,0,2.9l-0.7,0.7c-1.8,1.8-4.5,2.3-6.8,1.3c-2.2-1-4.7-2.8-6.9-5
			C989-245.6,987.4-247.9,986.5-250"/>
	</defs>
	<clipPath id="SVGID_2_">
		<use xlink:href="#SVGID_63_"  style="overflow:visible;"/>
	</clipPath>
	<g class="st0">
		<defs>
			<rect id="SVGID_65_" x="-22" y="-305" width="1280" height="5100"/>
		</defs>
		<clipPath id="SVGID_4_">
			<use xlink:href="#SVGID_65_"  style="overflow:visible;"/>
		</clipPath>
	</g>
</g>
<g>
	<path class="st33" d="M56,62c0,15.5-12.5,28-28,28S0,77.5,0,62c0-15.5,12.5-28,28-28S56,46.5,56,62"/>
	<g>
		<path class="st34" d="M85.7,0H40.3C37.9,0,36,1.9,36,4.3V17h2.8V4.3c0-0.8,0.6-1.4,1.4-1.4h45.5c0.8,0,1.4,0.6,1.4,1.4v28.4
			c0,0.8-0.6,1.4-1.4,1.4H63.8L54.9,43l2,2l8.1-8.1h20.7c2.4,0,4.3-1.9,4.3-4.3V4.3C90,1.9,88.1,0,85.7,0z"/>
		<rect x="56" y="17" class="st34" width="3" height="3"/>
		<rect x="62" y="17" class="st34" width="3" height="3"/>
		<rect x="67" y="17" class="st34" width="3" height="3"/>
		<path class="st34" d="M58,63.4c-2.5-1-5-1.9-7.6-3.4l-0.3,0.5l-3-4.5L47,56v-3.8c1.5-1.7,4-5.4,5-12.4l0-5.8c0-9.3-4.7-14-14-14
			c-9.3,0-14,4.7-14,14v5.6l0,0.2c1.3,9.1,5,12.6,6,13.4v3L28.9,56l-2.9,4.3c-2.4,1.3-4.8,2.3-7.1,3.1c-6.7,2.6-13,5-13,16.5V90h2.8
			V79.9c0-9.5,4.4-11.2,11.2-13.8c2-0.8,4.2-1.6,6.4-2.8l5.7,5.7l5.9-2.9l5.9,2.9l6-6c2.5,1.3,4.9,2.3,7.1,3.1
			c6.7,2.6,11.2,4.3,11.2,13.8V90H71V79.9C71,68.4,64.7,66,58,63.4z M38,22.8c7.6,0,11,3.3,11.2,10.7l-4.4,2.3L31.1,30l-4.2,2.2
			C27.4,25.7,30.9,22.8,38,22.8z M26.8,39.5v-4l4.4-2.3L44.9,39l4.3-2.2v2.7C48,47.8,44.7,50.6,44.3,51c-2.5,1.2-6.2,1.2-6.3,1.2
			c-0.1,0-3.8,0-6.3-1.2C31.3,50.6,28,47.8,26.8,39.5z M33,54.4c2.5,0.6,4.9,0.6,5,0.6c0.2,0,3.2,0,6-0.9v2.4l-6,1l-5-0.8V54.4z
			 M43.3,65.6L38,62.9l-5.3,2.7l-4.1-4.1l1.7-2.5l7.7,1.3l7.7-1.3l1.7,2.5L43.3,65.6z"/>
		<rect x="36" y="75" class="st34" width="3" height="3"/>
		<rect x="36" y="70" class="st34" width="3" height="3"/>
		<rect x="17" y="81" class="st34" width="3" height="9"/>
		<rect x="56" y="81" class="st34" width="3" height="9"/>
	</g>
</g>
<rect x="-561" y="-4028" class="st35" width="1280" height="5100"/>
<rect x="-561" y="-4028" class="st35" width="1280" height="5100"/>
<rect x="-561" y="-4028" class="st35" width="1280" height="5100"/>
<rect x="-561" y="-4028" class="st35" width="1280" height="5100"/>
<rect x="-561" y="-4028" class="st35" width="1280" height="5100"/>
<rect x="-561" y="-4028" class="st35" width="1280" height="5100"/>
<rect x="-561" y="-4028" class="st35" width="1280" height="5100"/>
<rect x="-561" y="-4028" class="st35" width="1280" height="5100"/>
<rect x="-561" y="-4028" class="st35" width="1280" height="5100"/>
<rect x="-561" y="-4028" class="st35" width="1280" height="5100"/>
<rect x="-561" y="-4028" class="st35" width="1280" height="5100"/>
<rect x="-561" y="-4028" class="st35" width="1280" height="5100"/>
<rect x="-561" y="-4028" class="st35" width="1280" height="5100"/>
<rect x="-561" y="-4028" class="st35" width="1280" height="5100"/>
<rect x="-561" y="-4028" class="st35" width="1280" height="5100"/>
<rect x="-561" y="-4028" class="st35" width="1280" height="5100"/>
<rect x="-561" y="-4028" class="st35" width="1280" height="5100"/>
<rect x="-561" y="-4028" class="st35" width="1280" height="5100"/>
<g>
	<defs>
		<rect id="SVGID_67_" x="-869" y="-3892" width="1280" height="5100"/>
	</defs>
	<clipPath id="SVGID_6_">
		<use xlink:href="#SVGID_67_"  style="overflow:visible;"/>
	</clipPath>
</g>
<g>
	<defs>
		<rect id="SVGID_69_" x="-869" y="-3892" width="1280" height="5100"/>
	</defs>
	<clipPath id="SVGID_8_">
		<use xlink:href="#SVGID_69_"  style="overflow:visible;"/>
	</clipPath>
</g>
<g>
	<defs>
		<rect id="SVGID_71_" x="-869" y="-3892" width="1280" height="5100"/>
	</defs>
	<clipPath id="SVGID_10_">
		<use xlink:href="#SVGID_71_"  style="overflow:visible;"/>
	</clipPath>
</g>
<g>
	<defs>
		<rect id="SVGID_73_" x="-869" y="-3892" width="1280" height="5100"/>
	</defs>
	<clipPath id="SVGID_12_">
		<use xlink:href="#SVGID_73_"  style="overflow:visible;"/>
	</clipPath>
</g>
<g>
	<defs>
		<rect id="SVGID_75_" x="-869" y="-3892" width="1280" height="5100"/>
	</defs>
	<clipPath id="SVGID_14_">
		<use xlink:href="#SVGID_75_"  style="overflow:visible;"/>
	</clipPath>
</g>
<g>
	<defs>
		<rect id="SVGID_77_" x="-869" y="-3892" width="1280" height="5100"/>
	</defs>
	<clipPath id="SVGID_16_">
		<use xlink:href="#SVGID_77_"  style="overflow:visible;"/>
	</clipPath>
</g>
<g>
	<defs>
		<rect id="SVGID_79_" x="-869" y="-3892" width="1280" height="5100"/>
	</defs>
	<clipPath id="SVGID_18_">
		<use xlink:href="#SVGID_79_"  style="overflow:visible;"/>
	</clipPath>
</g>
</svg>
