<svg xmlns="http://www.w3.org/2000/svg" xmlns:xlink="http://www.w3.org/1999/xlink" width="81" height="90" viewBox="0 0 81 90"><defs><path id="a" d="M806 3943c0 16.57-13.2 30-29.5 30s-29.5-13.43-29.5-30 13.2-30 29.5-30 29.5 13.43 29.5 30"/><path id="b" d="M777.41 3948H747v-65h35.13l11.87 12.13v10.48h-2.76v-9.3l-10.25-10.48h-31.23v59.34h27.65z"/><path id="c" d="M787 3906h3v-6h-3z"/><path id="d" d="M779 3943h-25v-54h25v2.84h-22.22v48.32H779z"/><path id="e" d="M783.76 3910.83H815l10.25 10.47v48.87h-41.48zm44.24 9.3L816.13 3908H781v65h47z"/><path id="f" d="M816 3906h-2.83v-12.75c0-.78-.64-1.42-1.42-1.42H799V3889h12.75c2.34 0 4.25 1.9 4.25 4.25z"/><path id="g" d="M778 3968h-12.75a4.26 4.26 0 0 1-4.25-4.25V3951h2.83v12.75c0 .78.64 1.42 1.42 1.42H778z"/><path id="h" d="M790 3920h20v-3h-20z"/><path id="i" d="M790 3925h20v-3h-20z"/><path id="j" d="M790 3931h31v-3h-31z"/><path id="k" d="M790 3937h31v-3h-31z"/><path id="l" d="M790 3942h31v-3h-31z"/><path id="m" d="M790 3948h31v-3h-31z"/><path id="n" d="M790 3954h31v-3h-31z"/><path id="o" d="M790 3959h31v-3h-31z"/><path id="p" d="M790 3965h31v-3h-31z"/><path id="q" d="M794 3897h-13v-13h2.89v10.11H794z"/><path id="r" d="M828 3922h-13v-13h2.89v10.11H828z"/></defs><use fill="#ecf5f8" xlink:href="#a" transform="translate(-747 -3883)"/><use fill="#3eb4f0" xlink:href="#b" transform="translate(-747 -3883)"/><use fill="#3eb4f0" xlink:href="#c" transform="translate(-747 -3883)"/><use fill="#3eb4f0" xlink:href="#d" transform="translate(-747 -3883)"/><use fill="#3eb4f0" xlink:href="#e" transform="translate(-747 -3883)"/><use fill="#3eb4f0" xlink:href="#f" transform="translate(-747 -3883)"/><use fill="#3eb4f0" xlink:href="#g" transform="translate(-747 -3883)"/><use fill="#3eb4f0" xlink:href="#h" transform="translate(-747 -3883)"/><use fill="#3eb4f0" xlink:href="#i" transform="translate(-747 -3883)"/><use fill="#3eb4f0" xlink:href="#j" transform="translate(-747 -3883)"/><use fill="#3eb4f0" xlink:href="#k" transform="translate(-747 -3883)"/><use fill="#3eb4f0" xlink:href="#l" transform="translate(-747 -3883)"/><use fill="#3eb4f0" xlink:href="#m" transform="translate(-747 -3883)"/><use fill="#3eb4f0" xlink:href="#n" transform="translate(-747 -3883)"/><use fill="#3eb4f0" xlink:href="#o" transform="translate(-747 -3883)"/><use fill="#3eb4f0" xlink:href="#p" transform="translate(-747 -3883)"/><use fill="#3eb4f0" xlink:href="#q" transform="translate(-747 -3883)"/><use fill="#3eb4f0" xlink:href="#r" transform="translate(-747 -3883)"/></svg>