<svg xmlns="http://www.w3.org/2000/svg" xmlns:xlink="http://www.w3.org/1999/xlink" width="90" height="90" viewBox="0 0 90 90"><defs><path id="t7i6a" d="M1127 3943c0 16.57-13.2 30-29.5 30s-29.5-13.43-29.5-30 13.2-30 29.5-30 29.5 13.43 29.5 30"/><path id="t7i6b" d="M1066.3 3920.65l10.08 10.1c.54.54 1.41.54 1.95 0l18.38-18.4 4.95 4.96-24.3 24.35-16.02-16.04zm11.05 24.35c.36 0 .71-.14.98-.4l26.26-26.31c.55-.54.55-1.42 0-1.96l-6.9-6.92a1.38 1.38 0 0 0-1.96 0l-18.38 18.4-10.08-10.1a1.38 1.38 0 0 0-1.95 0l-6.91 6.93a1.38 1.38 0 0 0 0 1.95l17.97 18c.27.27.62.41.97.41z"/><path id="t7i6c" d="M1046 3930h3v-3h-3z"/><path id="t7i6d" d="M1083 3885.81a42.24 42.24 0 0 1 42.19 42.19 42.24 42.24 0 0 1-42.19 42.19 42.24 42.24 0 0 1-42.19-42.19 42.24 42.24 0 0 1 42.19-42.19zm0 87.19c24.81 0 45-20.19 45-45s-20.19-45-45-45-45 20.19-45 45 20.19 45 45 45z"/><path id="t7i6e" d="M1081 3965h3v-3h-3z"/><path id="t7i6f" d="M1081 3895h3v-3h-3z"/><path id="t7i6g" d="M1116 3930h3v-3h-3z"/></defs><g><g transform="translate(-1038 -3883)"><use fill="#ecf5f8" xlink:href="#t7i6a"/></g><g transform="translate(-1038 -3883)"><use fill="#3eb4f0" xlink:href="#t7i6b"/></g><g transform="translate(-1038 -3883)"><use fill="#3eb4f0" xlink:href="#t7i6c"/></g><g transform="translate(-1038 -3883)"><use fill="#3eb4f0" xlink:href="#t7i6d"/></g><g transform="translate(-1038 -3883)"><g><use fill="#3eb4f0" xlink:href="#t7i6e"/></g><g><use fill="#3eb4f0" xlink:href="#t7i6f"/></g><g><use fill="#3eb4f0" xlink:href="#t7i6g"/></g></g></g></svg>