<svg id="Layer_1" xmlns="http://www.w3.org/2000/svg" xmlns:xlink="http://www.w3.org/1999/xlink" viewBox="0 0 90 90"><style>.st0{clip-path:url(#SVGID_2_)}.st1{clip-path:url(#SVGID_4_);fill:#00dee7}.st2{clip-path:url(#SVGID_6_)}.st3{clip-path:url(#SVGID_8_);fill:#00dee7}.st4{clip-path:url(#SVGID_10_)}.st5{clip-path:url(#SVGID_12_);fill:#00dee7}.st6{clip-path:url(#SVGID_14_)}.st7{clip-path:url(#SVGID_16_);fill:#00dee7}.st8{clip-path:url(#SVGID_18_)}.st9{clip-path:url(#SVGID_20_);fill:#fff}.st10{clip-path:url(#SVGID_22_)}.st11{clip-path:url(#SVGID_24_);fill:#fff}.st12{clip-path:url(#SVGID_26_)}.st13{clip-path:url(#SVGID_28_);enable-background:new}.st14{clip-path:url(#SVGID_30_)}.st15{clip-path:url(#SVGID_32_)}.st16{clip-path:url(#SVGID_34_);fill:#fff}.st17{clip-path:url(#SVGID_36_)}.st18{clip-path:url(#SVGID_38_);enable-background:new}.st19{clip-path:url(#SVGID_40_)}.st20{clip-path:url(#SVGID_42_)}.st21{clip-path:url(#SVGID_44_);fill:#fff}.st22{clip-path:url(#SVGID_46_)}.st23{clip-path:url(#SVGID_48_);fill:#fff}.st24{clip-path:url(#SVGID_50_)}.st25{clip-path:url(#SVGID_52_);fill:#fff}.st26{clip-path:url(#SVGID_54_)}.st27{clip-path:url(#SVGID_56_);enable-background:new}.st28{clip-path:url(#SVGID_58_)}.st29{clip-path:url(#SVGID_60_)}.st30{clip-path:url(#SVGID_62_);fill:#fff}.st31{clip-path:url(#SVGID_64_)}.st32{clip-path:url(#SVGID_66_);fill:#00dee7}.st33,.st34{fill-rule:evenodd;clip-rule:evenodd;fill:#edf5f8}.st34{fill:#3fb4f1}.st35,.st36{fill:none}.st36{fill-rule:evenodd;clip-rule:evenodd}</style><defs><path id="SVGID_63_" d="M817.5-250c-1-2.3-.4-5 1.4-6.7l.7-.7c.8-.8 2.1-.8 2.9 0l1.3 1.3c.8.8.8 2.1 0 2.9l-.4.4c-1 1-1.4 2.5-1 3.8 1 3.2 3.5 4.7 5.5 5.4 1.3.5 2.8.2 3.9-.8l.4-.4c.8-.8 2.1-.8 2.9 0l1.3 1.3c.8.8.8 2.1 0 2.9l-.7.7a6.15 6.15 0 0 1-6.8 1.3c-2.2-1-4.7-2.8-6.9-5-2-2-3.6-4.3-4.5-6.4"/></defs><clipPath id="SVGID_2_"><use xlink:href="#SVGID_63_" overflow="visible"/></clipPath><g class="st0"><defs><path id="SVGID_65_" d="M-191-305h1280v5100H-191z"/></defs><clipPath id="SVGID_4_"><use xlink:href="#SVGID_65_" overflow="visible"/></clipPath></g><path class="st35" d="M-730-4028H550v5100H-730z"/><path class="st35" d="M-730-4028H550v5100H-730z"/><path class="st35" d="M-730-4028H550v5100H-730z"/><path class="st35" d="M-730-4028H550v5100H-730z"/><path class="st35" d="M-730-4028H550v5100H-730z"/><path class="st35" d="M-730-4028H550v5100H-730z"/><path class="st35" d="M-730-4028H550v5100H-730z"/><path class="st35" d="M-730-4028H550v5100H-730z"/><path class="st35" d="M-730-4028H550v5100H-730z"/><path class="st35" d="M-730-4028H550v5100H-730z"/><path class="st35" d="M-730-4028H550v5100H-730z"/><path class="st35" d="M-730-4028H550v5100H-730z"/><path class="st35" d="M-730-4028H550v5100H-730z"/><path class="st35" d="M-730-4028H550v5100H-730z"/><path class="st35" d="M-730-4028H550v5100H-730z"/><path class="st35" d="M-730-4028H550v5100H-730z"/><path class="st35" d="M-730-4028H550v5100H-730z"/><path class="st35" d="M-730-4028H550v5100H-730z"/><defs><path id="SVGID_67_" d="M-1038-3892H242v5100h-1280z"/></defs><clipPath id="SVGID_6_"><use xlink:href="#SVGID_67_" overflow="visible"/></clipPath><defs><path id="SVGID_69_" d="M-1038-3892H242v5100h-1280z"/></defs><clipPath id="SVGID_8_"><use xlink:href="#SVGID_69_" overflow="visible"/></clipPath><defs><path id="SVGID_71_" d="M-1038-3892H242v5100h-1280z"/></defs><clipPath id="SVGID_10_"><use xlink:href="#SVGID_71_" overflow="visible"/></clipPath><g><defs><path id="SVGID_73_" d="M-1038-3892H242v5100h-1280z"/></defs><clipPath id="SVGID_12_"><use xlink:href="#SVGID_73_" overflow="visible"/></clipPath></g><g><defs><path id="SVGID_75_" d="M-1038-3892H242v5100h-1280z"/></defs><clipPath id="SVGID_14_"><use xlink:href="#SVGID_75_" overflow="visible"/></clipPath></g><g><defs><path id="SVGID_77_" d="M-1038-3892H242v5100h-1280z"/></defs><clipPath id="SVGID_16_"><use xlink:href="#SVGID_77_" overflow="visible"/></clipPath></g><g><defs><path id="SVGID_79_" d="M-1038-3892H242v5100h-1280z"/></defs><clipPath id="SVGID_18_"><use xlink:href="#SVGID_79_" overflow="visible"/></clipPath></g><g><path class="st36" d="M39.4 62c-.4 0-.7-.1-1-.4l-18-18c-.5-.5-.5-1.4 0-2l6.9-6.9c.5-.5 1.4-.5 2 0l10.1 10.1 18.4-18.4c.5-.5 1.4-.5 2 0l6.9 6.9c.5.5.5 1.4 0 2L40.3 61.6c-.2.3-.6.4-.9.4zM23.3 42.6l16 16 24.3-24.3-5-5-18.3 18.4c-.5.5-1.4.5-2 0l-10-10-5 4.9z"/><path class="st34" d="M8 44h3v3H8z"/><path class="st36" d="M45 90C20.2 90 0 69.8 0 45S20.2 0 45 0s45 20.2 45 45-20.2 45-45 45m0-87.2C21.7 2.8 2.8 21.7 2.8 45S21.7 87.2 45 87.2 87.2 68.3 87.2 45 68.3 2.8 45 2.8"/><path class="st33" d="M89 60c0 16.6-13.2 30-29.5 30S30 76.6 30 60s13.2-30 29.5-30S89 43.4 89 60"/><path class="st34" d="M43 79h3v3h-3zM43 9h3v3h-3zM78 44h3v3h-3zM39.4 62c-.4 0-.7-.1-1-.4l-18-18c-.5-.5-.5-1.4 0-2l6.9-6.9c.5-.5 1.4-.5 2 0l10.1 10.1 18.4-18.4c.5-.5 1.4-.5 2 0l6.9 6.9c.5.5.5 1.4 0 2L40.3 61.6c-.2.3-.6.4-.9.4zM23.3 42.6l16 16 24.3-24.3-5-5-18.3 18.4c-.5.5-1.4.5-2 0l-10-10-5 4.9z"/><path class="st34" d="M45 90C20.2 90 0 69.8 0 45S20.2 0 45 0s45 20.2 45 45-20.2 45-45 45m0-87.2C21.7 2.8 2.8 21.7 2.8 45S21.7 87.2 45 87.2 87.2 68.3 87.2 45 68.3 2.8 45 2.8"/></g></svg>