<?xml version="1.0" encoding="utf-8"?>
<!-- Generator: Adobe Illustrator 21.0.0, SVG Export Plug-In . SVG Version: 6.00 Build 0)  -->
<svg version="1.1" id="Layer_1" xmlns="http://www.w3.org/2000/svg" xmlns:xlink="http://www.w3.org/1999/xlink" x="0px" y="0px"
	 viewBox="0 0 90 90" style="enable-background:new 0 0 90 90;" xml:space="preserve">
<style type="text/css">
	.st0{clip-path:url(#SVGID_2_);}
	.st1{clip-path:url(#SVGID_4_);fill:#00DEE7;}
	.st2{clip-path:url(#SVGID_6_);}
	.st3{clip-path:url(#SVGID_8_);fill:#00DEE7;}
	.st4{clip-path:url(#SVGID_10_);}
	.st5{clip-path:url(#SVGID_12_);fill:#00DEE7;}
	.st6{clip-path:url(#SVGID_14_);}
	.st7{clip-path:url(#SVGID_16_);fill:#00DEE7;}
	.st8{clip-path:url(#SVGID_18_);}
	.st9{clip-path:url(#SVGID_20_);fill:#FFFFFF;}
	.st10{clip-path:url(#SVGID_22_);}
	.st11{clip-path:url(#SVGID_24_);fill:#FFFFFF;}
	.st12{clip-path:url(#SVGID_26_);}
	.st13{clip-path:url(#SVGID_28_);enable-background:new    ;}
	.st14{clip-path:url(#SVGID_30_);}
	.st15{clip-path:url(#SVGID_32_);}
	.st16{clip-path:url(#SVGID_34_);fill:#FFFFFF;}
	.st17{clip-path:url(#SVGID_36_);}
	.st18{clip-path:url(#SVGID_38_);enable-background:new    ;}
	.st19{clip-path:url(#SVGID_40_);}
	.st20{clip-path:url(#SVGID_42_);}
	.st21{clip-path:url(#SVGID_44_);fill:#FFFFFF;}
	.st22{clip-path:url(#SVGID_46_);}
	.st23{clip-path:url(#SVGID_48_);fill:#FFFFFF;}
	.st24{clip-path:url(#SVGID_50_);}
	.st25{clip-path:url(#SVGID_52_);fill:#FFFFFF;}
	.st26{clip-path:url(#SVGID_54_);}
	.st27{clip-path:url(#SVGID_56_);enable-background:new    ;}
	.st28{clip-path:url(#SVGID_58_);}
	.st29{clip-path:url(#SVGID_60_);}
	.st30{clip-path:url(#SVGID_62_);fill:#FFFFFF;}
	.st31{clip-path:url(#SVGID_64_);}
	.st32{clip-path:url(#SVGID_66_);fill:#00DEE7;}
	.st33{fill-rule:evenodd;clip-rule:evenodd;fill:#EDF5F8;}
	.st34{fill-rule:evenodd;clip-rule:evenodd;fill:#3FB4F1;}
	.st35{fill:none;}
	.st36{fill-rule:evenodd;clip-rule:evenodd;fill:none;}
</style>
<g>
	<defs>
		<path id="SVGID_63_" d="M817.5-250c-1-2.3-0.4-5,1.4-6.7c0.4-0.4,0.7-0.7,0.7-0.7c0.8-0.8,2.1-0.8,2.9,0l1.3,1.3
			c0.8,0.8,0.8,2.1,0,2.9l-0.4,0.4c-1,1-1.4,2.5-1,3.8c1,3.2,3.5,4.7,5.5,5.4c1.3,0.5,2.8,0.2,3.9-0.8l0.4-0.4
			c0.8-0.8,2.1-0.8,2.9,0l1.3,1.3c0.8,0.8,0.8,2.1,0,2.9l-0.7,0.7c-1.8,1.8-4.5,2.3-6.8,1.3c-2.2-1-4.7-2.8-6.9-5
			C820-245.6,818.4-247.9,817.5-250"/>
	</defs>
	<clipPath id="SVGID_2_">
		<use xlink:href="#SVGID_63_"  style="overflow:visible;"/>
	</clipPath>
	<g class="st0">
		<defs>
			<rect id="SVGID_65_" x="-191" y="-305" width="1280" height="5100"/>
		</defs>
		<clipPath id="SVGID_4_">
			<use xlink:href="#SVGID_65_"  style="overflow:visible;"/>
		</clipPath>
	</g>
</g>
<rect x="-730" y="-4028" class="st35" width="1280" height="5100"/>
<rect x="-730" y="-4028" class="st35" width="1280" height="5100"/>
<rect x="-730" y="-4028" class="st35" width="1280" height="5100"/>
<rect x="-730" y="-4028" class="st35" width="1280" height="5100"/>
<rect x="-730" y="-4028" class="st35" width="1280" height="5100"/>
<rect x="-730" y="-4028" class="st35" width="1280" height="5100"/>
<rect x="-730" y="-4028" class="st35" width="1280" height="5100"/>
<rect x="-730" y="-4028" class="st35" width="1280" height="5100"/>
<rect x="-730" y="-4028" class="st35" width="1280" height="5100"/>
<rect x="-730" y="-4028" class="st35" width="1280" height="5100"/>
<rect x="-730" y="-4028" class="st35" width="1280" height="5100"/>
<rect x="-730" y="-4028" class="st35" width="1280" height="5100"/>
<rect x="-730" y="-4028" class="st35" width="1280" height="5100"/>
<rect x="-730" y="-4028" class="st35" width="1280" height="5100"/>
<rect x="-730" y="-4028" class="st35" width="1280" height="5100"/>
<rect x="-730" y="-4028" class="st35" width="1280" height="5100"/>
<rect x="-730" y="-4028" class="st35" width="1280" height="5100"/>
<rect x="-730" y="-4028" class="st35" width="1280" height="5100"/>
<g>
	<defs>
		<rect id="SVGID_67_" x="-1038" y="-3892" width="1280" height="5100"/>
	</defs>
	<clipPath id="SVGID_6_">
		<use xlink:href="#SVGID_67_"  style="overflow:visible;"/>
	</clipPath>
</g>
<g>
	<defs>
		<rect id="SVGID_69_" x="-1038" y="-3892" width="1280" height="5100"/>
	</defs>
	<clipPath id="SVGID_8_">
		<use xlink:href="#SVGID_69_"  style="overflow:visible;"/>
	</clipPath>
</g>
<g>
	<defs>
		<rect id="SVGID_71_" x="-1038" y="-3892" width="1280" height="5100"/>
	</defs>
	<clipPath id="SVGID_10_">
		<use xlink:href="#SVGID_71_"  style="overflow:visible;"/>
	</clipPath>
</g>
<g>
	<defs>
		<rect id="SVGID_73_" x="-1038" y="-3892" width="1280" height="5100"/>
	</defs>
	<clipPath id="SVGID_12_">
		<use xlink:href="#SVGID_73_"  style="overflow:visible;"/>
	</clipPath>
</g>
<g>
	<defs>
		<rect id="SVGID_75_" x="-1038" y="-3892" width="1280" height="5100"/>
	</defs>
	<clipPath id="SVGID_14_">
		<use xlink:href="#SVGID_75_"  style="overflow:visible;"/>
	</clipPath>
</g>
<g>
	<defs>
		<rect id="SVGID_77_" x="-1038" y="-3892" width="1280" height="5100"/>
	</defs>
	<clipPath id="SVGID_16_">
		<use xlink:href="#SVGID_77_"  style="overflow:visible;"/>
	</clipPath>
</g>
<g>
	<defs>
		<rect id="SVGID_79_" x="-1038" y="-3892" width="1280" height="5100"/>
	</defs>
	<clipPath id="SVGID_18_">
		<use xlink:href="#SVGID_79_"  style="overflow:visible;"/>
	</clipPath>
</g>
<g>
	<path class="st36" d="M39.4,62c-0.4,0-0.7-0.1-1-0.4l-18-18c-0.5-0.5-0.5-1.4,0-2l6.9-6.9c0.5-0.5,1.4-0.5,2,0l10.1,10.1l18.4-18.4
		c0.5-0.5,1.4-0.5,2,0l6.9,6.9c0.5,0.5,0.5,1.4,0,2L40.3,61.6C40.1,61.9,39.7,62,39.4,62z M23.3,42.6l16,16l24.3-24.3l-5-5
		L40.3,47.7c-0.5,0.5-1.4,0.5-2,0L28.3,37.7L23.3,42.6z"/>
	<rect x="8" y="44" class="st34" width="3" height="3"/>
	<path class="st36" d="M45,90C20.2,90,0,69.8,0,45S20.2,0,45,0s45,20.2,45,45S69.8,90,45,90 M45,2.8C21.7,2.8,2.8,21.7,2.8,45
		S21.7,87.2,45,87.2S87.2,68.3,87.2,45S68.3,2.8,45,2.8"/>
	<path class="st33" d="M89,60c0,16.6-13.2,30-29.5,30S30,76.6,30,60c0-16.6,13.2-30,29.5-30S89,43.4,89,60"/>
	<rect x="43" y="79" class="st34" width="3" height="3"/>
	<rect x="43" y="9" class="st34" width="3" height="3"/>
	<rect x="78" y="44" class="st34" width="3" height="3"/>
	<path class="st34" d="M39.4,62c-0.4,0-0.7-0.1-1-0.4l-18-18c-0.5-0.5-0.5-1.4,0-2l6.9-6.9c0.5-0.5,1.4-0.5,2,0l10.1,10.1l18.4-18.4
		c0.5-0.5,1.4-0.5,2,0l6.9,6.9c0.5,0.5,0.5,1.4,0,2L40.3,61.6C40.1,61.9,39.7,62,39.4,62z M23.3,42.6l16,16l24.3-24.3l-5-5
		L40.3,47.7c-0.5,0.5-1.4,0.5-2,0L28.3,37.7L23.3,42.6z"/>
	<path class="st34" d="M45,90C20.2,90,0,69.8,0,45S20.2,0,45,0s45,20.2,45,45S69.8,90,45,90 M45,2.8C21.7,2.8,2.8,21.7,2.8,45
		S21.7,87.2,45,87.2S87.2,68.3,87.2,45S68.3,2.8,45,2.8"/>
</g>
</svg>
