<svg id="Layer_1" xmlns="http://www.w3.org/2000/svg" xmlns:xlink="http://www.w3.org/1999/xlink" viewBox="0 0 89 87"><style>.st0{clip-path:url(#SVGID_2_)}.st1{clip-path:url(#SVGID_4_);fill:#00dee7}.st2{clip-path:url(#SVGID_6_)}.st3{clip-path:url(#SVGID_8_);fill:#00dee7}.st4{clip-path:url(#SVGID_10_)}.st5{clip-path:url(#SVGID_12_);fill:#00dee7}.st6{clip-path:url(#SVGID_14_)}.st7{clip-path:url(#SVGID_16_);fill:#00dee7}.st8{clip-path:url(#SVGID_18_)}.st9{clip-path:url(#SVGID_20_);fill:#fff}.st10{clip-path:url(#SVGID_22_)}.st11{clip-path:url(#SVGID_24_);fill:#fff}.st12{clip-path:url(#SVGID_26_)}.st13{clip-path:url(#SVGID_28_);enable-background:new}.st14{clip-path:url(#SVGID_30_)}.st15{clip-path:url(#SVGID_32_)}.st16{clip-path:url(#SVGID_34_);fill:#fff}.st17{clip-path:url(#SVGID_36_)}.st18{clip-path:url(#SVGID_38_);enable-background:new}.st19{clip-path:url(#SVGID_40_)}.st20{clip-path:url(#SVGID_42_)}.st21{clip-path:url(#SVGID_44_);fill:#fff}.st22{clip-path:url(#SVGID_46_)}.st23{clip-path:url(#SVGID_48_);fill:#fff}.st24{clip-path:url(#SVGID_50_)}.st25{clip-path:url(#SVGID_52_);fill:#fff}.st26{clip-path:url(#SVGID_54_)}.st27{clip-path:url(#SVGID_56_);enable-background:new}.st28{clip-path:url(#SVGID_58_)}.st29{clip-path:url(#SVGID_60_)}.st30{clip-path:url(#SVGID_62_);fill:#fff}.st31{clip-path:url(#SVGID_64_)}.st32{clip-path:url(#SVGID_66_);fill:#00dee7}.st33,.st34{fill-rule:evenodd;clip-rule:evenodd;fill:#edf5f8}.st34{fill:#3fb4f1}.st35,.st36{fill:none}.st36{fill-rule:evenodd;clip-rule:evenodd}</style><defs><path id="SVGID_63_" d="M991.5-108c-1-2.3-.4-5 1.4-6.7l.7-.7c.8-.8 2.1-.8 2.9 0l1.3 1.3c.8.8.8 2.1 0 2.9l-.4.4c-1 1-1.4 2.5-1 3.8 1 3.2 3.5 4.7 5.5 5.4 1.3.5 2.8.2 3.9-.8l.4-.4c.8-.8 2.1-.8 2.9 0l1.3 1.3c.8.8.8 2.1 0 2.9l-.7.7a6.15 6.15 0 0 1-6.8 1.3c-2.2-1-4.7-2.8-6.9-5-2-2-3.6-4.3-4.5-6.4"/></defs><clipPath id="SVGID_2_"><use xlink:href="#SVGID_63_" overflow="visible"/></clipPath><g class="st0"><defs><path id="SVGID_65_" d="M-17-163h1280v5100H-17z"/></defs><clipPath id="SVGID_4_"><use xlink:href="#SVGID_65_" overflow="visible"/></clipPath></g><path class="st35" d="M-556-3886H724v5100H-556z"/><path class="st35" d="M-556-3886H724v5100H-556z"/><path class="st35" d="M-556-3886H724v5100H-556z"/><path class="st35" d="M-556-3886H724v5100H-556z"/><path class="st35" d="M-556-3886H724v5100H-556z"/><path class="st35" d="M-556-3886H724v5100H-556z"/><path class="st35" d="M-556-3886H724v5100H-556z"/><path class="st35" d="M-556-3886H724v5100H-556z"/><path class="st35" d="M-556-3886H724v5100H-556z"/><path class="st35" d="M-556-3886H724v5100H-556z"/><path class="st35" d="M-556-3886H724v5100H-556z"/><path class="st35" d="M-556-3886H724v5100H-556z"/><path class="st35" d="M-556-3886H724v5100H-556z"/><path class="st35" d="M-556-3886H724v5100H-556z"/><path class="st35" d="M-556-3886H724v5100H-556z"/><path class="st35" d="M-556-3886H724v5100H-556z"/><path class="st35" d="M-556-3886H724v5100H-556z"/><path class="st35" d="M-556-3886H724v5100H-556z"/><defs><path id="SVGID_67_" d="M-864-3750H416v5100H-864z"/></defs><clipPath id="SVGID_6_"><use xlink:href="#SVGID_67_" overflow="visible"/></clipPath><defs><path id="SVGID_69_" d="M-864-3750H416v5100H-864z"/></defs><clipPath id="SVGID_8_"><use xlink:href="#SVGID_69_" overflow="visible"/></clipPath><defs><path id="SVGID_71_" d="M-864-3750H416v5100H-864z"/></defs><clipPath id="SVGID_10_"><use xlink:href="#SVGID_71_" overflow="visible"/></clipPath><defs><path id="SVGID_73_" d="M-864-3750H416v5100H-864z"/></defs><clipPath id="SVGID_12_"><use xlink:href="#SVGID_73_" overflow="visible"/></clipPath><g><defs><path id="SVGID_75_" d="M-864-3750H416v5100H-864z"/></defs><clipPath id="SVGID_14_"><use xlink:href="#SVGID_75_" overflow="visible"/></clipPath></g><g><defs><path id="SVGID_77_" d="M-864-3750H416v5100H-864z"/></defs><clipPath id="SVGID_16_"><use xlink:href="#SVGID_77_" overflow="visible"/></clipPath></g><g><defs><path id="SVGID_79_" d="M-864-3750H416v5100H-864z"/></defs><clipPath id="SVGID_18_"><use xlink:href="#SVGID_79_" overflow="visible"/></clipPath></g><ellipse class="st33" cx="29.5" cy="55" rx="29.5" ry="30"/><g><path class="st34" d="M88.8 24.9l-.8-1.4V23h-.3L76.4 3.7c-.2-.4-.7-.7-1.1-.7H67v2.8h4.6L59.5 22.3 47.4 5.8h6.4V3H14.1c-.5 0-1 .3-1.2.7l-.3.6-.6.4.2.2L1.3 23H1v.5l-.8 1.3c-.3.5-.3 1.1.1 1.6l43.8 55c.3.3.7.5 1.1.5.4 0 .8-.2 1.1-.5L69 53.3l-2.2-1.8-20.2 25.1L60.9 26h24.6L74.2 40.2l2.1 1.8 12.4-15.5c.4-.5.4-1.1.1-1.6zM84.5 23h-22L74.8 6.3 84.5 23zm-56.4 3l13.4 47.6L3.6 26h24.5zm2.9 0h6v-3h-4.5l12-16.3 12 16.3H52v3h6L44.5 73.9 31 26zM41.6 5.8L29 23 16.4 5.8h25.2zM14 7.4L25.5 23H4.6L14 7.4z"/><path class="st34" d="M58 9h3V6h4V3h-4V0h-3v3h-2v3h2zM46 21h-3v2h-2v3h2v4h3v-4h4v-3h-4zM17 55h-3v2h-3v3h3v4h3v-4h3v-3h-3zM73 42h-3v3h-3v3h3v3h3v-3h3v-3h-3z"/></g></svg>