<?xml version="1.0" encoding="utf-8"?>
<!-- Generator: Adobe Illustrator 21.0.0, SVG Export Plug-In . SVG Version: 6.00 Build 0)  -->
<svg version="1.1" id="Layer_1" xmlns="http://www.w3.org/2000/svg" xmlns:xlink="http://www.w3.org/1999/xlink" x="0px" y="0px"
	 viewBox="0 0 81 90" style="enable-background:new 0 0 81 90;" xml:space="preserve">
<style type="text/css">
	.st0{clip-path:url(#SVGID_2_);}
	.st1{clip-path:url(#SVGID_4_);fill:#00DEE7;}
	.st2{clip-path:url(#SVGID_6_);}
	.st3{clip-path:url(#SVGID_8_);fill:#00DEE7;}
	.st4{clip-path:url(#SVGID_10_);}
	.st5{clip-path:url(#SVGID_12_);fill:#00DEE7;}
	.st6{clip-path:url(#SVGID_14_);}
	.st7{clip-path:url(#SVGID_16_);fill:#00DEE7;}
	.st8{clip-path:url(#SVGID_18_);}
	.st9{clip-path:url(#SVGID_20_);fill:#FFFFFF;}
	.st10{clip-path:url(#SVGID_22_);}
	.st11{clip-path:url(#SVGID_24_);fill:#FFFFFF;}
	.st12{clip-path:url(#SVGID_26_);}
	.st13{clip-path:url(#SVGID_28_);enable-background:new    ;}
	.st14{clip-path:url(#SVGID_30_);}
	.st15{clip-path:url(#SVGID_32_);}
	.st16{clip-path:url(#SVGID_34_);fill:#FFFFFF;}
	.st17{clip-path:url(#SVGID_36_);}
	.st18{clip-path:url(#SVGID_38_);enable-background:new    ;}
	.st19{clip-path:url(#SVGID_40_);}
	.st20{clip-path:url(#SVGID_42_);}
	.st21{clip-path:url(#SVGID_44_);fill:#FFFFFF;}
	.st22{clip-path:url(#SVGID_46_);}
	.st23{clip-path:url(#SVGID_48_);fill:#FFFFFF;}
	.st24{clip-path:url(#SVGID_50_);}
	.st25{clip-path:url(#SVGID_52_);fill:#FFFFFF;}
	.st26{clip-path:url(#SVGID_54_);}
	.st27{clip-path:url(#SVGID_56_);enable-background:new    ;}
	.st28{clip-path:url(#SVGID_58_);}
	.st29{clip-path:url(#SVGID_60_);}
	.st30{clip-path:url(#SVGID_62_);fill:#FFFFFF;}
	.st31{clip-path:url(#SVGID_64_);}
	.st32{clip-path:url(#SVGID_66_);fill:#00DEE7;}
	.st33{fill-rule:evenodd;clip-rule:evenodd;fill:#EDF5F8;}
	.st34{fill-rule:evenodd;clip-rule:evenodd;fill:#3FB4F1;}
	.st35{fill:none;}
	.st36{fill-rule:evenodd;clip-rule:evenodd;fill:none;}
</style>
<g>
	<defs>
		<path id="SVGID_63_" d="M800.5-105c-1-2.3-0.4-5,1.4-6.7c0.4-0.4,0.7-0.7,0.7-0.7c0.8-0.8,2.1-0.8,2.9,0l1.3,1.3
			c0.8,0.8,0.8,2.1,0,2.9l-0.4,0.4c-1,1-1.4,2.5-1,3.8c1,3.2,3.5,4.7,5.5,5.4c1.3,0.5,2.8,0.2,3.9-0.8l0.4-0.4
			c0.8-0.8,2.1-0.8,2.9,0l1.3,1.3c0.8,0.8,0.8,2.1,0,2.9l-0.7,0.7c-1.8,1.8-4.5,2.3-6.8,1.3c-2.2-1-4.7-2.8-6.9-5
			C803-100.6,801.4-102.9,800.5-105"/>
	</defs>
	<clipPath id="SVGID_2_">
		<use xlink:href="#SVGID_63_"  style="overflow:visible;"/>
	</clipPath>
	<g class="st0">
		<defs>
			<rect id="SVGID_65_" x="-208" y="-160" width="1280" height="5100"/>
		</defs>
		<clipPath id="SVGID_4_">
			<use xlink:href="#SVGID_65_"  style="overflow:visible;"/>
		</clipPath>
	</g>
</g>
<rect x="-747" y="-3883" class="st35" width="1280" height="5100"/>
<rect x="-747" y="-3883" class="st35" width="1280" height="5100"/>
<rect x="-747" y="-3883" class="st35" width="1280" height="5100"/>
<rect x="-747" y="-3883" class="st35" width="1280" height="5100"/>
<rect x="-747" y="-3883" class="st35" width="1280" height="5100"/>
<rect x="-747" y="-3883" class="st35" width="1280" height="5100"/>
<rect x="-747" y="-3883" class="st35" width="1280" height="5100"/>
<rect x="-747" y="-3883" class="st35" width="1280" height="5100"/>
<rect x="-747" y="-3883" class="st35" width="1280" height="5100"/>
<rect x="-747" y="-3883" class="st35" width="1280" height="5100"/>
<rect x="-747" y="-3883" class="st35" width="1280" height="5100"/>
<rect x="-747" y="-3883" class="st35" width="1280" height="5100"/>
<rect x="-747" y="-3883" class="st35" width="1280" height="5100"/>
<rect x="-747" y="-3883" class="st35" width="1280" height="5100"/>
<rect x="-747" y="-3883" class="st35" width="1280" height="5100"/>
<rect x="-747" y="-3883" class="st35" width="1280" height="5100"/>
<rect x="-747" y="-3883" class="st35" width="1280" height="5100"/>
<rect x="-747" y="-3883" class="st35" width="1280" height="5100"/>
<g>
	<path class="st33" d="M59,60c0,16.6-13.2,30-29.5,30S0,76.6,0,60c0-16.6,13.2-30,29.5-30S59,43.4,59,60"/>
	<g>
		<rect x="40" y="17" class="st34" width="3" height="6"/>
		<polygon class="st34" points="7,60 32,60 32,57.2 9.8,57.2 9.8,8.8 32,8.8 32,6 7,6 		"/>
		<path class="st34" d="M66.2,10.2V23H69V10.2C69,7.9,67.1,6,64.8,6H52v2.8h12.8C65.5,8.8,66.2,9.5,66.2,10.2z"/>
		<path class="st34" d="M16.8,80.8V68H14v12.8c0,2.3,1.9,4.2,4.2,4.2H31v-2.8H18.2C17.5,82.2,16.8,81.5,16.8,80.8z"/>
		<rect x="43" y="34" class="st34" width="20" height="3"/>
		<rect x="43" y="39" class="st34" width="20" height="3"/>
		<rect x="43" y="45" class="st34" width="31" height="3"/>
		<rect x="43" y="51" class="st34" width="31" height="3"/>
		<rect x="43" y="56" class="st34" width="31" height="3"/>
		<rect x="43" y="62" class="st34" width="31" height="3"/>
		<rect x="43" y="68" class="st34" width="31" height="3"/>
		<rect x="43" y="73" class="st34" width="31" height="3"/>
		<rect x="43" y="79" class="st34" width="31" height="3"/>
		<path class="st34" d="M34,14h10.2v8.6H47V14v-1.9v-1h-1l-9.1-9.3V1h-0.8l-1-1H0v65h30.4v-2.8H2.8V2.8H34l0,0V14z M36.9,5.8
			l5.2,5.3h-5.2V5.8z"/>
		<path class="st34" d="M80,36.1l-9.1-9.3V26h-0.8l-1-1H34v65h47V39v-1.9v-1H80z M70.9,30.8l5.2,5.3h-5.2V30.8z M78.2,87.2H36.8
			V27.8H68l0,0V39h10.2V87.2z"/>
	</g>
</g>
<g>
	<defs>
		<rect id="SVGID_67_" x="-1055" y="-3747" width="1280" height="5100"/>
	</defs>
	<clipPath id="SVGID_6_">
		<use xlink:href="#SVGID_67_"  style="overflow:visible;"/>
	</clipPath>
</g>
<g>
	<defs>
		<rect id="SVGID_69_" x="-1055" y="-3747" width="1280" height="5100"/>
	</defs>
	<clipPath id="SVGID_8_">
		<use xlink:href="#SVGID_69_"  style="overflow:visible;"/>
	</clipPath>
</g>
<g>
	<defs>
		<rect id="SVGID_71_" x="-1055" y="-3747" width="1280" height="5100"/>
	</defs>
	<clipPath id="SVGID_10_">
		<use xlink:href="#SVGID_71_"  style="overflow:visible;"/>
	</clipPath>
</g>
<g>
	<defs>
		<rect id="SVGID_73_" x="-1055" y="-3747" width="1280" height="5100"/>
	</defs>
	<clipPath id="SVGID_12_">
		<use xlink:href="#SVGID_73_"  style="overflow:visible;"/>
	</clipPath>
</g>
<g>
	<defs>
		<rect id="SVGID_75_" x="-1055" y="-3747" width="1280" height="5100"/>
	</defs>
	<clipPath id="SVGID_14_">
		<use xlink:href="#SVGID_75_"  style="overflow:visible;"/>
	</clipPath>
</g>
<g>
	<defs>
		<rect id="SVGID_77_" x="-1055" y="-3747" width="1280" height="5100"/>
	</defs>
	<clipPath id="SVGID_16_">
		<use xlink:href="#SVGID_77_"  style="overflow:visible;"/>
	</clipPath>
</g>
<g>
	<defs>
		<rect id="SVGID_79_" x="-1055" y="-3747" width="1280" height="5100"/>
	</defs>
	<clipPath id="SVGID_18_">
		<use xlink:href="#SVGID_79_"  style="overflow:visible;"/>
	</clipPath>
</g>
</svg>
