<?xml version="1.0" encoding="utf-8"?>
<!-- Generator: Adobe Illustrator 21.0.0, SVG Export Plug-In . SVG Version: 6.00 Build 0)  -->
<svg version="1.1" id="Layer_1" xmlns="http://www.w3.org/2000/svg" xmlns:xlink="http://www.w3.org/1999/xlink" x="0px" y="0px"
	 viewBox="0 0 89 87" style="enable-background:new 0 0 89 87;" xml:space="preserve">
<style type="text/css">
	.st0{clip-path:url(#SVGID_2_);}
	.st1{clip-path:url(#SVGID_4_);fill:#00DEE7;}
	.st2{clip-path:url(#SVGID_6_);}
	.st3{clip-path:url(#SVGID_8_);fill:#00DEE7;}
	.st4{clip-path:url(#SVGID_10_);}
	.st5{clip-path:url(#SVGID_12_);fill:#00DEE7;}
	.st6{clip-path:url(#SVGID_14_);}
	.st7{clip-path:url(#SVGID_16_);fill:#00DEE7;}
	.st8{clip-path:url(#SVGID_18_);}
	.st9{clip-path:url(#SVGID_20_);fill:#FFFFFF;}
	.st10{clip-path:url(#SVGID_22_);}
	.st11{clip-path:url(#SVGID_24_);fill:#FFFFFF;}
	.st12{clip-path:url(#SVGID_26_);}
	.st13{clip-path:url(#SVGID_28_);enable-background:new    ;}
	.st14{clip-path:url(#SVGID_30_);}
	.st15{clip-path:url(#SVGID_32_);}
	.st16{clip-path:url(#SVGID_34_);fill:#FFFFFF;}
	.st17{clip-path:url(#SVGID_36_);}
	.st18{clip-path:url(#SVGID_38_);enable-background:new    ;}
	.st19{clip-path:url(#SVGID_40_);}
	.st20{clip-path:url(#SVGID_42_);}
	.st21{clip-path:url(#SVGID_44_);fill:#FFFFFF;}
	.st22{clip-path:url(#SVGID_46_);}
	.st23{clip-path:url(#SVGID_48_);fill:#FFFFFF;}
	.st24{clip-path:url(#SVGID_50_);}
	.st25{clip-path:url(#SVGID_52_);fill:#FFFFFF;}
	.st26{clip-path:url(#SVGID_54_);}
	.st27{clip-path:url(#SVGID_56_);enable-background:new    ;}
	.st28{clip-path:url(#SVGID_58_);}
	.st29{clip-path:url(#SVGID_60_);}
	.st30{clip-path:url(#SVGID_62_);fill:#FFFFFF;}
	.st31{clip-path:url(#SVGID_64_);}
	.st32{clip-path:url(#SVGID_66_);fill:#00DEE7;}
	.st33{fill-rule:evenodd;clip-rule:evenodd;fill:#EDF5F8;}
	.st34{fill-rule:evenodd;clip-rule:evenodd;fill:#3FB4F1;}
	.st35{fill:none;}
	.st36{fill-rule:evenodd;clip-rule:evenodd;fill:none;}
</style>
<g>
	<defs>
		<path id="SVGID_63_" d="M991.5-108c-1-2.3-0.4-5,1.4-6.7c0.4-0.4,0.7-0.7,0.7-0.7c0.8-0.8,2.1-0.8,2.9,0l1.3,1.3
			c0.8,0.8,0.8,2.1,0,2.9l-0.4,0.4c-1,1-1.4,2.5-1,3.8c1,3.2,3.5,4.7,5.5,5.4c1.3,0.5,2.8,0.2,3.9-0.8l0.4-0.4
			c0.8-0.8,2.1-0.8,2.9,0l1.3,1.3c0.8,0.8,0.8,2.1,0,2.9l-0.7,0.7c-1.8,1.8-4.5,2.3-6.8,1.3c-2.2-1-4.7-2.8-6.9-5
			C994-103.6,992.4-105.9,991.5-108"/>
	</defs>
	<clipPath id="SVGID_2_">
		<use xlink:href="#SVGID_63_"  style="overflow:visible;"/>
	</clipPath>
	<g class="st0">
		<defs>
			<rect id="SVGID_65_" x="-17" y="-163" width="1280" height="5100"/>
		</defs>
		<clipPath id="SVGID_4_">
			<use xlink:href="#SVGID_65_"  style="overflow:visible;"/>
		</clipPath>
	</g>
</g>
<rect x="-556" y="-3886" class="st35" width="1280" height="5100"/>
<rect x="-556" y="-3886" class="st35" width="1280" height="5100"/>
<rect x="-556" y="-3886" class="st35" width="1280" height="5100"/>
<rect x="-556" y="-3886" class="st35" width="1280" height="5100"/>
<rect x="-556" y="-3886" class="st35" width="1280" height="5100"/>
<rect x="-556" y="-3886" class="st35" width="1280" height="5100"/>
<rect x="-556" y="-3886" class="st35" width="1280" height="5100"/>
<rect x="-556" y="-3886" class="st35" width="1280" height="5100"/>
<rect x="-556" y="-3886" class="st35" width="1280" height="5100"/>
<rect x="-556" y="-3886" class="st35" width="1280" height="5100"/>
<rect x="-556" y="-3886" class="st35" width="1280" height="5100"/>
<rect x="-556" y="-3886" class="st35" width="1280" height="5100"/>
<rect x="-556" y="-3886" class="st35" width="1280" height="5100"/>
<rect x="-556" y="-3886" class="st35" width="1280" height="5100"/>
<rect x="-556" y="-3886" class="st35" width="1280" height="5100"/>
<rect x="-556" y="-3886" class="st35" width="1280" height="5100"/>
<rect x="-556" y="-3886" class="st35" width="1280" height="5100"/>
<rect x="-556" y="-3886" class="st35" width="1280" height="5100"/>
<g>
	<defs>
		<rect id="SVGID_67_" x="-864" y="-3750" width="1280" height="5100"/>
	</defs>
	<clipPath id="SVGID_6_">
		<use xlink:href="#SVGID_67_"  style="overflow:visible;"/>
	</clipPath>
</g>
<g>
	<defs>
		<rect id="SVGID_69_" x="-864" y="-3750" width="1280" height="5100"/>
	</defs>
	<clipPath id="SVGID_8_">
		<use xlink:href="#SVGID_69_"  style="overflow:visible;"/>
	</clipPath>
</g>
<g>
	<defs>
		<rect id="SVGID_71_" x="-864" y="-3750" width="1280" height="5100"/>
	</defs>
	<clipPath id="SVGID_10_">
		<use xlink:href="#SVGID_71_"  style="overflow:visible;"/>
	</clipPath>
</g>
<g>
	<defs>
		<rect id="SVGID_73_" x="-864" y="-3750" width="1280" height="5100"/>
	</defs>
	<clipPath id="SVGID_12_">
		<use xlink:href="#SVGID_73_"  style="overflow:visible;"/>
	</clipPath>
</g>
<g>
	<defs>
		<rect id="SVGID_75_" x="-864" y="-3750" width="1280" height="5100"/>
	</defs>
	<clipPath id="SVGID_14_">
		<use xlink:href="#SVGID_75_"  style="overflow:visible;"/>
	</clipPath>
</g>
<g>
	<defs>
		<rect id="SVGID_77_" x="-864" y="-3750" width="1280" height="5100"/>
	</defs>
	<clipPath id="SVGID_16_">
		<use xlink:href="#SVGID_77_"  style="overflow:visible;"/>
	</clipPath>
</g>
<g>
	<defs>
		<rect id="SVGID_79_" x="-864" y="-3750" width="1280" height="5100"/>
	</defs>
	<clipPath id="SVGID_18_">
		<use xlink:href="#SVGID_79_"  style="overflow:visible;"/>
	</clipPath>
</g>
<ellipse class="st33" cx="29.5" cy="55" rx="29.5" ry="30"/>
<g>
	<path class="st34" d="M88.8,24.9L88,23.5V23h-0.3L76.4,3.7C76.2,3.3,75.7,3,75.3,3H67v2.8h4.6L59.5,22.3L47.4,5.8h6.4V3H14.1
		c-0.5,0-1,0.3-1.2,0.7l-0.3,0.6L12,4.7l0.2,0.2L1.3,23H1v0.5l-0.8,1.3c-0.3,0.5-0.3,1.1,0.1,1.6l43.8,55c0.3,0.3,0.7,0.5,1.1,0.5h0
		c0.4,0,0.8-0.2,1.1-0.5L69,53.3l-2.2-1.8L46.6,76.6L60.9,26h24.6L74.2,40.2l2.1,1.8l12.4-15.5C89.1,26,89.1,25.4,88.8,24.9z
		 M84.5,23h-22L74.8,6.3L84.5,23z M28.1,26l13.4,47.6L3.6,26H28.1z M31,26h6v-3h-4.5l12-16.3l12,16.3H52v3h6L44.5,73.9L31,26z
		 M41.6,5.8L29,23L16.4,5.8H41.6z M14,7.4L25.5,23H4.6L14,7.4z"/>
	<polygon class="st34" points="58,9 61,9 61,6 65,6 65,3 61,3 61,0 58,0 58,3 56,3 56,6 58,6 	"/>
	<polygon class="st34" points="46,21 43,21 43,23 41,23 41,26 43,26 43,30 46,30 46,26 50,26 50,23 46,23 	"/>
	<polygon class="st34" points="17,55 14,55 14,57 11,57 11,60 14,60 14,64 17,64 17,60 20,60 20,57 17,57 	"/>
	<polygon class="st34" points="73,42 70,42 70,45 67,45 67,48 70,48 70,51 73,51 73,48 76,48 76,45 73,45 	"/>
</g>
</svg>
