<svg xmlns="http://www.w3.org/2000/svg" xmlns:xlink="http://www.w3.org/1999/xlink" width="89" height="85" viewBox="0 0 89 85"><defs><path id="a" d="M507 3941c0 16.57-13.2 30-29.5 30s-29.5-13.43-29.5-30 13.2-30 29.5-30 29.5 13.43 29.5 30z"/><path id="b" d="M493.26 3968c-.43 0-.84-.2-1.1-.53l-43.85-55.02a1.4 1.4 0 0 1-.1-1.6l12.72-21.17c.26-.42.72-.68 1.22-.68h39.6v2.82h-38.8l-11.82 19.64 42.14 52.87 21.52-26.84 2.21 1.77-22.63 28.21c-.27.34-.68.53-1.1.53"/><path id="c" d="M524.31 3928l-2.12-1.79 11.76-14.75-11.48-19.64H515V3889h8.25c.48 0 .93.26 1.18.69l12.37 21.17c.3.5.26 1.15-.11 1.62z"/><path id="d" d="M500 3912h36v-3h-36z"/><path id="e" d="M449 3912h36v-3h-36z"/><path id="f" d="M508.3 3912l-2.3-1.68 15.7-21.32 2.3 1.68z"/><path id="g" d="M506.7 3912l-15.7-21.32 2.3-1.68 15.7 21.32z"/><path id="h" d="M478.3 3912l-2.3-1.68 15.7-21.32 2.3 1.68z"/><path id="i" d="M475.7 3912l-15.7-21.32 2.3-1.68 15.7 21.32z"/><path id="j" d="M491.32 3966L476 3911.76l2.68-.76 15.32 54.24z"/><path id="k" d="M493.68 3966l-2.68-.76 15.32-54.24 2.68.76z"/><path id="l" d="M506 3895h3v-9h-3z"/><path id="m" d="M504 3892h9v-3h-9z"/><path id="n" d="M491 3916h3v-9h-3z"/><path id="o" d="M489 3912h9v-3h-9z"/><path id="p" d="M462 3950h3v-9h-3z"/><path id="q" d="M459 3946h9v-3h-9z"/><path id="r" d="M518 3937h3v-9h-3z"/><path id="s" d="M515 3934h9v-3h-9z"/></defs><use fill="#ecf5f8" xlink:href="#a" transform="translate(-448 -3886)"/><use fill="#3eb4f0" xlink:href="#b" transform="translate(-448 -3886)"/><use fill="#3eb4f0" xlink:href="#c" transform="translate(-448 -3886)"/><use fill="#3eb4f0" xlink:href="#d" transform="translate(-448 -3886)"/><use fill="#3eb4f0" xlink:href="#e" transform="translate(-448 -3886)"/><use fill="#3eb4f0" xlink:href="#f" transform="translate(-448 -3886)"/><use fill="#3eb4f0" xlink:href="#g" transform="translate(-448 -3886)"/><use fill="#3eb4f0" xlink:href="#h" transform="translate(-448 -3886)"/><use fill="#3eb4f0" xlink:href="#i" transform="translate(-448 -3886)"/><use fill="#3eb4f0" xlink:href="#j" transform="translate(-448 -3886)"/><use fill="#3eb4f0" xlink:href="#k" transform="translate(-448 -3886)"/><use fill="#3eb4f0" xlink:href="#l" transform="translate(-448 -3886)"/><use fill="#3eb4f0" xlink:href="#m" transform="translate(-448 -3886)"/><use fill="#3eb4f0" xlink:href="#n" transform="translate(-448 -3886)"/><use fill="#3eb4f0" xlink:href="#o" transform="translate(-448 -3886)"/><use fill="#3eb4f0" xlink:href="#p" transform="translate(-448 -3886)"/><use fill="#3eb4f0" xlink:href="#q" transform="translate(-448 -3886)"/><use fill="#3eb4f0" xlink:href="#r" transform="translate(-448 -3886)"/><use fill="#3eb4f0" xlink:href="#s" transform="translate(-448 -3886)"/></svg>