<svg xmlns="http://www.w3.org/2000/svg" xmlns:xlink="http://www.w3.org/1999/xlink" width="90" height="90" viewBox="0 0 90 90"><defs><path id="a" d="M209 3945a28 28 0 1 1-56 0 28 28 0 0 1 56 0"/><path id="b" d="M209.9 3928l-2.01-2 8.94-8.94h21.9c.8 0 1.43-.64 1.43-1.42v-28.38c0-.78-.64-1.42-1.42-1.42h-45.48c-.78 0-1.42.64-1.42 1.42v12.77H189v-12.77a4.27 4.27 0 0 1 4.26-4.26h45.48a4.27 4.27 0 0 1 4.26 4.26v28.38a4.27 4.27 0 0 1-4.26 4.26H218z"/><path id="c" d="M209 3903h3v-3h-3z"/><path id="d" d="M215 3903h3v-3h-3z"/><path id="e" d="M220 3903h3v-3h-3z"/><path id="f" d="M161.84 3973H159v-10.06c0-11.52 6.31-13.95 13-16.52a51.5 51.5 0 0 0 7.6-3.42l1.4 2.5a54.55 54.55 0 0 1-8 3.6c-6.72 2.6-11.16 4.3-11.16 13.84z"/><path id="g" d="M224 3973h-2.84v-10.06c0-9.54-4.44-11.24-11.16-13.83a54.55 54.55 0 0 1-8-3.61l1.4-2.5a51.5 51.5 0 0 0 7.6 3.42c6.69 2.57 13 5 13 16.52z"/><path id="h" d="M185.68 3948.6l-4.08-4.06 1.66-2.49 7.74 1.29 7.74-1.29 1.66 2.49-4.08 4.06-5.32-2.65zm18.32-3.7l-3.94-5.9-9.06 1.5-9.06-1.5-3.94 5.9 7.13 7.1 5.87-2.93 5.87 2.93z"/><path id="i" d="M197 3941h3v-6h-3z"/><path id="j" d="M183 3941h3v-6h-3z"/><path id="k" d="M189 3961h3v-3h-3z"/><path id="l" d="M189 3956h3v-3h-3z"/><path id="m" d="M184.73 3934c-.45-.36-3.72-3.22-4.93-11.5v-5.5c0-7.74 3.46-11.2 11.2-11.2 7.75 0 11.2 3.46 11.2 11.2v5.5c-1.2 8.27-4.5 11.15-4.93 11.5-2.45 1.17-6.19 1.2-6.27 1.2-.08 0-3.82-.03-6.27-1.2zm6.27 4c.18 0 4.57-.02 7.63-1.55l.15-.09c.19-.12 4.73-3.26 6.2-13.56l.02-5.8c0-9.29-4.71-14-14-14s-14 4.71-14 14v5.6l.01.2c1.48 10.3 6.02 13.44 6.21 13.56l.15.1c3.07 1.52 7.45 1.54 7.63 1.54z"/><path id="n" d="M197.94 3922l-13.76-5.82-4.95 2.62-1.23-2.6 6.06-3.2 13.76 5.82 4.95-2.62 1.23 2.6z"/><path id="o" d="M170 3973h3v-9h-3z"/><path id="p" d="M209 3973h3v-9h-3z"/></defs><use fill="#ecf5f8" xlink:href="#a" transform="translate(-153 -3883)"/><use fill="#3eb4f0" xlink:href="#b" transform="translate(-153 -3883)"/><use fill="#3eb4f0" xlink:href="#c" transform="translate(-153 -3883)"/><use fill="#3eb4f0" xlink:href="#d" transform="translate(-153 -3883)"/><use fill="#3eb4f0" xlink:href="#e" transform="translate(-153 -3883)"/><use fill="#3eb4f0" xlink:href="#f" transform="translate(-153 -3883)"/><use fill="#3eb4f0" xlink:href="#g" transform="translate(-153 -3883)"/><use fill="#3eb4f0" xlink:href="#h" transform="translate(-153 -3883)"/><use fill="#3eb4f0" xlink:href="#i" transform="translate(-153 -3883)"/><use fill="#3eb4f0" xlink:href="#j" transform="translate(-153 -3883)"/><use fill="#3eb4f0" xlink:href="#k" transform="translate(-153 -3883)"/><use fill="#3eb4f0" xlink:href="#l" transform="translate(-153 -3883)"/><use fill="#3eb4f0" xlink:href="#m" transform="translate(-153 -3883)"/><use fill="#3eb4f0" xlink:href="#n" transform="translate(-153 -3883)"/><use fill="#3eb4f0" xlink:href="#o" transform="translate(-153 -3883)"/><use fill="#3eb4f0" xlink:href="#p" transform="translate(-153 -3883)"/></svg>