<svg id="Layer_1" xmlns="http://www.w3.org/2000/svg" xmlns:xlink="http://www.w3.org/1999/xlink" viewBox="0 0 90 90"><style>.st0{clip-path:url(#SVGID_2_)}.st1{clip-path:url(#SVGID_4_);fill:#00dee7}.st2{clip-path:url(#SVGID_6_)}.st3{clip-path:url(#SVGID_8_);fill:#00dee7}.st4{clip-path:url(#SVGID_10_)}.st5{clip-path:url(#SVGID_12_);fill:#00dee7}.st6{clip-path:url(#SVGID_14_)}.st7{clip-path:url(#SVGID_16_);fill:#00dee7}.st8{clip-path:url(#SVGID_18_)}.st9{clip-path:url(#SVGID_20_);fill:#fff}.st10{clip-path:url(#SVGID_22_)}.st11{clip-path:url(#SVGID_24_);fill:#fff}.st12{clip-path:url(#SVGID_26_)}.st13{clip-path:url(#SVGID_28_);enable-background:new}.st14{clip-path:url(#SVGID_30_)}.st15{clip-path:url(#SVGID_32_)}.st16{clip-path:url(#SVGID_34_);fill:#fff}.st17{clip-path:url(#SVGID_36_)}.st18{clip-path:url(#SVGID_38_);enable-background:new}.st19{clip-path:url(#SVGID_40_)}.st20{clip-path:url(#SVGID_42_)}.st21{clip-path:url(#SVGID_44_);fill:#fff}.st22{clip-path:url(#SVGID_46_)}.st23{clip-path:url(#SVGID_48_);fill:#fff}.st24{clip-path:url(#SVGID_50_)}.st25{clip-path:url(#SVGID_52_);fill:#fff}.st26{clip-path:url(#SVGID_54_)}.st27{clip-path:url(#SVGID_56_);enable-background:new}.st28{clip-path:url(#SVGID_58_)}.st29{clip-path:url(#SVGID_60_)}.st30{clip-path:url(#SVGID_62_);fill:#fff}.st31{clip-path:url(#SVGID_64_)}.st32{clip-path:url(#SVGID_66_);fill:#00dee7}.st33,.st34{fill-rule:evenodd;clip-rule:evenodd;fill:#edf5f8}.st34{fill:#3fb4f1}.st35,.st36{fill:none}.st36{fill-rule:evenodd;clip-rule:evenodd}</style><defs><path id="SVGID_63_" d="M986.5-250c-1-2.3-.4-5 1.4-6.7l.7-.7c.8-.8 2.1-.8 2.9 0l1.3 1.3c.8.8.8 2.1 0 2.9l-.4.4c-1 1-1.4 2.5-1 3.8 1 3.2 3.5 4.7 5.5 5.4 1.3.5 2.8.2 3.9-.8l.4-.4c.8-.8 2.1-.8 2.9 0l1.3 1.3c.8.8.8 2.1 0 2.9l-.7.7a6.15 6.15 0 0 1-6.8 1.3c-2.2-1-4.7-2.8-6.9-5-2-2-3.6-4.3-4.5-6.4"/></defs><clipPath id="SVGID_2_"><use xlink:href="#SVGID_63_" overflow="visible"/></clipPath><g class="st0"><defs><path id="SVGID_65_" d="M-22-305h1280v5100H-22z"/></defs><clipPath id="SVGID_4_"><use xlink:href="#SVGID_65_" overflow="visible"/></clipPath></g><path class="st33" d="M56 62c0 15.5-12.5 28-28 28S0 77.5 0 62s12.5-28 28-28 28 12.5 28 28"/><path class="st34" d="M85.7 0H40.3C37.9 0 36 1.9 36 4.3V17h2.8V4.3c0-.8.6-1.4 1.4-1.4h45.5c.8 0 1.4.6 1.4 1.4v28.4c0 .8-.6 1.4-1.4 1.4H63.8L54.9 43l2 2 8.1-8.1h20.7c2.4 0 4.3-1.9 4.3-4.3V4.3C90 1.9 88.1 0 85.7 0z"/><path class="st34" d="M56 17h3v3h-3zM62 17h3v3h-3zM67 17h3v3h-3zM58 63.4c-2.5-1-5-1.9-7.6-3.4l-.3.5-3-4.5H47v-3.8c1.5-1.7 4-5.4 5-12.4V34c0-9.3-4.7-14-14-14s-14 4.7-14 14v5.8c1.3 9.1 5 12.6 6 13.4v3l-1.1-.2-2.9 4.3c-2.4 1.3-4.8 2.3-7.1 3.1-6.7 2.6-13 5-13 16.5V90h2.8V79.9c0-9.5 4.4-11.2 11.2-13.8 2-.8 4.2-1.6 6.4-2.8L32 69l5.9-2.9 5.9 2.9 6-6c2.5 1.3 4.9 2.3 7.1 3.1 6.7 2.6 11.2 4.3 11.2 13.8V90H71V79.9c0-11.5-6.3-13.9-13-16.5zM38 22.8c7.6 0 11 3.3 11.2 10.7l-4.4 2.3L31.1 30l-4.2 2.2c.5-6.5 4-9.4 11.1-9.4zM26.8 39.5v-4l4.4-2.3L44.9 39l4.3-2.2v2.7C48 47.8 44.7 50.6 44.3 51c-2.5 1.2-6.2 1.2-6.3 1.2-.1 0-3.8 0-6.3-1.2-.4-.4-3.7-3.2-4.9-11.5zM33 54.4c2.5.6 4.9.6 5 .6.2 0 3.2 0 6-.9v2.4l-6 1-5-.8v-2.3zm10.3 11.2L38 62.9l-5.3 2.7-4.1-4.1 1.7-2.5 7.7 1.3 7.7-1.3 1.7 2.5-4.1 4.1z"/><path class="st34" d="M36 75h3v3h-3zM36 70h3v3h-3zM17 81h3v9h-3zM56 81h3v9h-3z"/><path class="st35" d="M-561-4028H719v5100H-561z"/><path class="st35" d="M-561-4028H719v5100H-561z"/><path class="st35" d="M-561-4028H719v5100H-561z"/><path class="st35" d="M-561-4028H719v5100H-561z"/><path class="st35" d="M-561-4028H719v5100H-561z"/><path class="st35" d="M-561-4028H719v5100H-561z"/><path class="st35" d="M-561-4028H719v5100H-561z"/><path class="st35" d="M-561-4028H719v5100H-561z"/><path class="st35" d="M-561-4028H719v5100H-561z"/><path class="st35" d="M-561-4028H719v5100H-561z"/><path class="st35" d="M-561-4028H719v5100H-561z"/><path class="st35" d="M-561-4028H719v5100H-561z"/><path class="st35" d="M-561-4028H719v5100H-561z"/><path class="st35" d="M-561-4028H719v5100H-561z"/><path class="st35" d="M-561-4028H719v5100H-561z"/><path class="st35" d="M-561-4028H719v5100H-561z"/><path class="st35" d="M-561-4028H719v5100H-561z"/><path class="st35" d="M-561-4028H719v5100H-561z"/><g><defs><path id="SVGID_67_" d="M-869-3892H411v5100H-869z"/></defs><clipPath id="SVGID_6_"><use xlink:href="#SVGID_67_" overflow="visible"/></clipPath></g><g><defs><path id="SVGID_69_" d="M-869-3892H411v5100H-869z"/></defs><clipPath id="SVGID_8_"><use xlink:href="#SVGID_69_" overflow="visible"/></clipPath></g><g><defs><path id="SVGID_71_" d="M-869-3892H411v5100H-869z"/></defs><clipPath id="SVGID_10_"><use xlink:href="#SVGID_71_" overflow="visible"/></clipPath></g><g><defs><path id="SVGID_73_" d="M-869-3892H411v5100H-869z"/></defs><clipPath id="SVGID_12_"><use xlink:href="#SVGID_73_" overflow="visible"/></clipPath></g><g><defs><path id="SVGID_75_" d="M-869-3892H411v5100H-869z"/></defs><clipPath id="SVGID_14_"><use xlink:href="#SVGID_75_" overflow="visible"/></clipPath></g><g><defs><path id="SVGID_77_" d="M-869-3892H411v5100H-869z"/></defs><clipPath id="SVGID_16_"><use xlink:href="#SVGID_77_" overflow="visible"/></clipPath></g><g><defs><path id="SVGID_79_" d="M-869-3892H411v5100H-869z"/></defs><clipPath id="SVGID_18_"><use xlink:href="#SVGID_79_" overflow="visible"/></clipPath></g></svg>