<svg xmlns="http://www.w3.org/2000/svg" xmlns:xlink="http://www.w3.org/1999/xlink" width="40" height="34" viewBox="0 0 40 34"><defs><path id="idn3b" d="M52.37 306.25c3.08-.04 5.58-2.77 5.58-6.12 0-3.38-2.53-6.13-5.64-6.13-3.1 0-5.63 2.75-5.63 6.13h2.82c0-1.7 1.26-3.07 2.81-3.07 1.56 0 2.82 1.38 2.82 3.07s-1.26 3.06-2.82 3.06H28.07v3.06z"/><path id="idn3c" d="M42.4 315.62H28.07v3.06H42.4c1.55 0 2.82 1.38 2.82 3.07s-1.27 3.06-2.82 3.06c-1.55 0-2.82-1.37-2.82-3.06h-2.82c0 3.37 2.53 6.12 5.64 6.12 3.1 0 5.63-2.75 5.63-6.12 0-3.38-2.52-6.13-5.63-6.13"/><path id="idn3a" d="M28 321.54v-12.27h39.88v12.27z"/><path id="idn3e" d="M62.24 309.28L28 309.27v3.06l34.24.02v-1.53 1.53c1.56 0 2.82 1.37 2.82 3.06s-1.26 3.06-2.82 3.06c-1.55 0-2.81-1.37-2.81-3.06H56.6c0 3.38 2.53 6.13 5.63 6.13 3.11 0 5.64-2.75 5.64-6.13s-2.53-6.13-5.64-6.13"/><clipPath id="idn3d"><use xlink:href="#idn3a"/></clipPath></defs><g><g transform="translate(-28 -294)"><g><use fill="currentColor" xlink:href="#idn3b"/></g><g><use fill="currentColor" xlink:href="#idn3c"/></g><g><g/><g clip-path="url(#idn3d)"><use fill="currentColor" xlink:href="#idn3e"/></g></g></g></g></svg>
