<svg xmlns="http://www.w3.org/2000/svg" xmlns:xlink="http://www.w3.org/1999/xlink" width="40" height="34" viewBox="0 0 40 34"><defs><path id="qq4ta" d="M65 228.72c-2.52 0-3.84-1.22-4.9-2.2-.94-.85-1.62-1.47-3.1-1.47-1.49 0-2.16.62-3.1 1.48-1.06.97-2.39 2.19-4.9 2.19-2.52 0-3.84-1.22-4.91-2.2-.93-.85-1.6-1.47-3.1-1.47-1.48 0-2.15.62-3.08 1.48-1.07.97-2.4 2.19-4.91 2.19-2.52 0-3.84-1.22-4.9-2.2-.94-.85-1.62-1.47-3.1-1.47V222c2.52 0 3.84 1.22 4.9 2.2.94.85 1.61 1.46 3.1 1.46 1.48 0 2.16-.61 3.09-1.47 1.07-.97 2.4-2.19 4.9-2.19 2.52 0 3.85 1.22 4.92 2.2.93.85 1.6 1.46 3.09 1.46 1.48 0 2.16-.61 3.09-1.47 1.07-.97 2.4-2.19 4.9-2.19 2.52 0 3.85 1.22 4.92 2.2.93.85 1.6 1.46 3.09 1.46z"/><path id="qq4tb" d="M65 237.74c-2.52 0-3.84-1.22-4.9-2.2-.94-.85-1.62-1.47-3.1-1.47-1.49 0-2.16.62-3.1 1.48-1.06.97-2.39 2.19-4.9 2.19-2.52 0-3.84-1.22-4.91-2.2-.93-.85-1.6-1.47-3.1-1.47-1.48 0-2.15.62-3.08 1.48-1.07.97-2.4 2.19-4.91 2.19-2.52 0-3.84-1.22-4.9-2.2-.94-.85-1.62-1.47-3.1-1.47v-3.05c2.52 0 3.84 1.22 4.9 2.2.94.85 1.61 1.46 3.1 1.46 1.48 0 2.16-.61 3.09-1.47 1.07-.97 2.4-2.19 4.9-2.19 2.52 0 3.85 1.22 4.92 2.2.93.85 1.6 1.46 3.09 1.46 1.48 0 2.16-.61 3.09-1.47 1.07-.97 2.4-2.19 4.9-2.19 2.52 0 3.85 1.22 4.92 2.2.93.85 1.6 1.46 3.09 1.46z"/><path id="qq4tc" d="M65 246.74c-2.52 0-3.84-1.22-4.9-2.2-.94-.85-1.62-1.47-3.1-1.47-1.49 0-2.16.62-3.1 1.48-1.06.97-2.39 2.19-4.9 2.19-2.52 0-3.84-1.22-4.91-2.2-.93-.85-1.6-1.47-3.1-1.47-1.48 0-2.15.62-3.08 1.48-1.07.97-2.4 2.19-4.91 2.19-2.52 0-3.84-1.22-4.9-2.2-.94-.85-1.62-1.47-3.1-1.47v-3.05c2.52 0 3.84 1.22 4.9 2.2.94.85 1.61 1.46 3.1 1.46 1.48 0 2.16-.61 3.09-1.47 1.07-.97 2.4-2.19 4.9-2.19 2.52 0 3.85 1.22 4.92 2.2.93.85 1.6 1.46 3.09 1.46 1.48 0 2.16-.61 3.09-1.47 1.07-.97 2.4-2.19 4.9-2.19 2.52 0 3.85 1.22 4.92 2.2.93.85 1.6 1.46 3.09 1.46z"/><path id="qq4td" d="M65 255.99c-2.52 0-3.84-1.22-4.9-2.2-.94-.85-1.62-1.47-3.1-1.47-1.49 0-2.16.62-3.1 1.48-1.06.97-2.39 2.19-4.9 2.19-2.52 0-3.84-1.22-4.91-2.2-.93-.85-1.6-1.47-3.1-1.47-1.48 0-2.15.62-3.08 1.48-1.07.97-2.4 2.19-4.91 2.19-2.52 0-3.84-1.22-4.9-2.2-.94-.85-1.62-1.47-3.1-1.47v-3.05c2.52 0 3.84 1.22 4.9 2.2.94.85 1.61 1.46 3.1 1.46 1.48 0 2.16-.61 3.09-1.47 1.07-.97 2.4-2.19 4.9-2.19 2.52 0 3.85 1.22 4.92 2.2.93.85 1.6 1.46 3.09 1.46 1.48 0 2.16-.61 3.09-1.47 1.07-.97 2.4-2.19 4.9-2.19 2.52 0 3.85 1.22 4.92 2.2.93.85 1.6 1.46 3.09 1.46z"/></defs><g><g transform="translate(-25 -222)"><g><use fill="currentColor" xlink:href="#qq4ta"/></g><g><use fill="currentColor" xlink:href="#qq4tb"/></g><g><use fill="currentColor" xlink:href="#qq4tc"/></g><g><use fill="currentColor" xlink:href="#qq4td"/></g></g></g></svg>
