<svg xmlns="http://www.w3.org/2000/svg" xmlns:xlink="http://www.w3.org/1999/xlink" width="40" height="35" viewBox="0 0 40 35"><defs><path id="myyra" d="M28 375.69v17.21h8.11v-34.43H28z"/><path id="myyrd" d="M30.8 369.38c0-.77.56-1.4 1.26-1.4.69 0 1.25.63 1.25 1.4 0 .77-.56 1.4-1.25 1.4-.7 0-1.26-.63-1.26-1.4zm2.65-10.91h-2.8v6.7a4.5 4.5 0 0 0-2.65 4.21 4.5 4.5 0 0 0 2.66 4.21v19.31h2.8V373.6a4.5 4.5 0 0 0 2.65-4.21 4.5 4.5 0 0 0-2.66-4.21z"/><path id="myyre" d="M41.38 381.3c0-.77.56-1.39 1.26-1.39.69 0 1.25.62 1.25 1.4 0 .76-.56 1.39-1.25 1.39-.7 0-1.26-.63-1.26-1.4zm2.65-22.85h-2.8v18.64a4.5 4.5 0 0 0-2.65 4.21 4.5 4.5 0 0 0 2.66 4.21v7.26h2.8v-7.26a4.5 4.5 0 0 0 2.65-4.2 4.5 4.5 0 0 0-2.66-4.22z"/><path id="myyrf" d="M52.43 371.3a1.43 1.43 0 0 1-.47-.94c-.08-.76.41-1.45 1.1-1.54l.15-.01c.63 0 1.17.52 1.25 1.23.08.76-.42 1.46-1.1 1.55-.34.04-.67-.06-.93-.3zm4.8-1.62a4.43 4.43 0 0 0-2.63-3.69v-7.54h-2.8v7.54a4.55 4.55 0 0 0-2.62 4.74 4.6 4.6 0 0 0 1.51 3c.34.3.72.53 1.12.69v18.35h2.8V374.4c.7-.28 1.3-.76 1.78-1.42a4.8 4.8 0 0 0 .84-3.31z"/><path id="myyrb" d="M59.73 358.31h8.11v34.6h-8.11v-34.6z"/><path id="myyrh" d="M62.54 386.1c-.08-.77.41-1.46 1.1-1.55l.15-.01c.63 0 1.17.52 1.25 1.23.08.76-.42 1.46-1.1 1.55-.7.09-1.32-.46-1.4-1.22zm3.76-3.69c-.34-.3-.72-.53-1.12-.7v-23.4h-2.8v23.41a4.55 4.55 0 0 0-2.62 4.74 4.43 4.43 0 0 0 2.63 3.69v2.76h2.8v-2.77a4.55 4.55 0 0 0 2.62-4.73 4.6 4.6 0 0 0-1.5-3z"/><clipPath id="myyrc"><use xlink:href="#myyra"/></clipPath><clipPath id="myyrg"><use xlink:href="#myyrb"/></clipPath></defs><g><g transform="translate(-28 -358)"><g><g/><g clip-path="url(#myyrc)"><use fill="currentColor" xlink:href="#myyrd"/></g></g><g><use fill="currentColor" xlink:href="#myyre"/></g><g><use fill="currentColor" xlink:href="#myyrf"/></g><g><g/><g clip-path="url(#myyrg)"><use fill="currentColor" xlink:href="#myyrh"/></g></g></g></g></svg>
