<svg xmlns="http://www.w3.org/2000/svg" xmlns:xlink="http://www.w3.org/1999/xlink"><defs><path id="SVGID_1_" d="M-77 4631h1280V-469H-77"/><path id="SVGID_3_" d="M-77 4631h1280V-469H-77"/><path id="SVGID_5_" d="M-77 4631h1280V-469H-77"/><path id="SVGID_8_" d="M-77 4631h1280l57-5048"/><path id="SVGID_63_" d="M986.5-250c-1-2.3-.4-5 1.4-6.7l.7-.7c.8-.8 2.1-.8 2.9 0l1.3 1.3c.8.8.8 2.1 0 2.9l-.4.4c-1 1-1.4 2.5-1 3.8 1 3.2 3.5 4.7 5.5 5.4 1.3.5 2.8.2 3.9-.8l.4-.4c.8-.8 2.1-.8 2.9 0l1.3 1.3c.8.8.8 2.1 0 2.9l-.7.7a6.15 6.15 0 0 1-6.8 1.3c-2.2-1-4.7-2.8-6.9-5-2-2-3.6-4.3-4.5-6.4"/><path id="SVGID_65_" d="M-22-305h1280v5100H-22z"/><path id="SVGID_67_" d="M-869-3892H411v5100H-869z"/><path id="SVGID_69_" d="M-869-3892H411v5100H-869z"/><path id="SVGID_71_" d="M-869-3892H411v5100H-869z"/><path id="SVGID_73_" d="M-869-3892H411v5100H-869z"/><path id="SVGID_75_" d="M-869-3892H411v5100H-869z"/><path id="SVGID_77_" d="M-869-3892H411v5100H-869z"/><path id="SVGID_79_" d="M-869-3892H411v5100H-869z"/><path id="SVGID_63_" d="M991.5-108c-1-2.3-.4-5 1.4-6.7l.7-.7c.8-.8 2.1-.8 2.9 0l1.3 1.3c.8.8.8 2.1 0 2.9l-.4.4c-1 1-1.4 2.5-1 3.8 1 3.2 3.5 4.7 5.5 5.4 1.3.5 2.8.2 3.9-.8l.4-.4c.8-.8 2.1-.8 2.9 0l1.3 1.3c.8.8.8 2.1 0 2.9l-.7.7a6.15 6.15 0 0 1-6.8 1.3c-2.2-1-4.7-2.8-6.9-5-2-2-3.6-4.3-4.5-6.4"/><path id="SVGID_65_" d="M-17-163h1280v5100H-17z"/><path id="SVGID_67_" d="M-864-3750H416v5100H-864z"/><path id="SVGID_69_" d="M-864-3750H416v5100H-864z"/><path id="SVGID_71_" d="M-864-3750H416v5100H-864z"/><path id="SVGID_73_" d="M-864-3750H416v5100H-864z"/><path id="SVGID_75_" d="M-864-3750H416v5100H-864z"/><path id="SVGID_77_" d="M-864-3750H416v5100H-864z"/><path id="SVGID_79_" d="M-864-3750H416v5100H-864z"/><path id="SVGID_63_" d="M800.5-105c-1-2.3-.4-5 1.4-6.7l.7-.7c.8-.8 2.1-.8 2.9 0l1.3 1.3c.8.8.8 2.1 0 2.9l-.4.4c-1 1-1.4 2.5-1 3.8 1 3.2 3.5 4.7 5.5 5.4 1.3.5 2.8.2 3.9-.8l.4-.4c.8-.8 2.1-.8 2.9 0l1.3 1.3c.8.8.8 2.1 0 2.9l-.7.7a6.15 6.15 0 0 1-6.8 1.3c-2.2-1-4.7-2.8-6.9-5-2-2-3.6-4.3-4.5-6.4"/><path id="SVGID_65_" d="M-208-160h1280v5100H-208z"/><path id="SVGID_67_" d="M-1055-3747H225v5100h-1280z"/><path id="SVGID_69_" d="M-1055-3747H225v5100h-1280z"/><path id="SVGID_71_" d="M-1055-3747H225v5100h-1280z"/><path id="SVGID_73_" d="M-1055-3747H225v5100h-1280z"/><path id="SVGID_75_" d="M-1055-3747H225v5100h-1280z"/><path id="SVGID_77_" d="M-1055-3747H225v5100h-1280z"/><path id="SVGID_79_" d="M-1055-3747H225v5100h-1280z"/><path id="SVGID_63_" d="M817.5-250c-1-2.3-.4-5 1.4-6.7l.7-.7c.8-.8 2.1-.8 2.9 0l1.3 1.3c.8.8.8 2.1 0 2.9l-.4.4c-1 1-1.4 2.5-1 3.8 1 3.2 3.5 4.7 5.5 5.4 1.3.5 2.8.2 3.9-.8l.4-.4c.8-.8 2.1-.8 2.9 0l1.3 1.3c.8.8.8 2.1 0 2.9l-.7.7a6.15 6.15 0 0 1-6.8 1.3c-2.2-1-4.7-2.8-6.9-5-2-2-3.6-4.3-4.5-6.4"/><path id="SVGID_65_" d="M-191-305h1280v5100H-191z"/><path id="SVGID_67_" d="M-1038-3892H242v5100h-1280z"/><path id="SVGID_69_" d="M-1038-3892H242v5100h-1280z"/><path id="SVGID_71_" d="M-1038-3892H242v5100h-1280z"/><path id="SVGID_73_" d="M-1038-3892H242v5100h-1280z"/><path id="SVGID_75_" d="M-1038-3892H242v5100h-1280z"/><path id="SVGID_77_" d="M-1038-3892H242v5100h-1280z"/><path id="SVGID_79_" d="M-1038-3892H242v5100h-1280z"/><path id="a" d="M1127 3943c0 16.57-13.2 30-29.5 30s-29.5-13.43-29.5-30 13.2-30 29.5-30 29.5 13.43 29.5 30"/><path id="b" d="M1066.3 3920.65l10.08 10.1c.54.54 1.41.54 1.95 0l18.38-18.4 4.95 4.96-24.3 24.35-16.02-16.04zm11.05 24.35c.36 0 .71-.14.98-.4l26.26-26.31c.55-.54.55-1.42 0-1.96l-6.9-6.92a1.38 1.38 0 0 0-1.96 0l-18.38 18.4-10.08-10.1a1.38 1.38 0 0 0-1.95 0l-6.91 6.93a1.38 1.38 0 0 0 0 1.95l17.97 18c.27.27.62.41.97.41z"/><path id="c" d="M1046 3930h3v-3h-3z"/><path id="d" d="M1083 3885.81a42.24 42.24 0 0 1 42.19 42.19 42.24 42.24 0 0 1-42.19 42.19 42.24 42.24 0 0 1-42.19-42.19 42.24 42.24 0 0 1 42.19-42.19zm0 87.19c24.81 0 45-20.19 45-45s-20.19-45-45-45-45 20.19-45 45 20.19 45 45 45z"/><path id="e" d="M1081 3965h3v-3h-3z"/><path id="f" d="M1081 3895h3v-3h-3z"/><path id="g" d="M1116 3930h3v-3h-3z"/><path id="a" d="M65 228.72c-2.52 0-3.84-1.22-4.9-2.2-.94-.85-1.62-1.47-3.1-1.47-1.49 0-2.16.62-3.1 1.48-1.06.97-2.39 2.19-4.9 2.19-2.52 0-3.84-1.22-4.91-2.2-.93-.85-1.6-1.47-3.1-1.47-1.48 0-2.15.62-3.08 1.48-1.07.97-2.4 2.19-4.91 2.19-2.52 0-3.84-1.22-4.9-2.2-.94-.85-1.62-1.47-3.1-1.47V222c2.52 0 3.84 1.22 4.9 2.2.94.85 1.61 1.46 3.1 1.46 1.48 0 2.16-.61 3.09-1.47 1.07-.97 2.4-2.19 4.9-2.19 2.52 0 3.85 1.22 4.92 2.2.93.85 1.6 1.46 3.09 1.46 1.48 0 2.16-.61 3.09-1.47 1.07-.97 2.4-2.19 4.9-2.19 2.52 0 3.85 1.22 4.92 2.2.93.85 1.6 1.46 3.09 1.46z"/><path id="b" d="M65 237.74c-2.52 0-3.84-1.22-4.9-2.2-.94-.85-1.62-1.47-3.1-1.47-1.49 0-2.16.62-3.1 1.48-1.06.97-2.39 2.19-4.9 2.19-2.52 0-3.84-1.22-4.91-2.2-.93-.85-1.6-1.47-3.1-1.47-1.48 0-2.15.62-3.08 1.48-1.07.97-2.4 2.19-4.91 2.19-2.52 0-3.84-1.22-4.9-2.2-.94-.85-1.62-1.47-3.1-1.47v-3.05c2.52 0 3.84 1.22 4.9 2.2.94.85 1.61 1.46 3.1 1.46 1.48 0 2.16-.61 3.09-1.47 1.07-.97 2.4-2.19 4.9-2.19 2.52 0 3.85 1.22 4.92 2.2.93.85 1.6 1.46 3.09 1.46 1.48 0 2.16-.61 3.09-1.47 1.07-.97 2.4-2.19 4.9-2.19 2.52 0 3.85 1.22 4.92 2.2.93.85 1.6 1.46 3.09 1.46z"/><path id="c" d="M65 246.74c-2.52 0-3.84-1.22-4.9-2.2-.94-.85-1.62-1.47-3.1-1.47-1.49 0-2.16.62-3.1 1.48-1.06.97-2.39 2.19-4.9 2.19-2.52 0-3.84-1.22-4.91-2.2-.93-.85-1.6-1.47-3.1-1.47-1.48 0-2.15.62-3.08 1.48-1.07.97-2.4 2.19-4.91 2.19-2.52 0-3.84-1.22-4.9-2.2-.94-.85-1.62-1.47-3.1-1.47v-3.05c2.52 0 3.84 1.22 4.9 2.2.94.85 1.61 1.46 3.1 1.46 1.48 0 2.16-.61 3.09-1.47 1.07-.97 2.4-2.19 4.9-2.19 2.52 0 3.85 1.22 4.92 2.2.93.85 1.6 1.46 3.09 1.46 1.48 0 2.16-.61 3.09-1.47 1.07-.97 2.4-2.19 4.9-2.19 2.52 0 3.85 1.22 4.92 2.2.93.85 1.6 1.46 3.09 1.46z"/><path id="d" d="M65 255.99c-2.52 0-3.84-1.22-4.9-2.2-.94-.85-1.62-1.47-3.1-1.47-1.49 0-2.16.62-3.1 1.48-1.06.97-2.39 2.19-4.9 2.19-2.52 0-3.84-1.22-4.91-2.2-.93-.85-1.6-1.47-3.1-1.47-1.48 0-2.15.62-3.08 1.48-1.07.97-2.4 2.19-4.91 2.19-2.52 0-3.84-1.22-4.9-2.2-.94-.85-1.62-1.47-3.1-1.47v-3.05c2.52 0 3.84 1.22 4.9 2.2.94.85 1.61 1.46 3.1 1.46 1.48 0 2.16-.61 3.09-1.47 1.07-.97 2.4-2.19 4.9-2.19 2.52 0 3.85 1.22 4.92 2.2.93.85 1.6 1.46 3.09 1.46 1.48 0 2.16-.61 3.09-1.47 1.07-.97 2.4-2.19 4.9-2.19 2.52 0 3.85 1.22 4.92 2.2.93.85 1.6 1.46 3.09 1.46z"/><path id="b" d="M52.37 306.25c3.08-.04 5.58-2.77 5.58-6.12 0-3.38-2.53-6.13-5.64-6.13-3.1 0-5.63 2.75-5.63 6.13h2.82c0-1.7 1.26-3.07 2.81-3.07 1.56 0 2.82 1.38 2.82 3.07s-1.26 3.06-2.82 3.06H28.07v3.06z"/><path id="c" d="M42.4 315.62H28.07v3.06H42.4c1.55 0 2.82 1.38 2.82 3.07s-1.27 3.06-2.82 3.06c-1.55 0-2.82-1.37-2.82-3.06h-2.82c0 3.37 2.53 6.12 5.64 6.12 3.1 0 5.63-2.75 5.63-6.12 0-3.38-2.52-6.13-5.63-6.13"/><path id="a" d="M28 321.54v-12.27h39.88v12.27z"/><path id="e" d="M62.24 309.28L28 309.27v3.06l34.24.02v-1.53 1.53c1.56 0 2.82 1.37 2.82 3.06s-1.26 3.06-2.82 3.06c-1.55 0-2.81-1.37-2.81-3.06H56.6c0 3.38 2.53 6.13 5.63 6.13 3.11 0 5.64-2.75 5.64-6.13s-2.53-6.13-5.64-6.13"/><clipPath id="d"><use xlink:href="#a"/></clipPath><path id="a" d="M28 375.69v17.21h8.11v-34.43H28z"/><path id="d" d="M30.8 369.38c0-.77.56-1.4 1.26-1.4.69 0 1.25.63 1.25 1.4 0 .77-.56 1.4-1.25 1.4-.7 0-1.26-.63-1.26-1.4zm2.65-10.91h-2.8v6.7a4.5 4.5 0 0 0-2.65 4.21 4.5 4.5 0 0 0 2.66 4.21v19.31h2.8v-19.3a4.5 4.5 0 0 0 2.65-4.21 4.5 4.5 0 0 0-2.66-4.21z"/><path id="e" d="M41.38 381.3c0-.77.56-1.39 1.26-1.39.69 0 1.25.62 1.25 1.4 0 .76-.56 1.39-1.25 1.39-.7 0-1.26-.63-1.26-1.4zm2.65-22.85h-2.8v18.64a4.5 4.5 0 0 0-2.65 4.21 4.5 4.5 0 0 0 2.66 4.21v7.26h2.8v-7.26a4.5 4.5 0 0 0 2.65-4.2 4.5 4.5 0 0 0-2.66-4.22z"/><path id="f" d="M52.43 371.3a1.43 1.43 0 0 1-.47-.94c-.08-.76.41-1.45 1.1-1.54l.15-.01c.63 0 1.17.52 1.25 1.23.08.76-.42 1.46-1.1 1.55-.34.04-.67-.06-.93-.3zm4.8-1.62a4.43 4.43 0 0 0-2.63-3.69v-7.54h-2.8v7.54a4.55 4.55 0 0 0-2.62 4.74 4.6 4.6 0 0 0 1.51 3c.34.3.72.53 1.12.69v18.35h2.8V374.4c.7-.28 1.3-.76 1.78-1.42a4.8 4.8 0 0 0 .84-3.31z"/><path id="b" d="M59.73 358.31h8.11v34.6h-8.11v-34.6z"/><path id="h" d="M62.54 386.1c-.08-.77.41-1.46 1.1-1.55l.15-.01c.63 0 1.17.52 1.25 1.23.08.76-.42 1.46-1.1 1.55-.7.09-1.32-.46-1.4-1.22zm3.76-3.69c-.34-.3-.72-.53-1.12-.7v-23.4h-2.8v23.41a4.55 4.55 0 0 0-2.62 4.74 4.43 4.43 0 0 0 2.63 3.69v2.76h2.8v-2.77a4.55 4.55 0 0 0 2.62-4.73 4.6 4.6 0 0 0-1.5-3z"/><clipPath id="c"><use xlink:href="#a"/></clipPath><clipPath id="g"><use xlink:href="#b"/></clipPath><path id="SVGID_1_" d="M-77 4631h1280V-469H-77"/><path id="SVGID_3_" d="M-77 4631h1280V-469H-77"/><path id="SVGID_5_" d="M-77 4631h1280V-469H-77"/><path id="SVGID_8_" d="M-77 4631h1280l57-5048"/><path id="SVGID_63_" d="M986.5-250c-1-2.3-.4-5 1.4-6.7l.7-.7c.8-.8 2.1-.8 2.9 0l1.3 1.3c.8.8.8 2.1 0 2.9l-.4.4c-1 1-1.4 2.5-1 3.8 1 3.2 3.5 4.7 5.5 5.4 1.3.5 2.8.2 3.9-.8l.4-.4c.8-.8 2.1-.8 2.9 0l1.3 1.3c.8.8.8 2.1 0 2.9l-.7.7a6.15 6.15 0 0 1-6.8 1.3c-2.2-1-4.7-2.8-6.9-5-2-2-3.6-4.3-4.5-6.4"/><path id="SVGID_65_" d="M-22-305h1280v5100H-22z"/><path id="SVGID_67_" d="M-869-3892H411v5100H-869z"/><path id="SVGID_69_" d="M-869-3892H411v5100H-869z"/><path id="SVGID_71_" d="M-869-3892H411v5100H-869z"/><path id="SVGID_73_" d="M-869-3892H411v5100H-869z"/><path id="SVGID_75_" d="M-869-3892H411v5100H-869z"/><path id="SVGID_77_" d="M-869-3892H411v5100H-869z"/><path id="SVGID_79_" d="M-869-3892H411v5100H-869z"/><path id="t7i6a" d="M1127 3943c0 16.57-13.2 30-29.5 30s-29.5-13.43-29.5-30 13.2-30 29.5-30 29.5 13.43 29.5 30"/><path id="t7i6b" d="M1066.3 3920.65l10.08 10.1c.54.54 1.41.54 1.95 0l18.38-18.4 4.95 4.96-24.3 24.35-16.02-16.04zm11.05 24.35c.36 0 .71-.14.98-.4l26.26-26.31c.55-.54.55-1.42 0-1.96l-6.9-6.92a1.38 1.38 0 0 0-1.96 0l-18.38 18.4-10.08-10.1a1.38 1.38 0 0 0-1.95 0l-6.91 6.93a1.38 1.38 0 0 0 0 1.95l17.97 18c.27.27.62.41.97.41z"/><path id="t7i6c" d="M1046 3930h3v-3h-3z"/><path id="t7i6d" d="M1083 3885.81a42.24 42.24 0 0 1 42.19 42.19 42.24 42.24 0 0 1-42.19 42.19 42.24 42.24 0 0 1-42.19-42.19 42.24 42.24 0 0 1 42.19-42.19zm0 87.19c24.81 0 45-20.19 45-45s-20.19-45-45-45-45 20.19-45 45 20.19 45 45 45z"/><path id="t7i6e" d="M1081 3965h3v-3h-3z"/><path id="t7i6f" d="M1081 3895h3v-3h-3z"/><path id="t7i6g" d="M1116 3930h3v-3h-3z"/><path id="qq4ta" d="M65 228.72c-2.52 0-3.84-1.22-4.9-2.2-.94-.85-1.62-1.47-3.1-1.47-1.49 0-2.16.62-3.1 1.48-1.06.97-2.39 2.19-4.9 2.19-2.52 0-3.84-1.22-4.91-2.2-.93-.85-1.6-1.47-3.1-1.47-1.48 0-2.15.62-3.08 1.48-1.07.97-2.4 2.19-4.91 2.19-2.52 0-3.84-1.22-4.9-2.2-.94-.85-1.62-1.47-3.1-1.47V222c2.52 0 3.84 1.22 4.9 2.2.94.85 1.61 1.46 3.1 1.46 1.48 0 2.16-.61 3.09-1.47 1.07-.97 2.4-2.19 4.9-2.19 2.52 0 3.85 1.22 4.92 2.2.93.85 1.6 1.46 3.09 1.46 1.48 0 2.16-.61 3.09-1.47 1.07-.97 2.4-2.19 4.9-2.19 2.52 0 3.85 1.22 4.92 2.2.93.85 1.6 1.46 3.09 1.46z"/><path id="qq4tb" d="M65 237.74c-2.52 0-3.84-1.22-4.9-2.2-.94-.85-1.62-1.47-3.1-1.47-1.49 0-2.16.62-3.1 1.48-1.06.97-2.39 2.19-4.9 2.19-2.52 0-3.84-1.22-4.91-2.2-.93-.85-1.6-1.47-3.1-1.47-1.48 0-2.15.62-3.08 1.48-1.07.97-2.4 2.19-4.91 2.19-2.52 0-3.84-1.22-4.9-2.2-.94-.85-1.62-1.47-3.1-1.47v-3.05c2.52 0 3.84 1.22 4.9 2.2.94.85 1.61 1.46 3.1 1.46 1.48 0 2.16-.61 3.09-1.47 1.07-.97 2.4-2.19 4.9-2.19 2.52 0 3.85 1.22 4.92 2.2.93.85 1.6 1.46 3.09 1.46 1.48 0 2.16-.61 3.09-1.47 1.07-.97 2.4-2.19 4.9-2.19 2.52 0 3.85 1.22 4.92 2.2.93.85 1.6 1.46 3.09 1.46z"/><path id="qq4tc" d="M65 246.74c-2.52 0-3.84-1.22-4.9-2.2-.94-.85-1.62-1.47-3.1-1.47-1.49 0-2.16.62-3.1 1.48-1.06.97-2.39 2.19-4.9 2.19-2.52 0-3.84-1.22-4.91-2.2-.93-.85-1.6-1.47-3.1-1.47-1.48 0-2.15.62-3.08 1.48-1.07.97-2.4 2.19-4.91 2.19-2.52 0-3.84-1.22-4.9-2.2-.94-.85-1.62-1.47-3.1-1.47v-3.05c2.52 0 3.84 1.22 4.9 2.2.94.85 1.61 1.46 3.1 1.46 1.48 0 2.16-.61 3.09-1.47 1.07-.97 2.4-2.19 4.9-2.19 2.52 0 3.85 1.22 4.92 2.2.93.85 1.6 1.46 3.09 1.46 1.48 0 2.16-.61 3.09-1.47 1.07-.97 2.4-2.19 4.9-2.19 2.52 0 3.85 1.22 4.92 2.2.93.85 1.6 1.46 3.09 1.46z"/><path id="qq4td" d="M65 255.99c-2.52 0-3.84-1.22-4.9-2.2-.94-.85-1.62-1.47-3.1-1.47-1.49 0-2.16.62-3.1 1.48-1.06.97-2.39 2.19-4.9 2.19-2.52 0-3.84-1.22-4.91-2.2-.93-.85-1.6-1.47-3.1-1.47-1.48 0-2.15.62-3.08 1.48-1.07.97-2.4 2.19-4.91 2.19-2.52 0-3.84-1.22-4.9-2.2-.94-.85-1.62-1.47-3.1-1.47v-3.05c2.52 0 3.84 1.22 4.9 2.2.94.85 1.61 1.46 3.1 1.46 1.48 0 2.16-.61 3.09-1.47 1.07-.97 2.4-2.19 4.9-2.19 2.52 0 3.85 1.22 4.92 2.2.93.85 1.6 1.46 3.09 1.46 1.48 0 2.16-.61 3.09-1.47 1.07-.97 2.4-2.19 4.9-2.19 2.52 0 3.85 1.22 4.92 2.2.93.85 1.6 1.46 3.09 1.46z"/><path id="idn3b" d="M52.37 306.25c3.08-.04 5.58-2.77 5.58-6.12 0-3.38-2.53-6.13-5.64-6.13-3.1 0-5.63 2.75-5.63 6.13h2.82c0-1.7 1.26-3.07 2.81-3.07 1.56 0 2.82 1.38 2.82 3.07s-1.26 3.06-2.82 3.06H28.07v3.06z"/><path id="idn3c" d="M42.4 315.62H28.07v3.06H42.4c1.55 0 2.82 1.38 2.82 3.07s-1.27 3.06-2.82 3.06c-1.55 0-2.82-1.37-2.82-3.06h-2.82c0 3.37 2.53 6.12 5.64 6.12 3.1 0 5.63-2.75 5.63-6.12 0-3.38-2.52-6.13-5.63-6.13"/><path id="idn3a" d="M28 321.54v-12.27h39.88v12.27z"/><path id="idn3e" d="M62.24 309.28L28 309.27v3.06l34.24.02v-1.53 1.53c1.56 0 2.82 1.37 2.82 3.06s-1.26 3.06-2.82 3.06c-1.55 0-2.81-1.37-2.81-3.06H56.6c0 3.38 2.53 6.13 5.63 6.13 3.11 0 5.64-2.75 5.64-6.13s-2.53-6.13-5.64-6.13"/><clipPath id="idn3d"><use xlink:href="#idn3a"/></clipPath><path id="myyra" d="M28 375.69v17.21h8.11v-34.43H28z"/><path id="myyrd" d="M30.8 369.38c0-.77.56-1.4 1.26-1.4.69 0 1.25.63 1.25 1.4 0 .77-.56 1.4-1.25 1.4-.7 0-1.26-.63-1.26-1.4zm2.65-10.91h-2.8v6.7a4.5 4.5 0 0 0-2.65 4.21 4.5 4.5 0 0 0 2.66 4.21v19.31h2.8v-19.3a4.5 4.5 0 0 0 2.65-4.21 4.5 4.5 0 0 0-2.66-4.21z"/><path id="myyre" d="M41.38 381.3c0-.77.56-1.39 1.26-1.39.69 0 1.25.62 1.25 1.4 0 .76-.56 1.39-1.25 1.39-.7 0-1.26-.63-1.26-1.4zm2.65-22.85h-2.8v18.64a4.5 4.5 0 0 0-2.65 4.21 4.5 4.5 0 0 0 2.66 4.21v7.26h2.8v-7.26a4.5 4.5 0 0 0 2.65-4.2 4.5 4.5 0 0 0-2.66-4.22z"/><path id="myyrf" d="M52.43 371.3a1.43 1.43 0 0 1-.47-.94c-.08-.76.41-1.45 1.1-1.54l.15-.01c.63 0 1.17.52 1.25 1.23.08.76-.42 1.46-1.1 1.55-.34.04-.67-.06-.93-.3zm4.8-1.62a4.43 4.43 0 0 0-2.63-3.69v-7.54h-2.8v7.54a4.55 4.55 0 0 0-2.62 4.74 4.6 4.6 0 0 0 1.51 3c.34.3.72.53 1.12.69v18.35h2.8V374.4c.7-.28 1.3-.76 1.78-1.42a4.8 4.8 0 0 0 .84-3.31z"/><path id="myyrb" d="M59.73 358.31h8.11v34.6h-8.11v-34.6z"/><path id="myyrh" d="M62.54 386.1c-.08-.77.41-1.46 1.1-1.55l.15-.01c.63 0 1.17.52 1.25 1.23.08.76-.42 1.46-1.1 1.55-.7.09-1.32-.46-1.4-1.22zm3.76-3.69c-.34-.3-.72-.53-1.12-.7v-23.4h-2.8v23.41a4.55 4.55 0 0 0-2.62 4.74 4.43 4.43 0 0 0 2.63 3.69v2.76h2.8v-2.77a4.55 4.55 0 0 0 2.62-4.73 4.6 4.6 0 0 0-1.5-3z"/><clipPath id="myyrc"><use xlink:href="#myyra"/></clipPath><clipPath id="myyrg"><use xlink:href="#myyrb"/></clipPath><path id="wux5a" d="M1008.47 55c-.98-2.3-.38-5 1.42-6.74l.68-.65c.8-.81 2.12-.81 2.93 0l1.28 1.28c.8.81.8 2.13 0 2.94l-.42.42c-1 1-1.39 2.47-.98 3.82.95 3.2 3.53 4.7 5.48 5.4 1.33.47 2.82.17 3.88-.78l.45-.4c.8-.82 2.12-.82 2.93 0l1.27 1.27c.81.81.81 2.13 0 2.94l-.68.7a6.04 6.04 0 0 1-6.79 1.26 24.95 24.95 0 0 1-6.9-5.04 21.53 21.53 0 0 1-4.55-6.42"/><path id="a" d="M1008.47 55c-.98-2.3-.38-5 1.42-6.74l.68-.65c.8-.81 2.12-.81 2.93 0l1.28 1.28c.8.81.8 2.13 0 2.94l-.42.42c-1 1-1.39 2.47-.98 3.82.95 3.2 3.53 4.7 5.48 5.4 1.33.47 2.82.17 3.88-.78l.45-.4c.8-.82 2.12-.82 2.93 0l1.27 1.27c.81.81.81 2.13 0 2.94l-.68.7a6.04 6.04 0 0 1-6.79 1.26 24.95 24.95 0 0 1-6.9-5.04 21.53 21.53 0 0 1-4.55-6.42"/></defs><symbol id="2-09" viewBox="0 0 20 20"><style>.st0{fill:none}.st1{clip-path:url(#SVGID_9_)}.st2,.st3,.st4,.st5{fill-rule:evenodd;clip-rule:evenodd;fill:#fff}.st3,.st4,.st5{fill:#edf5f8}.st4,.st5{fill:#3fb4f1}.st5{fill:none}</style><path class="st0" d="M-77-469h1280v5100H-77z"/><path class="st0" d="M-77-469h1280v5100H-77z"/><path class="st0" d="M-77-469h1280v5100H-77z"/><path class="st0" d="M-77-469h1280v5100H-77z"/><clipPath id="SVGID_2_"><use xlink:href="#SVGID_1_" overflow="visible"/></clipPath><clipPath id="SVGID_4_"><use xlink:href="#SVGID_3_" overflow="visible"/></clipPath><clipPath id="SVGID_6_"><use xlink:href="#SVGID_5_" overflow="visible"/></clipPath><g><clipPath id="SVGID_9_"><use xlink:href="#SVGID_7_" overflow="visible"/></clipPath><clipPath id="SVGID_10_" class="st1"><use xlink:href="#SVGID_8_" overflow="visible"/></clipPath></g><path class="st2" d="M.5 8c-1-2.3-.4-5 1.4-6.7l.7-.7c.8-.8 2.1-.8 2.9 0l1.3 1.3c.8.8.8 2.1 0 2.9l-.4.4c-1 1-1.4 2.5-1 3.8 1 3.2 3.5 4.7 5.5 5.4 1.3.5 2.8.2 3.9-.8l.4-.4c.8-.8 2.1-.8 2.9 0l1.3 1.3c.8.8.8 2.1 0 2.9l-.7.7a6.15 6.15 0 0 1-6.8 1.3c-2.2-1-4.7-2.8-6.9-5-2-2-3.6-4.3-4.5-6.4"/></symbol><symbol id="advantages-1" viewBox="0 0 90 90"><style>.st0{clip-path:url(#SVGID_2_)}.st1{clip-path:url(#SVGID_4_);fill:#00dee7}.st2{clip-path:url(#SVGID_6_)}.st3{clip-path:url(#SVGID_8_);fill:#00dee7}.st4{clip-path:url(#SVGID_10_)}.st5{clip-path:url(#SVGID_12_);fill:#00dee7}.st6{clip-path:url(#SVGID_14_)}.st7{clip-path:url(#SVGID_16_);fill:#00dee7}.st8{clip-path:url(#SVGID_18_)}.st9{clip-path:url(#SVGID_20_);fill:#fff}.st10{clip-path:url(#SVGID_22_)}.st11{clip-path:url(#SVGID_24_);fill:#fff}.st12{clip-path:url(#SVGID_26_)}.st13{clip-path:url(#SVGID_28_);enable-background:new}.st14{clip-path:url(#SVGID_30_)}.st15{clip-path:url(#SVGID_32_)}.st16{clip-path:url(#SVGID_34_);fill:#fff}.st17{clip-path:url(#SVGID_36_)}.st18{clip-path:url(#SVGID_38_);enable-background:new}.st19{clip-path:url(#SVGID_40_)}.st20{clip-path:url(#SVGID_42_)}.st21{clip-path:url(#SVGID_44_);fill:#fff}.st22{clip-path:url(#SVGID_46_)}.st23{clip-path:url(#SVGID_48_);fill:#fff}.st24{clip-path:url(#SVGID_50_)}.st25{clip-path:url(#SVGID_52_);fill:#fff}.st26{clip-path:url(#SVGID_54_)}.st27{clip-path:url(#SVGID_56_);enable-background:new}.st28{clip-path:url(#SVGID_58_)}.st29{clip-path:url(#SVGID_60_)}.st30{clip-path:url(#SVGID_62_);fill:#fff}.st31{clip-path:url(#SVGID_64_)}.st32{clip-path:url(#SVGID_66_);fill:#00dee7}.st33,.st34{fill-rule:evenodd;clip-rule:evenodd;fill:#edf5f8}.st34{fill:#3fb4f1}.st35,.st36{fill:none}.st36{fill-rule:evenodd;clip-rule:evenodd}</style><clipPath id="SVGID_2_"><use xlink:href="#SVGID_63_" overflow="visible"/></clipPath><g class="st0"><clipPath id="SVGID_4_"><use xlink:href="#SVGID_65_" overflow="visible"/></clipPath></g><path class="st33" d="M56 62c0 15.5-12.5 28-28 28S0 77.5 0 62s12.5-28 28-28 28 12.5 28 28"/><path class="st34" d="M85.7 0H40.3C37.9 0 36 1.9 36 4.3V17h2.8V4.3c0-.8.6-1.4 1.4-1.4h45.5c.8 0 1.4.6 1.4 1.4v28.4c0 .8-.6 1.4-1.4 1.4H63.8L54.9 43l2 2 8.1-8.1h20.7c2.4 0 4.3-1.9 4.3-4.3V4.3C90 1.9 88.1 0 85.7 0z"/><path class="st34" d="M56 17h3v3h-3zM62 17h3v3h-3zM67 17h3v3h-3zM58 63.4c-2.5-1-5-1.9-7.6-3.4l-.3.5-3-4.5H47v-3.8c1.5-1.7 4-5.4 5-12.4V34c0-9.3-4.7-14-14-14s-14 4.7-14 14v5.8c1.3 9.1 5 12.6 6 13.4v3l-1.1-.2-2.9 4.3c-2.4 1.3-4.8 2.3-7.1 3.1-6.7 2.6-13 5-13 16.5V90h2.8V79.9c0-9.5 4.4-11.2 11.2-13.8 2-.8 4.2-1.6 6.4-2.8L32 69l5.9-2.9 5.9 2.9 6-6c2.5 1.3 4.9 2.3 7.1 3.1 6.7 2.6 11.2 4.3 11.2 13.8V90H71V79.9c0-11.5-6.3-13.9-13-16.5zM38 22.8c7.6 0 11 3.3 11.2 10.7l-4.4 2.3L31.1 30l-4.2 2.2c.5-6.5 4-9.4 11.1-9.4zM26.8 39.5v-4l4.4-2.3L44.9 39l4.3-2.2v2.7C48 47.8 44.7 50.6 44.3 51c-2.5 1.2-6.2 1.2-6.3 1.2-.1 0-3.8 0-6.3-1.2-.4-.4-3.7-3.2-4.9-11.5zM33 54.4c2.5.6 4.9.6 5 .6.2 0 3.2 0 6-.9v2.4l-6 1-5-.8v-2.3zm10.3 11.2L38 62.9l-5.3 2.7-4.1-4.1 1.7-2.5 7.7 1.3 7.7-1.3 1.7 2.5-4.1 4.1z"/><path class="st34" d="M36 75h3v3h-3zM36 70h3v3h-3zM17 81h3v9h-3zM56 81h3v9h-3z"/><path class="st35" d="M-561-4028H719v5100H-561z"/><path class="st35" d="M-561-4028H719v5100H-561z"/><path class="st35" d="M-561-4028H719v5100H-561z"/><path class="st35" d="M-561-4028H719v5100H-561z"/><path class="st35" d="M-561-4028H719v5100H-561z"/><path class="st35" d="M-561-4028H719v5100H-561z"/><path class="st35" d="M-561-4028H719v5100H-561z"/><path class="st35" d="M-561-4028H719v5100H-561z"/><path class="st35" d="M-561-4028H719v5100H-561z"/><path class="st35" d="M-561-4028H719v5100H-561z"/><path class="st35" d="M-561-4028H719v5100H-561z"/><path class="st35" d="M-561-4028H719v5100H-561z"/><path class="st35" d="M-561-4028H719v5100H-561z"/><path class="st35" d="M-561-4028H719v5100H-561z"/><path class="st35" d="M-561-4028H719v5100H-561z"/><path class="st35" d="M-561-4028H719v5100H-561z"/><path class="st35" d="M-561-4028H719v5100H-561z"/><path class="st35" d="M-561-4028H719v5100H-561z"/><g><clipPath id="SVGID_6_"><use xlink:href="#SVGID_67_" overflow="visible"/></clipPath></g><g><clipPath id="SVGID_8_"><use xlink:href="#SVGID_69_" overflow="visible"/></clipPath></g><g><clipPath id="SVGID_10_"><use xlink:href="#SVGID_71_" overflow="visible"/></clipPath></g><g><clipPath id="SVGID_12_"><use xlink:href="#SVGID_73_" overflow="visible"/></clipPath></g><g><clipPath id="SVGID_14_"><use xlink:href="#SVGID_75_" overflow="visible"/></clipPath></g><g><clipPath id="SVGID_16_"><use xlink:href="#SVGID_77_" overflow="visible"/></clipPath></g><g><clipPath id="SVGID_18_"><use xlink:href="#SVGID_79_" overflow="visible"/></clipPath></g></symbol><symbol id="advantages-2" viewBox="0 0 89 87"><style>.st0{clip-path:url(#SVGID_2_)}.st1{clip-path:url(#SVGID_4_);fill:#00dee7}.st2{clip-path:url(#SVGID_6_)}.st3{clip-path:url(#SVGID_8_);fill:#00dee7}.st4{clip-path:url(#SVGID_10_)}.st5{clip-path:url(#SVGID_12_);fill:#00dee7}.st6{clip-path:url(#SVGID_14_)}.st7{clip-path:url(#SVGID_16_);fill:#00dee7}.st8{clip-path:url(#SVGID_18_)}.st9{clip-path:url(#SVGID_20_);fill:#fff}.st10{clip-path:url(#SVGID_22_)}.st11{clip-path:url(#SVGID_24_);fill:#fff}.st12{clip-path:url(#SVGID_26_)}.st13{clip-path:url(#SVGID_28_);enable-background:new}.st14{clip-path:url(#SVGID_30_)}.st15{clip-path:url(#SVGID_32_)}.st16{clip-path:url(#SVGID_34_);fill:#fff}.st17{clip-path:url(#SVGID_36_)}.st18{clip-path:url(#SVGID_38_);enable-background:new}.st19{clip-path:url(#SVGID_40_)}.st20{clip-path:url(#SVGID_42_)}.st21{clip-path:url(#SVGID_44_);fill:#fff}.st22{clip-path:url(#SVGID_46_)}.st23{clip-path:url(#SVGID_48_);fill:#fff}.st24{clip-path:url(#SVGID_50_)}.st25{clip-path:url(#SVGID_52_);fill:#fff}.st26{clip-path:url(#SVGID_54_)}.st27{clip-path:url(#SVGID_56_);enable-background:new}.st28{clip-path:url(#SVGID_58_)}.st29{clip-path:url(#SVGID_60_)}.st30{clip-path:url(#SVGID_62_);fill:#fff}.st31{clip-path:url(#SVGID_64_)}.st32{clip-path:url(#SVGID_66_);fill:#00dee7}.st33,.st34{fill-rule:evenodd;clip-rule:evenodd;fill:#edf5f8}.st34{fill:#3fb4f1}.st35,.st36{fill:none}.st36{fill-rule:evenodd;clip-rule:evenodd}</style><clipPath id="SVGID_2_"><use xlink:href="#SVGID_63_" overflow="visible"/></clipPath><g class="st0"><clipPath id="SVGID_4_"><use xlink:href="#SVGID_65_" overflow="visible"/></clipPath></g><path class="st35" d="M-556-3886H724v5100H-556z"/><path class="st35" d="M-556-3886H724v5100H-556z"/><path class="st35" d="M-556-3886H724v5100H-556z"/><path class="st35" d="M-556-3886H724v5100H-556z"/><path class="st35" d="M-556-3886H724v5100H-556z"/><path class="st35" d="M-556-3886H724v5100H-556z"/><path class="st35" d="M-556-3886H724v5100H-556z"/><path class="st35" d="M-556-3886H724v5100H-556z"/><path class="st35" d="M-556-3886H724v5100H-556z"/><path class="st35" d="M-556-3886H724v5100H-556z"/><path class="st35" d="M-556-3886H724v5100H-556z"/><path class="st35" d="M-556-3886H724v5100H-556z"/><path class="st35" d="M-556-3886H724v5100H-556z"/><path class="st35" d="M-556-3886H724v5100H-556z"/><path class="st35" d="M-556-3886H724v5100H-556z"/><path class="st35" d="M-556-3886H724v5100H-556z"/><path class="st35" d="M-556-3886H724v5100H-556z"/><path class="st35" d="M-556-3886H724v5100H-556z"/><clipPath id="SVGID_6_"><use xlink:href="#SVGID_67_" overflow="visible"/></clipPath><clipPath id="SVGID_8_"><use xlink:href="#SVGID_69_" overflow="visible"/></clipPath><clipPath id="SVGID_10_"><use xlink:href="#SVGID_71_" overflow="visible"/></clipPath><clipPath id="SVGID_12_"><use xlink:href="#SVGID_73_" overflow="visible"/></clipPath><g><clipPath id="SVGID_14_"><use xlink:href="#SVGID_75_" overflow="visible"/></clipPath></g><g><clipPath id="SVGID_16_"><use xlink:href="#SVGID_77_" overflow="visible"/></clipPath></g><g><clipPath id="SVGID_18_"><use xlink:href="#SVGID_79_" overflow="visible"/></clipPath></g><ellipse class="st33" cx="29.5" cy="55" rx="29.5" ry="30"/><g><path class="st34" d="M88.8 24.9l-.8-1.4V23h-.3L76.4 3.7c-.2-.4-.7-.7-1.1-.7H67v2.8h4.6L59.5 22.3 47.4 5.8h6.4V3H14.1c-.5 0-1 .3-1.2.7l-.3.6-.6.4.2.2L1.3 23H1v.5l-.8 1.3c-.3.5-.3 1.1.1 1.6l43.8 55c.3.3.7.5 1.1.5.4 0 .8-.2 1.1-.5L69 53.3l-2.2-1.8-20.2 25.1L60.9 26h24.6L74.2 40.2l2.1 1.8 12.4-15.5c.4-.5.4-1.1.1-1.6zM84.5 23h-22L74.8 6.3 84.5 23zm-56.4 3l13.4 47.6L3.6 26h24.5zm2.9 0h6v-3h-4.5l12-16.3 12 16.3H52v3h6L44.5 73.9 31 26zM41.6 5.8L29 23 16.4 5.8h25.2zM14 7.4L25.5 23H4.6L14 7.4z"/><path class="st34" d="M58 9h3V6h4V3h-4V0h-3v3h-2v3h2zM46 21h-3v2h-2v3h2v4h3v-4h4v-3h-4zM17 55h-3v2h-3v3h3v4h3v-4h3v-3h-3zM73 42h-3v3h-3v3h3v3h3v-3h3v-3h-3z"/></g></symbol><symbol id="advantages-3" viewBox="0 0 81 90"><style>.st0{clip-path:url(#SVGID_2_)}.st1{clip-path:url(#SVGID_4_);fill:#00dee7}.st2{clip-path:url(#SVGID_6_)}.st3{clip-path:url(#SVGID_8_);fill:#00dee7}.st4{clip-path:url(#SVGID_10_)}.st5{clip-path:url(#SVGID_12_);fill:#00dee7}.st6{clip-path:url(#SVGID_14_)}.st7{clip-path:url(#SVGID_16_);fill:#00dee7}.st8{clip-path:url(#SVGID_18_)}.st9{clip-path:url(#SVGID_20_);fill:#fff}.st10{clip-path:url(#SVGID_22_)}.st11{clip-path:url(#SVGID_24_);fill:#fff}.st12{clip-path:url(#SVGID_26_)}.st13{clip-path:url(#SVGID_28_);enable-background:new}.st14{clip-path:url(#SVGID_30_)}.st15{clip-path:url(#SVGID_32_)}.st16{clip-path:url(#SVGID_34_);fill:#fff}.st17{clip-path:url(#SVGID_36_)}.st18{clip-path:url(#SVGID_38_);enable-background:new}.st19{clip-path:url(#SVGID_40_)}.st20{clip-path:url(#SVGID_42_)}.st21{clip-path:url(#SVGID_44_);fill:#fff}.st22{clip-path:url(#SVGID_46_)}.st23{clip-path:url(#SVGID_48_);fill:#fff}.st24{clip-path:url(#SVGID_50_)}.st25{clip-path:url(#SVGID_52_);fill:#fff}.st26{clip-path:url(#SVGID_54_)}.st27{clip-path:url(#SVGID_56_);enable-background:new}.st28{clip-path:url(#SVGID_58_)}.st29{clip-path:url(#SVGID_60_)}.st30{clip-path:url(#SVGID_62_);fill:#fff}.st31{clip-path:url(#SVGID_64_)}.st32{clip-path:url(#SVGID_66_);fill:#00dee7}.st33,.st34{fill-rule:evenodd;clip-rule:evenodd;fill:#edf5f8}.st34{fill:#3fb4f1}.st35,.st36{fill:none}.st36{fill-rule:evenodd;clip-rule:evenodd}</style><clipPath id="SVGID_2_"><use xlink:href="#SVGID_63_" overflow="visible"/></clipPath><g class="st0"><clipPath id="SVGID_4_"><use xlink:href="#SVGID_65_" overflow="visible"/></clipPath></g><path class="st35" d="M-747-3883H533v5100H-747z"/><path class="st35" d="M-747-3883H533v5100H-747z"/><path class="st35" d="M-747-3883H533v5100H-747z"/><path class="st35" d="M-747-3883H533v5100H-747z"/><path class="st35" d="M-747-3883H533v5100H-747z"/><path class="st35" d="M-747-3883H533v5100H-747z"/><path class="st35" d="M-747-3883H533v5100H-747z"/><path class="st35" d="M-747-3883H533v5100H-747z"/><path class="st35" d="M-747-3883H533v5100H-747z"/><path class="st35" d="M-747-3883H533v5100H-747z"/><path class="st35" d="M-747-3883H533v5100H-747z"/><path class="st35" d="M-747-3883H533v5100H-747z"/><path class="st35" d="M-747-3883H533v5100H-747z"/><path class="st35" d="M-747-3883H533v5100H-747z"/><path class="st35" d="M-747-3883H533v5100H-747z"/><path class="st35" d="M-747-3883H533v5100H-747z"/><path class="st35" d="M-747-3883H533v5100H-747z"/><path class="st35" d="M-747-3883H533v5100H-747z"/><path class="st33" d="M59 60c0 16.6-13.2 30-29.5 30S0 76.6 0 60s13.2-30 29.5-30S59 43.4 59 60"/><path class="st34" d="M40 17h3v6h-3zM7 60h25v-2.8H9.8V8.8H32V6H7zM66.2 10.2V23H69V10.2C69 7.9 67.1 6 64.8 6H52v2.8h12.8c.7 0 1.4.7 1.4 1.4zM16.8 80.8V68H14v12.8c0 2.3 1.9 4.2 4.2 4.2H31v-2.8H18.2c-.7 0-1.4-.7-1.4-1.4zM43 34h20v3H43zM43 39h20v3H43zM43 45h31v3H43zM43 51h31v3H43zM43 56h31v3H43zM43 62h31v3H43zM43 68h31v3H43zM43 73h31v3H43zM43 79h31v3H43z"/><path class="st34" d="M34 14h10.2v8.6H47V11.1h-1l-9.1-9.3V1h-.8l-1-1H0v65h30.4v-2.8H2.8V2.8H34V14zm2.9-8.2l5.2 5.3h-5.2V5.8z"/><path class="st34" d="M80 36.1l-9.1-9.3V26h-.8l-1-1H34v65h47V36.1h-1zm-9.1-5.3l5.2 5.3h-5.2v-5.3zm7.3 56.4H36.8V27.8H68V39h10.2v48.2z"/><g><clipPath id="SVGID_6_"><use xlink:href="#SVGID_67_" overflow="visible"/></clipPath></g><g><clipPath id="SVGID_8_"><use xlink:href="#SVGID_69_" overflow="visible"/></clipPath></g><g><clipPath id="SVGID_10_"><use xlink:href="#SVGID_71_" overflow="visible"/></clipPath></g><g><clipPath id="SVGID_12_"><use xlink:href="#SVGID_73_" overflow="visible"/></clipPath></g><g><clipPath id="SVGID_14_"><use xlink:href="#SVGID_75_" overflow="visible"/></clipPath></g><g><clipPath id="SVGID_16_"><use xlink:href="#SVGID_77_" overflow="visible"/></clipPath></g><g><clipPath id="SVGID_18_"><use xlink:href="#SVGID_79_" overflow="visible"/></clipPath></g></symbol><symbol id="advantages-4" viewBox="0 0 90 90"><style>.st0{clip-path:url(#SVGID_2_)}.st1{clip-path:url(#SVGID_4_);fill:#00dee7}.st2{clip-path:url(#SVGID_6_)}.st3{clip-path:url(#SVGID_8_);fill:#00dee7}.st4{clip-path:url(#SVGID_10_)}.st5{clip-path:url(#SVGID_12_);fill:#00dee7}.st6{clip-path:url(#SVGID_14_)}.st7{clip-path:url(#SVGID_16_);fill:#00dee7}.st8{clip-path:url(#SVGID_18_)}.st9{clip-path:url(#SVGID_20_);fill:#fff}.st10{clip-path:url(#SVGID_22_)}.st11{clip-path:url(#SVGID_24_);fill:#fff}.st12{clip-path:url(#SVGID_26_)}.st13{clip-path:url(#SVGID_28_);enable-background:new}.st14{clip-path:url(#SVGID_30_)}.st15{clip-path:url(#SVGID_32_)}.st16{clip-path:url(#SVGID_34_);fill:#fff}.st17{clip-path:url(#SVGID_36_)}.st18{clip-path:url(#SVGID_38_);enable-background:new}.st19{clip-path:url(#SVGID_40_)}.st20{clip-path:url(#SVGID_42_)}.st21{clip-path:url(#SVGID_44_);fill:#fff}.st22{clip-path:url(#SVGID_46_)}.st23{clip-path:url(#SVGID_48_);fill:#fff}.st24{clip-path:url(#SVGID_50_)}.st25{clip-path:url(#SVGID_52_);fill:#fff}.st26{clip-path:url(#SVGID_54_)}.st27{clip-path:url(#SVGID_56_);enable-background:new}.st28{clip-path:url(#SVGID_58_)}.st29{clip-path:url(#SVGID_60_)}.st30{clip-path:url(#SVGID_62_);fill:#fff}.st31{clip-path:url(#SVGID_64_)}.st32{clip-path:url(#SVGID_66_);fill:#00dee7}.st33,.st34{fill-rule:evenodd;clip-rule:evenodd;fill:#edf5f8}.st34{fill:#3fb4f1}.st35,.st36{fill:none}.st36{fill-rule:evenodd;clip-rule:evenodd}</style><clipPath id="SVGID_2_"><use xlink:href="#SVGID_63_" overflow="visible"/></clipPath><g class="st0"><clipPath id="SVGID_4_"><use xlink:href="#SVGID_65_" overflow="visible"/></clipPath></g><path class="st35" d="M-730-4028H550v5100H-730z"/><path class="st35" d="M-730-4028H550v5100H-730z"/><path class="st35" d="M-730-4028H550v5100H-730z"/><path class="st35" d="M-730-4028H550v5100H-730z"/><path class="st35" d="M-730-4028H550v5100H-730z"/><path class="st35" d="M-730-4028H550v5100H-730z"/><path class="st35" d="M-730-4028H550v5100H-730z"/><path class="st35" d="M-730-4028H550v5100H-730z"/><path class="st35" d="M-730-4028H550v5100H-730z"/><path class="st35" d="M-730-4028H550v5100H-730z"/><path class="st35" d="M-730-4028H550v5100H-730z"/><path class="st35" d="M-730-4028H550v5100H-730z"/><path class="st35" d="M-730-4028H550v5100H-730z"/><path class="st35" d="M-730-4028H550v5100H-730z"/><path class="st35" d="M-730-4028H550v5100H-730z"/><path class="st35" d="M-730-4028H550v5100H-730z"/><path class="st35" d="M-730-4028H550v5100H-730z"/><path class="st35" d="M-730-4028H550v5100H-730z"/><clipPath id="SVGID_6_"><use xlink:href="#SVGID_67_" overflow="visible"/></clipPath><clipPath id="SVGID_8_"><use xlink:href="#SVGID_69_" overflow="visible"/></clipPath><clipPath id="SVGID_10_"><use xlink:href="#SVGID_71_" overflow="visible"/></clipPath><g><clipPath id="SVGID_12_"><use xlink:href="#SVGID_73_" overflow="visible"/></clipPath></g><g><clipPath id="SVGID_14_"><use xlink:href="#SVGID_75_" overflow="visible"/></clipPath></g><g><clipPath id="SVGID_16_"><use xlink:href="#SVGID_77_" overflow="visible"/></clipPath></g><g><clipPath id="SVGID_18_"><use xlink:href="#SVGID_79_" overflow="visible"/></clipPath></g><g><path class="st36" d="M39.4 62c-.4 0-.7-.1-1-.4l-18-18c-.5-.5-.5-1.4 0-2l6.9-6.9c.5-.5 1.4-.5 2 0l10.1 10.1 18.4-18.4c.5-.5 1.4-.5 2 0l6.9 6.9c.5.5.5 1.4 0 2L40.3 61.6c-.2.3-.6.4-.9.4zM23.3 42.6l16 16 24.3-24.3-5-5-18.3 18.4c-.5.5-1.4.5-2 0l-10-10-5 4.9z"/><path class="st34" d="M8 44h3v3H8z"/><path class="st36" d="M45 90C20.2 90 0 69.8 0 45S20.2 0 45 0s45 20.2 45 45-20.2 45-45 45m0-87.2C21.7 2.8 2.8 21.7 2.8 45S21.7 87.2 45 87.2 87.2 68.3 87.2 45 68.3 2.8 45 2.8"/><path class="st33" d="M89 60c0 16.6-13.2 30-29.5 30S30 76.6 30 60s13.2-30 29.5-30S89 43.4 89 60"/><path class="st34" d="M43 79h3v3h-3zM43 9h3v3h-3zM78 44h3v3h-3zM39.4 62c-.4 0-.7-.1-1-.4l-18-18c-.5-.5-.5-1.4 0-2l6.9-6.9c.5-.5 1.4-.5 2 0l10.1 10.1 18.4-18.4c.5-.5 1.4-.5 2 0l6.9 6.9c.5.5.5 1.4 0 2L40.3 61.6c-.2.3-.6.4-.9.4zM23.3 42.6l16 16 24.3-24.3-5-5-18.3 18.4c-.5.5-1.4.5-2 0l-10-10-5 4.9z"/><path class="st34" d="M45 90C20.2 90 0 69.8 0 45S20.2 0 45 0s45 20.2 45 45-20.2 45-45 45m0-87.2C21.7 2.8 2.8 21.7 2.8 45S21.7 87.2 45 87.2 87.2 68.3 87.2 45 68.3 2.8 45 2.8"/></g></symbol><symbol id="advantages-44" viewBox="0 0 90 90"><use fill="#ecf5f8" xlink:href="#a" transform="translate(-1038 -3883)"/><use fill="#3eb4f0" xlink:href="#b" transform="translate(-1038 -3883)"/><use fill="#3eb4f0" xlink:href="#c" transform="translate(-1038 -3883)"/><use fill="#3eb4f0" xlink:href="#d" transform="translate(-1038 -3883)"/><use fill="#3eb4f0" xlink:href="#e" transform="translate(-1038 -3883)"/><use fill="#3eb4f0" xlink:href="#f" transform="translate(-1038 -3883)"/><use fill="#3eb4f0" xlink:href="#g" transform="translate(-1038 -3883)"/></symbol><symbol id="btn-1" viewBox="0 0 40 34"><use fill="currentColor" xlink:href="#a" transform="translate(-25 -222)"/><use fill="currentColor" xlink:href="#b" transform="translate(-25 -222)"/><use fill="currentColor" xlink:href="#c" transform="translate(-25 -222)"/><use fill="currentColor" xlink:href="#d" transform="translate(-25 -222)"/></symbol><symbol id="btn-2" viewBox="0 0 40 34"><use fill="currentColor" xlink:href="#b" transform="translate(-28 -294)"/><use fill="currentColor" xlink:href="#c" transform="translate(-28 -294)"/><g clip-path="url(#d)" transform="translate(-28 -294)"><use fill="currentColor" xlink:href="#e"/></g></symbol><symbol id="btn-3" viewBox="0 0 40 35"><g clip-path="url(#c)" transform="translate(-28 -358)"><use fill="currentColor" xlink:href="#d"/></g><use fill="currentColor" xlink:href="#e" transform="translate(-28 -358)"/><use fill="currentColor" xlink:href="#f" transform="translate(-28 -358)"/><g><g clip-path="url(#g)" transform="translate(-28 -358)"><use fill="currentColor" xlink:href="#h"/></g></g></symbol><symbol id="sprite-svg"><symbol id="2-09" viewBox="0 0 20 20"><style>.st0{fill:none}.st1{clip-path:url(#SVGID_9_)}.st2,.st3,.st4,.st5{fill-rule:evenodd;clip-rule:evenodd;fill:#fff}.st3,.st4,.st5{fill:#edf5f8}.st4,.st5{fill:#3fb4f1}.st5{fill:none}</style><path class="st0" d="M-77-469h1280v5100H-77z"/><path class="st0" d="M-77-469h1280v5100H-77z"/><path class="st0" d="M-77-469h1280v5100H-77z"/><path class="st0" d="M-77-469h1280v5100H-77z"/><clipPath id="SVGID_2_"><use xlink:href="#SVGID_1_" overflow="visible"/></clipPath><clipPath id="SVGID_4_"><use xlink:href="#SVGID_3_" overflow="visible"/></clipPath><clipPath id="SVGID_6_"><use xlink:href="#SVGID_5_" overflow="visible"/></clipPath><clipPath id="SVGID_9_"><use xlink:href="#SVGID_7_" overflow="visible"/></clipPath><clipPath id="SVGID_10_" class="st1"><use xlink:href="#SVGID_8_" overflow="visible"/></clipPath><path class="st2" d="M.5 8c-1-2.3-.4-5 1.4-6.7l.7-.7c.8-.8 2.1-.8 2.9 0l1.3 1.3c.8.8.8 2.1 0 2.9l-.4.4c-1 1-1.4 2.5-1 3.8 1 3.2 3.5 4.7 5.5 5.4 1.3.5 2.8.2 3.9-.8l.4-.4c.8-.8 2.1-.8 2.9 0l1.3 1.3c.8.8.8 2.1 0 2.9l-.7.7a6.15 6.15 0 0 1-6.8 1.3c-2.2-1-4.7-2.8-6.9-5-2-2-3.6-4.3-4.5-6.4"/></symbol><symbol id="advantages-1" viewBox="0 0 90 90"><style>.st0{clip-path:url(#SVGID_2_)}.st1{clip-path:url(#SVGID_4_);fill:#00dee7}.st2{clip-path:url(#SVGID_6_)}.st3{clip-path:url(#SVGID_8_);fill:#00dee7}.st4{clip-path:url(#SVGID_10_)}.st5{clip-path:url(#SVGID_12_);fill:#00dee7}.st6{clip-path:url(#SVGID_14_)}.st7{clip-path:url(#SVGID_16_);fill:#00dee7}.st8{clip-path:url(#SVGID_18_)}.st9{clip-path:url(#SVGID_20_);fill:#fff}.st10{clip-path:url(#SVGID_22_)}.st11{clip-path:url(#SVGID_24_);fill:#fff}.st12{clip-path:url(#SVGID_26_)}.st13{clip-path:url(#SVGID_28_);enable-background:new}.st14{clip-path:url(#SVGID_30_)}.st15{clip-path:url(#SVGID_32_)}.st16{clip-path:url(#SVGID_34_);fill:#fff}.st17{clip-path:url(#SVGID_36_)}.st18{clip-path:url(#SVGID_38_);enable-background:new}.st19{clip-path:url(#SVGID_40_)}.st20{clip-path:url(#SVGID_42_)}.st21{clip-path:url(#SVGID_44_);fill:#fff}.st22{clip-path:url(#SVGID_46_)}.st23{clip-path:url(#SVGID_48_);fill:#fff}.st24{clip-path:url(#SVGID_50_)}.st25{clip-path:url(#SVGID_52_);fill:#fff}.st26{clip-path:url(#SVGID_54_)}.st27{clip-path:url(#SVGID_56_);enable-background:new}.st28{clip-path:url(#SVGID_58_)}.st29{clip-path:url(#SVGID_60_)}.st30{clip-path:url(#SVGID_62_);fill:#fff}.st31{clip-path:url(#SVGID_64_)}.st32{clip-path:url(#SVGID_66_);fill:#00dee7}.st33,.st34{fill-rule:evenodd;clip-rule:evenodd;fill:#edf5f8}.st34{fill:#3fb4f1}.st35,.st36{fill:none}.st36{fill-rule:evenodd;clip-rule:evenodd}</style><clipPath id="SVGID_2_"><use xlink:href="#SVGID_63_" overflow="visible"/></clipPath><g class="st0"><clipPath id="SVGID_4_"><use xlink:href="#SVGID_65_" overflow="visible"/></clipPath></g><path class="st33" d="M56 62c0 15.5-12.5 28-28 28S0 77.5 0 62s12.5-28 28-28 28 12.5 28 28"/><path class="st34" d="M85.7 0H40.3C37.9 0 36 1.9 36 4.3V17h2.8V4.3c0-.8.6-1.4 1.4-1.4h45.5c.8 0 1.4.6 1.4 1.4v28.4c0 .8-.6 1.4-1.4 1.4H63.8L54.9 43l2 2 8.1-8.1h20.7c2.4 0 4.3-1.9 4.3-4.3V4.3C90 1.9 88.1 0 85.7 0z"/><path class="st34" d="M56 17h3v3h-3zM62 17h3v3h-3zM67 17h3v3h-3zM58 63.4c-2.5-1-5-1.9-7.6-3.4l-.3.5-3-4.5H47v-3.8c1.5-1.7 4-5.4 5-12.4V34c0-9.3-4.7-14-14-14s-14 4.7-14 14v5.8c1.3 9.1 5 12.6 6 13.4v3l-1.1-.2-2.9 4.3c-2.4 1.3-4.8 2.3-7.1 3.1-6.7 2.6-13 5-13 16.5V90h2.8V79.9c0-9.5 4.4-11.2 11.2-13.8 2-.8 4.2-1.6 6.4-2.8L32 69l5.9-2.9 5.9 2.9 6-6c2.5 1.3 4.9 2.3 7.1 3.1 6.7 2.6 11.2 4.3 11.2 13.8V90H71V79.9c0-11.5-6.3-13.9-13-16.5zM38 22.8c7.6 0 11 3.3 11.2 10.7l-4.4 2.3L31.1 30l-4.2 2.2c.5-6.5 4-9.4 11.1-9.4zM26.8 39.5v-4l4.4-2.3L44.9 39l4.3-2.2v2.7C48 47.8 44.7 50.6 44.3 51c-2.5 1.2-6.2 1.2-6.3 1.2-.1 0-3.8 0-6.3-1.2-.4-.4-3.7-3.2-4.9-11.5zM33 54.4c2.5.6 4.9.6 5 .6.2 0 3.2 0 6-.9v2.4l-6 1-5-.8v-2.3zm10.3 11.2L38 62.9l-5.3 2.7-4.1-4.1 1.7-2.5 7.7 1.3 7.7-1.3 1.7 2.5-4.1 4.1z"/><path class="st34" d="M36 75h3v3h-3zM36 70h3v3h-3zM17 81h3v9h-3zM56 81h3v9h-3z"/><path class="st35" d="M-561-4028H719v5100H-561z"/><path class="st35" d="M-561-4028H719v5100H-561z"/><path class="st35" d="M-561-4028H719v5100H-561z"/><path class="st35" d="M-561-4028H719v5100H-561z"/><path class="st35" d="M-561-4028H719v5100H-561z"/><path class="st35" d="M-561-4028H719v5100H-561z"/><path class="st35" d="M-561-4028H719v5100H-561z"/><path class="st35" d="M-561-4028H719v5100H-561z"/><path class="st35" d="M-561-4028H719v5100H-561z"/><path class="st35" d="M-561-4028H719v5100H-561z"/><path class="st35" d="M-561-4028H719v5100H-561z"/><path class="st35" d="M-561-4028H719v5100H-561z"/><path class="st35" d="M-561-4028H719v5100H-561z"/><path class="st35" d="M-561-4028H719v5100H-561z"/><path class="st35" d="M-561-4028H719v5100H-561z"/><path class="st35" d="M-561-4028H719v5100H-561z"/><path class="st35" d="M-561-4028H719v5100H-561z"/><path class="st35" d="M-561-4028H719v5100H-561z"/><g><clipPath id="SVGID_6_"><use xlink:href="#SVGID_67_" overflow="visible"/></clipPath></g><g><clipPath id="SVGID_8_"><use xlink:href="#SVGID_69_" overflow="visible"/></clipPath></g><g><clipPath id="SVGID_10_"><use xlink:href="#SVGID_71_" overflow="visible"/></clipPath></g><g><clipPath id="SVGID_12_"><use xlink:href="#SVGID_73_" overflow="visible"/></clipPath></g><g><clipPath id="SVGID_14_"><use xlink:href="#SVGID_75_" overflow="visible"/></clipPath></g><g><clipPath id="SVGID_16_"><use xlink:href="#SVGID_77_" overflow="visible"/></clipPath></g><g><clipPath id="SVGID_18_"><use xlink:href="#SVGID_79_" overflow="visible"/></clipPath></g></symbol><symbol id="advantages-2" viewBox="0 0 89 87"><style>.st0{clip-path:url(#SVGID_2_)}.st1{clip-path:url(#SVGID_4_);fill:#00dee7}.st2{clip-path:url(#SVGID_6_)}.st3{clip-path:url(#SVGID_8_);fill:#00dee7}.st4{clip-path:url(#SVGID_10_)}.st5{clip-path:url(#SVGID_12_);fill:#00dee7}.st6{clip-path:url(#SVGID_14_)}.st7{clip-path:url(#SVGID_16_);fill:#00dee7}.st8{clip-path:url(#SVGID_18_)}.st9{clip-path:url(#SVGID_20_);fill:#fff}.st10{clip-path:url(#SVGID_22_)}.st11{clip-path:url(#SVGID_24_);fill:#fff}.st12{clip-path:url(#SVGID_26_)}.st13{clip-path:url(#SVGID_28_);enable-background:new}.st14{clip-path:url(#SVGID_30_)}.st15{clip-path:url(#SVGID_32_)}.st16{clip-path:url(#SVGID_34_);fill:#fff}.st17{clip-path:url(#SVGID_36_)}.st18{clip-path:url(#SVGID_38_);enable-background:new}.st19{clip-path:url(#SVGID_40_)}.st20{clip-path:url(#SVGID_42_)}.st21{clip-path:url(#SVGID_44_);fill:#fff}.st22{clip-path:url(#SVGID_46_)}.st23{clip-path:url(#SVGID_48_);fill:#fff}.st24{clip-path:url(#SVGID_50_)}.st25{clip-path:url(#SVGID_52_);fill:#fff}.st26{clip-path:url(#SVGID_54_)}.st27{clip-path:url(#SVGID_56_);enable-background:new}.st28{clip-path:url(#SVGID_58_)}.st29{clip-path:url(#SVGID_60_)}.st30{clip-path:url(#SVGID_62_);fill:#fff}.st31{clip-path:url(#SVGID_64_)}.st32{clip-path:url(#SVGID_66_);fill:#00dee7}.st33,.st34{fill-rule:evenodd;clip-rule:evenodd;fill:#edf5f8}.st34{fill:#3fb4f1}.st35,.st36{fill:none}.st36{fill-rule:evenodd;clip-rule:evenodd}</style><clipPath id="SVGID_2_"><use xlink:href="#SVGID_63_" overflow="visible"/></clipPath><g class="st0"><clipPath id="SVGID_4_"><use xlink:href="#SVGID_65_" overflow="visible"/></clipPath></g><path class="st35" d="M-556-3886H724v5100H-556z"/><path class="st35" d="M-556-3886H724v5100H-556z"/><path class="st35" d="M-556-3886H724v5100H-556z"/><path class="st35" d="M-556-3886H724v5100H-556z"/><path class="st35" d="M-556-3886H724v5100H-556z"/><path class="st35" d="M-556-3886H724v5100H-556z"/><path class="st35" d="M-556-3886H724v5100H-556z"/><path class="st35" d="M-556-3886H724v5100H-556z"/><path class="st35" d="M-556-3886H724v5100H-556z"/><path class="st35" d="M-556-3886H724v5100H-556z"/><path class="st35" d="M-556-3886H724v5100H-556z"/><path class="st35" d="M-556-3886H724v5100H-556z"/><path class="st35" d="M-556-3886H724v5100H-556z"/><path class="st35" d="M-556-3886H724v5100H-556z"/><path class="st35" d="M-556-3886H724v5100H-556z"/><path class="st35" d="M-556-3886H724v5100H-556z"/><path class="st35" d="M-556-3886H724v5100H-556z"/><path class="st35" d="M-556-3886H724v5100H-556z"/><clipPath id="SVGID_6_"><use xlink:href="#SVGID_67_" overflow="visible"/></clipPath><clipPath id="SVGID_8_"><use xlink:href="#SVGID_69_" overflow="visible"/></clipPath><clipPath id="SVGID_10_"><use xlink:href="#SVGID_71_" overflow="visible"/></clipPath><clipPath id="SVGID_12_"><use xlink:href="#SVGID_73_" overflow="visible"/></clipPath><clipPath id="SVGID_14_"><use xlink:href="#SVGID_75_" overflow="visible"/></clipPath><clipPath id="SVGID_16_"><use xlink:href="#SVGID_77_" overflow="visible"/></clipPath><clipPath id="SVGID_18_"><use xlink:href="#SVGID_79_" overflow="visible"/></clipPath><ellipse class="st33" cx="29.5" cy="55" rx="29.5" ry="30"/><g><path class="st34" d="M88.8 24.9l-.8-1.4V23h-.3L76.4 3.7c-.2-.4-.7-.7-1.1-.7H67v2.8h4.6L59.5 22.3 47.4 5.8h6.4V3H14.1c-.5 0-1 .3-1.2.7l-.3.6-.6.4.2.2L1.3 23H1v.5l-.8 1.3c-.3.5-.3 1.1.1 1.6l43.8 55c.3.3.7.5 1.1.5.4 0 .8-.2 1.1-.5L69 53.3l-2.2-1.8-20.2 25.1L60.9 26h24.6L74.2 40.2l2.1 1.8 12.4-15.5c.4-.5.4-1.1.1-1.6zM84.5 23h-22L74.8 6.3 84.5 23zm-56.4 3l13.4 47.6L3.6 26h24.5zm2.9 0h6v-3h-4.5l12-16.3 12 16.3H52v3h6L44.5 73.9 31 26zM41.6 5.8L29 23 16.4 5.8h25.2zM14 7.4L25.5 23H4.6L14 7.4z"/><path class="st34" d="M58 9h3V6h4V3h-4V0h-3v3h-2v3h2zM46 21h-3v2h-2v3h2v4h3v-4h4v-3h-4zM17 55h-3v2h-3v3h3v4h3v-4h3v-3h-3zM73 42h-3v3h-3v3h3v3h3v-3h3v-3h-3z"/></g></symbol><symbol id="advantages-3" viewBox="0 0 81 90"><style>.st0{clip-path:url(#SVGID_2_)}.st1{clip-path:url(#SVGID_4_);fill:#00dee7}.st2{clip-path:url(#SVGID_6_)}.st3{clip-path:url(#SVGID_8_);fill:#00dee7}.st4{clip-path:url(#SVGID_10_)}.st5{clip-path:url(#SVGID_12_);fill:#00dee7}.st6{clip-path:url(#SVGID_14_)}.st7{clip-path:url(#SVGID_16_);fill:#00dee7}.st8{clip-path:url(#SVGID_18_)}.st9{clip-path:url(#SVGID_20_);fill:#fff}.st10{clip-path:url(#SVGID_22_)}.st11{clip-path:url(#SVGID_24_);fill:#fff}.st12{clip-path:url(#SVGID_26_)}.st13{clip-path:url(#SVGID_28_);enable-background:new}.st14{clip-path:url(#SVGID_30_)}.st15{clip-path:url(#SVGID_32_)}.st16{clip-path:url(#SVGID_34_);fill:#fff}.st17{clip-path:url(#SVGID_36_)}.st18{clip-path:url(#SVGID_38_);enable-background:new}.st19{clip-path:url(#SVGID_40_)}.st20{clip-path:url(#SVGID_42_)}.st21{clip-path:url(#SVGID_44_);fill:#fff}.st22{clip-path:url(#SVGID_46_)}.st23{clip-path:url(#SVGID_48_);fill:#fff}.st24{clip-path:url(#SVGID_50_)}.st25{clip-path:url(#SVGID_52_);fill:#fff}.st26{clip-path:url(#SVGID_54_)}.st27{clip-path:url(#SVGID_56_);enable-background:new}.st28{clip-path:url(#SVGID_58_)}.st29{clip-path:url(#SVGID_60_)}.st30{clip-path:url(#SVGID_62_);fill:#fff}.st31{clip-path:url(#SVGID_64_)}.st32{clip-path:url(#SVGID_66_);fill:#00dee7}.st33,.st34{fill-rule:evenodd;clip-rule:evenodd;fill:#edf5f8}.st34{fill:#3fb4f1}.st35,.st36{fill:none}.st36{fill-rule:evenodd;clip-rule:evenodd}</style><clipPath id="SVGID_2_"><use xlink:href="#SVGID_63_" overflow="visible"/></clipPath><g class="st0"><clipPath id="SVGID_4_"><use xlink:href="#SVGID_65_" overflow="visible"/></clipPath></g><path class="st35" d="M-747-3883H533v5100H-747z"/><path class="st35" d="M-747-3883H533v5100H-747z"/><path class="st35" d="M-747-3883H533v5100H-747z"/><path class="st35" d="M-747-3883H533v5100H-747z"/><path class="st35" d="M-747-3883H533v5100H-747z"/><path class="st35" d="M-747-3883H533v5100H-747z"/><path class="st35" d="M-747-3883H533v5100H-747z"/><path class="st35" d="M-747-3883H533v5100H-747z"/><path class="st35" d="M-747-3883H533v5100H-747z"/><path class="st35" d="M-747-3883H533v5100H-747z"/><path class="st35" d="M-747-3883H533v5100H-747z"/><path class="st35" d="M-747-3883H533v5100H-747z"/><path class="st35" d="M-747-3883H533v5100H-747z"/><path class="st35" d="M-747-3883H533v5100H-747z"/><path class="st35" d="M-747-3883H533v5100H-747z"/><path class="st35" d="M-747-3883H533v5100H-747z"/><path class="st35" d="M-747-3883H533v5100H-747z"/><path class="st35" d="M-747-3883H533v5100H-747z"/><path class="st33" d="M59 60c0 16.6-13.2 30-29.5 30S0 76.6 0 60s13.2-30 29.5-30S59 43.4 59 60"/><path class="st34" d="M40 17h3v6h-3zM7 60h25v-2.8H9.8V8.8H32V6H7zM66.2 10.2V23H69V10.2C69 7.9 67.1 6 64.8 6H52v2.8h12.8c.7 0 1.4.7 1.4 1.4zM16.8 80.8V68H14v12.8c0 2.3 1.9 4.2 4.2 4.2H31v-2.8H18.2c-.7 0-1.4-.7-1.4-1.4zM43 34h20v3H43zM43 39h20v3H43zM43 45h31v3H43zM43 51h31v3H43zM43 56h31v3H43zM43 62h31v3H43zM43 68h31v3H43zM43 73h31v3H43zM43 79h31v3H43z"/><path class="st34" d="M34 14h10.2v8.6H47V11.1h-1l-9.1-9.3V1h-.8l-1-1H0v65h30.4v-2.8H2.8V2.8H34V14zm2.9-8.2l5.2 5.3h-5.2V5.8z"/><path class="st34" d="M80 36.1l-9.1-9.3V26h-.8l-1-1H34v65h47V36.1h-1zm-9.1-5.3l5.2 5.3h-5.2v-5.3zm7.3 56.4H36.8V27.8H68V39h10.2v48.2z"/><g><clipPath id="SVGID_6_"><use xlink:href="#SVGID_67_" overflow="visible"/></clipPath></g><g><clipPath id="SVGID_8_"><use xlink:href="#SVGID_69_" overflow="visible"/></clipPath></g><g><clipPath id="SVGID_10_"><use xlink:href="#SVGID_71_" overflow="visible"/></clipPath></g><g><clipPath id="SVGID_12_"><use xlink:href="#SVGID_73_" overflow="visible"/></clipPath></g><g><clipPath id="SVGID_14_"><use xlink:href="#SVGID_75_" overflow="visible"/></clipPath></g><g><clipPath id="SVGID_16_"><use xlink:href="#SVGID_77_" overflow="visible"/></clipPath></g><g><clipPath id="SVGID_18_"><use xlink:href="#SVGID_79_" overflow="visible"/></clipPath></g></symbol><symbol id="advantages-4" viewBox="0 0 90 90"><style>.st0{clip-path:url(#SVGID_2_)}.st1{clip-path:url(#SVGID_4_);fill:#00dee7}.st2{clip-path:url(#SVGID_6_)}.st3{clip-path:url(#SVGID_8_);fill:#00dee7}.st4{clip-path:url(#SVGID_10_)}.st5{clip-path:url(#SVGID_12_);fill:#00dee7}.st6{clip-path:url(#SVGID_14_)}.st7{clip-path:url(#SVGID_16_);fill:#00dee7}.st8{clip-path:url(#SVGID_18_)}.st9{clip-path:url(#SVGID_20_);fill:#fff}.st10{clip-path:url(#SVGID_22_)}.st11{clip-path:url(#SVGID_24_);fill:#fff}.st12{clip-path:url(#SVGID_26_)}.st13{clip-path:url(#SVGID_28_);enable-background:new}.st14{clip-path:url(#SVGID_30_)}.st15{clip-path:url(#SVGID_32_)}.st16{clip-path:url(#SVGID_34_);fill:#fff}.st17{clip-path:url(#SVGID_36_)}.st18{clip-path:url(#SVGID_38_);enable-background:new}.st19{clip-path:url(#SVGID_40_)}.st20{clip-path:url(#SVGID_42_)}.st21{clip-path:url(#SVGID_44_);fill:#fff}.st22{clip-path:url(#SVGID_46_)}.st23{clip-path:url(#SVGID_48_);fill:#fff}.st24{clip-path:url(#SVGID_50_)}.st25{clip-path:url(#SVGID_52_);fill:#fff}.st26{clip-path:url(#SVGID_54_)}.st27{clip-path:url(#SVGID_56_);enable-background:new}.st28{clip-path:url(#SVGID_58_)}.st29{clip-path:url(#SVGID_60_)}.st30{clip-path:url(#SVGID_62_);fill:#fff}.st31{clip-path:url(#SVGID_64_)}.st32{clip-path:url(#SVGID_66_);fill:#00dee7}.st33,.st34{fill-rule:evenodd;clip-rule:evenodd;fill:#edf5f8}.st34{fill:#3fb4f1}.st35,.st36{fill:none}.st36{fill-rule:evenodd;clip-rule:evenodd}</style><clipPath id="SVGID_2_"><use xlink:href="#SVGID_63_" overflow="visible"/></clipPath><g class="st0"><clipPath id="SVGID_4_"><use xlink:href="#SVGID_65_" overflow="visible"/></clipPath></g><path class="st35" d="M-730-4028H550v5100H-730z"/><path class="st35" d="M-730-4028H550v5100H-730z"/><path class="st35" d="M-730-4028H550v5100H-730z"/><path class="st35" d="M-730-4028H550v5100H-730z"/><path class="st35" d="M-730-4028H550v5100H-730z"/><path class="st35" d="M-730-4028H550v5100H-730z"/><path class="st35" d="M-730-4028H550v5100H-730z"/><path class="st35" d="M-730-4028H550v5100H-730z"/><path class="st35" d="M-730-4028H550v5100H-730z"/><path class="st35" d="M-730-4028H550v5100H-730z"/><path class="st35" d="M-730-4028H550v5100H-730z"/><path class="st35" d="M-730-4028H550v5100H-730z"/><path class="st35" d="M-730-4028H550v5100H-730z"/><path class="st35" d="M-730-4028H550v5100H-730z"/><path class="st35" d="M-730-4028H550v5100H-730z"/><path class="st35" d="M-730-4028H550v5100H-730z"/><path class="st35" d="M-730-4028H550v5100H-730z"/><path class="st35" d="M-730-4028H550v5100H-730z"/><clipPath id="SVGID_6_"><use xlink:href="#SVGID_67_" overflow="visible"/></clipPath><clipPath id="SVGID_8_"><use xlink:href="#SVGID_69_" overflow="visible"/></clipPath><clipPath id="SVGID_10_"><use xlink:href="#SVGID_71_" overflow="visible"/></clipPath><clipPath id="SVGID_12_"><use xlink:href="#SVGID_73_" overflow="visible"/></clipPath><clipPath id="SVGID_14_"><use xlink:href="#SVGID_75_" overflow="visible"/></clipPath><clipPath id="SVGID_16_"><use xlink:href="#SVGID_77_" overflow="visible"/></clipPath><clipPath id="SVGID_18_"><use xlink:href="#SVGID_79_" overflow="visible"/></clipPath><g><path class="st36" d="M39.4 62c-.4 0-.7-.1-1-.4l-18-18c-.5-.5-.5-1.4 0-2l6.9-6.9c.5-.5 1.4-.5 2 0l10.1 10.1 18.4-18.4c.5-.5 1.4-.5 2 0l6.9 6.9c.5.5.5 1.4 0 2L40.3 61.6c-.2.3-.6.4-.9.4zM23.3 42.6l16 16 24.3-24.3-5-5-18.3 18.4c-.5.5-1.4.5-2 0l-10-10-5 4.9z"/><path class="st34" d="M8 44h3v3H8z"/><path class="st36" d="M45 90C20.2 90 0 69.8 0 45S20.2 0 45 0s45 20.2 45 45-20.2 45-45 45m0-87.2C21.7 2.8 2.8 21.7 2.8 45S21.7 87.2 45 87.2 87.2 68.3 87.2 45 68.3 2.8 45 2.8"/><path class="st33" d="M89 60c0 16.6-13.2 30-29.5 30S30 76.6 30 60s13.2-30 29.5-30S89 43.4 89 60"/><path class="st34" d="M43 79h3v3h-3zM43 9h3v3h-3zM78 44h3v3h-3zM39.4 62c-.4 0-.7-.1-1-.4l-18-18c-.5-.5-.5-1.4 0-2l6.9-6.9c.5-.5 1.4-.5 2 0l10.1 10.1 18.4-18.4c.5-.5 1.4-.5 2 0l6.9 6.9c.5.5.5 1.4 0 2L40.3 61.6c-.2.3-.6.4-.9.4zM23.3 42.6l16 16 24.3-24.3-5-5-18.3 18.4c-.5.5-1.4.5-2 0l-10-10-5 4.9z"/><path class="st34" d="M45 90C20.2 90 0 69.8 0 45S20.2 0 45 0s45 20.2 45 45-20.2 45-45 45m0-87.2C21.7 2.8 2.8 21.7 2.8 45S21.7 87.2 45 87.2 87.2 68.3 87.2 45 68.3 2.8 45 2.8"/></g></symbol><symbol id="advantages-44" viewBox="0 0 90 90"><use fill="#ecf5f8" xlink:href="#t7i6a" transform="translate(-1038 -3883)"/><use fill="#3eb4f0" xlink:href="#t7i6b" transform="translate(-1038 -3883)"/><use fill="#3eb4f0" xlink:href="#t7i6c" transform="translate(-1038 -3883)"/><use fill="#3eb4f0" xlink:href="#t7i6d" transform="translate(-1038 -3883)"/><use fill="#3eb4f0" xlink:href="#t7i6e" transform="translate(-1038 -3883)"/><use fill="#3eb4f0" xlink:href="#t7i6f" transform="translate(-1038 -3883)"/><use fill="#3eb4f0" xlink:href="#t7i6g" transform="translate(-1038 -3883)"/></symbol><symbol id="btn-1" viewBox="0 0 40 34"><use fill="currentColor" xlink:href="#qq4ta" transform="translate(-25 -222)"/><use fill="currentColor" xlink:href="#qq4tb" transform="translate(-25 -222)"/><use fill="currentColor" xlink:href="#qq4tc" transform="translate(-25 -222)"/><use fill="currentColor" xlink:href="#qq4td" transform="translate(-25 -222)"/></symbol><symbol id="btn-2" viewBox="0 0 40 34"><use fill="currentColor" xlink:href="#idn3b" transform="translate(-28 -294)"/><use fill="currentColor" xlink:href="#idn3c" transform="translate(-28 -294)"/><g clip-path="url(#idn3d)" transform="translate(-28 -294)"><use fill="currentColor" xlink:href="#idn3e"/></g></symbol><symbol id="btn-3" viewBox="0 0 40 35"><g clip-path="url(#myyrc)" transform="translate(-28 -358)"><use fill="currentColor" xlink:href="#myyrd"/></g><use fill="currentColor" xlink:href="#myyre" transform="translate(-28 -358)"/><use fill="currentColor" xlink:href="#myyrf" transform="translate(-28 -358)"/><g><g clip-path="url(#myyrg)" transform="translate(-28 -358)"><use fill="currentColor" xlink:href="#myyrh"/></g></g></symbol><symbol id="tel" viewBox="0 0 20 20"><use fill="currentColor" xlink:href="#wux5a" transform="translate(-1008 -47)"/></symbol><symbol id="telephone" viewBox="0 0 401.998 401.998"><path d="M401.129 311.475c-1.137-3.426-8.371-8.473-21.697-15.129-3.61-2.098-8.754-4.949-15.41-8.566a1437.412 1437.412 0 0 1-18.13-9.996 605.612 605.612 0 0 1-15.276-8.846c-.76-.571-3.139-2.234-7.136-5-4.001-2.758-7.375-4.805-10.14-6.14-2.759-1.327-5.473-1.995-8.138-1.995-3.806 0-8.56 2.714-14.268 8.135a139.01 139.01 0 0 0-15.7 17.706c-4.757 6.379-9.802 12.275-15.126 17.7-5.332 5.427-9.713 8.138-13.135 8.138-1.718 0-3.86-.479-6.427-1.424-2.566-.951-4.518-1.766-5.858-2.423-1.328-.671-3.607-1.999-6.845-4.004-3.244-1.999-5.048-3.094-5.428-3.285-26.075-14.469-48.438-31.029-67.093-49.676-18.649-18.658-35.211-41.019-49.676-67.097-.19-.381-1.287-2.19-3.284-5.424-2-3.237-3.333-5.518-3.999-6.854-.666-1.331-1.475-3.283-2.425-5.852s-1.427-4.709-1.427-6.424c0-3.424 2.713-7.804 8.138-13.134 5.424-5.327 11.326-10.373 17.7-15.128a138.95 138.95 0 0 0 17.701-15.699c5.424-5.711 8.136-10.467 8.136-14.273 0-2.663-.666-5.378-1.997-8.137-1.332-2.765-3.378-6.139-6.139-10.138-2.762-3.997-4.427-6.374-4.999-7.139a627.13 627.13 0 0 1-8.848-15.271 1441.4 1441.4 0 0 1-9.995-18.131c-3.615-6.658-6.468-11.799-8.564-15.415C98.986 9.233 93.943 1.997 90.516.859 89.183.288 87.183 0 84.521 0c-5.142 0-11.85.95-20.129 2.856-8.282 1.903-14.799 3.899-19.558 5.996-9.517 3.995-19.604 15.605-30.264 34.826C4.863 61.566.01 79.271.01 96.78c0 5.135.333 10.131.999 14.989.666 4.853 1.856 10.326 3.571 16.418 1.712 6.09 3.093 10.614 4.137 13.56 1.045 2.948 2.996 8.229 5.852 15.845 2.852 7.614 4.567 12.275 5.138 13.988 6.661 18.654 14.56 35.307 23.695 49.964 15.03 24.362 35.541 49.539 61.521 75.521 25.981 25.98 51.153 46.49 75.517 61.526 14.655 9.134 31.314 17.032 49.965 23.698 1.714.568 6.375 2.279 13.986 5.141 7.614 2.854 12.897 4.805 15.845 5.852 2.949 1.048 7.474 2.43 13.559 4.145 6.098 1.715 11.566 2.905 16.419 3.576 4.856.657 9.853.996 14.989.996 17.508 0 35.214-4.856 53.105-14.562 19.219-10.656 30.826-20.745 34.823-30.269 2.102-4.754 4.093-11.273 5.996-19.555 1.909-8.278 2.857-14.985 2.857-20.126.006-2.673-.281-4.668-.855-6.012z"/></symbol></symbol><symbol id="tel" viewBox="0 0 20 20"><use fill="currentColor" xlink:href="#a" transform="translate(-1008 -47)"/></symbol><symbol id="telephone" viewBox="0 0 401.998 401.998"><path d="M401.129 311.475c-1.137-3.426-8.371-8.473-21.697-15.129-3.61-2.098-8.754-4.949-15.41-8.566a1437.412 1437.412 0 0 1-18.13-9.996 605.612 605.612 0 0 1-15.276-8.846c-.76-.571-3.139-2.234-7.136-5-4.001-2.758-7.375-4.805-10.14-6.14-2.759-1.327-5.473-1.995-8.138-1.995-3.806 0-8.56 2.714-14.268 8.135a139.01 139.01 0 0 0-15.7 17.706c-4.757 6.379-9.802 12.275-15.126 17.7-5.332 5.427-9.713 8.138-13.135 8.138-1.718 0-3.86-.479-6.427-1.424-2.566-.951-4.518-1.766-5.858-2.423-1.328-.671-3.607-1.999-6.845-4.004-3.244-1.999-5.048-3.094-5.428-3.285-26.075-14.469-48.438-31.029-67.093-49.676-18.649-18.658-35.211-41.019-49.676-67.097-.19-.381-1.287-2.19-3.284-5.424-2-3.237-3.333-5.518-3.999-6.854-.666-1.331-1.475-3.283-2.425-5.852s-1.427-4.709-1.427-6.424c0-3.424 2.713-7.804 8.138-13.134 5.424-5.327 11.326-10.373 17.7-15.128a138.95 138.95 0 0 0 17.701-15.699c5.424-5.711 8.136-10.467 8.136-14.273 0-2.663-.666-5.378-1.997-8.137-1.332-2.765-3.378-6.139-6.139-10.138-2.762-3.997-4.427-6.374-4.999-7.139a627.13 627.13 0 0 1-8.848-15.271 1441.4 1441.4 0 0 1-9.995-18.131c-3.615-6.658-6.468-11.799-8.564-15.415C98.986 9.233 93.943 1.997 90.516.859 89.183.288 87.183 0 84.521 0c-5.142 0-11.85.95-20.129 2.856-8.282 1.903-14.799 3.899-19.558 5.996-9.517 3.995-19.604 15.605-30.264 34.826C4.863 61.566.01 79.271.01 96.78c0 5.135.333 10.131.999 14.989.666 4.853 1.856 10.326 3.571 16.418 1.712 6.09 3.093 10.614 4.137 13.56 1.045 2.948 2.996 8.229 5.852 15.845 2.852 7.614 4.567 12.275 5.138 13.988 6.661 18.654 14.56 35.307 23.695 49.964 15.03 24.362 35.541 49.539 61.521 75.521 25.981 25.98 51.153 46.49 75.517 61.526 14.655 9.134 31.314 17.032 49.965 23.698 1.714.568 6.375 2.279 13.986 5.141 7.614 2.854 12.897 4.805 15.845 5.852 2.949 1.048 7.474 2.43 13.559 4.145 6.098 1.715 11.566 2.905 16.419 3.576 4.856.657 9.853.996 14.989.996 17.508 0 35.214-4.856 53.105-14.562 19.219-10.656 30.826-20.745 34.823-30.269 2.102-4.754 4.093-11.273 5.996-19.555 1.909-8.278 2.857-14.985 2.857-20.126.006-2.673-.281-4.668-.855-6.012z"/></symbol></svg>