<svg xmlns="http://www.w3.org/2000/svg" xmlns:xlink="http://www.w3.org/1999/xlink"><defs><path id="a" d="M209 3945a28 28 0 1 1-56 0 28 28 0 0 1 56 0"/><path id="b" d="M209.9 3928l-2.01-2 8.94-8.94h21.9c.8 0 1.43-.64 1.43-1.42v-28.38c0-.78-.64-1.42-1.42-1.42h-45.48c-.78 0-1.42.64-1.42 1.42v12.77H189v-12.77a4.27 4.27 0 0 1 4.26-4.26h45.48a4.27 4.27 0 0 1 4.26 4.26v28.38a4.27 4.27 0 0 1-4.26 4.26H218z"/><path id="c" d="M209 3903h3v-3h-3z"/><path id="d" d="M215 3903h3v-3h-3z"/><path id="e" d="M220 3903h3v-3h-3z"/><path id="f" d="M161.84 3973H159v-10.06c0-11.52 6.31-13.95 13-16.52a51.5 51.5 0 0 0 7.6-3.42l1.4 2.5a54.55 54.55 0 0 1-8 3.6c-6.72 2.6-11.16 4.3-11.16 13.84z"/><path id="g" d="M224 3973h-2.84v-10.06c0-9.54-4.44-11.24-11.16-13.83a54.55 54.55 0 0 1-8-3.61l1.4-2.5a51.5 51.5 0 0 0 7.6 3.42c6.69 2.57 13 5 13 16.52z"/><path id="h" d="M185.68 3948.6l-4.08-4.06 1.66-2.49 7.74 1.29 7.74-1.29 1.66 2.49-4.08 4.06-5.32-2.65zm18.32-3.7l-3.94-5.9-9.06 1.5-9.06-1.5-3.94 5.9 7.13 7.1 5.87-2.93 5.87 2.93z"/><path id="i" d="M197 3941h3v-6h-3z"/><path id="j" d="M183 3941h3v-6h-3z"/><path id="k" d="M189 3961h3v-3h-3z"/><path id="l" d="M189 3956h3v-3h-3z"/><path id="m" d="M184.73 3934c-.45-.36-3.72-3.22-4.93-11.5v-5.5c0-7.74 3.46-11.2 11.2-11.2 7.75 0 11.2 3.46 11.2 11.2v5.5c-1.2 8.27-4.5 11.15-4.93 11.5-2.45 1.17-6.19 1.2-6.27 1.2-.08 0-3.82-.03-6.27-1.2zm6.27 4c.18 0 4.57-.02 7.63-1.55l.15-.09c.19-.12 4.73-3.26 6.2-13.56l.02-5.8c0-9.29-4.71-14-14-14s-14 4.71-14 14v5.6l.01.2c1.48 10.3 6.02 13.44 6.21 13.56l.15.1c3.07 1.52 7.45 1.54 7.63 1.54z"/><path id="n" d="M197.94 3922l-13.76-5.82-4.95 2.62-1.23-2.6 6.06-3.2 13.76 5.82 4.95-2.62 1.23 2.6z"/><path id="o" d="M170 3973h3v-9h-3z"/><path id="p" d="M209 3973h3v-9h-3z"/><path id="a" d="M507 3941c0 16.57-13.2 30-29.5 30s-29.5-13.43-29.5-30 13.2-30 29.5-30 29.5 13.43 29.5 30z"/><path id="b" d="M493.26 3968c-.43 0-.84-.2-1.1-.53l-43.85-55.02a1.4 1.4 0 0 1-.1-1.6l12.72-21.17c.26-.42.72-.68 1.22-.68h39.6v2.82h-38.8l-11.82 19.64 42.14 52.87 21.52-26.84 2.21 1.77-22.63 28.21c-.27.34-.68.53-1.1.53"/><path id="c" d="M524.31 3928l-2.12-1.79 11.76-14.75-11.48-19.64H515V3889h8.25c.48 0 .93.26 1.18.69l12.37 21.17c.3.5.26 1.15-.11 1.62z"/><path id="d" d="M500 3912h36v-3h-36z"/><path id="e" d="M449 3912h36v-3h-36z"/><path id="f" d="M508.3 3912l-2.3-1.68 15.7-21.32 2.3 1.68z"/><path id="g" d="M506.7 3912l-15.7-21.32 2.3-1.68 15.7 21.32z"/><path id="h" d="M478.3 3912l-2.3-1.68 15.7-21.32 2.3 1.68z"/><path id="i" d="M475.7 3912l-15.7-21.32 2.3-1.68 15.7 21.32z"/><path id="j" d="M491.32 3966L476 3911.76l2.68-.76 15.32 54.24z"/><path id="k" d="M493.68 3966l-2.68-.76 15.32-54.24 2.68.76z"/><path id="l" d="M506 3895h3v-9h-3z"/><path id="m" d="M504 3892h9v-3h-9z"/><path id="n" d="M491 3916h3v-9h-3z"/><path id="o" d="M489 3912h9v-3h-9z"/><path id="p" d="M462 3950h3v-9h-3z"/><path id="q" d="M459 3946h9v-3h-9z"/><path id="r" d="M518 3937h3v-9h-3z"/><path id="s" d="M515 3934h9v-3h-9z"/><path id="a" d="M806 3943c0 16.57-13.2 30-29.5 30s-29.5-13.43-29.5-30 13.2-30 29.5-30 29.5 13.43 29.5 30"/><path id="b" d="M777.41 3948H747v-65h35.13l11.87 12.13v10.48h-2.76v-9.3l-10.25-10.48h-31.23v59.34h27.65z"/><path id="c" d="M787 3906h3v-6h-3z"/><path id="d" d="M779 3943h-25v-54h25v2.84h-22.22v48.32H779z"/><path id="e" d="M783.76 3910.83H815l10.25 10.47v48.87h-41.48zm44.24 9.3L816.13 3908H781v65h47z"/><path id="f" d="M816 3906h-2.83v-12.75c0-.78-.64-1.42-1.42-1.42H799V3889h12.75c2.34 0 4.25 1.9 4.25 4.25z"/><path id="g" d="M778 3968h-12.75a4.26 4.26 0 0 1-4.25-4.25V3951h2.83v12.75c0 .78.64 1.42 1.42 1.42H778z"/><path id="h" d="M790 3920h20v-3h-20z"/><path id="i" d="M790 3925h20v-3h-20z"/><path id="j" d="M790 3931h31v-3h-31z"/><path id="k" d="M790 3937h31v-3h-31z"/><path id="l" d="M790 3942h31v-3h-31z"/><path id="m" d="M790 3948h31v-3h-31z"/><path id="n" d="M790 3954h31v-3h-31z"/><path id="o" d="M790 3959h31v-3h-31z"/><path id="p" d="M790 3965h31v-3h-31z"/><path id="q" d="M794 3897h-13v-13h2.89v10.11H794z"/><path id="r" d="M828 3922h-13v-13h2.89v10.11H828z"/><path id="a" d="M1127 3943c0 16.57-13.2 30-29.5 30s-29.5-13.43-29.5-30 13.2-30 29.5-30 29.5 13.43 29.5 30"/><path id="b" d="M1066.3 3920.65l10.08 10.1c.54.54 1.41.54 1.95 0l18.38-18.4 4.95 4.96-24.3 24.35-16.02-16.04zm11.05 24.35c.36 0 .71-.14.98-.4l26.26-26.31c.55-.54.55-1.42 0-1.96l-6.9-6.92a1.38 1.38 0 0 0-1.96 0l-18.38 18.4-10.08-10.1a1.38 1.38 0 0 0-1.95 0l-6.91 6.93a1.38 1.38 0 0 0 0 1.95l17.97 18c.27.27.62.41.97.41z"/><path id="c" d="M1046 3930h3v-3h-3z"/><path id="d" d="M1083 3885.81a42.24 42.24 0 0 1 42.19 42.19 42.24 42.24 0 0 1-42.19 42.19 42.24 42.24 0 0 1-42.19-42.19 42.24 42.24 0 0 1 42.19-42.19zm0 87.19c24.81 0 45-20.19 45-45s-20.19-45-45-45-45 20.19-45 45 20.19 45 45 45z"/><path id="e" d="M1081 3965h3v-3h-3z"/><path id="f" d="M1081 3895h3v-3h-3z"/><path id="g" d="M1116 3930h3v-3h-3z"/><path id="a" d="M65 228.72c-2.52 0-3.84-1.22-4.9-2.2-.94-.85-1.62-1.47-3.1-1.47-1.49 0-2.16.62-3.1 1.48-1.06.97-2.39 2.19-4.9 2.19-2.52 0-3.84-1.22-4.91-2.2-.93-.85-1.6-1.47-3.1-1.47-1.48 0-2.15.62-3.08 1.48-1.07.97-2.4 2.19-4.91 2.19-2.52 0-3.84-1.22-4.9-2.2-.94-.85-1.62-1.47-3.1-1.47V222c2.52 0 3.84 1.22 4.9 2.2.94.85 1.61 1.46 3.1 1.46 1.48 0 2.16-.61 3.09-1.47 1.07-.97 2.4-2.19 4.9-2.19 2.52 0 3.85 1.22 4.92 2.2.93.85 1.6 1.46 3.09 1.46 1.48 0 2.16-.61 3.09-1.47 1.07-.97 2.4-2.19 4.9-2.19 2.52 0 3.85 1.22 4.92 2.2.93.85 1.6 1.46 3.09 1.46z"/><path id="b" d="M65 237.74c-2.52 0-3.84-1.22-4.9-2.2-.94-.85-1.62-1.47-3.1-1.47-1.49 0-2.16.62-3.1 1.48-1.06.97-2.39 2.19-4.9 2.19-2.52 0-3.84-1.22-4.91-2.2-.93-.85-1.6-1.47-3.1-1.47-1.48 0-2.15.62-3.08 1.48-1.07.97-2.4 2.19-4.91 2.19-2.52 0-3.84-1.22-4.9-2.2-.94-.85-1.62-1.47-3.1-1.47v-3.05c2.52 0 3.84 1.22 4.9 2.2.94.85 1.61 1.46 3.1 1.46 1.48 0 2.16-.61 3.09-1.47 1.07-.97 2.4-2.19 4.9-2.19 2.52 0 3.85 1.22 4.92 2.2.93.85 1.6 1.46 3.09 1.46 1.48 0 2.16-.61 3.09-1.47 1.07-.97 2.4-2.19 4.9-2.19 2.52 0 3.85 1.22 4.92 2.2.93.85 1.6 1.46 3.09 1.46z"/><path id="c" d="M65 246.74c-2.52 0-3.84-1.22-4.9-2.2-.94-.85-1.62-1.47-3.1-1.47-1.49 0-2.16.62-3.1 1.48-1.06.97-2.39 2.19-4.9 2.19-2.52 0-3.84-1.22-4.91-2.2-.93-.85-1.6-1.47-3.1-1.47-1.48 0-2.15.62-3.08 1.48-1.07.97-2.4 2.19-4.91 2.19-2.52 0-3.84-1.22-4.9-2.2-.94-.85-1.62-1.47-3.1-1.47v-3.05c2.52 0 3.84 1.22 4.9 2.2.94.85 1.61 1.46 3.1 1.46 1.48 0 2.16-.61 3.09-1.47 1.07-.97 2.4-2.19 4.9-2.19 2.52 0 3.85 1.22 4.92 2.2.93.85 1.6 1.46 3.09 1.46 1.48 0 2.16-.61 3.09-1.47 1.07-.97 2.4-2.19 4.9-2.19 2.52 0 3.85 1.22 4.92 2.2.93.85 1.6 1.46 3.09 1.46z"/><path id="d" d="M65 255.99c-2.52 0-3.84-1.22-4.9-2.2-.94-.85-1.62-1.47-3.1-1.47-1.49 0-2.16.62-3.1 1.48-1.06.97-2.39 2.19-4.9 2.19-2.52 0-3.84-1.22-4.91-2.2-.93-.85-1.6-1.47-3.1-1.47-1.48 0-2.15.62-3.08 1.48-1.07.97-2.4 2.19-4.91 2.19-2.52 0-3.84-1.22-4.9-2.2-.94-.85-1.62-1.47-3.1-1.47v-3.05c2.52 0 3.84 1.22 4.9 2.2.94.85 1.61 1.46 3.1 1.46 1.48 0 2.16-.61 3.09-1.47 1.07-.97 2.4-2.19 4.9-2.19 2.52 0 3.85 1.22 4.92 2.2.93.85 1.6 1.46 3.09 1.46 1.48 0 2.16-.61 3.09-1.47 1.07-.97 2.4-2.19 4.9-2.19 2.52 0 3.85 1.22 4.92 2.2.93.85 1.6 1.46 3.09 1.46z"/><path id="b" d="M52.37 306.25c3.08-.04 5.58-2.77 5.58-6.12 0-3.38-2.53-6.13-5.64-6.13-3.1 0-5.63 2.75-5.63 6.13h2.82c0-1.7 1.26-3.07 2.81-3.07 1.56 0 2.82 1.38 2.82 3.07s-1.26 3.06-2.82 3.06H28.07v3.06z"/><path id="c" d="M42.4 315.62H28.07v3.06H42.4c1.55 0 2.82 1.38 2.82 3.07s-1.27 3.06-2.82 3.06c-1.55 0-2.82-1.37-2.82-3.06h-2.82c0 3.37 2.53 6.12 5.64 6.12 3.1 0 5.63-2.75 5.63-6.12 0-3.38-2.52-6.13-5.63-6.13"/><path id="a" d="M28 321.54v-12.27h39.88v12.27z"/><path id="e" d="M62.24 309.28L28 309.27v3.06l34.24.02v-1.53 1.53c1.56 0 2.82 1.37 2.82 3.06s-1.26 3.06-2.82 3.06c-1.55 0-2.81-1.37-2.81-3.06H56.6c0 3.38 2.53 6.13 5.63 6.13 3.11 0 5.64-2.75 5.64-6.13s-2.53-6.13-5.64-6.13"/><clipPath id="d"><use xlink:href="#a"/></clipPath><path id="a" d="M28 375.69v17.21h8.11v-34.43H28z"/><path id="d" d="M30.8 369.38c0-.77.56-1.4 1.26-1.4.69 0 1.25.63 1.25 1.4 0 .77-.56 1.4-1.25 1.4-.7 0-1.26-.63-1.26-1.4zm2.65-10.91h-2.8v6.7a4.5 4.5 0 0 0-2.65 4.21 4.5 4.5 0 0 0 2.66 4.21v19.31h2.8v-19.3a4.5 4.5 0 0 0 2.65-4.21 4.5 4.5 0 0 0-2.66-4.21z"/><path id="e" d="M41.38 381.3c0-.77.56-1.39 1.26-1.39.69 0 1.25.62 1.25 1.4 0 .76-.56 1.39-1.25 1.39-.7 0-1.26-.63-1.26-1.4zm2.65-22.85h-2.8v18.64a4.5 4.5 0 0 0-2.65 4.21 4.5 4.5 0 0 0 2.66 4.21v7.26h2.8v-7.26a4.5 4.5 0 0 0 2.65-4.2 4.5 4.5 0 0 0-2.66-4.22z"/><path id="f" d="M52.43 371.3a1.43 1.43 0 0 1-.47-.94c-.08-.76.41-1.45 1.1-1.54l.15-.01c.63 0 1.17.52 1.25 1.23.08.76-.42 1.46-1.1 1.55-.34.04-.67-.06-.93-.3zm4.8-1.62a4.43 4.43 0 0 0-2.63-3.69v-7.54h-2.8v7.54a4.55 4.55 0 0 0-2.62 4.74 4.6 4.6 0 0 0 1.51 3c.34.3.72.53 1.12.69v18.35h2.8V374.4c.7-.28 1.3-.76 1.78-1.42a4.8 4.8 0 0 0 .84-3.31z"/><path id="b" d="M59.73 358.31h8.11v34.6h-8.11v-34.6z"/><path id="h" d="M62.54 386.1c-.08-.77.41-1.46 1.1-1.55l.15-.01c.63 0 1.17.52 1.25 1.23.08.76-.42 1.46-1.1 1.55-.7.09-1.32-.46-1.4-1.22zm3.76-3.69c-.34-.3-.72-.53-1.12-.7v-23.4h-2.8v23.41a4.55 4.55 0 0 0-2.62 4.74 4.43 4.43 0 0 0 2.63 3.69v2.76h2.8v-2.77a4.55 4.55 0 0 0 2.62-4.73 4.6 4.6 0 0 0-1.5-3z"/><clipPath id="c"><use xlink:href="#a"/></clipPath><clipPath id="g"><use xlink:href="#b"/></clipPath><path id="d" d="M209 3945a28 28 0 1 1-56 0 28 28 0 0 1 56 0"/><path id="e" d="M209.9 3928l-2.01-2 8.94-8.94h21.9c.8 0 1.43-.64 1.43-1.42v-28.38c0-.78-.64-1.42-1.42-1.42h-45.48c-.78 0-1.42.64-1.42 1.42v12.77H189v-12.77a4.27 4.27 0 0 1 4.26-4.26h45.48a4.27 4.27 0 0 1 4.26 4.26v28.38a4.27 4.27 0 0 1-4.26 4.26H218z"/><path id="f" d="M209 3903h3v-3h-3z"/><path id="g" d="M215 3903h3v-3h-3z"/><path id="h" d="M220 3903h3v-3h-3z"/><path id="i" d="M161.84 3973H159v-10.06c0-11.52 6.31-13.95 13-16.52a51.5 51.5 0 0 0 7.6-3.42l1.4 2.5a54.55 54.55 0 0 1-8 3.6c-6.72 2.6-11.16 4.3-11.16 13.84z"/><path id="j" d="M224 3973h-2.84v-10.06c0-9.54-4.44-11.24-11.16-13.83a54.55 54.55 0 0 1-8-3.61l1.4-2.5a51.5 51.5 0 0 0 7.6 3.42c6.69 2.57 13 5 13 16.52z"/><path id="k" d="M185.68 3948.6l-4.08-4.06 1.66-2.49 7.74 1.29 7.74-1.29 1.66 2.49-4.08 4.06-5.32-2.65zm18.32-3.7l-3.94-5.9-9.06 1.5-9.06-1.5-3.94 5.9 7.13 7.1 5.87-2.93 5.87 2.93z"/><path id="l" d="M197 3941h3v-6h-3z"/><path id="m" d="M183 3941h3v-6h-3z"/><path id="n" d="M189 3961h3v-3h-3z"/><path id="o" d="M189 3956h3v-3h-3z"/><path id="p" d="M184.73 3934c-.45-.36-3.72-3.22-4.93-11.5v-5.5c0-7.74 3.46-11.2 11.2-11.2 7.75 0 11.2 3.46 11.2 11.2v5.5c-1.2 8.27-4.5 11.15-4.93 11.5-2.45 1.17-6.19 1.2-6.27 1.2-.08 0-3.82-.03-6.27-1.2zm6.27 4c.18 0 4.57-.02 7.63-1.55l.15-.09c.19-.12 4.73-3.26 6.2-13.56l.02-5.8c0-9.29-4.71-14-14-14s-14 4.71-14 14v5.6l.01.2c1.48 10.3 6.02 13.44 6.21 13.56l.15.1c3.07 1.52 7.45 1.54 7.63 1.54z"/><path id="q" d="M197.94 3922l-13.76-5.82-4.95 2.62-1.23-2.6 6.06-3.2 13.76 5.82 4.95-2.62 1.23 2.6z"/><path id="r" d="M170 3973h3v-9h-3z"/><path id="s" d="M209 3973h3v-9h-3z"/><path id="t" d="M507 3941c0 16.57-13.2 30-29.5 30s-29.5-13.43-29.5-30 13.2-30 29.5-30 29.5 13.43 29.5 30z"/><path id="u" d="M493.26 3968c-.43 0-.84-.2-1.1-.53l-43.85-55.02a1.4 1.4 0 0 1-.1-1.6l12.72-21.17c.26-.42.72-.68 1.22-.68h39.6v2.82h-38.8l-11.82 19.64 42.14 52.87 21.52-26.84 2.21 1.77-22.63 28.21c-.27.34-.68.53-1.1.53"/><path id="v" d="M524.31 3928l-2.12-1.79 11.76-14.75-11.48-19.64H515V3889h8.25c.48 0 .93.26 1.18.69l12.37 21.17c.3.5.26 1.15-.11 1.62z"/><path id="w" d="M500 3912h36v-3h-36z"/><path id="x" d="M449 3912h36v-3h-36z"/><path id="y" d="M508.3 3912l-2.3-1.68 15.7-21.32 2.3 1.68z"/><path id="z" d="M506.7 3912l-15.7-21.32 2.3-1.68 15.7 21.32z"/><path id="A" d="M478.3 3912l-2.3-1.68 15.7-21.32 2.3 1.68z"/><path id="B" d="M475.7 3912l-15.7-21.32 2.3-1.68 15.7 21.32z"/><path id="C" d="M491.32 3966L476 3911.76l2.68-.76 15.32 54.24z"/><path id="D" d="M493.68 3966l-2.68-.76 15.32-54.24 2.68.76z"/><path id="E" d="M506 3895h3v-9h-3z"/><path id="F" d="M504 3892h9v-3h-9z"/><path id="G" d="M491 3916h3v-9h-3z"/><path id="H" d="M489 3912h9v-3h-9z"/><path id="I" d="M462 3950h3v-9h-3z"/><path id="J" d="M459 3946h9v-3h-9z"/><path id="K" d="M518 3937h3v-9h-3z"/><path id="L" d="M515 3934h9v-3h-9z"/><path id="M" d="M806 3943c0 16.57-13.2 30-29.5 30s-29.5-13.43-29.5-30 13.2-30 29.5-30 29.5 13.43 29.5 30"/><path id="N" d="M777.41 3948H747v-65h35.13l11.87 12.13v10.48h-2.76v-9.3l-10.25-10.48h-31.23v59.34h27.65z"/><path id="O" d="M787 3906h3v-6h-3z"/><path id="P" d="M779 3943h-25v-54h25v2.84h-22.22v48.32H779z"/><path id="Q" d="M783.76 3910.83H815l10.25 10.47v48.87h-41.48zm44.24 9.3L816.13 3908H781v65h47z"/><path id="R" d="M816 3906h-2.83v-12.75c0-.78-.64-1.42-1.42-1.42H799V3889h12.75c2.34 0 4.25 1.9 4.25 4.25z"/><path id="S" d="M778 3968h-12.75a4.26 4.26 0 0 1-4.25-4.25V3951h2.83v12.75c0 .78.64 1.42 1.42 1.42H778z"/><path id="T" d="M790 3920h20v-3h-20z"/><path id="U" d="M790 3925h20v-3h-20z"/><path id="V" d="M790 3931h31v-3h-31z"/><path id="W" d="M790 3937h31v-3h-31z"/><path id="X" d="M790 3942h31v-3h-31z"/><path id="Y" d="M790 3948h31v-3h-31z"/><path id="Z" d="M790 3954h31v-3h-31z"/><path id="aa" d="M790 3959h31v-3h-31z"/><path id="ab" d="M790 3965h31v-3h-31z"/><path id="ac" d="M794 3897h-13v-13h2.89v10.11H794z"/><path id="ad" d="M828 3922h-13v-13h2.89v10.11H828z"/><path id="ae" d="M1127 3943c0 16.57-13.2 30-29.5 30s-29.5-13.43-29.5-30 13.2-30 29.5-30 29.5 13.43 29.5 30"/><path id="af" d="M1066.3 3920.65l10.08 10.1c.54.54 1.41.54 1.95 0l18.38-18.4 4.95 4.96-24.3 24.35-16.02-16.04zm11.05 24.35c.36 0 .71-.14.98-.4l26.26-26.31c.55-.54.55-1.42 0-1.96l-6.9-6.92a1.38 1.38 0 0 0-1.96 0l-18.38 18.4-10.08-10.1a1.38 1.38 0 0 0-1.95 0l-6.91 6.93a1.38 1.38 0 0 0 0 1.95l17.97 18c.27.27.62.41.97.41z"/><path id="ag" d="M1046 3930h3v-3h-3z"/><path id="ah" d="M1083 3885.81a42.24 42.24 0 0 1 42.19 42.19 42.24 42.24 0 0 1-42.19 42.19 42.24 42.24 0 0 1-42.19-42.19 42.24 42.24 0 0 1 42.19-42.19zm0 87.19c24.81 0 45-20.19 45-45s-20.19-45-45-45-45 20.19-45 45 20.19 45 45 45z"/><path id="ai" d="M1081 3965h3v-3h-3z"/><path id="aj" d="M1081 3895h3v-3h-3z"/><path id="ak" d="M1116 3930h3v-3h-3z"/><path id="al" d="M65 228.72c-2.52 0-3.84-1.22-4.9-2.2-.94-.85-1.62-1.47-3.1-1.47-1.49 0-2.16.62-3.1 1.48-1.06.97-2.39 2.19-4.9 2.19-2.52 0-3.84-1.22-4.91-2.2-.93-.85-1.6-1.47-3.1-1.47-1.48 0-2.15.62-3.08 1.48-1.07.97-2.4 2.19-4.91 2.19-2.52 0-3.84-1.22-4.9-2.2-.94-.85-1.62-1.47-3.1-1.47V222c2.52 0 3.84 1.22 4.9 2.2.94.85 1.61 1.46 3.1 1.46 1.48 0 2.16-.61 3.09-1.47 1.07-.97 2.4-2.19 4.9-2.19 2.52 0 3.85 1.22 4.92 2.2.93.85 1.6 1.46 3.09 1.46 1.48 0 2.16-.61 3.09-1.47 1.07-.97 2.4-2.19 4.9-2.19 2.52 0 3.85 1.22 4.92 2.2.93.85 1.6 1.46 3.09 1.46z"/><path id="am" d="M65 237.74c-2.52 0-3.84-1.22-4.9-2.2-.94-.85-1.62-1.47-3.1-1.47-1.49 0-2.16.62-3.1 1.48-1.06.97-2.39 2.19-4.9 2.19-2.52 0-3.84-1.22-4.91-2.2-.93-.85-1.6-1.47-3.1-1.47-1.48 0-2.15.62-3.08 1.48-1.07.97-2.4 2.19-4.91 2.19-2.52 0-3.84-1.22-4.9-2.2-.94-.85-1.62-1.47-3.1-1.47v-3.05c2.52 0 3.84 1.22 4.9 2.2.94.85 1.61 1.46 3.1 1.46 1.48 0 2.16-.61 3.09-1.47 1.07-.97 2.4-2.19 4.9-2.19 2.52 0 3.85 1.22 4.92 2.2.93.85 1.6 1.46 3.09 1.46 1.48 0 2.16-.61 3.09-1.47 1.07-.97 2.4-2.19 4.9-2.19 2.52 0 3.85 1.22 4.92 2.2.93.85 1.6 1.46 3.09 1.46z"/><path id="an" d="M65 246.74c-2.52 0-3.84-1.22-4.9-2.2-.94-.85-1.62-1.47-3.1-1.47-1.49 0-2.16.62-3.1 1.48-1.06.97-2.39 2.19-4.9 2.19-2.52 0-3.84-1.22-4.91-2.2-.93-.85-1.6-1.47-3.1-1.47-1.48 0-2.15.62-3.08 1.48-1.07.97-2.4 2.19-4.91 2.19-2.52 0-3.84-1.22-4.9-2.2-.94-.85-1.62-1.47-3.1-1.47v-3.05c2.52 0 3.84 1.22 4.9 2.2.94.85 1.61 1.46 3.1 1.46 1.48 0 2.16-.61 3.09-1.47 1.07-.97 2.4-2.19 4.9-2.19 2.52 0 3.85 1.22 4.92 2.2.93.85 1.6 1.46 3.09 1.46 1.48 0 2.16-.61 3.09-1.47 1.07-.97 2.4-2.19 4.9-2.19 2.52 0 3.85 1.22 4.92 2.2.93.85 1.6 1.46 3.09 1.46z"/><path id="ao" d="M65 255.99c-2.52 0-3.84-1.22-4.9-2.2-.94-.85-1.62-1.47-3.1-1.47-1.49 0-2.16.62-3.1 1.48-1.06.97-2.39 2.19-4.9 2.19-2.52 0-3.84-1.22-4.91-2.2-.93-.85-1.6-1.47-3.1-1.47-1.48 0-2.15.62-3.08 1.48-1.07.97-2.4 2.19-4.91 2.19-2.52 0-3.84-1.22-4.9-2.2-.94-.85-1.62-1.47-3.1-1.47v-3.05c2.52 0 3.84 1.22 4.9 2.2.94.85 1.61 1.46 3.1 1.46 1.48 0 2.16-.61 3.09-1.47 1.07-.97 2.4-2.19 4.9-2.19 2.52 0 3.85 1.22 4.92 2.2.93.85 1.6 1.46 3.09 1.46 1.48 0 2.16-.61 3.09-1.47 1.07-.97 2.4-2.19 4.9-2.19 2.52 0 3.85 1.22 4.92 2.2.93.85 1.6 1.46 3.09 1.46z"/><path id="ap" d="M52.37 306.25c3.08-.04 5.58-2.77 5.58-6.12 0-3.38-2.53-6.13-5.64-6.13-3.1 0-5.63 2.75-5.63 6.13h2.82c0-1.7 1.26-3.07 2.81-3.07 1.56 0 2.82 1.38 2.82 3.07s-1.26 3.06-2.82 3.06H28.07v3.06z"/><path id="aq" d="M42.4 315.62H28.07v3.06H42.4c1.55 0 2.82 1.38 2.82 3.07s-1.27 3.06-2.82 3.06c-1.55 0-2.82-1.37-2.82-3.06h-2.82c0 3.37 2.53 6.12 5.64 6.12 3.1 0 5.63-2.75 5.63-6.12 0-3.38-2.52-6.13-5.63-6.13"/><path id="a" d="M28 321.54v-12.27h39.88v12.27z"/><path id="as" d="M62.24 309.28L28 309.27v3.06l34.24.02v-1.53 1.53c1.56 0 2.82 1.37 2.82 3.06s-1.26 3.06-2.82 3.06c-1.55 0-2.81-1.37-2.81-3.06H56.6c0 3.38 2.53 6.13 5.63 6.13 3.11 0 5.64-2.75 5.64-6.13s-2.53-6.13-5.64-6.13"/><clipPath id="ar"><use xlink:href="#a"/></clipPath><path id="b" d="M28 375.69v17.21h8.11v-34.43H28z"/><path id="au" d="M30.8 369.38c0-.77.56-1.4 1.26-1.4.69 0 1.25.63 1.25 1.4 0 .77-.56 1.4-1.25 1.4-.7 0-1.26-.63-1.26-1.4zm2.65-10.91h-2.8v6.7a4.5 4.5 0 0 0-2.65 4.21 4.5 4.5 0 0 0 2.66 4.21v19.31h2.8v-19.3a4.5 4.5 0 0 0 2.65-4.21 4.5 4.5 0 0 0-2.66-4.21z"/><path id="av" d="M41.38 381.3c0-.77.56-1.39 1.26-1.39.69 0 1.25.62 1.25 1.4 0 .76-.56 1.39-1.25 1.39-.7 0-1.26-.63-1.26-1.4zm2.65-22.85h-2.8v18.64a4.5 4.5 0 0 0-2.65 4.21 4.5 4.5 0 0 0 2.66 4.21v7.26h2.8v-7.26a4.5 4.5 0 0 0 2.65-4.2 4.5 4.5 0 0 0-2.66-4.22z"/><path id="aw" d="M52.43 371.3a1.43 1.43 0 0 1-.47-.94c-.08-.76.41-1.45 1.1-1.54l.15-.01c.63 0 1.17.52 1.25 1.23.08.76-.42 1.46-1.1 1.55-.34.04-.67-.06-.93-.3zm4.8-1.62a4.43 4.43 0 0 0-2.63-3.69v-7.54h-2.8v7.54a4.55 4.55 0 0 0-2.62 4.74 4.6 4.6 0 0 0 1.51 3c.34.3.72.53 1.12.69v18.35h2.8V374.4c.7-.28 1.3-.76 1.78-1.42a4.8 4.8 0 0 0 .84-3.31z"/><path id="c" d="M59.73 358.31h8.11v34.6h-8.11v-34.6z"/><path id="ay" d="M62.54 386.1c-.08-.77.41-1.46 1.1-1.55l.15-.01c.63 0 1.17.52 1.25 1.23.08.76-.42 1.46-1.1 1.55-.7.09-1.32-.46-1.4-1.22zm3.76-3.69c-.34-.3-.72-.53-1.12-.7v-23.4h-2.8v23.41a4.55 4.55 0 0 0-2.62 4.74 4.43 4.43 0 0 0 2.63 3.69v2.76h2.8v-2.77a4.55 4.55 0 0 0 2.62-4.73 4.6 4.6 0 0 0-1.5-3z"/><clipPath id="at"><use xlink:href="#b"/></clipPath><clipPath id="ax"><use xlink:href="#c"/></clipPath><path id="az" d="M1008.47 55c-.98-2.3-.38-5 1.42-6.74l.68-.65c.8-.81 2.12-.81 2.93 0l1.28 1.28c.8.81.8 2.13 0 2.94l-.42.42c-1 1-1.39 2.47-.98 3.82.95 3.2 3.53 4.7 5.48 5.4 1.33.47 2.82.17 3.88-.78l.45-.4c.8-.82 2.12-.82 2.93 0l1.27 1.27c.81.81.81 2.13 0 2.94l-.68.7a6.04 6.04 0 0 1-6.79 1.26 24.95 24.95 0 0 1-6.9-5.04 21.53 21.53 0 0 1-4.55-6.42"/><path id="a" d="M1008.47 55c-.98-2.3-.38-5 1.42-6.74l.68-.65c.8-.81 2.12-.81 2.93 0l1.28 1.28c.8.81.8 2.13 0 2.94l-.42.42c-1 1-1.39 2.47-.98 3.82.95 3.2 3.53 4.7 5.48 5.4 1.33.47 2.82.17 3.88-.78l.45-.4c.8-.82 2.12-.82 2.93 0l1.27 1.27c.81.81.81 2.13 0 2.94l-.68.7a6.04 6.04 0 0 1-6.79 1.26 24.95 24.95 0 0 1-6.9-5.04 21.53 21.53 0 0 1-4.55-6.42"/></defs><symbol id="advantages-1" viewBox="0 0 90 90"><use fill="#ecf5f8" xlink:href="#a" transform="translate(-153 -3883)"/><use fill="#3eb4f0" xlink:href="#b" transform="translate(-153 -3883)"/><use fill="#3eb4f0" xlink:href="#c" transform="translate(-153 -3883)"/><use fill="#3eb4f0" xlink:href="#d" transform="translate(-153 -3883)"/><use fill="#3eb4f0" xlink:href="#e" transform="translate(-153 -3883)"/><use fill="#3eb4f0" xlink:href="#f" transform="translate(-153 -3883)"/><use fill="#3eb4f0" xlink:href="#g" transform="translate(-153 -3883)"/><use fill="#3eb4f0" xlink:href="#h" transform="translate(-153 -3883)"/><use fill="#3eb4f0" xlink:href="#i" transform="translate(-153 -3883)"/><use fill="#3eb4f0" xlink:href="#j" transform="translate(-153 -3883)"/><use fill="#3eb4f0" xlink:href="#k" transform="translate(-153 -3883)"/><use fill="#3eb4f0" xlink:href="#l" transform="translate(-153 -3883)"/><use fill="#3eb4f0" xlink:href="#m" transform="translate(-153 -3883)"/><use fill="#3eb4f0" xlink:href="#n" transform="translate(-153 -3883)"/><use fill="#3eb4f0" xlink:href="#o" transform="translate(-153 -3883)"/><use fill="#3eb4f0" xlink:href="#p" transform="translate(-153 -3883)"/></symbol><symbol id="advantages-2" viewBox="0 0 89 85"><use fill="#ecf5f8" xlink:href="#a" transform="translate(-448 -3886)"/><use fill="#3eb4f0" xlink:href="#b" transform="translate(-448 -3886)"/><use fill="#3eb4f0" xlink:href="#c" transform="translate(-448 -3886)"/><use fill="#3eb4f0" xlink:href="#d" transform="translate(-448 -3886)"/><use fill="#3eb4f0" xlink:href="#e" transform="translate(-448 -3886)"/><use fill="#3eb4f0" xlink:href="#f" transform="translate(-448 -3886)"/><use fill="#3eb4f0" xlink:href="#g" transform="translate(-448 -3886)"/><use fill="#3eb4f0" xlink:href="#h" transform="translate(-448 -3886)"/><use fill="#3eb4f0" xlink:href="#i" transform="translate(-448 -3886)"/><use fill="#3eb4f0" xlink:href="#j" transform="translate(-448 -3886)"/><use fill="#3eb4f0" xlink:href="#k" transform="translate(-448 -3886)"/><use fill="#3eb4f0" xlink:href="#l" transform="translate(-448 -3886)"/><use fill="#3eb4f0" xlink:href="#m" transform="translate(-448 -3886)"/><use fill="#3eb4f0" xlink:href="#n" transform="translate(-448 -3886)"/><use fill="#3eb4f0" xlink:href="#o" transform="translate(-448 -3886)"/><use fill="#3eb4f0" xlink:href="#p" transform="translate(-448 -3886)"/><use fill="#3eb4f0" xlink:href="#q" transform="translate(-448 -3886)"/><use fill="#3eb4f0" xlink:href="#r" transform="translate(-448 -3886)"/><use fill="#3eb4f0" xlink:href="#s" transform="translate(-448 -3886)"/></symbol><symbol id="advantages-3" viewBox="0 0 81 90"><use fill="#ecf5f8" xlink:href="#a" transform="translate(-747 -3883)"/><use fill="#3eb4f0" xlink:href="#b" transform="translate(-747 -3883)"/><use fill="#3eb4f0" xlink:href="#c" transform="translate(-747 -3883)"/><use fill="#3eb4f0" xlink:href="#d" transform="translate(-747 -3883)"/><use fill="#3eb4f0" xlink:href="#e" transform="translate(-747 -3883)"/><use fill="#3eb4f0" xlink:href="#f" transform="translate(-747 -3883)"/><use fill="#3eb4f0" xlink:href="#g" transform="translate(-747 -3883)"/><use fill="#3eb4f0" xlink:href="#h" transform="translate(-747 -3883)"/><use fill="#3eb4f0" xlink:href="#i" transform="translate(-747 -3883)"/><use fill="#3eb4f0" xlink:href="#j" transform="translate(-747 -3883)"/><use fill="#3eb4f0" xlink:href="#k" transform="translate(-747 -3883)"/><use fill="#3eb4f0" xlink:href="#l" transform="translate(-747 -3883)"/><use fill="#3eb4f0" xlink:href="#m" transform="translate(-747 -3883)"/><use fill="#3eb4f0" xlink:href="#n" transform="translate(-747 -3883)"/><use fill="#3eb4f0" xlink:href="#o" transform="translate(-747 -3883)"/><use fill="#3eb4f0" xlink:href="#p" transform="translate(-747 -3883)"/><use fill="#3eb4f0" xlink:href="#q" transform="translate(-747 -3883)"/><use fill="#3eb4f0" xlink:href="#r" transform="translate(-747 -3883)"/></symbol><symbol id="advantages-4" viewBox="0 0 90 90"><use fill="#ecf5f8" xlink:href="#a" transform="translate(-1038 -3883)"/><use fill="#3eb4f0" xlink:href="#b" transform="translate(-1038 -3883)"/><use fill="#3eb4f0" xlink:href="#c" transform="translate(-1038 -3883)"/><use fill="#3eb4f0" xlink:href="#d" transform="translate(-1038 -3883)"/><use fill="#3eb4f0" xlink:href="#e" transform="translate(-1038 -3883)"/><use fill="#3eb4f0" xlink:href="#f" transform="translate(-1038 -3883)"/><use fill="#3eb4f0" xlink:href="#g" transform="translate(-1038 -3883)"/></symbol><symbol id="btn-1" viewBox="0 0 40 34"><use fill="currentColor" xlink:href="#a" transform="translate(-25 -222)"/><use fill="currentColor" xlink:href="#b" transform="translate(-25 -222)"/><use fill="currentColor" xlink:href="#c" transform="translate(-25 -222)"/><use fill="currentColor" xlink:href="#d" transform="translate(-25 -222)"/></symbol><symbol id="btn-2" viewBox="0 0 40 34"><use fill="currentColor" xlink:href="#b" transform="translate(-28 -294)"/><use fill="currentColor" xlink:href="#c" transform="translate(-28 -294)"/><g clip-path="url(#d)" transform="translate(-28 -294)"><use fill="currentColor" xlink:href="#e"/></g></symbol><symbol id="btn-3" viewBox="0 0 40 35"><g clip-path="url(#c)" transform="translate(-28 -358)"><use fill="currentColor" xlink:href="#d"/></g><use fill="currentColor" xlink:href="#e" transform="translate(-28 -358)"/><use fill="currentColor" xlink:href="#f" transform="translate(-28 -358)"/><g><g clip-path="url(#g)" transform="translate(-28 -358)"><use fill="currentColor" xlink:href="#h"/></g></g></symbol><symbol id="sprite-svg"/><symbol id="tel" viewBox="0 0 20 20"><use fill="currentColor" xlink:href="#a" transform="translate(-1008 -47)"/></symbol></svg>