<svg xmlns="http://www.w3.org/2000/svg" xmlns:xlink="http://www.w3.org/1999/xlink"><defs>
		<polyline id="SVGID_1_" points="-77,4631 1203,4631 1203,-469 -77,-469 		"/>
	
		<polyline id="SVGID_3_" points="-77,4631 1203,4631 1203,-469 -77,-469 		"/>
	
		<polyline id="SVGID_5_" points="-77,4631 1203,4631 1203,-469 -77,-469 		"/>
	
		<path id="SVGID_7_" d="M-20-417"/>
	
		<polyline id="SVGID_8_" points="-77,4631 1203,4631 1260,-417 		"/>
	
		<path id="SVGID_63_" d="M986.5-250c-1-2.3-0.4-5,1.4-6.7c0.4-0.4,0.7-0.7,0.7-0.7c0.8-0.8,2.1-0.8,2.9,0l1.3,1.3
			c0.8,0.8,0.8,2.1,0,2.9l-0.4,0.4c-1,1-1.4,2.5-1,3.8c1,3.2,3.5,4.7,5.5,5.4c1.3,0.5,2.8,0.2,3.9-0.8l0.4-0.4
			c0.8-0.8,2.1-0.8,2.9,0l1.3,1.3c0.8,0.8,0.8,2.1,0,2.9l-0.7,0.7c-1.8,1.8-4.5,2.3-6.8,1.3c-2.2-1-4.7-2.8-6.9-5
			C989-245.6,987.4-247.9,986.5-250"/>
	
			<rect id="SVGID_65_" x="-22" y="-305" width="1280" height="5100"/>
		
		<rect id="SVGID_67_" x="-869" y="-3892" width="1280" height="5100"/>
	
		<rect id="SVGID_69_" x="-869" y="-3892" width="1280" height="5100"/>
	
		<rect id="SVGID_71_" x="-869" y="-3892" width="1280" height="5100"/>
	
		<rect id="SVGID_73_" x="-869" y="-3892" width="1280" height="5100"/>
	
		<rect id="SVGID_75_" x="-869" y="-3892" width="1280" height="5100"/>
	
		<rect id="SVGID_77_" x="-869" y="-3892" width="1280" height="5100"/>
	
		<rect id="SVGID_79_" x="-869" y="-3892" width="1280" height="5100"/>
	
		<path id="SVGID_63_" d="M991.5-108c-1-2.3-0.4-5,1.4-6.7c0.4-0.4,0.7-0.7,0.7-0.7c0.8-0.8,2.1-0.8,2.9,0l1.3,1.3
			c0.8,0.8,0.8,2.1,0,2.9l-0.4,0.4c-1,1-1.4,2.5-1,3.8c1,3.2,3.5,4.7,5.5,5.4c1.3,0.5,2.8,0.2,3.9-0.8l0.4-0.4
			c0.8-0.8,2.1-0.8,2.9,0l1.3,1.3c0.8,0.8,0.8,2.1,0,2.9l-0.7,0.7c-1.8,1.8-4.5,2.3-6.8,1.3c-2.2-1-4.7-2.8-6.9-5
			C994-103.6,992.4-105.9,991.5-108"/>
	
			<rect id="SVGID_65_" x="-17" y="-163" width="1280" height="5100"/>
		
		<rect id="SVGID_67_" x="-864" y="-3750" width="1280" height="5100"/>
	
		<rect id="SVGID_69_" x="-864" y="-3750" width="1280" height="5100"/>
	
		<rect id="SVGID_71_" x="-864" y="-3750" width="1280" height="5100"/>
	
		<rect id="SVGID_73_" x="-864" y="-3750" width="1280" height="5100"/>
	
		<rect id="SVGID_75_" x="-864" y="-3750" width="1280" height="5100"/>
	
		<rect id="SVGID_77_" x="-864" y="-3750" width="1280" height="5100"/>
	
		<rect id="SVGID_79_" x="-864" y="-3750" width="1280" height="5100"/>
	
		<path id="SVGID_63_" d="M800.5-105c-1-2.3-0.4-5,1.4-6.7c0.4-0.4,0.7-0.7,0.7-0.7c0.8-0.8,2.1-0.8,2.9,0l1.3,1.3
			c0.8,0.8,0.8,2.1,0,2.9l-0.4,0.4c-1,1-1.4,2.5-1,3.8c1,3.2,3.5,4.7,5.5,5.4c1.3,0.5,2.8,0.2,3.9-0.8l0.4-0.4
			c0.8-0.8,2.1-0.8,2.9,0l1.3,1.3c0.8,0.8,0.8,2.1,0,2.9l-0.7,0.7c-1.8,1.8-4.5,2.3-6.8,1.3c-2.2-1-4.7-2.8-6.9-5
			C803-100.6,801.4-102.9,800.5-105"/>
	
			<rect id="SVGID_65_" x="-208" y="-160" width="1280" height="5100"/>
		
		<rect id="SVGID_67_" x="-1055" y="-3747" width="1280" height="5100"/>
	
		<rect id="SVGID_69_" x="-1055" y="-3747" width="1280" height="5100"/>
	
		<rect id="SVGID_71_" x="-1055" y="-3747" width="1280" height="5100"/>
	
		<rect id="SVGID_73_" x="-1055" y="-3747" width="1280" height="5100"/>
	
		<rect id="SVGID_75_" x="-1055" y="-3747" width="1280" height="5100"/>
	
		<rect id="SVGID_77_" x="-1055" y="-3747" width="1280" height="5100"/>
	
		<rect id="SVGID_79_" x="-1055" y="-3747" width="1280" height="5100"/>
	
		<path id="SVGID_63_" d="M817.5-250c-1-2.3-0.4-5,1.4-6.7c0.4-0.4,0.7-0.7,0.7-0.7c0.8-0.8,2.1-0.8,2.9,0l1.3,1.3
			c0.8,0.8,0.8,2.1,0,2.9l-0.4,0.4c-1,1-1.4,2.5-1,3.8c1,3.2,3.5,4.7,5.5,5.4c1.3,0.5,2.8,0.2,3.9-0.8l0.4-0.4
			c0.8-0.8,2.1-0.8,2.9,0l1.3,1.3c0.8,0.8,0.8,2.1,0,2.9l-0.7,0.7c-1.8,1.8-4.5,2.3-6.8,1.3c-2.2-1-4.7-2.8-6.9-5
			C820-245.6,818.4-247.9,817.5-250"/>
	
			<rect id="SVGID_65_" x="-191" y="-305" width="1280" height="5100"/>
		
		<rect id="SVGID_67_" x="-1038" y="-3892" width="1280" height="5100"/>
	
		<rect id="SVGID_69_" x="-1038" y="-3892" width="1280" height="5100"/>
	
		<rect id="SVGID_71_" x="-1038" y="-3892" width="1280" height="5100"/>
	
		<rect id="SVGID_73_" x="-1038" y="-3892" width="1280" height="5100"/>
	
		<rect id="SVGID_75_" x="-1038" y="-3892" width="1280" height="5100"/>
	
		<rect id="SVGID_77_" x="-1038" y="-3892" width="1280" height="5100"/>
	
		<rect id="SVGID_79_" x="-1038" y="-3892" width="1280" height="5100"/>
	<path id="t7i6a" d="M1127 3943c0 16.57-13.2 30-29.5 30s-29.5-13.43-29.5-30 13.2-30 29.5-30 29.5 13.43 29.5 30"/><path id="t7i6b" d="M1066.3 3920.65l10.08 10.1c.54.54 1.41.54 1.95 0l18.38-18.4 4.95 4.96-24.3 24.35-16.02-16.04zm11.05 24.35c.36 0 .71-.14.98-.4l26.26-26.31c.55-.54.55-1.42 0-1.96l-6.9-6.92a1.38 1.38 0 0 0-1.96 0l-18.38 18.4-10.08-10.1a1.38 1.38 0 0 0-1.95 0l-6.91 6.93a1.38 1.38 0 0 0 0 1.95l17.97 18c.27.27.62.41.97.41z"/><path id="t7i6c" d="M1046 3930h3v-3h-3z"/><path id="t7i6d" d="M1083 3885.81a42.24 42.24 0 0 1 42.19 42.19 42.24 42.24 0 0 1-42.19 42.19 42.24 42.24 0 0 1-42.19-42.19 42.24 42.24 0 0 1 42.19-42.19zm0 87.19c24.81 0 45-20.19 45-45s-20.19-45-45-45-45 20.19-45 45 20.19 45 45 45z"/><path id="t7i6e" d="M1081 3965h3v-3h-3z"/><path id="t7i6f" d="M1081 3895h3v-3h-3z"/><path id="t7i6g" d="M1116 3930h3v-3h-3z"/><path id="qq4ta" d="M65 228.72c-2.52 0-3.84-1.22-4.9-2.2-.94-.85-1.62-1.47-3.1-1.47-1.49 0-2.16.62-3.1 1.48-1.06.97-2.39 2.19-4.9 2.19-2.52 0-3.84-1.22-4.91-2.2-.93-.85-1.6-1.47-3.1-1.47-1.48 0-2.15.62-3.08 1.48-1.07.97-2.4 2.19-4.91 2.19-2.52 0-3.84-1.22-4.9-2.2-.94-.85-1.62-1.47-3.1-1.47V222c2.52 0 3.84 1.22 4.9 2.2.94.85 1.61 1.46 3.1 1.46 1.48 0 2.16-.61 3.09-1.47 1.07-.97 2.4-2.19 4.9-2.19 2.52 0 3.85 1.22 4.92 2.2.93.85 1.6 1.46 3.09 1.46 1.48 0 2.16-.61 3.09-1.47 1.07-.97 2.4-2.19 4.9-2.19 2.52 0 3.85 1.22 4.92 2.2.93.85 1.6 1.46 3.09 1.46z"/><path id="qq4tb" d="M65 237.74c-2.52 0-3.84-1.22-4.9-2.2-.94-.85-1.62-1.47-3.1-1.47-1.49 0-2.16.62-3.1 1.48-1.06.97-2.39 2.19-4.9 2.19-2.52 0-3.84-1.22-4.91-2.2-.93-.85-1.6-1.47-3.1-1.47-1.48 0-2.15.62-3.08 1.48-1.07.97-2.4 2.19-4.91 2.19-2.52 0-3.84-1.22-4.9-2.2-.94-.85-1.62-1.47-3.1-1.47v-3.05c2.52 0 3.84 1.22 4.9 2.2.94.85 1.61 1.46 3.1 1.46 1.48 0 2.16-.61 3.09-1.47 1.07-.97 2.4-2.19 4.9-2.19 2.52 0 3.85 1.22 4.92 2.2.93.85 1.6 1.46 3.09 1.46 1.48 0 2.16-.61 3.09-1.47 1.07-.97 2.4-2.19 4.9-2.19 2.52 0 3.85 1.22 4.92 2.2.93.85 1.6 1.46 3.09 1.46z"/><path id="qq4tc" d="M65 246.74c-2.52 0-3.84-1.22-4.9-2.2-.94-.85-1.62-1.47-3.1-1.47-1.49 0-2.16.62-3.1 1.48-1.06.97-2.39 2.19-4.9 2.19-2.52 0-3.84-1.22-4.91-2.2-.93-.85-1.6-1.47-3.1-1.47-1.48 0-2.15.62-3.08 1.48-1.07.97-2.4 2.19-4.91 2.19-2.52 0-3.84-1.22-4.9-2.2-.94-.85-1.62-1.47-3.1-1.47v-3.05c2.52 0 3.84 1.22 4.9 2.2.94.85 1.61 1.46 3.1 1.46 1.48 0 2.16-.61 3.09-1.47 1.07-.97 2.4-2.19 4.9-2.19 2.52 0 3.85 1.22 4.92 2.2.93.85 1.6 1.46 3.09 1.46 1.48 0 2.16-.61 3.09-1.47 1.07-.97 2.4-2.19 4.9-2.19 2.52 0 3.85 1.22 4.92 2.2.93.85 1.6 1.46 3.09 1.46z"/><path id="qq4td" d="M65 255.99c-2.52 0-3.84-1.22-4.9-2.2-.94-.85-1.62-1.47-3.1-1.47-1.49 0-2.16.62-3.1 1.48-1.06.97-2.39 2.19-4.9 2.19-2.52 0-3.84-1.22-4.91-2.2-.93-.85-1.6-1.47-3.1-1.47-1.48 0-2.15.62-3.08 1.48-1.07.97-2.4 2.19-4.91 2.19-2.52 0-3.84-1.22-4.9-2.2-.94-.85-1.62-1.47-3.1-1.47v-3.05c2.52 0 3.84 1.22 4.9 2.2.94.85 1.61 1.46 3.1 1.46 1.48 0 2.16-.61 3.09-1.47 1.07-.97 2.4-2.19 4.9-2.19 2.52 0 3.85 1.22 4.92 2.2.93.85 1.6 1.46 3.09 1.46 1.48 0 2.16-.61 3.09-1.47 1.07-.97 2.4-2.19 4.9-2.19 2.52 0 3.85 1.22 4.92 2.2.93.85 1.6 1.46 3.09 1.46z"/><path id="idn3b" d="M52.37 306.25c3.08-.04 5.58-2.77 5.58-6.12 0-3.38-2.53-6.13-5.64-6.13-3.1 0-5.63 2.75-5.63 6.13h2.82c0-1.7 1.26-3.07 2.81-3.07 1.56 0 2.82 1.38 2.82 3.07s-1.26 3.06-2.82 3.06H28.07v3.06z"/><path id="idn3c" d="M42.4 315.62H28.07v3.06H42.4c1.55 0 2.82 1.38 2.82 3.07s-1.27 3.06-2.82 3.06c-1.55 0-2.82-1.37-2.82-3.06h-2.82c0 3.37 2.53 6.12 5.64 6.12 3.1 0 5.63-2.75 5.63-6.12 0-3.38-2.52-6.13-5.63-6.13"/><path id="idn3a" d="M28 321.54v-12.27h39.88v12.27z"/><path id="idn3e" d="M62.24 309.28L28 309.27v3.06l34.24.02v-1.53 1.53c1.56 0 2.82 1.37 2.82 3.06s-1.26 3.06-2.82 3.06c-1.55 0-2.81-1.37-2.81-3.06H56.6c0 3.38 2.53 6.13 5.63 6.13 3.11 0 5.64-2.75 5.64-6.13s-2.53-6.13-5.64-6.13"/><clipPath id="idn3d"><use xlink:href="#idn3a"/></clipPath><path id="myyra" d="M28 375.69v17.21h8.11v-34.43H28z"/><path id="myyrd" d="M30.8 369.38c0-.77.56-1.4 1.26-1.4.69 0 1.25.63 1.25 1.4 0 .77-.56 1.4-1.25 1.4-.7 0-1.26-.63-1.26-1.4zm2.65-10.91h-2.8v6.7a4.5 4.5 0 0 0-2.65 4.21 4.5 4.5 0 0 0 2.66 4.21v19.31h2.8V373.6a4.5 4.5 0 0 0 2.65-4.21 4.5 4.5 0 0 0-2.66-4.21z"/><path id="myyre" d="M41.38 381.3c0-.77.56-1.39 1.26-1.39.69 0 1.25.62 1.25 1.4 0 .76-.56 1.39-1.25 1.39-.7 0-1.26-.63-1.26-1.4zm2.65-22.85h-2.8v18.64a4.5 4.5 0 0 0-2.65 4.21 4.5 4.5 0 0 0 2.66 4.21v7.26h2.8v-7.26a4.5 4.5 0 0 0 2.65-4.2 4.5 4.5 0 0 0-2.66-4.22z"/><path id="myyrf" d="M52.43 371.3a1.43 1.43 0 0 1-.47-.94c-.08-.76.41-1.45 1.1-1.54l.15-.01c.63 0 1.17.52 1.25 1.23.08.76-.42 1.46-1.1 1.55-.34.04-.67-.06-.93-.3zm4.8-1.62a4.43 4.43 0 0 0-2.63-3.69v-7.54h-2.8v7.54a4.55 4.55 0 0 0-2.62 4.74 4.6 4.6 0 0 0 1.51 3c.34.3.72.53 1.12.69v18.35h2.8V374.4c.7-.28 1.3-.76 1.78-1.42a4.8 4.8 0 0 0 .84-3.31z"/><path id="myyrb" d="M59.73 358.31h8.11v34.6h-8.11v-34.6z"/><path id="myyrh" d="M62.54 386.1c-.08-.77.41-1.46 1.1-1.55l.15-.01c.63 0 1.17.52 1.25 1.23.08.76-.42 1.46-1.1 1.55-.7.09-1.32-.46-1.4-1.22zm3.76-3.69c-.34-.3-.72-.53-1.12-.7v-23.4h-2.8v23.41a4.55 4.55 0 0 0-2.62 4.74 4.43 4.43 0 0 0 2.63 3.69v2.76h2.8v-2.77a4.55 4.55 0 0 0 2.62-4.73 4.6 4.6 0 0 0-1.5-3z"/><clipPath id="myyrc"><use xlink:href="#myyra"/></clipPath><clipPath id="myyrg"><use xlink:href="#myyrb"/></clipPath><path id="wux5a" d="M1008.47 55c-.98-2.3-.38-5 1.42-6.74l.68-.65c.8-.81 2.12-.81 2.93 0l1.28 1.28c.8.81.8 2.13 0 2.94l-.42.42c-1 1-1.39 2.47-.98 3.82.95 3.2 3.53 4.7 5.48 5.4 1.33.47 2.82.17 3.88-.78l.45-.4c.8-.82 2.12-.82 2.93 0l1.27 1.27c.81.81.81 2.13 0 2.94l-.68.7a6.04 6.04 0 0 1-6.79 1.26 24.95 24.95 0 0 1-6.9-5.04 21.53 21.53 0 0 1-4.55-6.42"/></defs><symbol id="2-09" viewBox="0 0 20 20">
<style type="text/css">
	.st0{fill:none;}
	.st1{clip-path:url(#SVGID_9_);}
	.st2{fill-rule:evenodd;clip-rule:evenodd;fill:#FFFFFF;}
	.st3{fill-rule:evenodd;clip-rule:evenodd;fill:#EDF5F8;}
	.st4{fill-rule:evenodd;clip-rule:evenodd;fill:#3FB4F1;}
	.st5{fill-rule:evenodd;clip-rule:evenodd;fill:none;}
</style>
<rect x="-77" y="-469" class="st0" width="1280" height="5100"/>
<rect x="-77" y="-469" class="st0" width="1280" height="5100"/>
<rect x="-77" y="-469" class="st0" width="1280" height="5100"/>
<rect x="-77" y="-469" class="st0" width="1280" height="5100"/>
<g>
	
	<clipPath id="SVGID_2_">
		<use xlink:href="#SVGID_1_" style="overflow:visible;"/>
	</clipPath>
</g>
<g>
	
	<clipPath id="SVGID_4_">
		<use xlink:href="#SVGID_3_" style="overflow:visible;"/>
	</clipPath>
</g>
<g>
	
	<clipPath id="SVGID_6_">
		<use xlink:href="#SVGID_5_" style="overflow:visible;"/>
	</clipPath>
</g>
<g>
	
	
	<clipPath id="SVGID_9_">
		<use xlink:href="#SVGID_7_" style="overflow:visible;"/>
	</clipPath>
	<clipPath id="SVGID_10_" class="st1">
		<use xlink:href="#SVGID_8_" style="overflow:visible;"/>
	</clipPath>
</g>
<path class="st2" d="M0.5,8c-1-2.3-0.4-5,1.4-6.7c0.4-0.4,0.7-0.7,0.7-0.7c0.8-0.8,2.1-0.8,2.9,0l1.3,1.3c0.8,0.8,0.8,2.1,0,2.9
	L6.4,5.2c-1,1-1.4,2.5-1,3.8c1,3.2,3.5,4.7,5.5,5.4c1.3,0.5,2.8,0.2,3.9-0.8l0.4-0.4c0.8-0.8,2.1-0.8,2.9,0l1.3,1.3
	c0.8,0.8,0.8,2.1,0,2.9l-0.7,0.7c-1.8,1.8-4.5,2.3-6.8,1.3c-2.2-1-4.7-2.8-6.9-5C3,12.4,1.4,10.1,0.5,8"/>
</symbol><symbol id="advantages-1" viewBox="0 0 90 90">
<style type="text/css">
	.st0{clip-path:url(#SVGID_2_);}
	.st1{clip-path:url(#SVGID_4_);fill:#00DEE7;}
	.st2{clip-path:url(#SVGID_6_);}
	.st3{clip-path:url(#SVGID_8_);fill:#00DEE7;}
	.st4{clip-path:url(#SVGID_10_);}
	.st5{clip-path:url(#SVGID_12_);fill:#00DEE7;}
	.st6{clip-path:url(#SVGID_14_);}
	.st7{clip-path:url(#SVGID_16_);fill:#00DEE7;}
	.st8{clip-path:url(#SVGID_18_);}
	.st9{clip-path:url(#SVGID_20_);fill:#FFFFFF;}
	.st10{clip-path:url(#SVGID_22_);}
	.st11{clip-path:url(#SVGID_24_);fill:#FFFFFF;}
	.st12{clip-path:url(#SVGID_26_);}
	.st13{clip-path:url(#SVGID_28_);enable-background:new    ;}
	.st14{clip-path:url(#SVGID_30_);}
	.st15{clip-path:url(#SVGID_32_);}
	.st16{clip-path:url(#SVGID_34_);fill:#FFFFFF;}
	.st17{clip-path:url(#SVGID_36_);}
	.st18{clip-path:url(#SVGID_38_);enable-background:new    ;}
	.st19{clip-path:url(#SVGID_40_);}
	.st20{clip-path:url(#SVGID_42_);}
	.st21{clip-path:url(#SVGID_44_);fill:#FFFFFF;}
	.st22{clip-path:url(#SVGID_46_);}
	.st23{clip-path:url(#SVGID_48_);fill:#FFFFFF;}
	.st24{clip-path:url(#SVGID_50_);}
	.st25{clip-path:url(#SVGID_52_);fill:#FFFFFF;}
	.st26{clip-path:url(#SVGID_54_);}
	.st27{clip-path:url(#SVGID_56_);enable-background:new    ;}
	.st28{clip-path:url(#SVGID_58_);}
	.st29{clip-path:url(#SVGID_60_);}
	.st30{clip-path:url(#SVGID_62_);fill:#FFFFFF;}
	.st31{clip-path:url(#SVGID_64_);}
	.st32{clip-path:url(#SVGID_66_);fill:#00DEE7;}
	.st33{fill-rule:evenodd;clip-rule:evenodd;fill:#EDF5F8;}
	.st34{fill-rule:evenodd;clip-rule:evenodd;fill:#3FB4F1;}
	.st35{fill:none;}
	.st36{fill-rule:evenodd;clip-rule:evenodd;fill:none;}
</style>
<g>
	
	<clipPath id="SVGID_2_">
		<use xlink:href="#SVGID_63_" style="overflow:visible;"/>
	</clipPath>
	<g class="st0">
		
		<clipPath id="SVGID_4_">
			<use xlink:href="#SVGID_65_" style="overflow:visible;"/>
		</clipPath>
	</g>
</g>
<g>
	<path class="st33" d="M56,62c0,15.5-12.5,28-28,28S0,77.5,0,62c0-15.5,12.5-28,28-28S56,46.5,56,62"/>
	<g>
		<path class="st34" d="M85.7,0H40.3C37.9,0,36,1.9,36,4.3V17h2.8V4.3c0-0.8,0.6-1.4,1.4-1.4h45.5c0.8,0,1.4,0.6,1.4,1.4v28.4
			c0,0.8-0.6,1.4-1.4,1.4H63.8L54.9,43l2,2l8.1-8.1h20.7c2.4,0,4.3-1.9,4.3-4.3V4.3C90,1.9,88.1,0,85.7,0z"/>
		<rect x="56" y="17" class="st34" width="3" height="3"/>
		<rect x="62" y="17" class="st34" width="3" height="3"/>
		<rect x="67" y="17" class="st34" width="3" height="3"/>
		<path class="st34" d="M58,63.4c-2.5-1-5-1.9-7.6-3.4l-0.3,0.5l-3-4.5L47,56v-3.8c1.5-1.7,4-5.4,5-12.4l0-5.8c0-9.3-4.7-14-14-14
			c-9.3,0-14,4.7-14,14v5.6l0,0.2c1.3,9.1,5,12.6,6,13.4v3L28.9,56l-2.9,4.3c-2.4,1.3-4.8,2.3-7.1,3.1c-6.7,2.6-13,5-13,16.5V90h2.8
			V79.9c0-9.5,4.4-11.2,11.2-13.8c2-0.8,4.2-1.6,6.4-2.8l5.7,5.7l5.9-2.9l5.9,2.9l6-6c2.5,1.3,4.9,2.3,7.1,3.1
			c6.7,2.6,11.2,4.3,11.2,13.8V90H71V79.9C71,68.4,64.7,66,58,63.4z M38,22.8c7.6,0,11,3.3,11.2,10.7l-4.4,2.3L31.1,30l-4.2,2.2
			C27.4,25.7,30.9,22.8,38,22.8z M26.8,39.5v-4l4.4-2.3L44.9,39l4.3-2.2v2.7C48,47.8,44.7,50.6,44.3,51c-2.5,1.2-6.2,1.2-6.3,1.2
			c-0.1,0-3.8,0-6.3-1.2C31.3,50.6,28,47.8,26.8,39.5z M33,54.4c2.5,0.6,4.9,0.6,5,0.6c0.2,0,3.2,0,6-0.9v2.4l-6,1l-5-0.8V54.4z
			 M43.3,65.6L38,62.9l-5.3,2.7l-4.1-4.1l1.7-2.5l7.7,1.3l7.7-1.3l1.7,2.5L43.3,65.6z"/>
		<rect x="36" y="75" class="st34" width="3" height="3"/>
		<rect x="36" y="70" class="st34" width="3" height="3"/>
		<rect x="17" y="81" class="st34" width="3" height="9"/>
		<rect x="56" y="81" class="st34" width="3" height="9"/>
	</g>
</g>
<rect x="-561" y="-4028" class="st35" width="1280" height="5100"/>
<rect x="-561" y="-4028" class="st35" width="1280" height="5100"/>
<rect x="-561" y="-4028" class="st35" width="1280" height="5100"/>
<rect x="-561" y="-4028" class="st35" width="1280" height="5100"/>
<rect x="-561" y="-4028" class="st35" width="1280" height="5100"/>
<rect x="-561" y="-4028" class="st35" width="1280" height="5100"/>
<rect x="-561" y="-4028" class="st35" width="1280" height="5100"/>
<rect x="-561" y="-4028" class="st35" width="1280" height="5100"/>
<rect x="-561" y="-4028" class="st35" width="1280" height="5100"/>
<rect x="-561" y="-4028" class="st35" width="1280" height="5100"/>
<rect x="-561" y="-4028" class="st35" width="1280" height="5100"/>
<rect x="-561" y="-4028" class="st35" width="1280" height="5100"/>
<rect x="-561" y="-4028" class="st35" width="1280" height="5100"/>
<rect x="-561" y="-4028" class="st35" width="1280" height="5100"/>
<rect x="-561" y="-4028" class="st35" width="1280" height="5100"/>
<rect x="-561" y="-4028" class="st35" width="1280" height="5100"/>
<rect x="-561" y="-4028" class="st35" width="1280" height="5100"/>
<rect x="-561" y="-4028" class="st35" width="1280" height="5100"/>
<g>
	
	<clipPath id="SVGID_6_">
		<use xlink:href="#SVGID_67_" style="overflow:visible;"/>
	</clipPath>
</g>
<g>
	
	<clipPath id="SVGID_8_">
		<use xlink:href="#SVGID_69_" style="overflow:visible;"/>
	</clipPath>
</g>
<g>
	
	<clipPath id="SVGID_10_">
		<use xlink:href="#SVGID_71_" style="overflow:visible;"/>
	</clipPath>
</g>
<g>
	
	<clipPath id="SVGID_12_">
		<use xlink:href="#SVGID_73_" style="overflow:visible;"/>
	</clipPath>
</g>
<g>
	
	<clipPath id="SVGID_14_">
		<use xlink:href="#SVGID_75_" style="overflow:visible;"/>
	</clipPath>
</g>
<g>
	
	<clipPath id="SVGID_16_">
		<use xlink:href="#SVGID_77_" style="overflow:visible;"/>
	</clipPath>
</g>
<g>
	
	<clipPath id="SVGID_18_">
		<use xlink:href="#SVGID_79_" style="overflow:visible;"/>
	</clipPath>
</g>
</symbol><symbol id="advantages-2" viewBox="0 0 89 87">
<style type="text/css">
	.st0{clip-path:url(#SVGID_2_);}
	.st1{clip-path:url(#SVGID_4_);fill:#00DEE7;}
	.st2{clip-path:url(#SVGID_6_);}
	.st3{clip-path:url(#SVGID_8_);fill:#00DEE7;}
	.st4{clip-path:url(#SVGID_10_);}
	.st5{clip-path:url(#SVGID_12_);fill:#00DEE7;}
	.st6{clip-path:url(#SVGID_14_);}
	.st7{clip-path:url(#SVGID_16_);fill:#00DEE7;}
	.st8{clip-path:url(#SVGID_18_);}
	.st9{clip-path:url(#SVGID_20_);fill:#FFFFFF;}
	.st10{clip-path:url(#SVGID_22_);}
	.st11{clip-path:url(#SVGID_24_);fill:#FFFFFF;}
	.st12{clip-path:url(#SVGID_26_);}
	.st13{clip-path:url(#SVGID_28_);enable-background:new    ;}
	.st14{clip-path:url(#SVGID_30_);}
	.st15{clip-path:url(#SVGID_32_);}
	.st16{clip-path:url(#SVGID_34_);fill:#FFFFFF;}
	.st17{clip-path:url(#SVGID_36_);}
	.st18{clip-path:url(#SVGID_38_);enable-background:new    ;}
	.st19{clip-path:url(#SVGID_40_);}
	.st20{clip-path:url(#SVGID_42_);}
	.st21{clip-path:url(#SVGID_44_);fill:#FFFFFF;}
	.st22{clip-path:url(#SVGID_46_);}
	.st23{clip-path:url(#SVGID_48_);fill:#FFFFFF;}
	.st24{clip-path:url(#SVGID_50_);}
	.st25{clip-path:url(#SVGID_52_);fill:#FFFFFF;}
	.st26{clip-path:url(#SVGID_54_);}
	.st27{clip-path:url(#SVGID_56_);enable-background:new    ;}
	.st28{clip-path:url(#SVGID_58_);}
	.st29{clip-path:url(#SVGID_60_);}
	.st30{clip-path:url(#SVGID_62_);fill:#FFFFFF;}
	.st31{clip-path:url(#SVGID_64_);}
	.st32{clip-path:url(#SVGID_66_);fill:#00DEE7;}
	.st33{fill-rule:evenodd;clip-rule:evenodd;fill:#EDF5F8;}
	.st34{fill-rule:evenodd;clip-rule:evenodd;fill:#3FB4F1;}
	.st35{fill:none;}
	.st36{fill-rule:evenodd;clip-rule:evenodd;fill:none;}
</style>
<g>
	
	<clipPath id="SVGID_2_">
		<use xlink:href="#SVGID_63_" style="overflow:visible;"/>
	</clipPath>
	<g class="st0">
		
		<clipPath id="SVGID_4_">
			<use xlink:href="#SVGID_65_" style="overflow:visible;"/>
		</clipPath>
	</g>
</g>
<rect x="-556" y="-3886" class="st35" width="1280" height="5100"/>
<rect x="-556" y="-3886" class="st35" width="1280" height="5100"/>
<rect x="-556" y="-3886" class="st35" width="1280" height="5100"/>
<rect x="-556" y="-3886" class="st35" width="1280" height="5100"/>
<rect x="-556" y="-3886" class="st35" width="1280" height="5100"/>
<rect x="-556" y="-3886" class="st35" width="1280" height="5100"/>
<rect x="-556" y="-3886" class="st35" width="1280" height="5100"/>
<rect x="-556" y="-3886" class="st35" width="1280" height="5100"/>
<rect x="-556" y="-3886" class="st35" width="1280" height="5100"/>
<rect x="-556" y="-3886" class="st35" width="1280" height="5100"/>
<rect x="-556" y="-3886" class="st35" width="1280" height="5100"/>
<rect x="-556" y="-3886" class="st35" width="1280" height="5100"/>
<rect x="-556" y="-3886" class="st35" width="1280" height="5100"/>
<rect x="-556" y="-3886" class="st35" width="1280" height="5100"/>
<rect x="-556" y="-3886" class="st35" width="1280" height="5100"/>
<rect x="-556" y="-3886" class="st35" width="1280" height="5100"/>
<rect x="-556" y="-3886" class="st35" width="1280" height="5100"/>
<rect x="-556" y="-3886" class="st35" width="1280" height="5100"/>
<g>
	
	<clipPath id="SVGID_6_">
		<use xlink:href="#SVGID_67_" style="overflow:visible;"/>
	</clipPath>
</g>
<g>
	
	<clipPath id="SVGID_8_">
		<use xlink:href="#SVGID_69_" style="overflow:visible;"/>
	</clipPath>
</g>
<g>
	
	<clipPath id="SVGID_10_">
		<use xlink:href="#SVGID_71_" style="overflow:visible;"/>
	</clipPath>
</g>
<g>
	
	<clipPath id="SVGID_12_">
		<use xlink:href="#SVGID_73_" style="overflow:visible;"/>
	</clipPath>
</g>
<g>
	
	<clipPath id="SVGID_14_">
		<use xlink:href="#SVGID_75_" style="overflow:visible;"/>
	</clipPath>
</g>
<g>
	
	<clipPath id="SVGID_16_">
		<use xlink:href="#SVGID_77_" style="overflow:visible;"/>
	</clipPath>
</g>
<g>
	
	<clipPath id="SVGID_18_">
		<use xlink:href="#SVGID_79_" style="overflow:visible;"/>
	</clipPath>
</g>
<ellipse class="st33" cx="29.5" cy="55" rx="29.5" ry="30"/>
<g>
	<path class="st34" d="M88.8,24.9L88,23.5V23h-0.3L76.4,3.7C76.2,3.3,75.7,3,75.3,3H67v2.8h4.6L59.5,22.3L47.4,5.8h6.4V3H14.1
		c-0.5,0-1,0.3-1.2,0.7l-0.3,0.6L12,4.7l0.2,0.2L1.3,23H1v0.5l-0.8,1.3c-0.3,0.5-0.3,1.1,0.1,1.6l43.8,55c0.3,0.3,0.7,0.5,1.1,0.5h0
		c0.4,0,0.8-0.2,1.1-0.5L69,53.3l-2.2-1.8L46.6,76.6L60.9,26h24.6L74.2,40.2l2.1,1.8l12.4-15.5C89.1,26,89.1,25.4,88.8,24.9z
		 M84.5,23h-22L74.8,6.3L84.5,23z M28.1,26l13.4,47.6L3.6,26H28.1z M31,26h6v-3h-4.5l12-16.3l12,16.3H52v3h6L44.5,73.9L31,26z
		 M41.6,5.8L29,23L16.4,5.8H41.6z M14,7.4L25.5,23H4.6L14,7.4z"/>
	<polygon class="st34" points="58,9 61,9 61,6 65,6 65,3 61,3 61,0 58,0 58,3 56,3 56,6 58,6 	"/>
	<polygon class="st34" points="46,21 43,21 43,23 41,23 41,26 43,26 43,30 46,30 46,26 50,26 50,23 46,23 	"/>
	<polygon class="st34" points="17,55 14,55 14,57 11,57 11,60 14,60 14,64 17,64 17,60 20,60 20,57 17,57 	"/>
	<polygon class="st34" points="73,42 70,42 70,45 67,45 67,48 70,48 70,51 73,51 73,48 76,48 76,45 73,45 	"/>
</g>
</symbol><symbol id="advantages-3" viewBox="0 0 81 90">
<style type="text/css">
	.st0{clip-path:url(#SVGID_2_);}
	.st1{clip-path:url(#SVGID_4_);fill:#00DEE7;}
	.st2{clip-path:url(#SVGID_6_);}
	.st3{clip-path:url(#SVGID_8_);fill:#00DEE7;}
	.st4{clip-path:url(#SVGID_10_);}
	.st5{clip-path:url(#SVGID_12_);fill:#00DEE7;}
	.st6{clip-path:url(#SVGID_14_);}
	.st7{clip-path:url(#SVGID_16_);fill:#00DEE7;}
	.st8{clip-path:url(#SVGID_18_);}
	.st9{clip-path:url(#SVGID_20_);fill:#FFFFFF;}
	.st10{clip-path:url(#SVGID_22_);}
	.st11{clip-path:url(#SVGID_24_);fill:#FFFFFF;}
	.st12{clip-path:url(#SVGID_26_);}
	.st13{clip-path:url(#SVGID_28_);enable-background:new    ;}
	.st14{clip-path:url(#SVGID_30_);}
	.st15{clip-path:url(#SVGID_32_);}
	.st16{clip-path:url(#SVGID_34_);fill:#FFFFFF;}
	.st17{clip-path:url(#SVGID_36_);}
	.st18{clip-path:url(#SVGID_38_);enable-background:new    ;}
	.st19{clip-path:url(#SVGID_40_);}
	.st20{clip-path:url(#SVGID_42_);}
	.st21{clip-path:url(#SVGID_44_);fill:#FFFFFF;}
	.st22{clip-path:url(#SVGID_46_);}
	.st23{clip-path:url(#SVGID_48_);fill:#FFFFFF;}
	.st24{clip-path:url(#SVGID_50_);}
	.st25{clip-path:url(#SVGID_52_);fill:#FFFFFF;}
	.st26{clip-path:url(#SVGID_54_);}
	.st27{clip-path:url(#SVGID_56_);enable-background:new    ;}
	.st28{clip-path:url(#SVGID_58_);}
	.st29{clip-path:url(#SVGID_60_);}
	.st30{clip-path:url(#SVGID_62_);fill:#FFFFFF;}
	.st31{clip-path:url(#SVGID_64_);}
	.st32{clip-path:url(#SVGID_66_);fill:#00DEE7;}
	.st33{fill-rule:evenodd;clip-rule:evenodd;fill:#EDF5F8;}
	.st34{fill-rule:evenodd;clip-rule:evenodd;fill:#3FB4F1;}
	.st35{fill:none;}
	.st36{fill-rule:evenodd;clip-rule:evenodd;fill:none;}
</style>
<g>
	
	<clipPath id="SVGID_2_">
		<use xlink:href="#SVGID_63_" style="overflow:visible;"/>
	</clipPath>
	<g class="st0">
		
		<clipPath id="SVGID_4_">
			<use xlink:href="#SVGID_65_" style="overflow:visible;"/>
		</clipPath>
	</g>
</g>
<rect x="-747" y="-3883" class="st35" width="1280" height="5100"/>
<rect x="-747" y="-3883" class="st35" width="1280" height="5100"/>
<rect x="-747" y="-3883" class="st35" width="1280" height="5100"/>
<rect x="-747" y="-3883" class="st35" width="1280" height="5100"/>
<rect x="-747" y="-3883" class="st35" width="1280" height="5100"/>
<rect x="-747" y="-3883" class="st35" width="1280" height="5100"/>
<rect x="-747" y="-3883" class="st35" width="1280" height="5100"/>
<rect x="-747" y="-3883" class="st35" width="1280" height="5100"/>
<rect x="-747" y="-3883" class="st35" width="1280" height="5100"/>
<rect x="-747" y="-3883" class="st35" width="1280" height="5100"/>
<rect x="-747" y="-3883" class="st35" width="1280" height="5100"/>
<rect x="-747" y="-3883" class="st35" width="1280" height="5100"/>
<rect x="-747" y="-3883" class="st35" width="1280" height="5100"/>
<rect x="-747" y="-3883" class="st35" width="1280" height="5100"/>
<rect x="-747" y="-3883" class="st35" width="1280" height="5100"/>
<rect x="-747" y="-3883" class="st35" width="1280" height="5100"/>
<rect x="-747" y="-3883" class="st35" width="1280" height="5100"/>
<rect x="-747" y="-3883" class="st35" width="1280" height="5100"/>
<g>
	<path class="st33" d="M59,60c0,16.6-13.2,30-29.5,30S0,76.6,0,60c0-16.6,13.2-30,29.5-30S59,43.4,59,60"/>
	<g>
		<rect x="40" y="17" class="st34" width="3" height="6"/>
		<polygon class="st34" points="7,60 32,60 32,57.2 9.8,57.2 9.8,8.8 32,8.8 32,6 7,6 		"/>
		<path class="st34" d="M66.2,10.2V23H69V10.2C69,7.9,67.1,6,64.8,6H52v2.8h12.8C65.5,8.8,66.2,9.5,66.2,10.2z"/>
		<path class="st34" d="M16.8,80.8V68H14v12.8c0,2.3,1.9,4.2,4.2,4.2H31v-2.8H18.2C17.5,82.2,16.8,81.5,16.8,80.8z"/>
		<rect x="43" y="34" class="st34" width="20" height="3"/>
		<rect x="43" y="39" class="st34" width="20" height="3"/>
		<rect x="43" y="45" class="st34" width="31" height="3"/>
		<rect x="43" y="51" class="st34" width="31" height="3"/>
		<rect x="43" y="56" class="st34" width="31" height="3"/>
		<rect x="43" y="62" class="st34" width="31" height="3"/>
		<rect x="43" y="68" class="st34" width="31" height="3"/>
		<rect x="43" y="73" class="st34" width="31" height="3"/>
		<rect x="43" y="79" class="st34" width="31" height="3"/>
		<path class="st34" d="M34,14h10.2v8.6H47V14v-1.9v-1h-1l-9.1-9.3V1h-0.8l-1-1H0v65h30.4v-2.8H2.8V2.8H34l0,0V14z M36.9,5.8
			l5.2,5.3h-5.2V5.8z"/>
		<path class="st34" d="M80,36.1l-9.1-9.3V26h-0.8l-1-1H34v65h47V39v-1.9v-1H80z M70.9,30.8l5.2,5.3h-5.2V30.8z M78.2,87.2H36.8
			V27.8H68l0,0V39h10.2V87.2z"/>
	</g>
</g>
<g>
	
	<clipPath id="SVGID_6_">
		<use xlink:href="#SVGID_67_" style="overflow:visible;"/>
	</clipPath>
</g>
<g>
	
	<clipPath id="SVGID_8_">
		<use xlink:href="#SVGID_69_" style="overflow:visible;"/>
	</clipPath>
</g>
<g>
	
	<clipPath id="SVGID_10_">
		<use xlink:href="#SVGID_71_" style="overflow:visible;"/>
	</clipPath>
</g>
<g>
	
	<clipPath id="SVGID_12_">
		<use xlink:href="#SVGID_73_" style="overflow:visible;"/>
	</clipPath>
</g>
<g>
	
	<clipPath id="SVGID_14_">
		<use xlink:href="#SVGID_75_" style="overflow:visible;"/>
	</clipPath>
</g>
<g>
	
	<clipPath id="SVGID_16_">
		<use xlink:href="#SVGID_77_" style="overflow:visible;"/>
	</clipPath>
</g>
<g>
	
	<clipPath id="SVGID_18_">
		<use xlink:href="#SVGID_79_" style="overflow:visible;"/>
	</clipPath>
</g>
</symbol><symbol id="advantages-4" viewBox="0 0 90 90">
<style type="text/css">
	.st0{clip-path:url(#SVGID_2_);}
	.st1{clip-path:url(#SVGID_4_);fill:#00DEE7;}
	.st2{clip-path:url(#SVGID_6_);}
	.st3{clip-path:url(#SVGID_8_);fill:#00DEE7;}
	.st4{clip-path:url(#SVGID_10_);}
	.st5{clip-path:url(#SVGID_12_);fill:#00DEE7;}
	.st6{clip-path:url(#SVGID_14_);}
	.st7{clip-path:url(#SVGID_16_);fill:#00DEE7;}
	.st8{clip-path:url(#SVGID_18_);}
	.st9{clip-path:url(#SVGID_20_);fill:#FFFFFF;}
	.st10{clip-path:url(#SVGID_22_);}
	.st11{clip-path:url(#SVGID_24_);fill:#FFFFFF;}
	.st12{clip-path:url(#SVGID_26_);}
	.st13{clip-path:url(#SVGID_28_);enable-background:new    ;}
	.st14{clip-path:url(#SVGID_30_);}
	.st15{clip-path:url(#SVGID_32_);}
	.st16{clip-path:url(#SVGID_34_);fill:#FFFFFF;}
	.st17{clip-path:url(#SVGID_36_);}
	.st18{clip-path:url(#SVGID_38_);enable-background:new    ;}
	.st19{clip-path:url(#SVGID_40_);}
	.st20{clip-path:url(#SVGID_42_);}
	.st21{clip-path:url(#SVGID_44_);fill:#FFFFFF;}
	.st22{clip-path:url(#SVGID_46_);}
	.st23{clip-path:url(#SVGID_48_);fill:#FFFFFF;}
	.st24{clip-path:url(#SVGID_50_);}
	.st25{clip-path:url(#SVGID_52_);fill:#FFFFFF;}
	.st26{clip-path:url(#SVGID_54_);}
	.st27{clip-path:url(#SVGID_56_);enable-background:new    ;}
	.st28{clip-path:url(#SVGID_58_);}
	.st29{clip-path:url(#SVGID_60_);}
	.st30{clip-path:url(#SVGID_62_);fill:#FFFFFF;}
	.st31{clip-path:url(#SVGID_64_);}
	.st32{clip-path:url(#SVGID_66_);fill:#00DEE7;}
	.st33{fill-rule:evenodd;clip-rule:evenodd;fill:#EDF5F8;}
	.st34{fill-rule:evenodd;clip-rule:evenodd;fill:#3FB4F1;}
	.st35{fill:none;}
	.st36{fill-rule:evenodd;clip-rule:evenodd;fill:none;}
</style>
<g>
	
	<clipPath id="SVGID_2_">
		<use xlink:href="#SVGID_63_" style="overflow:visible;"/>
	</clipPath>
	<g class="st0">
		
		<clipPath id="SVGID_4_">
			<use xlink:href="#SVGID_65_" style="overflow:visible;"/>
		</clipPath>
	</g>
</g>
<rect x="-730" y="-4028" class="st35" width="1280" height="5100"/>
<rect x="-730" y="-4028" class="st35" width="1280" height="5100"/>
<rect x="-730" y="-4028" class="st35" width="1280" height="5100"/>
<rect x="-730" y="-4028" class="st35" width="1280" height="5100"/>
<rect x="-730" y="-4028" class="st35" width="1280" height="5100"/>
<rect x="-730" y="-4028" class="st35" width="1280" height="5100"/>
<rect x="-730" y="-4028" class="st35" width="1280" height="5100"/>
<rect x="-730" y="-4028" class="st35" width="1280" height="5100"/>
<rect x="-730" y="-4028" class="st35" width="1280" height="5100"/>
<rect x="-730" y="-4028" class="st35" width="1280" height="5100"/>
<rect x="-730" y="-4028" class="st35" width="1280" height="5100"/>
<rect x="-730" y="-4028" class="st35" width="1280" height="5100"/>
<rect x="-730" y="-4028" class="st35" width="1280" height="5100"/>
<rect x="-730" y="-4028" class="st35" width="1280" height="5100"/>
<rect x="-730" y="-4028" class="st35" width="1280" height="5100"/>
<rect x="-730" y="-4028" class="st35" width="1280" height="5100"/>
<rect x="-730" y="-4028" class="st35" width="1280" height="5100"/>
<rect x="-730" y="-4028" class="st35" width="1280" height="5100"/>
<g>
	
	<clipPath id="SVGID_6_">
		<use xlink:href="#SVGID_67_" style="overflow:visible;"/>
	</clipPath>
</g>
<g>
	
	<clipPath id="SVGID_8_">
		<use xlink:href="#SVGID_69_" style="overflow:visible;"/>
	</clipPath>
</g>
<g>
	
	<clipPath id="SVGID_10_">
		<use xlink:href="#SVGID_71_" style="overflow:visible;"/>
	</clipPath>
</g>
<g>
	
	<clipPath id="SVGID_12_">
		<use xlink:href="#SVGID_73_" style="overflow:visible;"/>
	</clipPath>
</g>
<g>
	
	<clipPath id="SVGID_14_">
		<use xlink:href="#SVGID_75_" style="overflow:visible;"/>
	</clipPath>
</g>
<g>
	
	<clipPath id="SVGID_16_">
		<use xlink:href="#SVGID_77_" style="overflow:visible;"/>
	</clipPath>
</g>
<g>
	
	<clipPath id="SVGID_18_">
		<use xlink:href="#SVGID_79_" style="overflow:visible;"/>
	</clipPath>
</g>
<g>
	<path class="st36" d="M39.4,62c-0.4,0-0.7-0.1-1-0.4l-18-18c-0.5-0.5-0.5-1.4,0-2l6.9-6.9c0.5-0.5,1.4-0.5,2,0l10.1,10.1l18.4-18.4
		c0.5-0.5,1.4-0.5,2,0l6.9,6.9c0.5,0.5,0.5,1.4,0,2L40.3,61.6C40.1,61.9,39.7,62,39.4,62z M23.3,42.6l16,16l24.3-24.3l-5-5
		L40.3,47.7c-0.5,0.5-1.4,0.5-2,0L28.3,37.7L23.3,42.6z"/>
	<rect x="8" y="44" class="st34" width="3" height="3"/>
	<path class="st36" d="M45,90C20.2,90,0,69.8,0,45S20.2,0,45,0s45,20.2,45,45S69.8,90,45,90 M45,2.8C21.7,2.8,2.8,21.7,2.8,45
		S21.7,87.2,45,87.2S87.2,68.3,87.2,45S68.3,2.8,45,2.8"/>
	<path class="st33" d="M89,60c0,16.6-13.2,30-29.5,30S30,76.6,30,60c0-16.6,13.2-30,29.5-30S89,43.4,89,60"/>
	<rect x="43" y="79" class="st34" width="3" height="3"/>
	<rect x="43" y="9" class="st34" width="3" height="3"/>
	<rect x="78" y="44" class="st34" width="3" height="3"/>
	<path class="st34" d="M39.4,62c-0.4,0-0.7-0.1-1-0.4l-18-18c-0.5-0.5-0.5-1.4,0-2l6.9-6.9c0.5-0.5,1.4-0.5,2,0l10.1,10.1l18.4-18.4
		c0.5-0.5,1.4-0.5,2,0l6.9,6.9c0.5,0.5,0.5,1.4,0,2L40.3,61.6C40.1,61.9,39.7,62,39.4,62z M23.3,42.6l16,16l24.3-24.3l-5-5
		L40.3,47.7c-0.5,0.5-1.4,0.5-2,0L28.3,37.7L23.3,42.6z"/>
	<path class="st34" d="M45,90C20.2,90,0,69.8,0,45S20.2,0,45,0s45,20.2,45,45S69.8,90,45,90 M45,2.8C21.7,2.8,2.8,21.7,2.8,45
		S21.7,87.2,45,87.2S87.2,68.3,87.2,45S68.3,2.8,45,2.8"/>
</g>
</symbol><symbol id="advantages-44" viewBox="0 0 90 90"><g><g transform="translate(-1038 -3883)"><use fill="#ecf5f8" xlink:href="#t7i6a"/></g><g transform="translate(-1038 -3883)"><use fill="#3eb4f0" xlink:href="#t7i6b"/></g><g transform="translate(-1038 -3883)"><use fill="#3eb4f0" xlink:href="#t7i6c"/></g><g transform="translate(-1038 -3883)"><use fill="#3eb4f0" xlink:href="#t7i6d"/></g><g transform="translate(-1038 -3883)"><g><use fill="#3eb4f0" xlink:href="#t7i6e"/></g><g><use fill="#3eb4f0" xlink:href="#t7i6f"/></g><g><use fill="#3eb4f0" xlink:href="#t7i6g"/></g></g></g></symbol><symbol id="btn-1" viewBox="0 0 40 34"><g><g transform="translate(-25 -222)"><g><use fill="currentColor" xlink:href="#qq4ta"/></g><g><use fill="currentColor" xlink:href="#qq4tb"/></g><g><use fill="currentColor" xlink:href="#qq4tc"/></g><g><use fill="currentColor" xlink:href="#qq4td"/></g></g></g></symbol><symbol id="btn-2" viewBox="0 0 40 34"><g><g transform="translate(-28 -294)"><g><use fill="currentColor" xlink:href="#idn3b"/></g><g><use fill="currentColor" xlink:href="#idn3c"/></g><g><g/><g clip-path="url(#idn3d)"><use fill="currentColor" xlink:href="#idn3e"/></g></g></g></g></symbol><symbol id="btn-3" viewBox="0 0 40 35"><g><g transform="translate(-28 -358)"><g><g/><g clip-path="url(#myyrc)"><use fill="currentColor" xlink:href="#myyrd"/></g></g><g><use fill="currentColor" xlink:href="#myyre"/></g><g><use fill="currentColor" xlink:href="#myyrf"/></g><g><g/><g clip-path="url(#myyrg)"><use fill="currentColor" xlink:href="#myyrh"/></g></g></g></g></symbol><symbol id="tel" viewBox="0 0 20 20"><g><g transform="translate(-1008 -47)"><use fill="currentColor" xlink:href="#wux5a"/></g></g></symbol><symbol id="telephone" viewBox="0 0 401.998 401.998">
<g>
	<path d="M401.129,311.475c-1.137-3.426-8.371-8.473-21.697-15.129c-3.61-2.098-8.754-4.949-15.41-8.566
		c-6.662-3.617-12.709-6.95-18.13-9.996c-5.432-3.045-10.521-5.995-15.276-8.846c-0.76-0.571-3.139-2.234-7.136-5
		c-4.001-2.758-7.375-4.805-10.14-6.14c-2.759-1.327-5.473-1.995-8.138-1.995c-3.806,0-8.56,2.714-14.268,8.135
		c-5.708,5.428-10.944,11.324-15.7,17.706c-4.757,6.379-9.802,12.275-15.126,17.7c-5.332,5.427-9.713,8.138-13.135,8.138
		c-1.718,0-3.86-0.479-6.427-1.424c-2.566-0.951-4.518-1.766-5.858-2.423c-1.328-0.671-3.607-1.999-6.845-4.004
		c-3.244-1.999-5.048-3.094-5.428-3.285c-26.075-14.469-48.438-31.029-67.093-49.676c-18.649-18.658-35.211-41.019-49.676-67.097
		c-0.19-0.381-1.287-2.19-3.284-5.424c-2-3.237-3.333-5.518-3.999-6.854c-0.666-1.331-1.475-3.283-2.425-5.852
		s-1.427-4.709-1.427-6.424c0-3.424,2.713-7.804,8.138-13.134c5.424-5.327,11.326-10.373,17.7-15.128
		c6.379-4.755,12.275-9.991,17.701-15.699c5.424-5.711,8.136-10.467,8.136-14.273c0-2.663-0.666-5.378-1.997-8.137
		c-1.332-2.765-3.378-6.139-6.139-10.138c-2.762-3.997-4.427-6.374-4.999-7.139c-2.852-4.755-5.799-9.846-8.848-15.271
		c-3.049-5.424-6.377-11.47-9.995-18.131c-3.615-6.658-6.468-11.799-8.564-15.415C98.986,9.233,93.943,1.997,90.516,0.859
		C89.183,0.288,87.183,0,84.521,0c-5.142,0-11.85,0.95-20.129,2.856c-8.282,1.903-14.799,3.899-19.558,5.996
		c-9.517,3.995-19.604,15.605-30.264,34.826C4.863,61.566,0.01,79.271,0.01,96.78c0,5.135,0.333,10.131,0.999,14.989
		c0.666,4.853,1.856,10.326,3.571,16.418c1.712,6.09,3.093,10.614,4.137,13.56c1.045,2.948,2.996,8.229,5.852,15.845
		c2.852,7.614,4.567,12.275,5.138,13.988c6.661,18.654,14.56,35.307,23.695,49.964c15.03,24.362,35.541,49.539,61.521,75.521
		c25.981,25.98,51.153,46.49,75.517,61.526c14.655,9.134,31.314,17.032,49.965,23.698c1.714,0.568,6.375,2.279,13.986,5.141
		c7.614,2.854,12.897,4.805,15.845,5.852c2.949,1.048,7.474,2.43,13.559,4.145c6.098,1.715,11.566,2.905,16.419,3.576
		c4.856,0.657,9.853,0.996,14.989,0.996c17.508,0,35.214-4.856,53.105-14.562c19.219-10.656,30.826-20.745,34.823-30.269
		c2.102-4.754,4.093-11.273,5.996-19.555c1.909-8.278,2.857-14.985,2.857-20.126C401.99,314.814,401.703,312.819,401.129,311.475z"/>
</g>
<g>
</g>
<g>
</g>
<g>
</g>
<g>
</g>
<g>
</g>
<g>
</g>
<g>
</g>
<g>
</g>
<g>
</g>
<g>
</g>
<g>
</g>
<g>
</g>
<g>
</g>
<g>
</g>
<g>
</g>
</symbol></svg>