<svg xmlns="http://www.w3.org/2000/svg" xmlns:xlink="http://www.w3.org/1999/xlink" width="20" height="20" viewBox="0 0 20 20"><defs><path id="wux5a" d="M1008.47 55c-.98-2.3-.38-5 1.42-6.74l.68-.65c.8-.81 2.12-.81 2.93 0l1.28 1.28c.8.81.8 2.13 0 2.94l-.42.42c-1 1-1.39 2.47-.98 3.82.95 3.2 3.53 4.7 5.48 5.4 1.33.47 2.82.17 3.88-.78l.45-.4c.8-.82 2.12-.82 2.93 0l1.27 1.27c.81.81.81 2.13 0 2.94l-.68.7a6.04 6.04 0 0 1-6.79 1.26 24.95 24.95 0 0 1-6.9-5.04 21.53 21.53 0 0 1-4.55-6.42"/></defs><g><g transform="translate(-1008 -47)"><use fill="currentColor" xlink:href="#wux5a"/></g></g></svg>
