<svg xmlns="http://www.w3.org/2000/svg" xmlns:xlink="http://www.w3.org/1999/xlink"><symbol id="icon-arrow-left" viewBox="0 0 15 9">
<path fill="currentColor" d="M4.89917 0.135354C5.10353 -0.0451179 5.44363 -0.0451179 5.65513 0.135354C5.85948 0.309728 5.85948 0.599946 5.65513 0.773914L1.82201 4.04476H14.4708C14.7656 4.04516 15 4.24515 15 4.49675C15 4.74835 14.7656 4.95484 14.4708 4.95484H1.82201L5.65513 8.21958C5.85948 8.40005 5.85948 8.69068 5.65513 8.86465C5.44363 9.04512 5.10305 9.04512 4.89917 8.86465L0.158622 4.81948C-0.0528736 4.64511 -0.0528736 4.35489 0.158622 4.18092L4.89917 0.135354Z"/>
</symbol><symbol id="icon-arrow-right" viewBox="0 0 15 9">
<path fill="currentColor" d="M10.1008 0.135354C9.89647 -0.0451179 9.55637 -0.0451179 9.34487 0.135354C9.14052 0.309728 9.14052 0.599946 9.34487 0.773914L13.178 4.04476H0.529216C0.23436 4.04516 0 4.24515 0 4.49675C0 4.74835 0.23436 4.95484 0.529216 4.95484H13.178L9.34487 8.21958C9.14052 8.40005 9.14052 8.69068 9.34487 8.86465C9.55637 9.04512 9.89695 9.04512 10.1008 8.86465L14.8414 4.81948C15.0529 4.64511 15.0529 4.35489 14.8414 4.18092L10.1008 0.135354Z"/>
</symbol><symbol id="icon-burger" viewBox="0 0 480 407.3">
<g>
	<path fill="currentColor" d="M0,38.8C0,17.4,17.4,0,38.8,0h402.4C462.6,0,480,17.4,480,38.8s-17.4,38.8-38.8,38.8H38.8C17.4,77.6,0,60.2,0,38.8z
		 M441.2,164.8H38.8C17.4,164.8,0,182.2,0,203.6s17.4,38.8,38.8,38.8h402.4c21.4,0,38.8-17.4,38.8-38.8S462.6,164.8,441.2,164.8z
		 M441.2,329.7H38.8C17.4,329.7,0,347.1,0,368.5s17.4,38.8,38.8,38.8h402.4c21.4,0,38.8-17.4,38.8-38.8S462.6,329.7,441.2,329.7z"/>
</g>
</symbol><symbol id="icon-check" viewBox="0 0 14 10">
<path d="M5.53335 9.74769L13.7467 1.48519C13.9086 1.32232 14 1.10039 14 0.86875C14 0.637111 13.9086 0.41518 13.7467 0.252309C13.4124 -0.0840724 12.8719 -0.0840724 12.5376 0.252309L5.96874 6.8605C5.39448 7.43599 4.46239 7.43599 3.88793 6.85919L1.46237 4.41948C1.12799 4.0831 0.587499 4.0831 0.253109 4.41966C-0.0843573 4.75898 -0.0843573 5.31288 0.253279 5.65237L4.32443 9.74787C4.65848 10.0841 5.19897 10.0841 5.53335 9.74769Z" fill="#1FAD8C"/>
</symbol><symbol id="icon-entries" viewBox="0 0 23 23">
<path d="M4.79165 21.0833C4.53748 21.0833 4.29372 20.9824 4.114 20.8026C3.93428 20.6229 3.83331 20.3792 3.83331 20.125V2.87499C3.83331 2.62082 3.93428 2.37707 4.114 2.19735C4.29372 2.01762 4.53748 1.91666 4.79165 1.91666H18.2083C18.4625 1.91666 18.7062 2.01762 18.886 2.19735C19.0657 2.37707 19.1666 2.62082 19.1666 2.87499V5.74999H17.25V3.83332H5.74998V19.1667H17.25V17.25H19.1666V20.125C19.1666 20.3792 19.0657 20.6229 18.886 20.8026C18.7062 20.9824 18.4625 21.0833 18.2083 21.0833H4.79165ZM17.25 15.3333V12.4583H10.5416V10.5417H17.25V7.66666L22.0416 11.5L17.25 15.3333Z" fill="currentColor"/>
</symbol><symbol id="icon-facebook" viewBox="0 0 9 18">
<path fill-rule="evenodd" clip-rule="evenodd" d="M8.70446 6.07661H6.03569V4.319C6.02291 4.21901 6.03209 4.1174 6.06251 4.02128C6.09302 3.92516 6.14414 3.83687 6.21236 3.76253C6.28049 3.68828 6.36401 3.62969 6.45716 3.591C6.55022 3.55231 6.65066 3.53439 6.75146 3.53852H8.63966V0.609594H6.10157C5.62754 0.571983 5.15099 0.63654 4.70405 0.798909C4.25711 0.961278 3.85022 1.21768 3.51083 1.55079C3.17144 1.88389 2.90756 2.28595 2.73692 2.7298C2.56628 3.17366 2.49284 3.64895 2.52164 4.12361V6.01073H0.894714V9.0044H2.52164V17.3991H6.03569V9.0044H8.37947L8.70446 6.07661Z" fill="currentColor"/>
</symbol><symbol id="icon-inst" viewBox="0 0 18 19">
<path d="M9.49994 2.53212C11.7694 2.53212 12.0386 2.54062 12.9354 2.58171C15.2389 2.68654 16.3148 3.7795 16.4196 6.066C16.4607 6.96204 16.4685 7.23121 16.4685 9.50071C16.4685 11.7709 16.46 12.0394 16.4196 12.9354C16.3141 15.2198 15.241 16.3149 12.9354 16.4197C12.0386 16.4608 11.7709 16.4693 9.49994 16.4693C7.23044 16.4693 6.96127 16.4608 6.06523 16.4197C3.75606 16.3142 2.68577 15.2163 2.58094 12.9347C2.53986 12.0387 2.53136 11.7702 2.53136 9.5C2.53136 7.2305 2.54056 6.96204 2.58094 6.06529C2.68648 3.7795 3.75961 2.68583 6.06523 2.581C6.96198 2.54063 7.23044 2.53212 9.49994 2.53212ZM9.49994 1C7.19148 1 6.90248 1.00992 5.99581 1.051C2.9089 1.19267 1.19331 2.90542 1.05165 5.99517C1.00986 6.90254 0.999939 7.19154 0.999939 9.5C0.999939 11.8085 1.00986 12.0982 1.05094 13.0048C1.19261 16.0917 2.90536 17.8073 5.99511 17.949C6.90248 17.9901 7.19148 18 9.49994 18C11.8084 18 12.0981 17.9901 13.0048 17.949C16.0889 17.8073 17.8087 16.0946 17.9482 13.0048C17.99 12.0982 17.9999 11.8085 17.9999 9.5C17.9999 7.19154 17.99 6.90254 17.9489 5.99587C17.8101 2.91179 16.0952 1.19337 13.0055 1.05171C12.0981 1.00992 11.8084 1 9.49994 1ZM9.49994 5.13525C7.08948 5.13525 5.13519 7.08954 5.13519 9.5C5.13519 11.9105 7.08948 13.8655 9.49994 13.8655C11.9104 13.8655 13.8647 11.9112 13.8647 9.5C13.8647 7.08954 11.9104 5.13525 9.49994 5.13525ZM9.49994 12.3333C7.93523 12.3333 6.66661 11.0654 6.66661 9.5C6.66661 7.93529 7.93523 6.66667 9.49994 6.66667C11.0646 6.66667 12.3333 7.93529 12.3333 9.5C12.3333 11.0654 11.0646 12.3333 9.49994 12.3333ZM14.0375 3.94313C13.4737 3.94313 13.0168 4.4 13.0168 4.96312C13.0168 5.52625 13.4737 5.98312 14.0375 5.98312C14.6006 5.98312 15.0568 5.52625 15.0568 4.96312C15.0568 4.4 14.6006 3.94313 14.0375 3.94313Z" fill="currentColor" stroke="currentColor" stroke-width="0.18"/>
</symbol><symbol id="icon-logo" viewBox="0 0 13 11">
<path d="M5.73199 7.99213H4.22989V3.00489H5.73199V0C2.70284 0.261024 0.384766 2.64533 0.384766 5.5C0.384766 8.35467 2.70284 10.739 5.73199 11V7.99213Z" fill="#7B32E8"/>
<path d="M6.87842 0V3.04002C7.09435 3.06904 7.30616 3.1206 7.50993 3.19374C7.84163 3.31133 8.14543 3.48916 8.404 3.71708C8.65399 3.93888 8.85226 4.20703 8.98628 4.50457C9.12422 4.81454 9.19373 5.14761 9.19061 5.48358V5.49801C9.19352 5.83525 9.12402 6.16958 8.98628 6.48101C8.85311 6.77985 8.65475 7.04913 8.404 7.27148C8.1451 7.49997 7.84146 7.67906 7.50993 7.7988C7.3064 7.87349 7.09456 7.92639 6.87842 7.95649V11C9.90638 10.743 12.2256 8.35767 12.2256 5.5005C12.2256 2.64332 9.90638 0.258009 6.87842 0.000994935V0Z" fill="#1CB7ED"/>
</symbol><symbol id="icon-settings" viewBox="0 0 22 23">
<path fill-rule="evenodd" clip-rule="evenodd" d="M18.5891 12.1262C18.3441 11.1869 17.5732 10.4366 16.5774 10.2364C16.991 9.61376 17.1089 8.86721 16.9452 8.17883C17.2434 7.81066 17.4221 7.34194 17.4221 6.83193C17.4221 5.64954 16.4616 4.68902 15.2792 4.68902C14.7667 4.68902 14.2958 4.86949 13.9269 5.17026C13.734 5.12533 13.5349 5.10214 13.3328 5.10214C12.7999 5.10214 12.2843 5.26322 11.8476 5.56624C11.6567 4.56385 10.9085 3.78502 9.95713 3.52956C9.7627 3.20464 9.8127 2.78594 10.0834 2.51522L10.9232 1.67828C11.0776 1.521 11.2883 1.43393 11.5101 1.43393C11.6843 1.43393 11.8528 1.4873 11.9932 1.5884L12.7656 2.14449C13.0576 1.98721 13.3638 1.85802 13.6783 1.75972L13.8412 0.804822C13.9086 0.403202 14.2541 0.111115 14.6613 0.111115H15.8437C16.2509 0.111115 16.5964 0.403202 16.6638 0.804822L16.821 1.73725C17.1496 1.83555 17.467 1.96755 17.7703 2.12764L18.5511 1.57155C18.6915 1.47044 18.8572 1.41708 19.0314 1.41708C19.2532 1.41708 19.4611 1.50415 19.6183 1.66142L20.4553 2.49837C20.7445 2.78484 20.7811 3.23701 20.5451 3.56842L19.9891 4.34638C20.1435 4.63847 20.2699 4.9446 20.3682 5.26196L21.3119 5.42205C21.7135 5.48945 22.0056 5.8349 22 6.24214V7.42453C22 7.83177 21.7079 8.17722 21.3062 8.24462L20.3626 8.4019C20.2671 8.71646 20.1379 9.02259 19.9834 9.31748L20.5395 10.0983C20.7754 10.4297 20.7361 10.8818 20.4496 11.1683L19.6127 12.0052C19.4554 12.1625 19.2476 12.2496 19.0257 12.2496C18.8704 12.2496 18.7195 12.2071 18.5891 12.1262Z" fill="currentColor"/>
<path fill-rule="evenodd" clip-rule="evenodd" d="M16.2353 11.7594L15.0342 11.5556C14.9091 11.1517 14.7483 10.7621 14.5517 10.3903L15.2594 9.4002C15.5597 8.97841 15.5132 8.40292 15.145 8.03832L14.0799 6.97312C13.8797 6.77295 13.6152 6.66214 13.3328 6.66214C13.1112 6.66214 12.9003 6.73006 12.7216 6.85874L11.7279 7.56649C11.3418 7.36274 10.9379 7.19474 10.5197 7.06963L10.3195 5.8829C10.2337 5.37175 9.79406 5 9.27576 5H7.77091C7.25261 5 6.81295 5.37175 6.72716 5.8829L6.51984 7.09823C6.1195 7.22334 5.72988 7.38776 5.35814 7.58793L4.37516 6.88018C4.19643 6.7515 3.98196 6.68359 3.76035 6.68359C3.47796 6.68359 3.20988 6.7944 3.01328 6.99457L1.94451 8.05977C1.57992 8.42437 1.52988 8.99986 1.83013 9.42165L2.54503 10.4261C2.34843 10.8014 2.19115 11.191 2.06962 11.5949L0.882895 11.7951C0.371745 11.8809 0 12.3206 0 12.8389V14.3437C0 14.862 0.371745 15.3017 0.882895 15.3875L2.09822 15.5948C2.22332 15.9951 2.38775 16.3848 2.58792 16.7565L1.88375 17.7359C1.58349 18.1577 1.62996 18.7332 1.99813 19.0978L3.06332 20.163C3.2635 20.3632 3.52801 20.474 3.81039 20.474C4.03201 20.474 4.2429 20.4061 4.42163 20.2774L5.42605 19.5625C5.78707 19.7519 6.16597 19.9056 6.55559 20.0272L6.75576 21.2282C6.84154 21.7394 7.2812 22.1111 7.7995 22.1111H9.30793C9.82623 22.1111 10.2659 21.7394 10.3517 21.2282L10.5554 20.0272C10.9593 19.9021 11.349 19.7412 11.7207 19.5446L12.7108 20.2524C12.8896 20.3811 13.104 20.449 13.3256 20.449C13.608 20.449 13.8725 20.3382 14.0727 20.138L15.1379 19.0728C15.5025 18.7082 15.5525 18.1327 15.2523 17.7109L14.5445 16.7172C14.7411 16.3419 14.9056 15.9523 15.0271 15.5519L16.2281 15.3517C16.7393 15.266 17.111 14.8263 17.111 14.308V12.8031C17.1182 12.2848 16.7464 11.8452 16.2353 11.7594ZM8.55729 17.8411C6.19087 17.8411 4.26997 15.9202 4.26997 13.5538C4.26997 11.1873 6.19087 9.26643 8.55729 9.26643C10.9237 9.26643 12.8446 11.1873 12.8446 13.5538C12.8446 15.9202 10.9237 17.8411 8.55729 17.8411Z" fill="currentColor"/>
</symbol><symbol id="icon-telegram" viewBox="0 0 20 16">
<path fill-rule="evenodd" clip-rule="evenodd" d="M18.4471 0.102283L1.55139 6.62147C0.397324 7.08397 0.405914 7.72827 1.3409 8.01467L5.55622 9.33047L7.16852 14.2747C7.36462 14.8159 7.26732 15.0307 7.83572 15.0307C8.00562 15.029 8.17302 14.9886 8.32502 14.9127C8.47712 14.8368 8.60992 14.7273 8.71342 14.5925L10.8211 12.5422L15.2054 15.781C16.0115 16.2263 16.5943 15.9958 16.7962 15.0321L19.6742 1.46969C19.9634 0.292723 19.2188 -0.242787 18.4471 0.102283ZM6.21202 9.02697L15.7137 3.03327C16.1876 2.74687 16.6229 2.90007 16.2664 3.21657L8.13072 10.5562L7.81422 13.9353L6.21342 9.02697H6.21202Z" fill="currentColor"/>
</symbol><symbol id="icon-twitter" viewBox="0 0 21 16">
<path fill-rule="evenodd" clip-rule="evenodd" d="M20.3532 1.96124C19.6048 2.27677 18.8138 2.48037 18.0057 2.56537C18.8435 2.04697 19.4626 1.24161 19.7469 0.300563C18.9558 0.781773 18.0828 1.11431 17.1713 1.28169C16.3941 0.484553 15.3336 0.0238529 14.2185 -0.00100708C13.1562 0.00630292 12.1394 0.430063 11.3882 1.17861C10.637 1.92715 10.2117 2.94027 10.2044 3.99887C10.1919 4.30277 10.2173 4.60697 10.2801 4.90457C8.69073 4.85507 7.13063 4.46507 5.70603 3.76117C4.28133 3.05717 3.02553 2.05587 2.02383 0.825203C1.68725 1.4545 1.50438 2.15407 1.49007 2.86697C1.4733 3.53127 1.63298 4.18827 1.95294 4.77137C2.2729 5.35437 2.74179 5.84287 3.31213 6.18727C2.64784 6.16367 1.99876 5.98277 1.41855 5.65957V5.73497C1.41354 6.66577 1.7369 7.56867 2.33214 8.28607C2.92738 9.00337 3.75663 9.48947 4.67503 9.65947C4.32893 9.75187 3.97293 9.80247 3.61473 9.81027C3.35983 9.82267 3.10453 9.79727 2.85713 9.73487C3.11153 10.5389 3.61513 11.2419 4.29553 11.7429C4.97593 12.2439 5.79823 12.5172 6.64423 12.5233C5.21843 13.6408 3.45953 14.2531 1.64553 14.2635C1.31548 14.2757 0.985109 14.25 0.660919 14.1871C2.51866 15.3614 4.67133 15.9893 6.87123 15.9986C8.38033 16.0117 9.87703 15.7265 11.2747 15.1594C12.6725 14.5923 13.9434 13.7546 15.0141 12.6948C16.0848 11.6351 16.9339 10.3742 17.5124 8.98527C18.0908 7.59627 18.387 6.10687 18.384 4.60307V4.07427C19.1535 3.48367 19.819 2.76957 20.3532 1.96124Z" fill="currentColor"/>
</symbol></svg>