<svg xmlns="http://www.w3.org/2000/svg" xmlns:xlink="http://www.w3.org/1999/xlink" width="20" height="20" viewBox="0 0 20 20"><defs><path id="a" d="M1128.8 146.63c0-.6.47-1.1 1.05-1.1.58 0 1.05.5 1.05 1.1 0 .61-.47 1.1-1.05 1.1-.58 0-1.05-.49-1.05-1.1zm.97-3.41c-1.79 0-3.24 1.58-3.24 3.52 0 1.56.93 2.89 2.22 3.35v2.8c0 2.65-1.97 4.8-4.4 4.8-2.43 0-4.4-2.15-4.4-4.8v-.31c2.79-.53 4.92-3.18 4.92-6.37v-5.1c0-.62-.46-1.11-1.02-1.11h-1.25c-.56 0-1.01.5-1.01 1.1 0 .62.45 1.11 1.01 1.11h.24v4c0 2.34-1.75 4.25-3.9 4.25-2.16 0-3.9-1.9-3.9-4.25v-4h.3c.56 0 1.02-.5 1.02-1.1 0-.62-.46-1.11-1.02-1.11h-1.32c-.57 0-1.02.5-1.02 1.1v5.11c0 3.19 2.13 5.84 4.92 6.37v.32c0 3.86 2.88 7 6.43 7s6.43-3.14 6.43-7v-2.8a3.52 3.52 0 0 0 2.23-3.36c0-1.94-1.45-3.52-3.24-3.52z"/></defs><use fill="#fff" xlink:href="#a" transform="translate(-1113 -140)"/></svg>