<svg xmlns="http://www.w3.org/2000/svg" xmlns:xlink="http://www.w3.org/1999/xlink" width="7" height="10" viewBox="0 0 7 10"><defs><path id="a" d="M559.07 72.33a1.55 1.55 0 0 1-.47-1.13c0-.44.16-.82.47-1.13.31-.31.69-.47 1.13-.47.44 0 .82.16 1.13.47.31.31.47.69.47 1.13 0 .44-.16.82-.47 1.13-.31.32-.69.47-1.13.47-.44 0-.82-.15-1.13-.47zM560.2 68c-.88 0-1.64.31-2.26.94a3.08 3.08 0 0 0-.94 2.26c0 .46.07.83.2 1.12l2.29 4.84c.06.14.16.25.29.33a.8.8 0 0 0 1.14-.33l2.28-4.84c.13-.3.2-.66.2-1.12 0-.88-.31-1.64-.94-2.26a3.08 3.08 0 0 0-2.26-.94z"/></defs><g clip-path="url(#clip-9280DAEC-FBE1-49AF-A309-3DEBABEDAD2B)" transform="translate(-557 -68)"><use fill="#ff0043" xlink:href="#a"/></g></svg>