<svg xmlns="http://www.w3.org/2000/svg" xmlns:xlink="http://www.w3.org/1999/xlink"><defs><path id="a" d="M858.5 1060l7.5-4.5v-4.31l-7.5 4.53-7.5-4.72v4.5z"/><path id="a" d="M858.5 1111l-7.5 4.5v4.31l7.5-4.53 7.5 4.72v-4.5z"/><path id="a" d="M1128.8 146.63c0-.6.47-1.1 1.05-1.1.58 0 1.05.5 1.05 1.1 0 .61-.47 1.1-1.05 1.1-.58 0-1.05-.49-1.05-1.1zm.97-3.41c-1.79 0-3.24 1.58-3.24 3.52 0 1.56.93 2.89 2.22 3.35v2.8c0 2.65-1.97 4.8-4.4 4.8-2.43 0-4.4-2.15-4.4-4.8v-.31c2.79-.53 4.92-3.18 4.92-6.37v-5.1c0-.62-.46-1.11-1.02-1.11h-1.25c-.56 0-1.01.5-1.01 1.1 0 .62.45 1.11 1.01 1.11h.24v4c0 2.34-1.75 4.25-3.9 4.25-2.16 0-3.9-1.9-3.9-4.25v-4h.3c.56 0 1.02-.5 1.02-1.1 0-.62-.46-1.11-1.02-1.11h-1.32c-.57 0-1.02.5-1.02 1.1v5.11c0 3.19 2.13 5.84 4.92 6.37v.32c0 3.86 2.88 7 6.43 7s6.43-3.14 6.43-7v-2.8a3.52 3.52 0 0 0 2.23-3.36c0-1.94-1.45-3.52-3.24-3.52z"/><path id="a" d="M946.2 70.57v-8.15h2.95l.44-3.17h-3.39v-2.03c0-.92.28-1.54 1.7-1.54h1.81v-2.85a26.2 26.2 0 0 0-2.64-.12c-2.61 0-4.4 1.48-4.4 4.2v2.34h-2.96v3.17h2.96v8.15z"/><path id="a" d="M559.07 72.33a1.55 1.55 0 0 1-.47-1.13c0-.44.16-.82.47-1.13.31-.31.69-.47 1.13-.47.44 0 .82.16 1.13.47.31.31.47.69.47 1.13 0 .44-.16.82-.47 1.13-.31.32-.69.47-1.13.47-.44 0-.82-.15-1.13-.47zM560.2 68c-.88 0-1.64.31-2.26.94a3.08 3.08 0 0 0-.94 2.26c0 .46.07.83.2 1.12l2.29 4.84c.06.14.16.25.29.33a.8.8 0 0 0 1.14-.33l2.28-4.84c.13-.3.2-.66.2-1.12 0-.88-.31-1.64-.94-2.26a3.08 3.08 0 0 0-2.26-.94z"/><path id="a" d="M154.02 20l-7.43 7-1.53-1.73 4.86-4.26H140l.06-2.04h9.86l-4.86-4.28L146.7 13z"/><path id="a" d="M1275.2 65.04a4.67 4.67 0 0 1-1.43-3.42c0-1.34.47-2.48 1.42-3.43a4.67 4.67 0 0 1 3.43-1.42c1.33 0 2.47.47 3.42 1.42a4.67 4.67 0 0 1 1.42 3.43c0 1.33-.47 2.47-1.42 3.42a4.67 4.67 0 0 1-3.42 1.42 4.67 4.67 0 0 1-3.43-1.42zm9.69.9a7.41 7.41 0 0 0 1.34-4.32 7.6 7.6 0 0 0-7.62-7.62 7.63 7.63 0 0 0-7.02 4.66 7.5 7.5 0 0 0 .01 5.91c.4.95.94 1.76 1.62 2.44a7.63 7.63 0 0 0 5.4 2.22 7.4 7.4 0 0 0 4.31-1.34l3.71 3.7c.26.27.59.41.98.41.37 0 .7-.14.97-.41.27-.28.41-.6.41-.97 0-.39-.13-.71-.4-.98z"/><path id="a" d="M858.5 1060l7.5-4.5v-4.31l-7.5 4.53-7.5-4.72v4.5z"/><path id="b" d="M858.5 1111l-7.5 4.5v4.31l7.5-4.53 7.5 4.72v-4.5z"/><path id="c" d="M1128.8 146.63c0-.6.47-1.1 1.05-1.1.58 0 1.05.5 1.05 1.1 0 .61-.47 1.1-1.05 1.1-.58 0-1.05-.49-1.05-1.1zm.97-3.41c-1.79 0-3.24 1.58-3.24 3.52 0 1.56.93 2.89 2.22 3.35v2.8c0 2.65-1.97 4.8-4.4 4.8-2.43 0-4.4-2.15-4.4-4.8v-.31c2.79-.53 4.92-3.18 4.92-6.37v-5.1c0-.62-.46-1.11-1.02-1.11h-1.25c-.56 0-1.01.5-1.01 1.1 0 .62.45 1.11 1.01 1.11h.24v4c0 2.34-1.75 4.25-3.9 4.25-2.16 0-3.9-1.9-3.9-4.25v-4h.3c.56 0 1.02-.5 1.02-1.1 0-.62-.46-1.11-1.02-1.11h-1.32c-.57 0-1.02.5-1.02 1.1v5.11c0 3.19 2.13 5.84 4.92 6.37v.32c0 3.86 2.88 7 6.43 7s6.43-3.14 6.43-7v-2.8a3.52 3.52 0 0 0 2.23-3.36c0-1.94-1.45-3.52-3.24-3.52z"/><path id="d" d="M946.2 70.57v-8.15h2.95l.44-3.17h-3.39v-2.03c0-.92.28-1.54 1.7-1.54h1.81v-2.85a26.2 26.2 0 0 0-2.64-.12c-2.61 0-4.4 1.48-4.4 4.2v2.34h-2.96v3.17h2.96v8.15z"/><path id="e" d="M559.07 72.33a1.55 1.55 0 0 1-.47-1.13c0-.44.16-.82.47-1.13.31-.31.69-.47 1.13-.47.44 0 .82.16 1.13.47.31.31.47.69.47 1.13 0 .44-.16.82-.47 1.13-.31.32-.69.47-1.13.47-.44 0-.82-.15-1.13-.47zM560.2 68c-.88 0-1.64.31-2.26.94a3.08 3.08 0 0 0-.94 2.26c0 .46.07.83.2 1.12l2.29 4.84c.06.14.16.25.29.33a.8.8 0 0 0 1.14-.33l2.28-4.84c.13-.3.2-.66.2-1.12 0-.88-.31-1.64-.94-2.26a3.08 3.08 0 0 0-2.26-.94z"/><path id="f" d="M154.02 20l-7.43 7-1.53-1.73 4.86-4.26H140l.06-2.04h9.86l-4.86-4.28L146.7 13z"/><path id="g" d="M1275.2 65.04a4.67 4.67 0 0 1-1.43-3.42c0-1.34.47-2.48 1.42-3.43a4.67 4.67 0 0 1 3.43-1.42c1.33 0 2.47.47 3.42 1.42a4.67 4.67 0 0 1 1.42 3.43c0 1.33-.47 2.47-1.42 3.42a4.67 4.67 0 0 1-3.42 1.42 4.67 4.67 0 0 1-3.43-1.42zm9.69.9a7.41 7.41 0 0 0 1.34-4.32 7.6 7.6 0 0 0-7.62-7.62 7.63 7.63 0 0 0-7.02 4.66 7.5 7.5 0 0 0 .01 5.91c.4.95.94 1.76 1.62 2.44a7.63 7.63 0 0 0 5.4 2.22 7.4 7.4 0 0 0 4.31-1.34l3.71 3.7c.26.27.59.41.98.41.37 0 .7-.14.97-.41.27-.28.41-.6.41-.97 0-.39-.13-.71-.4-.98z"/><path id="h" d="M1045.98 75.75c-.03-.09-.2-.21-.54-.38a14.27 14.27 0 0 0-.84-.46 9.97 9.97 0 0 1-.37-.22l-.18-.12-.26-.16-.2-.05c-.1 0-.21.07-.35.2-.14.14-.28.29-.4.45-.11.15-.24.3-.37.44-.13.13-.24.2-.33.2l-.16-.04-.14-.06-.17-.1-.14-.08a7.45 7.45 0 0 1-1.67-1.23 7.42 7.42 0 0 1-1.23-1.67l-.08-.14-.1-.17-.06-.14-.04-.16c0-.09.07-.2.2-.33.14-.13.28-.26.44-.38.16-.11.31-.24.44-.39.14-.14.2-.26.2-.35l-.04-.2-.16-.26-.12-.17-.22-.38-.25-.46-.21-.38c-.17-.33-.3-.51-.38-.54l-.15-.02a2.8 2.8 0 0 0-.99.22c-.23.1-.48.39-.75.87a2.78 2.78 0 0 0-.33 1.69 3.05 3.05 0 0 0 .19.75 58.76 58.76 0 0 0 .27.74c.17.46.36.88.6 1.24.36.6.87 1.23 1.52 1.88a10.5 10.5 0 0 0 1.88 1.53 6.47 6.47 0 0 0 1.59.72 25.72 25.72 0 0 0 .73.25 3.11 3.11 0 0 0 .78.11c.44 0 .88-.12 1.32-.36.48-.27.77-.52.87-.76a2.82 2.82 0 0 0 .22-.98z"/><path id="i" d="M898.3 67.67s.35-.04.52-.22c.17-.18.16-.5.16-.5s-.02-1.5.7-1.73c.7-.21 1.61 1.46 2.58 2.1.73.5 1.28.38 1.28.38l2.58-.03s1.34-.08.7-1.11c-.05-.09-.37-.77-1.91-2.16-1.62-1.46-1.4-1.22.55-3.75 1.18-1.54 1.65-2.48 1.5-2.88-.14-.38-1-.28-1-.28l-2.9.02s-.22-.03-.38.06c-.16.1-.26.3-.26.3s-.46 1.2-1.07 2.2c-1.29 2.14-1.8 2.26-2.02 2.12-.49-.3-.36-1.24-.36-1.9 0-2.07.32-2.93-.63-3.16a5.09 5.09 0 0 0-1.36-.13 6.41 6.41 0 0 0-2.4.24c-.33.16-.59.51-.43.53.19.02.62.11.85.42.3.4.3 1.28.3 1.28s.16 2.43-.4 2.74c-.4.2-.93-.22-2.09-2.16a17.8 17.8 0 0 1-1.03-2.09s-.09-.2-.24-.31c-.19-.13-.45-.18-.45-.18l-2.75.02s-.42.01-.57.19c-.13.15 0 .47 0 .47s2.15 4.92 4.6 7.4c2.23 2.27 4.78 2.12 4.78 2.12z"/><path id="a" d="M1045.98 75.75c-.03-.09-.2-.21-.54-.38a14.27 14.27 0 0 0-.84-.46 9.97 9.97 0 0 1-.37-.22l-.18-.12-.26-.16-.2-.05c-.1 0-.21.07-.35.2-.14.14-.28.29-.4.45-.11.15-.24.3-.37.44-.13.13-.24.2-.33.2l-.16-.04-.14-.06-.17-.1-.14-.08a7.45 7.45 0 0 1-1.67-1.23 7.42 7.42 0 0 1-1.23-1.67l-.08-.14-.1-.17-.06-.14-.04-.16c0-.09.07-.2.2-.33.14-.13.28-.26.44-.38.16-.11.31-.24.44-.39.14-.14.2-.26.2-.35l-.04-.2-.16-.26-.12-.17-.22-.38-.25-.46-.21-.38c-.17-.33-.3-.51-.38-.54l-.15-.02a2.8 2.8 0 0 0-.99.22c-.23.1-.48.39-.75.87a2.78 2.78 0 0 0-.33 1.69 3.05 3.05 0 0 0 .19.75 58.76 58.76 0 0 0 .27.74c.17.46.36.88.6 1.24.36.6.87 1.23 1.52 1.88a10.5 10.5 0 0 0 1.88 1.53 6.47 6.47 0 0 0 1.59.72 25.72 25.72 0 0 0 .73.25 3.11 3.11 0 0 0 .78.11c.44 0 .88-.12 1.32-.36.48-.27.77-.52.87-.76a2.82 2.82 0 0 0 .22-.98z"/><path id="a" d="M898.3 67.67s.35-.04.52-.22c.17-.18.16-.5.16-.5s-.02-1.5.7-1.73c.7-.21 1.61 1.46 2.58 2.1.73.5 1.28.38 1.28.38l2.58-.03s1.34-.08.7-1.11c-.05-.09-.37-.77-1.91-2.16-1.62-1.46-1.4-1.22.55-3.75 1.18-1.54 1.65-2.48 1.5-2.88-.14-.38-1-.28-1-.28l-2.9.02s-.22-.03-.38.06c-.16.1-.26.3-.26.3s-.46 1.2-1.07 2.2c-1.29 2.14-1.8 2.26-2.02 2.12-.49-.3-.36-1.24-.36-1.9 0-2.07.32-2.93-.63-3.16a5.09 5.09 0 0 0-1.36-.13 6.41 6.41 0 0 0-2.4.24c-.33.16-.59.51-.43.53.19.02.62.11.85.42.3.4.3 1.28.3 1.28s.16 2.43-.4 2.74c-.4.2-.93-.22-2.09-2.16a17.8 17.8 0 0 1-1.03-2.09s-.09-.2-.24-.31c-.19-.13-.45-.18-.45-.18l-2.75.02s-.42.01-.57.19c-.13.15 0 .47 0 .47s2.15 4.92 4.6 7.4c2.23 2.27 4.78 2.12 4.78 2.12z"/></defs><symbol id="arrow-down-icon" viewBox="0 0 15 9"><use fill="#ff0043" xlink:href="#a" transform="translate(-851 -1051)"/></symbol><symbol id="arrow-up-icon" viewBox="0 0 15 9"><use fill="#8f96a0" xlink:href="#a" transform="translate(-851 -1111)"/></symbol><symbol id="doctor-symbol" viewBox="0 0 20 20"><use fill="#fff" xlink:href="#a" transform="translate(-1113 -140)"/></symbol><symbol id="faceboook" viewBox="0 0 11 19"><use fill="#293146" xlink:href="#a" transform="translate(-939 -52)"/></symbol><symbol id="instagram" viewBox="0 0 32 32"><title>instagram</title><path d="M16 2.881c4.275 0 4.781.019 6.462.094 1.563.069 2.406.331 2.969.55a4.952 4.952 0 0 1 1.837 1.194 5.015 5.015 0 0 1 1.2 1.838c.219.563.481 1.412.55 2.969.075 1.688.094 2.194.094 6.463s-.019 4.781-.094 6.463c-.069 1.563-.331 2.406-.55 2.969a4.94 4.94 0 0 1-1.194 1.837 5.02 5.02 0 0 1-1.837 1.2c-.563.219-1.413.481-2.969.55-1.688.075-2.194.094-6.463.094s-4.781-.019-6.463-.094c-1.563-.069-2.406-.331-2.969-.55a4.952 4.952 0 0 1-1.838-1.194 5.02 5.02 0 0 1-1.2-1.837c-.219-.563-.481-1.413-.55-2.969-.075-1.688-.094-2.194-.094-6.463s.019-4.781.094-6.463c.069-1.563.331-2.406.55-2.969a4.964 4.964 0 0 1 1.194-1.838 5.015 5.015 0 0 1 1.838-1.2c.563-.219 1.412-.481 2.969-.55 1.681-.075 2.188-.094 6.463-.094zM16 0c-4.344 0-4.887.019-6.594.094-1.7.075-2.869.35-3.881.744-1.056.412-1.95.956-2.837 1.85a7.833 7.833 0 0 0-1.85 2.831C.444 6.538.169 7.7.094 9.4.019 11.113 0 11.656 0 16s.019 4.887.094 6.594c.075 1.7.35 2.869.744 3.881.413 1.056.956 1.95 1.85 2.837a7.82 7.82 0 0 0 2.831 1.844c1.019.394 2.181.669 3.881.744 1.706.075 2.25.094 6.594.094s4.888-.019 6.594-.094c1.7-.075 2.869-.35 3.881-.744 1.05-.406 1.944-.956 2.831-1.844s1.438-1.781 1.844-2.831c.394-1.019.669-2.181.744-3.881.075-1.706.094-2.25.094-6.594s-.019-4.887-.094-6.594c-.075-1.7-.35-2.869-.744-3.881a7.506 7.506 0 0 0-1.831-2.844A7.82 7.82 0 0 0 26.482.843C25.463.449 24.301.174 22.601.099c-1.712-.081-2.256-.1-6.6-.1z"/><path d="M16 7.781c-4.537 0-8.219 3.681-8.219 8.219s3.681 8.219 8.219 8.219 8.219-3.681 8.219-8.219A8.221 8.221 0 0 0 16 7.781zm0 13.55a5.331 5.331 0 1 1 0-10.663 5.331 5.331 0 0 1 0 10.663zM26.462 7.456a1.919 1.919 0 1 1-3.838 0 1.919 1.919 0 0 1 3.838 0z"/></symbol><symbol id="pick" viewBox="0 0 7 10"><g clip-path="url(#clip-9280DAEC-FBE1-49AF-A309-3DEBABEDAD2B)" transform="translate(-557 -68)"><use fill="#ff0043" xlink:href="#a"/></g></symbol><symbol id="right-arrow-icon" viewBox="0 0 14 14"><use fill="#ff0043" xlink:href="#a" transform="translate(-141 -13)"/></symbol><symbol id="search" viewBox="0 0 18 18"><g clip-path="url(#clip-C98DAAE5-8B7F-469D-B9FB-AE6EAAF05A59)" transform="translate(-1271 -54)"><use fill="#293146" xlink:href="#a"/></g></symbol><symbol id="sprite-svg"/><symbol id="telephone" viewBox="0 0 10 10"><g clip-path="url(#clip-29F1A86D-BDB0-41CE-93E6-E83AB5338F05)" transform="translate(-1036 -68)"><use fill="#ff0043" xlink:href="#a"/></g></symbol><symbol id="vk" viewBox="0 0 20 11"><use fill="#293146" xlink:href="#a" transform="translate(-887 -57)"/></symbol></svg>