<svg xmlns="http://www.w3.org/2000/svg" xmlns:xlink="http://www.w3.org/1999/xlink" width="10" height="10" viewBox="0 0 10 10"><defs><path id="a" d="M1045.98 75.75c-.03-.09-.2-.21-.54-.38a14.27 14.27 0 0 0-.84-.46 9.97 9.97 0 0 1-.37-.22l-.18-.12-.26-.16-.2-.05c-.1 0-.21.07-.35.2-.14.14-.28.29-.4.45-.11.15-.24.3-.37.44-.13.13-.24.2-.33.2l-.16-.04-.14-.06-.17-.1-.14-.08a7.45 7.45 0 0 1-1.67-1.23 7.42 7.42 0 0 1-1.23-1.67l-.08-.14-.1-.17-.06-.14-.04-.16c0-.09.07-.2.2-.33.14-.13.28-.26.44-.38.16-.11.31-.24.44-.39.14-.14.2-.26.2-.35l-.04-.2-.16-.26-.12-.17-.22-.38-.25-.46-.21-.38c-.17-.33-.3-.51-.38-.54l-.15-.02a2.8 2.8 0 0 0-.99.22c-.23.1-.48.39-.75.87a2.78 2.78 0 0 0-.33 1.69 3.05 3.05 0 0 0 .19.75 58.76 58.76 0 0 0 .27.74c.17.46.36.88.6 1.24.36.6.87 1.23 1.52 1.88a10.5 10.5 0 0 0 1.88 1.53 6.47 6.47 0 0 0 1.59.72 25.72 25.72 0 0 0 .73.25 3.11 3.11 0 0 0 .78.11c.44 0 .88-.12 1.32-.36.48-.27.77-.52.87-.76a2.82 2.82 0 0 0 .22-.98z"/></defs><g clip-path="url(#clip-29F1A86D-BDB0-41CE-93E6-E83AB5338F05)" transform="translate(-1036 -68)"><use fill="#ff0043" xlink:href="#a"/></g></svg>