<svg xmlns="http://www.w3.org/2000/svg" xmlns:xlink="http://www.w3.org/1999/xlink" width="20" height="11" viewBox="0 0 20 11"><defs><path id="a" d="M898.3 67.67s.35-.04.52-.22c.17-.18.16-.5.16-.5s-.02-1.5.7-1.73c.7-.21 1.61 1.46 2.58 2.1.73.5 1.28.38 1.28.38l2.58-.03s1.34-.08.7-1.11c-.05-.09-.37-.77-1.91-2.16-1.62-1.46-1.4-1.22.55-3.75 1.18-1.54 1.65-2.48 1.5-2.88-.14-.38-1-.28-1-.28l-2.9.02s-.22-.03-.38.06c-.16.1-.26.3-.26.3s-.46 1.2-1.07 2.2c-1.29 2.14-1.8 2.26-2.02 2.12-.49-.3-.36-1.24-.36-1.9 0-2.07.32-2.93-.63-3.16a5.09 5.09 0 0 0-1.36-.13 6.41 6.41 0 0 0-2.4.24c-.33.16-.59.51-.43.53.19.02.62.11.85.42.3.4.3 1.28.3 1.28s.16 2.43-.4 2.74c-.4.2-.93-.22-2.09-2.16a17.8 17.8 0 0 1-1.03-2.09s-.09-.2-.24-.31c-.19-.13-.45-.18-.45-.18l-2.75.02s-.42.01-.57.19c-.13.15 0 .47 0 .47s2.15 4.92 4.6 7.4c2.23 2.27 4.78 2.12 4.78 2.12z"/></defs><use fill="#293146" xlink:href="#a" transform="translate(-887 -57)"/></svg>