<svg version="1.1" id="Слой_1" xmlns="http://www.w3.org/2000/svg" x="0" y="0" viewBox="0 0 27.4 45.7" xml:space="preserve"><style></style><path d="M27.4 41.2c0 2.5-2.1 4.6-4.6 4.6H4.6c-2.5 0-4.6-2.1-4.6-4.6V4.6C0 2.1 2.1 0 4.6 0h18.3c2.5 0 4.6 2.1 4.6 4.6v36.6zM24 10.3c0-.6-.5-1.1-1.1-1.1H4.6c-.6 0-1.1.5-1.1 1.1v25.1c0 .6.5 1.1 1.1 1.1h18.3c.6 0 1.1-.5 1.1-1.1V10.3zm-7.4-5.7h-5.7c-.3 0-.6.3-.6.6s.3.6.6.6h5.7c.3 0 .6-.3.6-.6s-.3-.6-.6-.6zm-2.9 33.7c-1.6 0-2.9 1.3-2.9 2.9s1.3 2.9 2.9 2.9 2.9-1.3 2.9-2.9-1.3-2.9-2.9-2.9z" fill="#044ff3"/></svg>