<svg xmlns="http://www.w3.org/2000/svg" xmlns:xlink="http://www.w3.org/1999/xlink"><defs><path id="a" d="M966.66 56.05a3.61 3.61 0 1 1-7.23 0 3.61 3.61 0 0 1 7.23 0zM963.04 51a5.05 5.05 0 1 0 0 10.1 5.05 5.05 0 0 0 0-10.1z"/><path id="b" d="M968.97 62.9l-3.6-3.59 1.01-1.01 3.6 3.59z"/><path id="bn2ka" d="M966.66 56.05a3.61 3.61 0 1 1-7.23 0 3.61 3.61 0 0 1 7.23 0zM963.04 51a5.05 5.05 0 1 0 0 10.1 5.05 5.05 0 0 0 0-10.1z"/><path id="bn2kb" d="M968.97 62.9l-3.6-3.59 1.01-1.01 3.6 3.59z"/></defs><symbol id="icon-menu" viewBox="0 0 512 512"><path d="M491.318 235.318H20.682C9.26 235.318 0 244.577 0 256s9.26 20.682 20.682 20.682h470.636c11.423 0 20.682-9.259 20.682-20.682 0-11.422-9.259-20.682-20.682-20.682zM491.318 78.439H20.682C9.26 78.439 0 87.699 0 99.121c0 11.422 9.26 20.682 20.682 20.682h470.636c11.423 0 20.682-9.26 20.682-20.682 0-11.422-9.259-20.682-20.682-20.682zM491.318 392.197H20.682C9.26 392.197 0 401.456 0 412.879s9.26 20.682 20.682 20.682h470.636c11.423 0 20.682-9.259 20.682-20.682s-9.259-20.682-20.682-20.682z"/></symbol><symbol id="icon-search"><use xlink:href="#a" transform="translate(-958 -51)"/><use xlink:href="#b" transform="translate(-958 -51)"/></symbol><symbol id="icon-tel" viewBox="0 0 27.4 45.7"><style/><path d="M27.4 41.2c0 2.5-2.1 4.6-4.6 4.6H4.6c-2.5 0-4.6-2.1-4.6-4.6V4.6C0 2.1 2.1 0 4.6 0h18.3c2.5 0 4.6 2.1 4.6 4.6v36.6zM24 10.3c0-.6-.5-1.1-1.1-1.1H4.6c-.6 0-1.1.5-1.1 1.1v25.1c0 .6.5 1.1 1.1 1.1h18.3c.6 0 1.1-.5 1.1-1.1V10.3zm-7.4-5.7h-5.7c-.3 0-.6.3-.6.6s.3.6.6.6h5.7c.3 0 .6-.3.6-.6s-.3-.6-.6-.6zm-2.9 33.7c-1.6 0-2.9 1.3-2.9 2.9s1.3 2.9 2.9 2.9 2.9-1.3 2.9-2.9-1.3-2.9-2.9-2.9z" fill="#044ff3"/></symbol><symbol id="sprite-svg"><symbol id="icon-menu" viewBox="0 0 512 512"><path d="M491.318 235.318H20.682C9.26 235.318 0 244.577 0 256s9.26 20.682 20.682 20.682h470.636c11.423 0 20.682-9.259 20.682-20.682 0-11.422-9.259-20.682-20.682-20.682zM491.318 78.439H20.682C9.26 78.439 0 87.699 0 99.121c0 11.422 9.26 20.682 20.682 20.682h470.636c11.423 0 20.682-9.26 20.682-20.682 0-11.422-9.259-20.682-20.682-20.682zM491.318 392.197H20.682C9.26 392.197 0 401.456 0 412.879s9.26 20.682 20.682 20.682h470.636c11.423 0 20.682-9.259 20.682-20.682s-9.259-20.682-20.682-20.682z"/></symbol><symbol id="icon-search" viewBox="0 0 12 12"><use xlink:href="#bn2ka" transform="translate(-958 -51)"/><use xlink:href="#bn2kb" transform="translate(-958 -51)"/></symbol><symbol id="icon-tel" viewBox="0 0 27.4 45.7"><style>.st2{fill:#044ff3}</style><path class="st2" d="M27.4 41.2c0 2.5-2.1 4.6-4.6 4.6H4.6c-2.5 0-4.6-2.1-4.6-4.6V4.6C0 2.1 2.1 0 4.6 0h18.3c2.5 0 4.6 2.1 4.6 4.6v36.6zM24 10.3c0-.6-.5-1.1-1.1-1.1H4.6c-.6 0-1.1.5-1.1 1.1v25.1c0 .6.5 1.1 1.1 1.1h18.3c.6 0 1.1-.5 1.1-1.1V10.3zm-7.4-5.7h-5.7c-.3 0-.6.3-.6.6s.3.6.6.6h5.7c.3 0 .6-.3.6-.6s-.3-.6-.6-.6zm-2.9 33.7c-1.6 0-2.9 1.3-2.9 2.9s1.3 2.9 2.9 2.9 2.9-1.3 2.9-2.9-1.3-2.9-2.9-2.9z"/></symbol><symbol id="sprite-svg"><symbol id="icon-menu" viewBox="0 0 512 512"><path d="M491.318 235.318H20.682C9.26 235.318 0 244.577 0 256s9.26 20.682 20.682 20.682h470.636c11.423 0 20.682-9.259 20.682-20.682 0-11.422-9.259-20.682-20.682-20.682zM491.318 78.439H20.682C9.26 78.439 0 87.699 0 99.121c0 11.422 9.26 20.682 20.682 20.682h470.636c11.423 0 20.682-9.26 20.682-20.682 0-11.422-9.259-20.682-20.682-20.682zM491.318 392.197H20.682C9.26 392.197 0 401.456 0 412.879s9.26 20.682 20.682 20.682h470.636c11.423 0 20.682-9.259 20.682-20.682s-9.259-20.682-20.682-20.682z"/></symbol><symbol id="icon-search" viewBox="0 0 12 12"><use xlink:href="#bn2ka" transform="translate(-958 -51)"/><use xlink:href="#bn2kb" transform="translate(-958 -51)"/></symbol><symbol id="icon-tel" viewBox="0 0 27.4 45.7"><style>.st2{fill:#044ff3}</style><path class="st2" d="M27.4 41.2c0 2.5-2.1 4.6-4.6 4.6H4.6c-2.5 0-4.6-2.1-4.6-4.6V4.6C0 2.1 2.1 0 4.6 0h18.3c2.5 0 4.6 2.1 4.6 4.6v36.6zM24 10.3c0-.6-.5-1.1-1.1-1.1H4.6c-.6 0-1.1.5-1.1 1.1v25.1c0 .6.5 1.1 1.1 1.1h18.3c.6 0 1.1-.5 1.1-1.1V10.3zm-7.4-5.7h-5.7c-.3 0-.6.3-.6.6s.3.6.6.6h5.7c.3 0 .6-.3.6-.6s-.3-.6-.6-.6zm-2.9 33.7c-1.6 0-2.9 1.3-2.9 2.9s1.3 2.9 2.9 2.9 2.9-1.3 2.9-2.9-1.3-2.9-2.9-2.9z"/></symbol><symbol id="sprite-svg"><symbol id="icon-menu" viewBox="0 0 512 512"><path d="M491.318 235.318H20.682C9.26 235.318 0 244.577 0 256s9.26 20.682 20.682 20.682h470.636c11.423 0 20.682-9.259 20.682-20.682 0-11.422-9.259-20.682-20.682-20.682zM491.318 78.439H20.682C9.26 78.439 0 87.699 0 99.121c0 11.422 9.26 20.682 20.682 20.682h470.636c11.423 0 20.682-9.26 20.682-20.682 0-11.422-9.259-20.682-20.682-20.682zM491.318 392.197H20.682C9.26 392.197 0 401.456 0 412.879s9.26 20.682 20.682 20.682h470.636c11.423 0 20.682-9.259 20.682-20.682s-9.259-20.682-20.682-20.682z"/></symbol><symbol id="icon-search" viewBox="0 0 12 12"><use xlink:href="#bn2ka" transform="translate(-958 -51)"/><use xlink:href="#bn2kb" transform="translate(-958 -51)"/></symbol><symbol id="icon-tel" viewBox="0 0 27.4 45.7"><style>.st2{fill:#044ff3}</style><path class="st2" d="M27.4 41.2c0 2.5-2.1 4.6-4.6 4.6H4.6c-2.5 0-4.6-2.1-4.6-4.6V4.6C0 2.1 2.1 0 4.6 0h18.3c2.5 0 4.6 2.1 4.6 4.6v36.6zM24 10.3c0-.6-.5-1.1-1.1-1.1H4.6c-.6 0-1.1.5-1.1 1.1v25.1c0 .6.5 1.1 1.1 1.1h18.3c.6 0 1.1-.5 1.1-1.1V10.3zm-7.4-5.7h-5.7c-.3 0-.6.3-.6.6s.3.6.6.6h5.7c.3 0 .6-.3.6-.6s-.3-.6-.6-.6zm-2.9 33.7c-1.6 0-2.9 1.3-2.9 2.9s1.3 2.9 2.9 2.9 2.9-1.3 2.9-2.9-1.3-2.9-2.9-2.9z"/></symbol><symbol id="sprite-svg"><symbol id="icon-menu" viewBox="0 0 512 512"><path d="M491.318 235.318H20.682C9.26 235.318 0 244.577 0 256s9.26 20.682 20.682 20.682h470.636c11.423 0 20.682-9.259 20.682-20.682 0-11.422-9.259-20.682-20.682-20.682zM491.318 78.439H20.682C9.26 78.439 0 87.699 0 99.121c0 11.422 9.26 20.682 20.682 20.682h470.636c11.423 0 20.682-9.26 20.682-20.682 0-11.422-9.259-20.682-20.682-20.682zM491.318 392.197H20.682C9.26 392.197 0 401.456 0 412.879s9.26 20.682 20.682 20.682h470.636c11.423 0 20.682-9.259 20.682-20.682s-9.259-20.682-20.682-20.682z"/></symbol><symbol id="icon-search" viewBox="0 0 12 12"><use xlink:href="#bn2ka" transform="translate(-958 -51)"/><use xlink:href="#bn2kb" transform="translate(-958 -51)"/></symbol><symbol id="icon-tel" viewBox="0 0 27.4 45.7"><style>.st2{fill:#044ff3}</style><path class="st2" d="M27.4 41.2c0 2.5-2.1 4.6-4.6 4.6H4.6c-2.5 0-4.6-2.1-4.6-4.6V4.6C0 2.1 2.1 0 4.6 0h18.3c2.5 0 4.6 2.1 4.6 4.6v36.6zM24 10.3c0-.6-.5-1.1-1.1-1.1H4.6c-.6 0-1.1.5-1.1 1.1v25.1c0 .6.5 1.1 1.1 1.1h18.3c.6 0 1.1-.5 1.1-1.1V10.3zm-7.4-5.7h-5.7c-.3 0-.6.3-.6.6s.3.6.6.6h5.7c.3 0 .6-.3.6-.6s-.3-.6-.6-.6zm-2.9 33.7c-1.6 0-2.9 1.3-2.9 2.9s1.3 2.9 2.9 2.9 2.9-1.3 2.9-2.9-1.3-2.9-2.9-2.9z"/></symbol><symbol id="sprite-svg"><symbol id="icon-menu" viewBox="0 0 512 512"><path d="M491.318 235.318H20.682C9.26 235.318 0 244.577 0 256s9.26 20.682 20.682 20.682h470.636c11.423 0 20.682-9.259 20.682-20.682 0-11.422-9.259-20.682-20.682-20.682zM491.318 78.439H20.682C9.26 78.439 0 87.699 0 99.121c0 11.422 9.26 20.682 20.682 20.682h470.636c11.423 0 20.682-9.26 20.682-20.682 0-11.422-9.259-20.682-20.682-20.682zM491.318 392.197H20.682C9.26 392.197 0 401.456 0 412.879s9.26 20.682 20.682 20.682h470.636c11.423 0 20.682-9.259 20.682-20.682s-9.259-20.682-20.682-20.682z"/></symbol><symbol id="icon-search" viewBox="0 0 12 12"><use xlink:href="#bn2ka" transform="translate(-958 -51)"/><use xlink:href="#bn2kb" transform="translate(-958 -51)"/></symbol><symbol id="icon-tel" viewBox="0 0 27.4 45.7"><style>.st2{fill:#044ff3}</style><path class="st2" d="M27.4 41.2c0 2.5-2.1 4.6-4.6 4.6H4.6c-2.5 0-4.6-2.1-4.6-4.6V4.6C0 2.1 2.1 0 4.6 0h18.3c2.5 0 4.6 2.1 4.6 4.6v36.6zM24 10.3c0-.6-.5-1.1-1.1-1.1H4.6c-.6 0-1.1.5-1.1 1.1v25.1c0 .6.5 1.1 1.1 1.1h18.3c.6 0 1.1-.5 1.1-1.1V10.3zm-7.4-5.7h-5.7c-.3 0-.6.3-.6.6s.3.6.6.6h5.7c.3 0 .6-.3.6-.6s-.3-.6-.6-.6zm-2.9 33.7c-1.6 0-2.9 1.3-2.9 2.9s1.3 2.9 2.9 2.9 2.9-1.3 2.9-2.9-1.3-2.9-2.9-2.9z"/></symbol><symbol id="sprite-svg"><symbol id="icon-menu" viewBox="0 0 512 512"><path d="M491.318 235.318H20.682C9.26 235.318 0 244.577 0 256s9.26 20.682 20.682 20.682h470.636c11.423 0 20.682-9.259 20.682-20.682 0-11.422-9.259-20.682-20.682-20.682zM491.318 78.439H20.682C9.26 78.439 0 87.699 0 99.121c0 11.422 9.26 20.682 20.682 20.682h470.636c11.423 0 20.682-9.26 20.682-20.682 0-11.422-9.259-20.682-20.682-20.682zM491.318 392.197H20.682C9.26 392.197 0 401.456 0 412.879s9.26 20.682 20.682 20.682h470.636c11.423 0 20.682-9.259 20.682-20.682s-9.259-20.682-20.682-20.682z"/></symbol><symbol id="icon-search" viewBox="0 0 12 12"><use xlink:href="#bn2ka" transform="translate(-958 -51)"/><use xlink:href="#bn2kb" transform="translate(-958 -51)"/></symbol><symbol id="icon-tel" viewBox="0 0 27.4 45.7"><style>.st2{fill:#044ff3}</style><path class="st2" d="M27.4 41.2c0 2.5-2.1 4.6-4.6 4.6H4.6c-2.5 0-4.6-2.1-4.6-4.6V4.6C0 2.1 2.1 0 4.6 0h18.3c2.5 0 4.6 2.1 4.6 4.6v36.6zM24 10.3c0-.6-.5-1.1-1.1-1.1H4.6c-.6 0-1.1.5-1.1 1.1v25.1c0 .6.5 1.1 1.1 1.1h18.3c.6 0 1.1-.5 1.1-1.1V10.3zm-7.4-5.7h-5.7c-.3 0-.6.3-.6.6s.3.6.6.6h5.7c.3 0 .6-.3.6-.6s-.3-.6-.6-.6zm-2.9 33.7c-1.6 0-2.9 1.3-2.9 2.9s1.3 2.9 2.9 2.9 2.9-1.3 2.9-2.9-1.3-2.9-2.9-2.9z"/></symbol><symbol id="sprite-svg"><symbol id="icon-menu" viewBox="0 0 512 512"><path d="M491.318 235.318H20.682C9.26 235.318 0 244.577 0 256s9.26 20.682 20.682 20.682h470.636c11.423 0 20.682-9.259 20.682-20.682 0-11.422-9.259-20.682-20.682-20.682zM491.318 78.439H20.682C9.26 78.439 0 87.699 0 99.121c0 11.422 9.26 20.682 20.682 20.682h470.636c11.423 0 20.682-9.26 20.682-20.682 0-11.422-9.259-20.682-20.682-20.682zM491.318 392.197H20.682C9.26 392.197 0 401.456 0 412.879s9.26 20.682 20.682 20.682h470.636c11.423 0 20.682-9.259 20.682-20.682s-9.259-20.682-20.682-20.682z"/></symbol><symbol id="icon-search" viewBox="0 0 12 12"><use xlink:href="#bn2ka" transform="translate(-958 -51)"/><use xlink:href="#bn2kb" transform="translate(-958 -51)"/></symbol><symbol id="icon-tel" viewBox="0 0 27.4 45.7"><style>.st2{fill:#044ff3}</style><path class="st2" d="M27.4 41.2c0 2.5-2.1 4.6-4.6 4.6H4.6c-2.5 0-4.6-2.1-4.6-4.6V4.6C0 2.1 2.1 0 4.6 0h18.3c2.5 0 4.6 2.1 4.6 4.6v36.6zM24 10.3c0-.6-.5-1.1-1.1-1.1H4.6c-.6 0-1.1.5-1.1 1.1v25.1c0 .6.5 1.1 1.1 1.1h18.3c.6 0 1.1-.5 1.1-1.1V10.3zm-7.4-5.7h-5.7c-.3 0-.6.3-.6.6s.3.6.6.6h5.7c.3 0 .6-.3.6-.6s-.3-.6-.6-.6zm-2.9 33.7c-1.6 0-2.9 1.3-2.9 2.9s1.3 2.9 2.9 2.9 2.9-1.3 2.9-2.9-1.3-2.9-2.9-2.9z"/></symbol><symbol id="sprite-svg"><symbol id="icon-menu" viewBox="0 0 512 512"><path d="M491.318 235.318H20.682C9.26 235.318 0 244.577 0 256s9.26 20.682 20.682 20.682h470.636c11.423 0 20.682-9.259 20.682-20.682 0-11.422-9.259-20.682-20.682-20.682zM491.318 78.439H20.682C9.26 78.439 0 87.699 0 99.121c0 11.422 9.26 20.682 20.682 20.682h470.636c11.423 0 20.682-9.26 20.682-20.682 0-11.422-9.259-20.682-20.682-20.682zM491.318 392.197H20.682C9.26 392.197 0 401.456 0 412.879s9.26 20.682 20.682 20.682h470.636c11.423 0 20.682-9.259 20.682-20.682s-9.259-20.682-20.682-20.682z"/></symbol><symbol id="icon-search" viewBox="0 0 12 12"><use xlink:href="#bn2ka" transform="translate(-958 -51)"/><use xlink:href="#bn2kb" transform="translate(-958 -51)"/></symbol><symbol id="icon-tel" viewBox="0 0 27.4 45.7"><style>.st2{fill:#044ff3}</style><path class="st2" d="M27.4 41.2c0 2.5-2.1 4.6-4.6 4.6H4.6c-2.5 0-4.6-2.1-4.6-4.6V4.6C0 2.1 2.1 0 4.6 0h18.3c2.5 0 4.6 2.1 4.6 4.6v36.6zM24 10.3c0-.6-.5-1.1-1.1-1.1H4.6c-.6 0-1.1.5-1.1 1.1v25.1c0 .6.5 1.1 1.1 1.1h18.3c.6 0 1.1-.5 1.1-1.1V10.3zm-7.4-5.7h-5.7c-.3 0-.6.3-.6.6s.3.6.6.6h5.7c.3 0 .6-.3.6-.6s-.3-.6-.6-.6zm-2.9 33.7c-1.6 0-2.9 1.3-2.9 2.9s1.3 2.9 2.9 2.9 2.9-1.3 2.9-2.9-1.3-2.9-2.9-2.9z"/></symbol><symbol id="sprite-svg"><symbol id="icon-menu" viewBox="0 0 512 512"><path d="M491.318 235.318H20.682C9.26 235.318 0 244.577 0 256s9.26 20.682 20.682 20.682h470.636c11.423 0 20.682-9.259 20.682-20.682 0-11.422-9.259-20.682-20.682-20.682zM491.318 78.439H20.682C9.26 78.439 0 87.699 0 99.121c0 11.422 9.26 20.682 20.682 20.682h470.636c11.423 0 20.682-9.26 20.682-20.682 0-11.422-9.259-20.682-20.682-20.682zM491.318 392.197H20.682C9.26 392.197 0 401.456 0 412.879s9.26 20.682 20.682 20.682h470.636c11.423 0 20.682-9.259 20.682-20.682s-9.259-20.682-20.682-20.682z"/></symbol><symbol id="icon-search" viewBox="0 0 12 12"><use xlink:href="#bn2ka" transform="translate(-958 -51)"/><use xlink:href="#bn2kb" transform="translate(-958 -51)"/></symbol><symbol id="icon-tel" viewBox="0 0 27.4 45.7"><style>.st2{fill:#044ff3}</style><path class="st2" d="M27.4 41.2c0 2.5-2.1 4.6-4.6 4.6H4.6c-2.5 0-4.6-2.1-4.6-4.6V4.6C0 2.1 2.1 0 4.6 0h18.3c2.5 0 4.6 2.1 4.6 4.6v36.6zM24 10.3c0-.6-.5-1.1-1.1-1.1H4.6c-.6 0-1.1.5-1.1 1.1v25.1c0 .6.5 1.1 1.1 1.1h18.3c.6 0 1.1-.5 1.1-1.1V10.3zm-7.4-5.7h-5.7c-.3 0-.6.3-.6.6s.3.6.6.6h5.7c.3 0 .6-.3.6-.6s-.3-.6-.6-.6zm-2.9 33.7c-1.6 0-2.9 1.3-2.9 2.9s1.3 2.9 2.9 2.9 2.9-1.3 2.9-2.9-1.3-2.9-2.9-2.9z"/></symbol><symbol id="sprite-svg"><symbol id="icon-menu" viewBox="0 0 512 512"><path d="M491.318 235.318H20.682C9.26 235.318 0 244.577 0 256s9.26 20.682 20.682 20.682h470.636c11.423 0 20.682-9.259 20.682-20.682 0-11.422-9.259-20.682-20.682-20.682zM491.318 78.439H20.682C9.26 78.439 0 87.699 0 99.121c0 11.422 9.26 20.682 20.682 20.682h470.636c11.423 0 20.682-9.26 20.682-20.682 0-11.422-9.259-20.682-20.682-20.682zM491.318 392.197H20.682C9.26 392.197 0 401.456 0 412.879s9.26 20.682 20.682 20.682h470.636c11.423 0 20.682-9.259 20.682-20.682s-9.259-20.682-20.682-20.682z"/></symbol><symbol id="icon-search" viewBox="0 0 12 12"><use xlink:href="#bn2ka" transform="translate(-958 -51)"/><use xlink:href="#bn2kb" transform="translate(-958 -51)"/></symbol><symbol id="icon-tel" viewBox="0 0 27.4 45.7"><style>.st2{fill:#044ff3}</style><path class="st2" d="M27.4 41.2c0 2.5-2.1 4.6-4.6 4.6H4.6c-2.5 0-4.6-2.1-4.6-4.6V4.6C0 2.1 2.1 0 4.6 0h18.3c2.5 0 4.6 2.1 4.6 4.6v36.6zM24 10.3c0-.6-.5-1.1-1.1-1.1H4.6c-.6 0-1.1.5-1.1 1.1v25.1c0 .6.5 1.1 1.1 1.1h18.3c.6 0 1.1-.5 1.1-1.1V10.3zm-7.4-5.7h-5.7c-.3 0-.6.3-.6.6s.3.6.6.6h5.7c.3 0 .6-.3.6-.6s-.3-.6-.6-.6zm-2.9 33.7c-1.6 0-2.9 1.3-2.9 2.9s1.3 2.9 2.9 2.9 2.9-1.3 2.9-2.9-1.3-2.9-2.9-2.9z"/></symbol><symbol id="sprite-svg"><symbol id="icon-menu" viewBox="0 0 512 512"><path d="M491.318 235.318H20.682C9.26 235.318 0 244.577 0 256s9.26 20.682 20.682 20.682h470.636c11.423 0 20.682-9.259 20.682-20.682 0-11.422-9.259-20.682-20.682-20.682zM491.318 78.439H20.682C9.26 78.439 0 87.699 0 99.121c0 11.422 9.26 20.682 20.682 20.682h470.636c11.423 0 20.682-9.26 20.682-20.682 0-11.422-9.259-20.682-20.682-20.682zM491.318 392.197H20.682C9.26 392.197 0 401.456 0 412.879s9.26 20.682 20.682 20.682h470.636c11.423 0 20.682-9.259 20.682-20.682s-9.259-20.682-20.682-20.682z"/></symbol><symbol id="icon-search" viewBox="0 0 12 12"><use xlink:href="#bn2ka" transform="translate(-958 -51)"/><use xlink:href="#bn2kb" transform="translate(-958 -51)"/></symbol><symbol id="icon-tel" viewBox="0 0 27.4 45.7"><style>.st2{fill:#044ff3}</style><path class="st2" d="M27.4 41.2c0 2.5-2.1 4.6-4.6 4.6H4.6c-2.5 0-4.6-2.1-4.6-4.6V4.6C0 2.1 2.1 0 4.6 0h18.3c2.5 0 4.6 2.1 4.6 4.6v36.6zM24 10.3c0-.6-.5-1.1-1.1-1.1H4.6c-.6 0-1.1.5-1.1 1.1v25.1c0 .6.5 1.1 1.1 1.1h18.3c.6 0 1.1-.5 1.1-1.1V10.3zm-7.4-5.7h-5.7c-.3 0-.6.3-.6.6s.3.6.6.6h5.7c.3 0 .6-.3.6-.6s-.3-.6-.6-.6zm-2.9 33.7c-1.6 0-2.9 1.3-2.9 2.9s1.3 2.9 2.9 2.9 2.9-1.3 2.9-2.9-1.3-2.9-2.9-2.9z"/></symbol><symbol id="sprite-svg"><symbol id="icon-menu" viewBox="0 0 512 512"><path d="M491.318 235.318H20.682C9.26 235.318 0 244.577 0 256s9.26 20.682 20.682 20.682h470.636c11.423 0 20.682-9.259 20.682-20.682 0-11.422-9.259-20.682-20.682-20.682zM491.318 78.439H20.682C9.26 78.439 0 87.699 0 99.121c0 11.422 9.26 20.682 20.682 20.682h470.636c11.423 0 20.682-9.26 20.682-20.682 0-11.422-9.259-20.682-20.682-20.682zM491.318 392.197H20.682C9.26 392.197 0 401.456 0 412.879s9.26 20.682 20.682 20.682h470.636c11.423 0 20.682-9.259 20.682-20.682s-9.259-20.682-20.682-20.682z"/></symbol><symbol id="icon-search" viewBox="0 0 12 12"><use xlink:href="#bn2ka" transform="translate(-958 -51)"/><use xlink:href="#bn2kb" transform="translate(-958 -51)"/></symbol><symbol id="icon-tel" viewBox="0 0 27.4 45.7"><style>.st2{fill:#044ff3}</style><path class="st2" d="M27.4 41.2c0 2.5-2.1 4.6-4.6 4.6H4.6c-2.5 0-4.6-2.1-4.6-4.6V4.6C0 2.1 2.1 0 4.6 0h18.3c2.5 0 4.6 2.1 4.6 4.6v36.6zM24 10.3c0-.6-.5-1.1-1.1-1.1H4.6c-.6 0-1.1.5-1.1 1.1v25.1c0 .6.5 1.1 1.1 1.1h18.3c.6 0 1.1-.5 1.1-1.1V10.3zm-7.4-5.7h-5.7c-.3 0-.6.3-.6.6s.3.6.6.6h5.7c.3 0 .6-.3.6-.6s-.3-.6-.6-.6zm-2.9 33.7c-1.6 0-2.9 1.3-2.9 2.9s1.3 2.9 2.9 2.9 2.9-1.3 2.9-2.9-1.3-2.9-2.9-2.9z"/></symbol><symbol id="sprite-svg"><symbol id="icon-menu" viewBox="0 0 512 512"><path d="M491.318 235.318H20.682C9.26 235.318 0 244.577 0 256s9.26 20.682 20.682 20.682h470.636c11.423 0 20.682-9.259 20.682-20.682 0-11.422-9.259-20.682-20.682-20.682zM491.318 78.439H20.682C9.26 78.439 0 87.699 0 99.121c0 11.422 9.26 20.682 20.682 20.682h470.636c11.423 0 20.682-9.26 20.682-20.682 0-11.422-9.259-20.682-20.682-20.682zM491.318 392.197H20.682C9.26 392.197 0 401.456 0 412.879s9.26 20.682 20.682 20.682h470.636c11.423 0 20.682-9.259 20.682-20.682s-9.259-20.682-20.682-20.682z"/></symbol><symbol id="icon-search" viewBox="0 0 12 12"><use xlink:href="#bn2ka" transform="translate(-958 -51)"/><use xlink:href="#bn2kb" transform="translate(-958 -51)"/></symbol><symbol id="icon-tel" viewBox="0 0 27.4 45.7"><style>.st2{fill:#044ff3}</style><path class="st2" d="M27.4 41.2c0 2.5-2.1 4.6-4.6 4.6H4.6c-2.5 0-4.6-2.1-4.6-4.6V4.6C0 2.1 2.1 0 4.6 0h18.3c2.5 0 4.6 2.1 4.6 4.6v36.6zM24 10.3c0-.6-.5-1.1-1.1-1.1H4.6c-.6 0-1.1.5-1.1 1.1v25.1c0 .6.5 1.1 1.1 1.1h18.3c.6 0 1.1-.5 1.1-1.1V10.3zm-7.4-5.7h-5.7c-.3 0-.6.3-.6.6s.3.6.6.6h5.7c.3 0 .6-.3.6-.6s-.3-.6-.6-.6zm-2.9 33.7c-1.6 0-2.9 1.3-2.9 2.9s1.3 2.9 2.9 2.9 2.9-1.3 2.9-2.9-1.3-2.9-2.9-2.9z"/></symbol><symbol id="sprite-svg"><symbol id="icon-menu" viewBox="0 0 512 512"><path d="M491.318 235.318H20.682C9.26 235.318 0 244.577 0 256s9.26 20.682 20.682 20.682h470.636c11.423 0 20.682-9.259 20.682-20.682 0-11.422-9.259-20.682-20.682-20.682zM491.318 78.439H20.682C9.26 78.439 0 87.699 0 99.121c0 11.422 9.26 20.682 20.682 20.682h470.636c11.423 0 20.682-9.26 20.682-20.682 0-11.422-9.259-20.682-20.682-20.682zM491.318 392.197H20.682C9.26 392.197 0 401.456 0 412.879s9.26 20.682 20.682 20.682h470.636c11.423 0 20.682-9.259 20.682-20.682s-9.259-20.682-20.682-20.682z"/></symbol><symbol id="icon-search" viewBox="0 0 12 12"><use xlink:href="#bn2ka" transform="translate(-958 -51)"/><use xlink:href="#bn2kb" transform="translate(-958 -51)"/></symbol><symbol id="icon-tel" viewBox="0 0 27.4 45.7"><style>.st2{fill:#044ff3}</style><path class="st2" d="M27.4 41.2c0 2.5-2.1 4.6-4.6 4.6H4.6c-2.5 0-4.6-2.1-4.6-4.6V4.6C0 2.1 2.1 0 4.6 0h18.3c2.5 0 4.6 2.1 4.6 4.6v36.6zM24 10.3c0-.6-.5-1.1-1.1-1.1H4.6c-.6 0-1.1.5-1.1 1.1v25.1c0 .6.5 1.1 1.1 1.1h18.3c.6 0 1.1-.5 1.1-1.1V10.3zm-7.4-5.7h-5.7c-.3 0-.6.3-.6.6s.3.6.6.6h5.7c.3 0 .6-.3.6-.6s-.3-.6-.6-.6zm-2.9 33.7c-1.6 0-2.9 1.3-2.9 2.9s1.3 2.9 2.9 2.9 2.9-1.3 2.9-2.9-1.3-2.9-2.9-2.9z"/></symbol><symbol id="sprite-svg"><symbol id="icon-menu" viewBox="0 0 512 512"><path d="M491.318 235.318H20.682C9.26 235.318 0 244.577 0 256s9.26 20.682 20.682 20.682h470.636c11.423 0 20.682-9.259 20.682-20.682 0-11.422-9.259-20.682-20.682-20.682zM491.318 78.439H20.682C9.26 78.439 0 87.699 0 99.121c0 11.422 9.26 20.682 20.682 20.682h470.636c11.423 0 20.682-9.26 20.682-20.682 0-11.422-9.259-20.682-20.682-20.682zM491.318 392.197H20.682C9.26 392.197 0 401.456 0 412.879s9.26 20.682 20.682 20.682h470.636c11.423 0 20.682-9.259 20.682-20.682s-9.259-20.682-20.682-20.682z"/></symbol><symbol id="icon-search" viewBox="0 0 12 12"><use xlink:href="#bn2ka" transform="translate(-958 -51)"/><use xlink:href="#bn2kb" transform="translate(-958 -51)"/></symbol><symbol id="icon-tel" viewBox="0 0 27.4 45.7"><style>.st2{fill:#044ff3}</style><path class="st2" d="M27.4 41.2c0 2.5-2.1 4.6-4.6 4.6H4.6c-2.5 0-4.6-2.1-4.6-4.6V4.6C0 2.1 2.1 0 4.6 0h18.3c2.5 0 4.6 2.1 4.6 4.6v36.6zM24 10.3c0-.6-.5-1.1-1.1-1.1H4.6c-.6 0-1.1.5-1.1 1.1v25.1c0 .6.5 1.1 1.1 1.1h18.3c.6 0 1.1-.5 1.1-1.1V10.3zm-7.4-5.7h-5.7c-.3 0-.6.3-.6.6s.3.6.6.6h5.7c.3 0 .6-.3.6-.6s-.3-.6-.6-.6zm-2.9 33.7c-1.6 0-2.9 1.3-2.9 2.9s1.3 2.9 2.9 2.9 2.9-1.3 2.9-2.9-1.3-2.9-2.9-2.9z"/></symbol><symbol id="sprite-svg"><symbol id="icon-menu" viewBox="0 0 512 512"><path d="M491.318 235.318H20.682C9.26 235.318 0 244.577 0 256s9.26 20.682 20.682 20.682h470.636c11.423 0 20.682-9.259 20.682-20.682 0-11.422-9.259-20.682-20.682-20.682zM491.318 78.439H20.682C9.26 78.439 0 87.699 0 99.121c0 11.422 9.26 20.682 20.682 20.682h470.636c11.423 0 20.682-9.26 20.682-20.682 0-11.422-9.259-20.682-20.682-20.682zM491.318 392.197H20.682C9.26 392.197 0 401.456 0 412.879s9.26 20.682 20.682 20.682h470.636c11.423 0 20.682-9.259 20.682-20.682s-9.259-20.682-20.682-20.682z"/></symbol><symbol id="icon-search" viewBox="0 0 12 12"><use xlink:href="#bn2ka" transform="translate(-958 -51)"/><use xlink:href="#bn2kb" transform="translate(-958 -51)"/></symbol><symbol id="icon-tel" viewBox="0 0 27.4 45.7"><style>.st2{fill:#044ff3}</style><path class="st2" d="M27.4 41.2c0 2.5-2.1 4.6-4.6 4.6H4.6c-2.5 0-4.6-2.1-4.6-4.6V4.6C0 2.1 2.1 0 4.6 0h18.3c2.5 0 4.6 2.1 4.6 4.6v36.6zM24 10.3c0-.6-.5-1.1-1.1-1.1H4.6c-.6 0-1.1.5-1.1 1.1v25.1c0 .6.5 1.1 1.1 1.1h18.3c.6 0 1.1-.5 1.1-1.1V10.3zm-7.4-5.7h-5.7c-.3 0-.6.3-.6.6s.3.6.6.6h5.7c.3 0 .6-.3.6-.6s-.3-.6-.6-.6zm-2.9 33.7c-1.6 0-2.9 1.3-2.9 2.9s1.3 2.9 2.9 2.9 2.9-1.3 2.9-2.9-1.3-2.9-2.9-2.9z"/></symbol><symbol id="sprite-svg"><symbol id="icon-menu" viewBox="0 0 512 512"><path d="M491.318 235.318H20.682C9.26 235.318 0 244.577 0 256s9.26 20.682 20.682 20.682h470.636c11.423 0 20.682-9.259 20.682-20.682 0-11.422-9.259-20.682-20.682-20.682zM491.318 78.439H20.682C9.26 78.439 0 87.699 0 99.121c0 11.422 9.26 20.682 20.682 20.682h470.636c11.423 0 20.682-9.26 20.682-20.682 0-11.422-9.259-20.682-20.682-20.682zM491.318 392.197H20.682C9.26 392.197 0 401.456 0 412.879s9.26 20.682 20.682 20.682h470.636c11.423 0 20.682-9.259 20.682-20.682s-9.259-20.682-20.682-20.682z"/></symbol><symbol id="icon-search" viewBox="0 0 12 12"><use xlink:href="#bn2ka" transform="translate(-958 -51)"/><use xlink:href="#bn2kb" transform="translate(-958 -51)"/></symbol><symbol id="icon-tel" viewBox="0 0 27.4 45.7"><style>.st2{fill:#044ff3}</style><path class="st2" d="M27.4 41.2c0 2.5-2.1 4.6-4.6 4.6H4.6c-2.5 0-4.6-2.1-4.6-4.6V4.6C0 2.1 2.1 0 4.6 0h18.3c2.5 0 4.6 2.1 4.6 4.6v36.6zM24 10.3c0-.6-.5-1.1-1.1-1.1H4.6c-.6 0-1.1.5-1.1 1.1v25.1c0 .6.5 1.1 1.1 1.1h18.3c.6 0 1.1-.5 1.1-1.1V10.3zm-7.4-5.7h-5.7c-.3 0-.6.3-.6.6s.3.6.6.6h5.7c.3 0 .6-.3.6-.6s-.3-.6-.6-.6zm-2.9 33.7c-1.6 0-2.9 1.3-2.9 2.9s1.3 2.9 2.9 2.9 2.9-1.3 2.9-2.9-1.3-2.9-2.9-2.9z"/></symbol><symbol id="sprite-svg"><symbol id="icon-menu" viewBox="0 0 512 512"><path d="M491.318 235.318H20.682C9.26 235.318 0 244.577 0 256s9.26 20.682 20.682 20.682h470.636c11.423 0 20.682-9.259 20.682-20.682 0-11.422-9.259-20.682-20.682-20.682zM491.318 78.439H20.682C9.26 78.439 0 87.699 0 99.121c0 11.422 9.26 20.682 20.682 20.682h470.636c11.423 0 20.682-9.26 20.682-20.682 0-11.422-9.259-20.682-20.682-20.682zM491.318 392.197H20.682C9.26 392.197 0 401.456 0 412.879s9.26 20.682 20.682 20.682h470.636c11.423 0 20.682-9.259 20.682-20.682s-9.259-20.682-20.682-20.682z"/></symbol><symbol id="icon-search" viewBox="0 0 12 12"><use xlink:href="#bn2ka" transform="translate(-958 -51)"/><use xlink:href="#bn2kb" transform="translate(-958 -51)"/></symbol><symbol id="icon-tel" viewBox="0 0 27.4 45.7"><style>.st2{fill:#044ff3}</style><path class="st2" d="M27.4 41.2c0 2.5-2.1 4.6-4.6 4.6H4.6c-2.5 0-4.6-2.1-4.6-4.6V4.6C0 2.1 2.1 0 4.6 0h18.3c2.5 0 4.6 2.1 4.6 4.6v36.6zM24 10.3c0-.6-.5-1.1-1.1-1.1H4.6c-.6 0-1.1.5-1.1 1.1v25.1c0 .6.5 1.1 1.1 1.1h18.3c.6 0 1.1-.5 1.1-1.1V10.3zm-7.4-5.7h-5.7c-.3 0-.6.3-.6.6s.3.6.6.6h5.7c.3 0 .6-.3.6-.6s-.3-.6-.6-.6zm-2.9 33.7c-1.6 0-2.9 1.3-2.9 2.9s1.3 2.9 2.9 2.9 2.9-1.3 2.9-2.9-1.3-2.9-2.9-2.9z"/></symbol><symbol id="sprite-svg"><symbol id="icon-menu" viewBox="0 0 512 512"><path d="M491.318 235.318H20.682C9.26 235.318 0 244.577 0 256s9.26 20.682 20.682 20.682h470.636c11.423 0 20.682-9.259 20.682-20.682 0-11.422-9.259-20.682-20.682-20.682zM491.318 78.439H20.682C9.26 78.439 0 87.699 0 99.121c0 11.422 9.26 20.682 20.682 20.682h470.636c11.423 0 20.682-9.26 20.682-20.682 0-11.422-9.259-20.682-20.682-20.682zM491.318 392.197H20.682C9.26 392.197 0 401.456 0 412.879s9.26 20.682 20.682 20.682h470.636c11.423 0 20.682-9.259 20.682-20.682s-9.259-20.682-20.682-20.682z"/></symbol><symbol id="icon-search" viewBox="0 0 12 12"><use xlink:href="#bn2ka" transform="translate(-958 -51)"/><use xlink:href="#bn2kb" transform="translate(-958 -51)"/></symbol><symbol id="icon-tel" viewBox="0 0 27.4 45.7"><style>.st2{fill:#044ff3}</style><path class="st2" d="M27.4 41.2c0 2.5-2.1 4.6-4.6 4.6H4.6c-2.5 0-4.6-2.1-4.6-4.6V4.6C0 2.1 2.1 0 4.6 0h18.3c2.5 0 4.6 2.1 4.6 4.6v36.6zM24 10.3c0-.6-.5-1.1-1.1-1.1H4.6c-.6 0-1.1.5-1.1 1.1v25.1c0 .6.5 1.1 1.1 1.1h18.3c.6 0 1.1-.5 1.1-1.1V10.3zm-7.4-5.7h-5.7c-.3 0-.6.3-.6.6s.3.6.6.6h5.7c.3 0 .6-.3.6-.6s-.3-.6-.6-.6zm-2.9 33.7c-1.6 0-2.9 1.3-2.9 2.9s1.3 2.9 2.9 2.9 2.9-1.3 2.9-2.9-1.3-2.9-2.9-2.9z"/></symbol><symbol id="sprite-svg"><symbol id="icon-menu" viewBox="0 0 512 512"><path d="M491.318 235.318H20.682C9.26 235.318 0 244.577 0 256s9.26 20.682 20.682 20.682h470.636c11.423 0 20.682-9.259 20.682-20.682 0-11.422-9.259-20.682-20.682-20.682zM491.318 78.439H20.682C9.26 78.439 0 87.699 0 99.121c0 11.422 9.26 20.682 20.682 20.682h470.636c11.423 0 20.682-9.26 20.682-20.682 0-11.422-9.259-20.682-20.682-20.682zM491.318 392.197H20.682C9.26 392.197 0 401.456 0 412.879s9.26 20.682 20.682 20.682h470.636c11.423 0 20.682-9.259 20.682-20.682s-9.259-20.682-20.682-20.682z"/></symbol><symbol id="icon-search" viewBox="0 0 12 12"><use xlink:href="#bn2ka" transform="translate(-958 -51)"/><use xlink:href="#bn2kb" transform="translate(-958 -51)"/></symbol><symbol id="icon-tel" viewBox="0 0 27.4 45.7"><style>.st2{fill:#044ff3}</style><path class="st2" d="M27.4 41.2c0 2.5-2.1 4.6-4.6 4.6H4.6c-2.5 0-4.6-2.1-4.6-4.6V4.6C0 2.1 2.1 0 4.6 0h18.3c2.5 0 4.6 2.1 4.6 4.6v36.6zM24 10.3c0-.6-.5-1.1-1.1-1.1H4.6c-.6 0-1.1.5-1.1 1.1v25.1c0 .6.5 1.1 1.1 1.1h18.3c.6 0 1.1-.5 1.1-1.1V10.3zm-7.4-5.7h-5.7c-.3 0-.6.3-.6.6s.3.6.6.6h5.7c.3 0 .6-.3.6-.6s-.3-.6-.6-.6zm-2.9 33.7c-1.6 0-2.9 1.3-2.9 2.9s1.3 2.9 2.9 2.9 2.9-1.3 2.9-2.9-1.3-2.9-2.9-2.9z"/></symbol><symbol id="sprite-svg"><symbol id="icon-menu" viewBox="0 0 512 512"><path d="M491.318 235.318H20.682C9.26 235.318 0 244.577 0 256s9.26 20.682 20.682 20.682h470.636c11.423 0 20.682-9.259 20.682-20.682 0-11.422-9.259-20.682-20.682-20.682zM491.318 78.439H20.682C9.26 78.439 0 87.699 0 99.121c0 11.422 9.26 20.682 20.682 20.682h470.636c11.423 0 20.682-9.26 20.682-20.682 0-11.422-9.259-20.682-20.682-20.682zM491.318 392.197H20.682C9.26 392.197 0 401.456 0 412.879s9.26 20.682 20.682 20.682h470.636c11.423 0 20.682-9.259 20.682-20.682s-9.259-20.682-20.682-20.682z"/></symbol><symbol id="icon-search" viewBox="0 0 12 12"><use xlink:href="#bn2ka" transform="translate(-958 -51)"/><use xlink:href="#bn2kb" transform="translate(-958 -51)"/></symbol><symbol id="icon-tel" viewBox="0 0 27.4 45.7"><style>.st2{fill:#044ff3}</style><path class="st2" d="M27.4 41.2c0 2.5-2.1 4.6-4.6 4.6H4.6c-2.5 0-4.6-2.1-4.6-4.6V4.6C0 2.1 2.1 0 4.6 0h18.3c2.5 0 4.6 2.1 4.6 4.6v36.6zM24 10.3c0-.6-.5-1.1-1.1-1.1H4.6c-.6 0-1.1.5-1.1 1.1v25.1c0 .6.5 1.1 1.1 1.1h18.3c.6 0 1.1-.5 1.1-1.1V10.3zm-7.4-5.7h-5.7c-.3 0-.6.3-.6.6s.3.6.6.6h5.7c.3 0 .6-.3.6-.6s-.3-.6-.6-.6zm-2.9 33.7c-1.6 0-2.9 1.3-2.9 2.9s1.3 2.9 2.9 2.9 2.9-1.3 2.9-2.9-1.3-2.9-2.9-2.9z"/></symbol></symbol></symbol></symbol></symbol></symbol></symbol></symbol></symbol></symbol></symbol></symbol></symbol></symbol></symbol></symbol></symbol></symbol></symbol></symbol></symbol></symbol></svg>