<?xml version="1.0" standalone="no"?>
<!DOCTYPE svg PUBLIC "-//W3C//DTD SVG 20010904//EN"
 "http://www.w3.org/TR/2001/REC-SVG-20010904/DTD/svg10.dtd">
<svg version="1.0" xmlns="http://www.w3.org/2000/svg"
 width="30.000000pt" height="30.000000pt" viewBox="0 0 30.000000 30.000000"
 preserveAspectRatio="xMidYMid meet">
<metadata>
Created by potrace 1.13, written by Peter Selinger 2001-2015
</metadata>
<g transform="translate(0.000000,30.000000) scale(0.100000,-0.100000)"
 id="loop">
<path d="M34 266 c-28 -28 -34 -42 -34 -76 0 -35 6 -48 35 -77 34 -34 38 -35
88 -30 51 5 53 4 100 -41 44 -44 48 -45 64 -29 16 16 15 19 -27 62 -43 44 -45
48 -45 106 0 56 -3 63 -33 90 -47 43 -102 41 -148 -5z m133 -18 c25 -23 31
-74 13 -108 -12 -22 -64 -42 -88 -33 -61 22 -82 95 -40 140 28 30 83 31 115 1z"/>
</g>
</svg>
